<?xml version="1.0" encoding="UTF-8"?>
<svg width="271px" height="271px" viewBox="0 0 271 271" version="1.1" xmlns="http://www.w3.org/2000/svg" xmlns:xlink="http://www.w3.org/1999/xlink">
    <!-- Generator: Sketch 47.1 (45422) - http://www.bohemiancoding.com/sketch -->
    <title>401kk</title>
    <desc>Created with Sketch.</desc>
    <defs></defs>
    <g id="Symbols" stroke="none" stroke-width="1" fill="none" fill-rule="evenodd">
        <g id="401kk">
            <circle id="Oval-4" fill="#FAFAFA" cx="136" cy="136" r="135"></circle>
            <g id="Group-12" transform="translate(36.000000, 36.000000)">
                <path d="M192.541504,118.586917 C192.541504,118.586917 199.851278,118.997444 198.27985,128.150827 L193.634737,156.295188 C193.634737,156.295188 193.191128,163.296692 184.890376,161.75985 L166.550526,158.46812 C164.995639,160.296692 163.317444,162.065113 161.529474,163.767368 C161.595639,166.430526 161.998647,183.328271 161.705414,191.955338 C161.609173,194.776391 159.293383,197.00797 156.470827,197.00797 L144.846767,197.00797 C142.98812,197.00797 141.269323,196.023008 140.32797,194.418496 L133.094887,182.078647 C133.004662,181.925263 132.956541,181.756842 132.882857,181.59594 C120.299398,186.543308 105.911429,189.355338 90.621203,189.355338 C75.2978947,189.355338 60.8768421,186.532782 48.2723308,181.564361 C48.2347368,181.641053 48.2106767,181.725263 48.1670677,181.800451 L40.3730827,195.095188 C39.6783459,196.28015 38.4076692,197.00797 37.0347368,197.00797 L23.3054135,197.00797 C21.221203,197.00797 19.5129323,195.364361 19.4392481,193.283158 C19.1490226,185.077143 19.5249624,165.979398 19.5730827,163.636541 C8.0993985,152.653083 1.27082707,138.937293 1.27082707,124.050075 C1.27082707,87.9839098 41.2738346,58.744812 90.621203,58.744812 C116.201654,58.744812 139.252782,66.613985 155.541504,79.2064662 L170.409173,78.6936842 C170.409173,78.6936842 179.699398,77.0530827 176.693383,83.8846617 L170.574586,94.8996992 C175.397143,101.952331 179.973083,116.94782 179.973083,116.94782 L192.541504,118.586917 Z" id="Fill-1" fill="#4A4A4A"></path>
                <path d="M133.173233,180.871278 L133.398797,181.356992 C133.433383,181.429173 133.461955,181.502857 133.490526,181.576541 C133.519098,181.648722 133.544662,181.722406 133.585263,181.790075 L140.818346,194.131429 C141.652932,195.555489 143.197293,196.438195 144.846917,196.438195 L156.470977,196.438195 C159.001805,196.438195 161.051429,194.460752 161.137143,191.937444 C161.427368,183.423158 161.040902,166.988571 160.959699,163.782556 L160.953684,163.529925 L161.137143,163.355489 C162.919098,161.657744 164.594286,159.889323 166.117594,158.09985 L166.329624,157.850226 L184.991278,161.199098 C187.535639,161.671278 189.54015,161.353985 190.95218,160.259248 C192.873985,158.767519 193.064962,156.281805 193.066466,156.256241 L197.717594,128.057744 C198.218346,125.141955 197.840902,122.872782 196.597293,121.310376 C195.009323,119.316391 192.534135,119.155489 192.510075,119.153985 L192.46797,119.150977 L179.535639,117.463759 L179.428872,117.113383 C179.382256,116.964511 174.822857,102.120902 170.10406,95.2201504 L169.905564,94.9314286 L176.195789,83.6081203 C176.849925,82.1178947 176.902556,80.9690226 176.329624,80.2381955 C175.191278,78.7885714 171.741654,79.035188 170.507068,79.2532331 L155.355188,79.7810526 L155.194286,79.6562406 C138.225865,66.5374436 115.293534,59.3133835 90.6213534,59.3133835 C41.6664662,59.3133835 1.8393985,88.353985 1.8393985,124.050226 C1.8393985,138.325414 8.10857143,151.872782 19.9657143,163.224662 L20.1461654,163.399098 L20.1416541,163.647218 C20.0980451,165.817143 19.717594,185.081805 20.0078195,193.262256 C20.0694737,195.044211 21.5190977,196.438195 23.3055639,196.438195 L37.0348872,196.438195 C38.2018045,196.438195 39.2920301,195.814135 39.8815038,194.80812 L47.9972932,180.844211 L48.4815038,181.035188 C61.3476692,186.105865 75.9190977,188.787068 90.6213534,188.787068 C105.287519,188.787068 119.830376,186.117895 132.675489,181.068271 L133.173233,180.871278 Z M156.470977,197.576541 L144.846917,197.576541 C142.794286,197.576541 140.875489,196.477293 139.837895,194.707368 L132.603308,182.366015 C132.595789,182.352481 132.588271,182.338947 132.580752,182.325414 C119.729624,187.296842 105.234887,189.92391 90.6213534,189.92391 C75.9596992,189.92391 61.4228571,187.283308 48.5446617,182.280301 L40.8634586,195.38406 C40.0709774,196.73594 38.6033083,197.576541 37.0348872,197.576541 L23.3055639,197.576541 C20.9025564,197.576541 18.955188,195.69985 18.8709774,193.302857 C18.5882707,185.344962 18.9371429,166.979549 18.998797,163.874286 C7.02736842,152.33594 0.701052632,138.570526 0.701052632,124.050226 C0.701052632,87.7269173 41.0393985,58.1765414 90.6213534,58.1765414 C115.464962,58.1765414 138.577744,65.4396992 155.726617,78.6306767 L170.388271,78.1239098 C170.519098,78.0953383 175.434887,77.2592481 177.224361,79.5359398 C178.076992,80.6216541 178.072481,82.1615038 177.213835,84.1148872 L171.240902,94.8712782 C175.628872,101.486316 179.683008,114.110376 180.40782,116.430677 L192.597293,118.02015 C192.902556,118.041203 195.654436,118.29985 197.487519,120.600602 C198.941654,122.429173 199.397293,125.002105 198.839398,128.247218 L194.195789,156.387068 C194.194286,156.451729 193.986767,159.33594 191.660451,161.149474 C189.980752,162.457744 187.66797,162.853233 184.786767,162.317895 L166.771729,159.086316 C165.332632,160.76 163.764211,162.411128 162.10406,164.005113 C162.197293,167.744962 162.558195,183.63218 162.273985,191.975038 C162.167218,195.116391 159.618346,197.576541 156.470977,197.576541 L156.470977,197.576541 Z" id="Fill-3" fill="#FEFEFE"></path>
                <path d="M123.645263,35.4457143 C123.645263,53.553985 108.965564,68.235188 90.8557895,68.235188 C72.7475188,68.235188 58.0663158,53.553985 58.0663158,35.4457143 C58.0663158,17.3374436 72.7475188,2.6562406 90.8557895,2.6562406 C108.965564,2.6562406 123.645263,17.3374436 123.645263,35.4457143" id="Fill-5" fill="#4A4A4A"></path>
                <path d="M90.8554887,4.16090226 C73.6043609,4.16090226 59.5697744,18.1954887 59.5697744,35.4466165 C59.5697744,52.6962406 73.6043609,66.7308271 90.8554887,66.7308271 C108.106617,66.7308271 122.141203,52.6962406 122.141203,35.4466165 C122.141203,18.1954887 108.106617,4.16090226 90.8554887,4.16090226 M90.8554887,69.7383459 C71.947218,69.7383459 56.5622556,54.3548872 56.5622556,35.4466165 C56.5622556,16.5368421 71.947218,1.15338346 90.8554887,1.15338346 C109.763759,1.15338346 125.148722,16.5368421 125.148722,35.4466165 C125.148722,54.3548872 109.763759,69.7383459 90.8554887,69.7383459" id="Fill-7" fill="#FEFEFE"></path>
                <path d="M119.810977,80.9218045 C119.586917,80.9218045 119.362857,80.8556391 119.165865,80.7203008 C119.069624,80.6541353 109.334286,74.0917293 90.576391,74.0917293 C71.8651128,74.0917293 63.7297744,79.8255639 63.6500752,79.8857143 C63.1418045,80.2511278 62.4305263,80.1413534 62.0606015,79.6345865 C61.6921805,79.1278195 61.8004511,78.4180451 62.307218,78.0466165 C62.6530827,77.7924812 71.0290226,71.8165414 90.576391,71.8165414 C110.108722,71.8165414 120.048571,78.562406 120.462105,78.8511278 C120.977895,79.2090226 121.104211,79.9157895 120.74782,80.4315789 C120.526767,80.7503759 120.17188,80.9218045 119.810977,80.9218045" id="Fill-9" fill="#FEFEFE"></path>
                <path d="M120.011429,79.4765414 C120.011429,79.4765414 120.011429,79.4780451 120.012932,79.4780451 C120.011429,79.4780451 120.011429,79.4765414 120.011429,79.4765414 M119.60391,80.0870677 C119.60391,80.0870677 119.605414,80.0870677 119.605414,80.0885714 C119.605414,80.0870677 119.60391,80.0870677 119.60391,80.0870677 M119.809925,82.4254135 C119.27609,82.4254135 118.757293,82.2645113 118.313684,81.9592481 C118.226466,81.9006015 108.671579,75.5953383 90.5768421,75.5953383 C72.5663158,75.5953383 64.602406,81.0524812 64.5257143,81.1081203 C63.352782,81.9532331 61.7016541,81.6915789 60.846015,80.5201504 C59.9903759,79.3442105 60.2475188,77.6915789 61.4174436,76.8344361 C61.7738346,76.5697744 70.4926316,70.3126316 90.5768421,70.3126316 C110.618947,70.3126316 120.894135,77.3186466 121.321203,77.6178947 C121.895639,78.0133835 122.285113,78.616391 122.411429,79.3096241 C122.537744,80.0043609 122.385865,80.7051128 121.984361,81.2870677 C121.494135,81.9983459 120.680602,82.4254135 119.809925,82.4254135" id="Fill-11" fill="#FEFEFE"></path>
                <path d="M67.8148872,120.076692 L61.9141353,129.18797 L67.8148872,129.18797 L67.8148872,120.076692 Z M67.8148872,137.810526 L67.8148872,133.287218 L57.3577444,133.287218 L57.3577444,129.615038 L66.0449624,115.945865 L72.4690226,115.945865 L72.4690226,129.18797 L75.2885714,129.18797 L75.2885714,133.287218 L72.4690226,133.287218 L72.4690226,137.810526 L67.8148872,137.810526 Z" id="Fill-13" fill="#FEFEFE"></path>
                <path d="M91.224812,126.895038 C91.224812,122.861955 90.0774436,119.747669 86.9300752,119.747669 C83.8157895,119.747669 82.6368421,122.861955 82.6368421,126.895038 C82.6368421,130.926617 83.8157895,134.073985 86.9300752,134.073985 C90.0443609,134.073985 91.224812,130.926617 91.224812,126.895038 M77.8834586,126.895038 C77.8834586,121.257444 80.6699248,115.618346 86.9300752,115.618346 C93.1917293,115.618346 95.9781955,121.257444 95.9781955,126.895038 C95.9781955,132.532632 93.1917293,138.203308 86.9300752,138.203308 C80.6699248,138.203308 77.8834586,132.532632 77.8834586,126.895038" id="Fill-15" fill="#FEFEFE"></path>
                <polygon id="Fill-17" fill="#FEFEFE" points="104.408271 137.810526 104.408271 121.944361 100.769173 125.64812 98.1150376 122.863158 104.997744 115.944361 109.06391 115.944361 109.06391 137.810526"></polygon>
                <polygon id="Fill-19" fill="#FEFEFE" points="124.211278 137.810526 120.015789 131.712782 118.113534 133.745865 118.113534 137.810526 113.951128 137.810526 113.951128 115.944361 118.113534 115.944361 118.113534 129.025564 124.113534 121.977444 129.226316 121.977444 122.966165 129.156391 129.423308 137.810526"></polygon>
                <path d="M92.7633083,37.2365414 L92.7633083,44.3688722 C95.5918797,43.9598496 96.7392481,42.2786466 96.7392481,40.6801504 C96.7392481,38.8350376 95.0174436,37.932782 92.7633083,37.2365414 L92.7633083,37.2365414 Z M89.483609,31.1703759 L89.483609,24.7342857 C87.1873684,25.0215038 85.752782,26.2921805 85.752782,28.095188 C85.752782,29.6936842 87.3106767,30.5132331 89.483609,31.1703759 L89.483609,31.1703759 Z M89.483609,48.6335338 C85.2610526,48.3057143 82.1046617,46.6245113 79.9317293,44.3688722 L82.6384962,40.6395489 C84.1542857,42.3207519 86.5317293,43.8786466 89.483609,44.3282707 L89.483609,36.376391 C85.2610526,35.3102256 80.833985,33.7929323 80.833985,28.4651128 C80.833985,24.2831579 84.1948872,20.9628571 89.483609,20.5117293 L89.483609,16.7403008 L92.7633083,16.7403008 L92.7633083,20.5523308 C96.083609,20.9222556 98.8715789,22.2335338 101.002406,24.2831579 L98.2971429,27.8485714 C96.7392481,26.2921805 94.7723308,25.3493233 92.7633083,24.938797 L92.7633083,32.0305263 C97.0264662,33.1372932 101.658045,34.7357895 101.658045,40.2290226 C101.658045,44.4109774 98.9121805,48.0996992 92.7633083,48.6335338 L92.7633083,52.3222556 L89.483609,52.3222556 L89.483609,48.6335338 Z" id="Fill-21" fill="#FEFEFE"></path>
            </g>
        </g>
    </g>
</svg>