<?xml version="1.0" encoding="UTF-8"?>
<svg width="270px" height="270px" viewBox="0 0 270 270" version="1.1" xmlns="http://www.w3.org/2000/svg" xmlns:xlink="http://www.w3.org/1999/xlink">
    <!-- Generator: Sketch 47.1 (45422) - http://www.bohemiancoding.com/sketch -->
    <title>associate discount</title>
    <desc>Created with Sketch.</desc>
    <defs></defs>
    <g id="Symbols" stroke="none" stroke-width="1" fill="none" fill-rule="evenodd">
        <g id="associate-discount">
            <circle id="Oval-4" fill="#FAFAFA" cx="135" cy="135" r="135"></circle>
            <g id="Page-1" transform="translate(35.000000, 40.000000)">
                <path d="M190.113478,109.611884 L190.123623,109.611884 L190.113478,109.611884 Z M71.4294203,189.122029 C65.8526087,189.122029 60.3685507,186.464058 56.9902899,181.524928 L3.0584058,102.706087 C0.423623188,98.8568116 -0.553188406,94.2118841 0.306231884,89.6278261 C1.16565217,85.0423188 3.7584058,81.0655072 7.60913043,78.4321739 L118.664203,2.44086957 C121.178696,0.72057971 124.412029,0.253913043 127.312029,1.18869565 L186.471449,20.2872464 C194.707681,23.3162319 200.117826,31.1886957 199.996087,39.8973913 L196.687391,100.91913 C196.47,104.936522 194.358406,108.691594 191.038116,110.964058 L81.2642029,186.077101 C78.2555072,188.135072 74.8250725,189.122029 71.4294203,189.122029 L71.4294203,189.122029 Z" id="Fill-1" fill="#4A4A4A"></path>
                <path d="M79.3215942,152.011159 C79.2215942,152.011159 79.1201449,152.002464 79.0186957,151.983623 C78.1288406,151.815507 77.5447826,150.961884 77.7114493,150.072029 L95.6302899,54.4908696 C95.7955072,53.603913 96.652029,53.0169565 97.5404348,53.1836232 C98.4288406,53.3502899 99.0143478,54.2053623 98.8476812,55.0937681 L80.9288406,150.674928 C80.7824638,151.461884 80.094058,152.011159 79.3215942,152.011159" id="Fill-3" fill="#FEFEFE"></path>
                <path d="M97.2386957,53.6982609 C96.7242029,53.6982609 96.2618841,54.0663768 96.1633333,54.5910145 L78.2444928,150.172174 C78.1328986,150.764928 78.5256522,151.337391 79.1184058,151.448986 C79.7604348,151.570725 80.2850725,151.157681 80.3952174,150.575072 L98.314058,54.9953623 C98.4242029,54.4011594 98.0328986,53.8286957 97.4401449,53.7171014 C97.3734783,53.7055072 97.3053623,53.6982609 97.2386957,53.6982609 M79.3213043,152.554783 C79.187971,152.554783 79.0502899,152.543188 78.914058,152.517101 C77.7372464,152.295362 76.956087,151.153333 77.1749275,149.973623 L95.0952174,54.3910145 C95.3184058,53.2113043 96.4546377,52.4388406 97.6386957,52.6475362 C98.8227536,52.8721739 99.603913,54.0142029 99.3821739,55.1953623 L81.4618841,150.775072 C81.2691304,151.805507 80.3691304,152.554783 79.3213043,152.554783" id="Fill-5" fill="#FEFEFE"></path>
                <path d="M57.914058,84.8852174 C55.5184058,84.8852174 53.1792754,85.604058 51.1589855,86.9866667 C45.6952174,90.7257971 44.2923188,98.2127536 48.03,103.676522 C49.8415942,106.322899 52.5749275,108.104058 55.7256522,108.696812 C58.8807246,109.285217 62.072029,108.614203 64.7184058,106.802609 C67.3647826,104.992464 69.1488406,102.25913 69.7401449,99.1069565 C70.33,95.9547826 69.6589855,92.7605797 67.8473913,90.1142029 C66.0372464,87.4678261 63.303913,85.6852174 60.1517391,85.093913 C59.4053623,84.9547826 58.656087,84.8852174 57.914058,84.8852174 M57.9705797,112.17942 C57.0256522,112.17942 56.072029,112.092464 55.1242029,111.914203 C51.1111594,111.162029 47.6328986,108.893913 45.3285507,105.524348 C40.5705797,98.5707246 42.356087,89.0417391 49.3097101,84.2837681 C52.6792754,81.9808696 56.7430435,81.1257971 60.7546377,81.8765217 C64.7662319,82.6286957 68.2444928,84.8968116 70.5502899,88.2663768 C72.8546377,91.6344928 73.7097101,95.6982609 72.9575362,99.7113043 C72.2053623,103.722899 69.9357971,107.201159 66.5676812,109.506957 C63.9966667,111.264928 61.0198551,112.17942 57.9705797,112.17942" id="Fill-7" fill="#FEFEFE"></path>
                <path d="M57.9143478,85.427971 C55.6143478,85.427971 53.3853623,86.1221739 51.4665217,87.4366667 C46.2491304,91.0062319 44.9085507,98.1526087 48.4781159,103.368551 C50.2071014,105.894638 52.8157971,107.596087 55.8273913,108.162754 C58.8346377,108.723623 61.8853623,108.083043 64.4114493,106.354058 C66.9404348,104.625072 68.6418841,102.014928 69.2056522,99.0062319 C69.7694203,95.996087 69.1273913,92.9453623 67.3984058,90.4207246 C65.6708696,87.8946377 63.0621739,86.1931884 60.052029,85.627971 C59.3433333,85.496087 58.6244928,85.427971 57.9143478,85.427971 M57.9621739,109.446812 C57.1868116,109.446812 56.4056522,109.375797 55.625942,109.22942 C52.3302899,108.61058 49.4752174,106.748261 47.5810145,103.983043 C45.6911594,101.219275 44.9911594,97.8830435 45.61,94.5844928 C46.2288406,91.285942 48.0911594,88.427971 50.852029,86.5395652 C53.5998551,84.6584058 56.9694203,83.943913 60.252029,84.5598551 C63.5476812,85.1786957 66.4042029,87.0410145 68.2955072,89.8062319 C70.1882609,92.5728986 70.8911594,95.9105797 70.2723188,99.2076812 C69.6578261,102.500435 67.7926087,105.358406 65.025942,107.252609 C62.9128986,108.697536 60.467971,109.446812 57.9621739,109.446812 M57.9114493,82.154058 C54.9694203,82.154058 52.0969565,83.0366667 49.6157971,84.7337681 C42.91,89.3236232 41.1882609,98.5105797 45.7766667,105.216377 C47.9984058,108.465652 51.3549275,110.652609 55.2244928,111.380145 C59.0607246,112.098986 63.0273913,111.268551 66.2607246,109.058406 C69.51,106.835217 71.6998551,103.478696 72.4244928,99.6105797 C73.1491304,95.7424638 72.3244928,91.8221739 70.1013043,88.5728986 C67.8781159,85.3250725 64.5230435,83.1366667 60.6534783,82.4091304 C59.7389855,82.2395652 58.8215942,82.154058 57.9114493,82.154058 M57.9708696,112.723623 C56.9882609,112.723623 55.9969565,112.632319 55.0230435,112.448261 C50.867971,111.667101 47.2650725,109.317826 44.8795652,105.83087 C39.952029,98.6308696 41.8027536,88.7642029 49.0027536,83.8352174 C52.4882609,81.4497101 56.6926087,80.5627536 60.8534783,81.3424638 C65.01,82.1221739 68.6114493,84.4714493 70.9984058,87.9584058 C73.3868116,91.4482609 74.2708696,95.6584058 73.4911594,99.812029 C72.7143478,103.964203 70.3636232,107.567101 66.8752174,109.955507 C64.2244928,111.767101 61.1447826,112.723623 57.9708696,112.723623" id="Fill-9" fill="#FEFEFE"></path>
                <path d="M128.937391,122.376087 L128.947536,122.376087 L128.937391,122.376087 Z M121.208406,99.1065217 C118.811304,99.1065217 116.473623,99.8253623 114.453333,101.207971 C111.805507,103.019565 110.022899,105.752899 109.431594,108.903623 C108.84029,112.055797 109.512754,115.25 111.324348,117.897826 C115.062029,123.358696 122.548986,124.763043 128.012754,121.023913 C133.476522,117.286232 134.87942,109.799275 131.141739,104.335507 C129.330145,101.68913 126.596812,99.9065217 123.444638,99.3152174 C122.69971,99.176087 121.950435,99.1065217 121.208406,99.1065217 L121.208406,99.1065217 Z M121.254783,126.392029 C116.376522,126.392029 111.577971,124.065942 108.621449,119.745652 C106.317101,116.377536 105.462029,112.312319 106.214203,108.300725 C106.964928,104.28913 109.234493,100.81087 112.604058,98.5050725 C115.972174,96.2021739 120.038841,95.3471014 124.047536,96.0978261 C128.06058,96.85 131.538841,99.1181159 133.843188,102.487681 C138.601159,109.441304 136.814203,118.968841 129.862029,123.728261 C127.228696,125.52971 124.227246,126.392029 121.254783,126.392029 L121.254783,126.392029 Z" id="Fill-11" fill="#FEFEFE"></path>
                <path d="M128.948696,122.919565 L128.937101,121.832609 L128.948696,121.832609 L128.948696,122.919565 Z M121.208116,99.65 C118.906667,99.65 116.677681,100.344203 114.76029,101.657246 C112.234203,103.384783 110.531304,105.993478 109.964638,109.003623 C109.402319,112.013768 110.044348,115.063043 111.771884,117.58913 C115.34,122.805072 122.490725,124.145652 127.706667,120.576087 C130.228406,118.85 131.929855,116.241304 132.493623,113.228261 C133.058841,110.213768 132.41971,107.164493 130.692174,104.642754 C128.966087,102.116667 126.355942,100.415217 123.345797,99.8485507 C122.635652,99.7166667 121.915362,99.65 121.208116,99.65 L121.208116,99.65 Z M121.251594,123.661594 C117.245797,123.661594 113.303768,121.751449 110.874783,118.203623 C108.983478,115.436957 108.28058,112.097826 108.897971,108.803623 C109.516812,105.507971 111.38058,102.652899 114.145797,100.760145 C116.889275,98.8818841 120.235652,98.1702899 123.544348,98.7804348 C126.841449,99.3992754 129.69942,101.263043 131.589275,104.028261 C133.48058,106.79058 134.18058,110.12971 133.563188,113.426812 C132.944348,116.726812 131.082029,119.583333 128.31971,121.473188 C126.157391,122.951449 123.693623,123.661594 121.251594,123.661594 L121.251594,123.661594 Z M121.202319,96.376087 C118.261739,96.376087 115.392174,97.2572464 112.911014,98.9543478 C109.661739,101.177536 107.473333,104.531159 106.747246,108.400725 C106.022609,112.27029 106.847246,116.18913 109.070435,119.438406 C111.818261,123.452899 116.371884,125.848551 121.254493,125.848551 C124.228406,125.848551 127.097971,124.960145 129.554493,123.278986 C136.26029,118.69058 137.983478,109.500725 133.395072,102.794928 C131.171884,99.5456522 127.816812,97.3572464 123.947246,96.6311594 C123.032754,96.4601449 122.113913,96.376087 121.202319,96.376087 L121.202319,96.376087 Z M121.254493,126.935507 C116.012464,126.935507 111.122609,124.363043 108.173333,120.051449 C105.787826,116.564493 104.90087,112.355797 105.67913,108.200725 C106.457391,104.047101 108.809565,100.444203 112.296522,98.0572464 C115.786377,95.6702899 119.993623,94.7818841 124.147246,95.5644928 C128.303768,96.3413043 131.905217,98.692029 134.293623,102.180435 C139.21971,109.381884 137.368986,119.25 130.168986,124.176087 C127.529855,125.981884 124.448696,126.935507 121.254493,126.935507 L121.254493,126.935507 Z" id="Fill-13" fill="#FEFEFE"></path>
                <path d="M159.128696,45.0727536 L159.128696,45.0727536 C157.438841,45.0727536 155.806957,45.5785507 154.408406,46.5350725 C150.601159,49.1408696 149.622899,54.3597101 152.228696,58.1669565 C153.789565,60.4481159 156.372174,61.8104348 159.14029,61.8104348 C160.828696,61.8104348 162.462029,61.3046377 163.85913,60.3481159 C165.704058,59.0857971 166.947536,57.18 167.35913,54.9828986 C167.770725,52.7857971 167.302609,50.5611594 166.04029,48.7162319 C164.47942,46.4350725 161.895362,45.0727536 159.128696,45.0727536" id="Fill-15" fill="#FEFEFE"></path>
            </g>
        </g>
    </g>
</svg>