<?xml version="1.0" encoding="UTF-8"?>
<svg width="271px" height="271px" viewBox="0 0 271 271" version="1.1" xmlns="http://www.w3.org/2000/svg" xmlns:xlink="http://www.w3.org/1999/xlink">
    <!-- Generator: Sketch 47.1 (45422) - http://www.bohemiancoding.com/sketch -->
    <title>health </title>
    <desc>Created with Sketch.</desc>
    <defs></defs>
    <g id="Symbols" stroke="none" stroke-width="1" fill="none" fill-rule="evenodd">
        <g id="health-">
            <g id="Group-7" transform="translate(1.000000, 1.000000)" fill="#FAFAFA">
                <circle id="Oval-4" cx="135" cy="135" r="135"></circle>
            </g>
            <g id="Page-1" transform="translate(75.000000, 43.000000)">
                <path d="M74.7039667,200 C61.399045,200 49.2769814,191.123456 45.2241891,178.4139 C43.1388584,171.872568 42.9358617,135.574877 43.0132505,100.930549 C43.0197987,97.5940223 43.0257517,95.1145741 43.0174176,93.846241 C43.0067022,92.0355286 44.4628023,90.5591841 46.2713192,90.5472637 L46.2921547,90.5472637 C48.0911468,90.5472637 49.5543905,92.0015554 49.5657012,93.8051155 C49.5740353,95.083581 49.5680824,97.5821019 49.5609388,100.945449 C49.459738,146.75087 50.0990886,172.144949 51.4623222,176.419613 C54.6584799,186.443498 64.2159975,193.443767 74.7039667,193.443767 C88.3499945,193.443767 99.4517164,182.328568 99.4517164,168.665974 C99.4517164,166.855857 100.917937,165.387857 102.725858,165.387857 C104.53378,165.387857 106,166.855857 106,168.665974 C106,185.943436 91.9604799,200 74.7039667,200" id="Fill-1" fill="#4A4A4A"></path>
                <path d="M14.272759,13.9303483 L3.66940416,13.9303483 C1.65123187,13.9303483 0,12.3682609 0,10.4590429 L0,0 L14.272759,0 C17.9727416,0 21,2.86382689 21,6.36405976 L21,7.5662885 C21,11.0665214 17.9727416,13.9303483 14.272759,13.9303483" id="Fill-3" fill="#4A4A4A"></path>
                <path d="M80.727241,13.9303483 L91.3305958,13.9303483 C93.3487681,13.9303483 95,12.3682609 95,10.4590429 L95,0 L80.727241,0 C77.0272584,0 74,2.86382689 74,6.36405976 L74,7.5662885 C74,11.0665214 77.0272584,13.9303483 80.727241,13.9303483" id="Fill-5" fill="#4A4A4A"></path>
                <path d="M103.5,142.811367 C97.4485593,142.811367 92.5254237,147.710009 92.5254237,153.731343 C92.5254237,159.752677 97.4485593,164.65132 103.5,164.65132 C109.551441,164.65132 114.474576,159.752677 114.474576,153.731343 C114.474576,147.710009 109.551441,142.811367 103.5,142.811367 M103.5,171.144279 C93.8500847,171.144279 86,163.333249 86,153.731343 C86,144.129438 93.8500847,136.318408 103.5,136.318408 C113.149915,136.318408 121,144.129438 121,153.731343 C121,163.333249 113.149915,171.144279 103.5,171.144279" id="Fill-7" fill="#4A4A4B"></path>
                <path d="M47.5983101,94.5273632 L47.4010886,94.5273632 C34.941264,94.5273632 22.9696826,88.4886647 13.6912561,77.5238325 C4.99066426,67.2411263 0,54.0804581 0,41.4147946 L0,0 L6.61413336,0 L6.61413336,41.4147946 C6.61413336,52.5559872 11.0383873,64.1742495 18.7522706,73.289988 C26.6248932,82.5934457 36.6032153,87.783821 46.8996171,87.9470291 L46.8996171,87.9458334 L48.0997816,87.9470291 C58.3961834,87.783821 68.3745055,82.5934457 76.2471281,73.289988 C83.9616127,64.1742495 88.3858666,52.5559872 88.3858666,41.4147946 L88.3858666,0 L95,0 L95,41.4147946 C95,54.0804581 90.0093357,67.2411263 81.3081427,77.5238325 C72.0297161,88.4886647 60.0581348,94.5273632 47.5983101,94.5273632" id="Fill-9" fill="#4A4A4B"></path>
            </g>
        </g>
    </g>
</svg>