<svg id="Layer_1" data-name="Layer 1" xmlns="http://www.w3.org/2000/svg" viewBox="0 0 270 270"><defs><style>.cls-1{fill:#fafafa;}.cls-2{fill:none;}.cls-3{fill:#4b4a4a;}.cls-4{fill:#be1e2d;}.cls-5{fill:#fff;}</style></defs><title>newtechnology</title><g id="Layer_1_copy" data-name="Layer 1 copy"><g id="Symbols"><g id="_401kk" data-name="401kk"><circle id="Oval-4" class="cls-1" cx="135" cy="135" r="135"/></g></g><line class="cls-2" x1="131" y1="70.7" x2="131" y2="48.8"/><path class="cls-3" d="M132,74.6a2.9,2.9,0,0,1-2.9-2.9V49.8a2.9,2.9,0,1,1,5.8,0V71.7A2.9,2.9,0,0,1,132,74.6Z" transform="translate(-1 -1)"/><path class="cls-3" d="M68.5,138.3H46.6a3.3,3.3,0,0,1,0-6.6H68.5a3.3,3.3,0,0,1,0,6.6Z" transform="translate(-1 -1)"/><path class="cls-3" d="M87.2,93.4a3.25,3.25,0,0,1-2.4-1L69.3,76.9A3.32,3.32,0,1,1,74,72.2L89.5,87.7a3.32,3.32,0,0,1,0,4.7A3.45,3.45,0,0,1,87.2,93.4Z" transform="translate(-1 -1)"/><path class="cls-3" d="M179.4,93.4a3.25,3.25,0,0,1-2.4-1,3.32,3.32,0,0,1,0-4.7l15.5-15.5a3.32,3.32,0,0,1,4.7,4.7L181.7,92.4A3.45,3.45,0,0,1,179.4,93.4Z" transform="translate(-1 -1)"/><path class="cls-3" d="M71.7,200.6a3.25,3.25,0,0,1-2.4-1,3.32,3.32,0,0,1,0-4.7l15.5-15.5a3.32,3.32,0,1,1,4.7,4.7L74,199.7A3.34,3.34,0,0,1,71.7,200.6Z" transform="translate(-1 -1)"/><path class="cls-3" d="M194.9,200.6a3.25,3.25,0,0,1-2.4-1L177,184.2a3.32,3.32,0,1,1,4.7-4.7L197.2,195a3.25,3.25,0,0,1-2.3,5.6Z" transform="translate(-1 -1)"/><path class="cls-3" d="M219.9,138.3H198a3.3,3.3,0,0,1,0-6.6h21.9a3.3,3.3,0,0,1,0,6.6Z" transform="translate(-1 -1)"/><path class="cls-4" d="M130.8,193h.5" transform="translate(-1 -1)"/><path class="cls-3" d="M131.5,193c5.1,0,10.1-1.7,13.5-5.6,4-4.6,4.2-10.8,6.3-16.3,2.6-6.9,8-12,12-18,3.9-5.8,7.7-12.4,9-19.4a21.86,21.86,0,0,0,.3-3.6,41.31,41.31,0,0,0-41.3-41.3h-1A41.31,41.31,0,0,0,89,130.1a21.86,21.86,0,0,0,.3,3.6c1.3,7,5.1,13.5,9,19.4s9.4,11.1,12,18c2.1,5.5,2.4,11.7,6.3,16.3,3.4,4,8.4,5.6,13.5,5.6" transform="translate(-1 -1)"/><path class="cls-3" d="M140,207H122.2a4.48,4.48,0,0,1-4.5-4.5h0a4.48,4.48,0,0,1,4.5-4.5H140a4.48,4.48,0,0,1,4.5,4.5h0A4.61,4.61,0,0,1,140,207Z" transform="translate(-1 -1)"/><path class="cls-3" d="M138.3,219.7H123.8a4.48,4.48,0,0,1-4.5-4.5h0a4.48,4.48,0,0,1,4.5-4.5h14.5a4.48,4.48,0,0,1,4.5,4.5h0A4.61,4.61,0,0,1,138.3,219.7Z" transform="translate(-1 -1)"/><path class="cls-5" d="M99.7,127.2h-.2a2.06,2.06,0,0,1-1.9-2.3c1.9-23.2,20.1-29.2,29.1-29.2h.2a2.1,2.1,0,1,1,0,4.2h0c-1.3,0-23,.4-25.1,25.4A2.08,2.08,0,0,1,99.7,127.2Z" transform="translate(-1 -1)"/></g></svg>