<?xml version="1.0" encoding="iso-8859-1"?>
<!-- Generator: Adobe Illustrator 16.0.4, SVG Export Plug-In . SVG Version: 6.00 Build 0)  -->
<!DOCTYPE svg PUBLIC "-//W3C//DTD SVG 1.1//EN" "http://www.w3.org/Graphics/SVG/1.1/DTD/svg11.dtd">
<svg version="1.1" id="code-fork" xmlns="http://www.w3.org/2000/svg" xmlns:xlink="http://www.w3.org/1999/xlink" x="0px" y="0px"
	 width="14px" height="14px" viewBox="0 0 14 14" style="enable-background:new 0 0 14 14;" xml:space="preserve">
<path d="M13.907,2.997c0-0.974-0.79-1.764-1.764-1.764c-0.975,0-1.764,0.79-1.764,1.764c0,0.755,0.487,1.428,1.209,1.679
	l-0.017,0.185c-0.067,0.604-0.134,1.092-0.453,1.544c-0.252,0.37-0.689,0.555-1.462,0.606c-0.42,0.034-0.873,0.05-1.293,0.067
	C7.944,7.095,7.474,7.112,7.02,7.145C6.231,7.196,5.256,7.363,4.652,8.12C4.484,8.338,4.332,8.74,4.181,9.329V3.366
	c0.94-0.236,1.528-1.192,1.293-2.134C5.24,0.292,4.282-0.296,3.341-0.06C2.4,0.175,1.813,1.132,2.048,2.073
	c0.151,0.638,0.655,1.143,1.293,1.293v7.155c-0.941,0.236-1.528,1.192-1.293,2.134c0.235,0.94,1.192,1.528,2.133,1.293
	s1.528-1.193,1.293-2.133c-0.101-0.438-0.37-0.823-0.756-1.058c0.017-0.051,0.017-0.118,0.034-0.168
	c0.235-1.142,0.42-1.797,0.538-1.965c0.403-0.487,1.125-0.604,1.78-0.654c0.437-0.034,0.891-0.051,1.327-0.067
	c0.437-0.018,0.874-0.034,1.311-0.067c0.706-0.05,1.562-0.201,2.1-0.958c0.453-0.638,0.52-1.293,0.604-1.931
	c0-0.068,0.017-0.134,0.034-0.219C13.268,4.592,13.907,3.854,13.907,2.997z M2.821,1.653c0-0.505,0.42-0.924,0.924-0.924
	s0.924,0.419,0.924,0.924c0,0.503-0.42,0.922-0.924,0.922S2.821,2.156,2.821,1.653z M3.745,13.158c-0.504,0-0.924-0.419-0.924-0.924
	c0-0.503,0.403-0.923,0.924-0.923c0.521,0,0.924,0.419,0.924,0.923C4.669,12.739,4.249,13.158,3.745,13.158z M12.143,3.92
	c-0.504,0-0.924-0.42-0.924-0.924c0-0.504,0.403-0.924,0.924-0.924s0.923,0.419,0.923,0.924C13.066,3.5,12.647,3.92,12.143,3.92z"/>
</svg>
