<svg version="1.1" id="Layer_1" xmlns="http://www.w3.org/2000/svg" xmlns:xlink="http://www.w3.org/1999/xlink" x="0px" y="0px"
	 viewBox="0 0 32 32" style="enable-background:new 0 0 32 32;" xml:space="preserve">
<style type="text/css">
	.st0{fill:#9B9B9B;}
	.st1{filter:url(#Adobe_OpacityMaskFilter);}
	.st2{fill:#FFFFFF;}
	.st3{mask:url(#avatar--default-b);}
</style>
<path class="st0" d="M16,31.9C7.2,31.9,0.1,24.8,0.1,16S7.2,0.1,16,0.1S31.9,7.2,31.9,16S24.8,31.9,16,31.9z"/>
<g transform="translate(1 1)">
	<defs>
		<filter id="Adobe_OpacityMaskFilter" filterUnits="userSpaceOnUse" x="3.6" y="5.3" width="22.7" height="25.1">
			<feColorMatrix  type="matrix" values="1 0 0 0 0  0 1 0 0 0  0 0 1 0 0  0 0 0 1 0"/>
		</filter>
	</defs>
	<mask maskUnits="userSpaceOnUse" x="3.6" y="5.3" width="22.7" height="25.1" id="avatar--default-b">
		<g class="st1">
			<circle id="avatar--default-a" class="st2" cx="15" cy="15" r="15"/>
		</g>
	</mask>
	<g class="st3">
		<g transform="translate(3 5.25)">
			<path class="st2" d="M2.5,15.2C1.1,16.1,0.6,20,0.6,20s4.1,5.1,11.7,5.1s11-5.1,11-5.1s-0.3-3.7-2-4.8c-1.4-0.9-4.4-1.3-4.4-1.3
				s-2,2.1-4.9,2.1s-4.7-2.1-4.7-2.1C7.3,13.8,3.9,14.3,2.5,15.2z"/>
			<path class="st2" d="M12,0.1c-3.2,0-5.8,3.1-5.8,7s2.6,7,5.8,7c3.2,0,5.8-3.1,5.8-7S15.2,0.1,12,0.1L12,0.1L12,0.1z"/>
		</g>
	</g>
</g>
</svg>
