<svg id="Layer_1" data-name="Layer 1" xmlns="http://www.w3.org/2000/svg" viewBox="0 0 270 270"><defs><style>.cls-1{fill:#fafafa;}.cls-2{fill:#4a4a4a;}.cls-3{fill:#fff;}</style></defs><title>domestic partner</title><g id="domestic-partner"><circle id="Oval-4" class="cls-1" cx="135" cy="135" r="135"/><g id="Group-5"><path id="Fill-36" class="cls-2" d="M83.2,50C63.8,50,48.7,61.8,40.1,78.9,29.4,100,36.8,122.8,51.2,140c10.8,13,51.8,51.8,72.1,70.8a16.87,16.87,0,0,0,23.1,0c19.4-18.3,57.6-54.7,69.1-67.7,13.8-15.7,24.8-36.1,16.8-57-7.5-19.6-24.4-34.5-45.7-34.5-28.6,0-51.4,14.9-51.7,43.4C134.9,66,112,50,83.2,50Z" transform="translate(-1 -1)"/></g></g><path class="cls-3" d="M218.3,98h.2a2.12,2.12,0,0,0,2-2.2c-1.1-23.2-19-29.9-28-30.3h-.1a2.27,2.27,0,0,0-2.3,1.8,2.11,2.11,0,0,0,2,2.4h0c1.3,0,23,1.2,24.2,26.3A2.15,2.15,0,0,0,218.3,98Z" transform="translate(-1 -1)"/></svg>