<?xml version="1.0" encoding="utf-8"?>
<!-- Generator: Adobe Illustrator 21.0.0, SVG Export Plug-In . SVG Version: 6.00 Build 0)  -->
<!DOCTYPE svg PUBLIC "-//W3C//DTD SVG 1.1//EN" "http://www.w3.org/Graphics/SVG/1.1/DTD/svg11.dtd">
<svg version="1.1" id="Layer_2" xmlns="http://www.w3.org/2000/svg" xmlns:xlink="http://www.w3.org/1999/xlink" x="0px" y="0px"
	 viewBox="0 0 646.5 138.1" style="enable-background:new 0 0 646.5 138.1;" xml:space="preserve">
<style type="text/css">
	.Arched_x0020_Green{fill:url(#SVGID_1_);stroke:#FFFFFF;stroke-width:0.25;stroke-miterlimit:1;}
</style>
<linearGradient id="SVGID_1_" gradientUnits="userSpaceOnUse" x1="-62.9854" y1="375.0522" x2="-62.2783" y2="374.3451">
	<stop  offset="0" style="stop-color:#20AC4B"/>
	<stop  offset="0.9831" style="stop-color:#19361A"/>
</linearGradient>
<g>
	<path d="M295.3,3.4h-79.7c-0.8,0-1.4,0.6-1.4,1.4v2.3c0,0.8,0.6,1.4,1.4,1.4l8.4,0c6.9,0,12.4,4.9,12.8,11.4V118l0,0.3
		c-0.1,6.1-4.9,11.1-11.1,11.4l-10.1,0c-0.8,0-1.4,0.6-1.4,1.4v2.3c0,0.8,0.6,1.4,1.4,1.4h79.7v0c0.8,0,1.4-0.6,1.4-1.4V131
		c0-0.8-0.6-1.4-1.4-1.4h-9.8l-0.3,0c-6.2-0.2-11.1-5.3-11.1-11.5V19.9c0.4-6.5,5.9-11.4,12.8-11.4l8.3,0c0.8,0,1.4-0.6,1.4-1.4V4.8
		C296.7,4,296.1,3.4,295.3,3.4z"/>
	<path d="M180.4,70.9h-73.6c-0.8,0-1.4,0.6-1.4,1.4l0,2.3c0,0.8,0.6,1.4,1.4,1.4l11,0c5.3,0,9.6,4.6,9.6,10.2l0,31.7
		C124.7,128.2,102.9,133,89,133c-46.6,0-50.5-27.8-50.5-58.7c0-29.7,5.3-69.2,51.1-69.2c39.7,0,57.8,30.8,68.6,49.2
		c0.2,0.5,0.7,0.7,1.2,0.7h1.6c0.8,0,1.4-0.6,1.4-1.4V1.4c0-0.8-0.6-1.4-1.4-1.4h-1.4c-0.5,0-0.9,0.2-1.1,0.6l-0.5,0.7
		c-3.3,4.4-7.8,9-16.3,9c-4.8,0-11.1-1.8-18.3-3.9C113.6,3.5,101.3,0,88.2,0C44.4,0,0,24.9,0,72.6c0,31.8,29.4,65.5,83.9,65.5
		c18.8,0,35.2-4.5,48.4-8.1c9.2-2.5,17.1-4.7,23.3-4.7l6.3,0c0.8,0,1.4-0.6,1.4-1.4V86.4c0-5.6,5.6-10.4,12-10.4h5
		c0.8,0,1.4-0.6,1.4-1.4v-2.3C181.7,71.5,181.1,70.9,180.4,70.9z"/>
	<path d="M473.2,84.6h-1.7c-0.5,0-0.9,0.2-1.2,0.6l-30.3,44c-0.2,0.2-0.4,0.4-0.7,0.4h-31.5c-5.2-0.3-10.8-4.2-10.8-9.8V18
		c0-5.5,5.7-9.3,11.1-9.5l13.5,0c0.8,0,1.4-0.6,1.4-1.4V4.8c0-0.8-0.6-1.4-1.4-1.4H334c-0.8,0-1.4,0.6-1.4,1.4v2.3
		c0,0.8,0.6,1.4,1.4,1.4l16.2,0c4.8,0,9.5,4.7,9.5,9.5v100.2c0,6.3-5.1,11.4-11.4,11.5H334c-0.8,0-1.4,0.6-1.4,1.4v2.3
		c0,0.8,0.6,1.4,1.4,1.4h139.3c0.8,0,1.4-0.6,1.4-1.4V86C474.6,85.2,474,84.6,473.2,84.6z"/>
	<path d="M645.2,3.4h-153c-0.8,0-1.4,0.6-1.4,1.4v45.1c0,0.8,0.6,1.4,1.4,1.4h1.7c0.5,0,0.9-0.2,1.2-0.6l28.9-41.8
		c0.2-0.2,0.4-0.4,0.7-0.4h24.5c0.5,0,0.8,0.4,0.8,0.9l0,107.2c0.1,7-5.5,12.9-12.6,13.1h-10.6l-0.3,0v0c-0.6,0.1-1.1,0.7-1.1,1.3
		v2.3c0,0.8,0.6,1.4,1.4,1.4h83.7c0.8,0,1.4-0.6,1.4-1.4V131c0-0.7-0.5-1.2-1.1-1.4l-10.9,0c-7-0.2-12.5-5.9-12.5-13.1V9.3
		c0-0.5,0.4-0.9,0.8-0.9h24.5c0.3,0,0.6,0.2,0.7,0.4l28.9,41.8c0.3,0.4,0.7,0.6,1.2,0.6h1.7c0.8,0,1.4-0.6,1.4-1.4V4.8
		C646.5,4,645.9,3.4,645.2,3.4z"/>
</g>
</svg>
