<svg xmlns="http://www.w3.org/2000/svg"><symbol id="avatar-default" viewBox="0 0 32 32"><style>.st0{fill:#9b9b9b}.st1{fill:#fff}</style><path id="circle" class="st0" d="M16 31.9C7.2 31.9.1 24.8.1 16S7.2.1 16 .1 31.9 7.2 31.9 16 24.8 31.9 16 31.9z"/><path id="head" class="st1" d="M16 5.4c-3.2 0-5.8 3.1-5.8 7s2.6 7 5.8 7 5.8-3.1 5.8-7-2.6-7-5.8-7z"/><path id="body" class="st1" d="M6.5 20.4c-1.4.9-1.9 4.8-1.9 4.8s4.1 5.4 11.7 5.4 11-5.4 11-5.4-.3-3.7-2-4.8c-1.4-.9-4.4-1.3-4.4-1.3s-2 2.1-4.9 2.1-4.7-2.1-4.7-2.1c0-.1-3.4.4-4.8 1.3z"/></symbol><symbol id="facebook" viewBox="0 0 36 36"><path d="M29.1-76.1H6.8c-1.9 0-3.5-.7-4.8-2S0-81 0-82.9v-22.4c0-1.9.7-3.5 2-4.8s2.9-2 4.8-2h22.4c1.9 0 3.5.7 4.8 2 1.3 1.3 2 2.9 2 4.8v22.4c0 1.9-.7 3.5-2 4.8-1.3 1.4-3 2-4.9 2zM6.8-109.9c-1.3 0-2.4.4-3.4 1.4s-1.4 2-1.4 3.4v22.4c0 1.3.4 2.4 1.4 3.4s2 1.4 3.4 1.4h22.4c1.3 0 2.4-.4 3.4-1.4 1-1 1.4-2 1.4-3.4v-22.4c0-1.3-.4-2.4-1.4-3.4s-2-1.4-3.4-1.4H6.8z" transform="translate(0 112)"/><path d="M24.6-77v-13.1H29l.7-5.2h-5.1v-3.3c0-1.5.4-2.5 2.5-2.5h2.7v-4.6c-.5-.1-2.1-.2-4-.2-3.9 0-6.6 2.4-6.6 6.8v3.8H15v5.2h4.4V-77h5.2z" transform="translate(0 112)"/></symbol><symbol id="linkedin" viewBox="0 0 36 36"><style>.st0{fill:#9b9b9b}</style><path class="st0" d="M29.2-20H6.8c-1.9 0-3.5-.7-4.8-2s-2-2.9-2-4.8v-22.5c0-1.9.7-3.5 2-4.8s2.9-2 4.8-2h22.5c1.9 0 3.5.7 4.8 2s2 2.9 2 4.8v22.5c0 1.9-.7 3.5-2 4.8s-3 2-4.9 2zM6.8-54c-1.3 0-2.4.4-3.4 1.4-1 1-1.4 2-1.4 3.4v22.5c0 1.3.4 2.4 1.4 3.4 1 1 2 1.4 3.4 1.4h22.5c1.3 0 2.4-.4 3.4-1.4s1.4-2 1.4-3.4v-22.5c0-1.3-.4-2.4-1.4-3.4-1-1-2-1.4-3.4-1.4H6.8z" transform="translate(0 56)"/><path class="st0" d="M11.9-27.3H6.8v-15.5h5.1zM11.5-45.7c-.5.5-1.2.8-2.1.8-.8 0-1.5-.3-2.1-.8-.5-.5-.8-1.1-.8-1.9 0-.8.3-1.4.8-1.9s1.2-.8 2.1-.8 1.6.3 2.1.8.8 1.1.8 1.9c0 .8-.3 1.4-.8 1.9zm19 18.4h-5.2v-8.3c0-2.3-.9-3.5-2.6-3.5-.7 0-1.2.2-1.7.5-.4.4-.8.8-1 1.3-.1.3-.2.7-.2 1.2v8.7h-5.2v-15.5h5.2v2.2c1.1-1.7 2.6-2.5 4.6-2.5 1.8 0 3.2.6 4.3 1.8 1.1 1.2 1.6 2.9 1.6 5.2l.2 8.9z" transform="translate(0 56)"/></symbol><symbol id="reddit" viewBox="0 0 36 36"><style>.st0{fill:#9b9b9b}</style><path class="st0" d="M29.2 36H6.8c-1.9 0-3.5-.7-4.8-2s-2-2.9-2-4.8V6.8C0 4.9.7 3.3 2 2s2.9-2 4.8-2h22.5c1.9 0 3.5.7 4.8 2s2 2.9 2 4.8v22.5c0 1.9-.7 3.5-2 4.8-1.4 1.2-3 1.9-4.9 1.9zM6.8 2c-1.4 0-2.5.4-3.4 1.4-1 1-1.4 2-1.4 3.4v22.5c0 1.3.4 2.4 1.4 3.4 1 1 2 1.4 3.4 1.4h22.5c1.3 0 2.4-.4 3.4-1.4 1-1 1.4-2 1.4-3.4V6.8c0-1.3-.4-2.4-1.4-3.4S30.7 2 29.3 2H6.8z"/><path class="st0" d="M31.2 17.5c-.5-1.9-2.5-2.7-4.3-1.8l-.6.3-.7-.4c-1.3-.8-3.7-1.6-5.3-1.8-.4 0-1-.1-1.2-.1l-.4-.1.2-.9c.1-.5.3-1.5.5-2.1.2-.7.3-1.6.4-2.1.1-.7.2-.8.4-.8.1 0 1.1.2 2.1.4s1.9.4 1.9.4.1.2.1.4c.1.6.4 1 1 1.3 1.4.7 3.1-.2 3.1-1.9 0-2-2.5-2.9-3.7-1.3-.2.3-.4.4-.6.3-.2-.1-1.3-.3-2.5-.5-1.6-.3-2.2-.4-2.4-.3-.2.2-.2 0-.9 3.2-.8 3.7-.8 3.9-.9 4 0 0-.6.1-1.3.2-2 .2-4.2.9-5.7 1.8l-.6.3-.7-.3c-1.8-.9-3.7 0-4.3 1.8-.2.7-.2.8 0 1.5.2.6.4.9.9 1.4.6.6.6.6.6 1.4 0 3.5 3.6 6.8 8.3 7.8 1.6.3 1.7.3 3.7.3 1.3 0 2.3-.1 3-.3 1.4-.3 2.3-.7 3.3-1.2 3-1.5 4.9-4.1 4.9-6.6 0-.8 0-.8.7-1.4.5-.5.7-.8.9-1.4.3-.7.3-.8.1-1.5zm-19.7 2.8c0-.9.4-1.6 1.3-1.9.6-.2.7-.2 1.3 0 1.5.6 1.8 2.4.6 3.4-.6.5-1.4.6-2.1.2-.8-.3-1.1-.9-1.1-1.7zm11.1 5.6c-1.5 1.1-4.4 1.6-6.7 1-1.1-.2-2.3-.8-2.7-1.2-.3-.2-.2-.7.2-.7.1 0 .5.2.8.3 1.8 1.2 5.9 1.2 7.7 0 .6-.4 1.1-.4 1.1 0 0 .2-.1.4-.4.6zm.8-3.8c-.6.3-1.1.3-1.7.1-.6-.3-1-.7-1.1-1.3-.3-1 .2-2 1.3-2.4.6-.2.6-.2 1.3 0 .9.3 1.3.9 1.3 1.9 0 .7-.4 1.3-1.1 1.7z"/></symbol><symbol id="twitter" viewBox="0 0 36 36"><style>.st0{fill:#9b9b9b}</style><path class="st0" d="M27.1 13.4v.6c0 1.2-.2 2.4-.5 3.6-.3 1.2-.9 2.4-1.6 3.5-.7 1.1-1.6 2.1-2.6 2.9-1 .8-2.2 1.5-3.6 2s-2.9.8-4.5.8c-2.5 0-4.8-.7-6.9-2 .3 0 .7.1 1.1.1 2.1 0 3.9-.6 5.6-1.9-1 0-1.8-.3-2.6-.9-.8-.6-1.3-1.3-1.6-2.2.4.1.6.1.8.1.3 0 .7-.1 1.1-.2-1-.2-1.9-.7-2.6-1.5-.7-.8-1.1-1.8-1.1-2.9.8.4 1.5.5 2.1.6-1.3-.9-1.9-2.1-1.9-3.7 0-.8.2-1.6.6-2.3 1.1 1.4 2.5 2.5 4.1 3.3 1.6.8 3.3 1.3 5.2 1.4-.1-.3-.1-.6-.1-1 0-1.2.4-2.3 1.3-3.2.9-1.1 2-1.5 3.2-1.5 1.3 0 2.4.5 3.3 1.4 1-.2 1.9-.5 2.9-1.1-.4 1.1-1 1.9-2 2.5.9-.1 1.8-.4 2.6-.7-.6.9-1.4 1.7-2.3 2.3z"/><path class="st0" d="M29.2 36H6.8c-1.9 0-3.5-.7-4.8-2-1.3-1.3-2-2.9-2-4.8V6.8C0 4.9.7 3.3 2 2s2.9-2 4.8-2h22.5c1.9 0 3.5.7 4.8 2s2 2.9 2 4.8v22.5c0 1.9-.7 3.5-2 4.8-1.4 1.2-3 1.9-4.9 1.9zM6.8 2c-1.4 0-2.5.4-3.4 1.4-1 1-1.4 2-1.4 3.4v22.5c0 1.3.4 2.4 1.4 3.4 1 1 2 1.4 3.4 1.4h22.5c1.3 0 2.4-.4 3.4-1.4 1-1 1.4-2 1.4-3.4V6.8c0-1.3-.4-2.4-1.4-3.4-1-1-2-1.4-3.4-1.4H6.8z"/></symbol></svg>