<svg xmlns="http://www.w3.org/2000/svg"><symbol id="hbc-stripes-logo" viewBox="0 0 85.209 86.375">
  <path fill="#231F20" d="M36.978 86.107c-.108.061-.2.144-.305.164-.183.035-.378.068-.558.04-.764-.117-1.557.168-2.276-.042-.508-.148-.959.111-1.407-.038-.489-.161-.935-.006-1.396.078-.068.014-.146-.018-.236-.031-.073-.113-.152-.235-.241-.372-.056.102-.106.194-.167.307-.606.332-1.268-.106-1.898.072-.684.192-1.369-.039-2.056-.021-.639.018-1.31.207-1.938.021-.631-.188-1.311.349-1.784-.079-.712.022-1.307.043-1.901.06-.64.02-1.28.057-1.919.046-.616-.009-1.239-.02-1.844-.117-.561-.092-1.081.031-1.608.13-.617.114-1.206-.14-1.839-.044-.606.092-1.276.192-1.876-.124-.876.438-1.801-.027-2.715.121-.954.153-1.956.011-2.938.004-.912-.007-1.825-.005-2.738-.009-.922-.003-1.845.155-2.923-.139-.021-.02-.184-.177-.379-.363.063-.178.173-.342.165-.499-.025-.493-.07-.989-.157-1.475-.096-.542.053-1.073.062-1.606.011-.591-.032-1.174-.032-1.759 0-.579.077-1.147-.012-1.736-.103-.679.062-1.373.099-2.054.03-.555-.345-1.112.002-1.651-.342-.464.137-.742.174-1.141 1.582.043 3.078-.161 4.597-.086.719.035 1.488.107 2.226-.078.122-.03.269.049.405.064.295.035.592.057.887.093.394.048.734-.459 1.162-.093.307.262.697-.421 1.003.066.793-.456 1.667.268 2.486-.175.187-.101.523.209.798-.007.776.396 1.6.065 2.395.106.738.038 1.512.008 2.272-.069.751-.077 1.547.004 2.295.085.511.056.971-.044 1.445-.071.483-.026.929-.097 1.424.067.414.137.921.113 1.352.062.921-.107 1.822-.045 2.735.018.396.028.8-.058 1.206-.226.296.133.593.264.888.396.059-.107.111-.204.191-.351.655.277 1.358.058 2.061.156.631.089 1.299-.021 1.958.005.714.029 1.433-.096 2.138.201.133-.111.276-.232.351-.296h.581c.024.046.075.144.146.278 1.286-.467 2.662-.012 4.016-.255.43.027.961.204 1.364.048.415-.162.762-.068 1.141-.066.967.007 1.934.021 2.901.022.298 0 .595-.047.892-.045.101.001.211.143.3.127.963-.178 1.924.068 2.884.001.141-.009.273-.108.268-.105.602.018 1.07.039 1.539.043.4.003.801-.016 1.202-.019.466-.004.932-.001 1.399-.079.493.091.983.374 1.485-.031.048-.039.153-.037.221-.016.702.219 1.406.226 2.139.167.396-.032.788.102 1.194-.099.146-.071.411.151.604.123 1.202-.178 2.397.001 3.597.021.677.012 1.39.055 2.021-.133.445-.133.71.135 1.062.137.793.003 1.59.037 2.38-.016.787-.053 1.558-.098 2.354-.012.734.079 1.504-.172 2.238-.095.756.079 1.524-.161 2.263.119.988-.35 2.04.369 3.017-.175.87.381 1.784.117 2.676.171.358.021.725-.087 1.286-.163.259.063.72.177 1.155.284.277.826.368 7.427.169 11.878-.13.128-.316.31-.498.488H73.109c-.756 0-1.513-.03-2.267.008-.728.037-1.45-.032-2.174-.04-.726-.007-1.45.029-2.173.051-.764.022-1.549.012-2.278-.081-.753-.096-1.439.159-2.169.08-.746-.081-1.51-.018-2.323-.018-.172-.116-.38-.257-.589-.398-.06.114-.11.212-.179.343-.743.2-1.505-.109-2.275-.017-.796.096-1.618.128-2.412.039-.779-.087-1.538.099-2.317.016-.168-.125-.345-.257-.524-.39-.06.113-.109.212-.16.311-1.042-.091-2.07.131-3.133.034-1-.092-2.038.137-3.244-.076-.458.363-1.127-.023-1.784.004-.657.028-1.318.032-1.979.114-.639.079-1.3-.031-1.949-.016-.71.019-1.42.141-2.202-.172M2.491 12.403c-.375.113-.655.198-.995.301-.169-.076-.399-.181-.648-.294-.132.044-.292.098-.455.151-.276-.856-.23-1.797-.299-2.69-.065-.827.087-1.636.003-2.463-.088-.854.04-1.73.085-2.904-.141-.37-.224-1.034-.026-1.763.065-.24.14-.62-.031-1-.15-.336.086-.847.147-1.254C.68.09 1.159.057 1.653.086 3.339.182 5.03-.079 6.72.231 7.279.335 7.89.116 8.479.096c.285-.011.574.095.92.159.177-.045.43-.175.672-.158.93.065 1.857-.123 2.801.132.413.112.956-.25 1.452-.021.13.062.244.158.376.246.062-.09.139-.201.247-.36 1.78.152 3.604-.242 5.408.175.106.024.256.072.326.024.612-.428 1.275-.091 1.911-.14.675-.052 1.354-.06 2.029-.058.168 0 .336.114.547.191-.026.137-.045.23-.082.417.25.014.507.026.82.042-.154-.224-.259-.378-.453-.66.928 0 1.798-.139 2.602.037.842.185 1.678-.241 2.481.128.79-.508 1.649.207 2.476-.152.076.111.154.227.262.383.076-.113.142-.212.269-.401.343.029.734.062 1.127.097-.004.024-.008.05-.012.075.398-.057.798-.163 1.195-.157 1.317.021 2.636.096 3.954.127.578.013 1.158-.054 1.734-.04.528.012 1.076-.204 1.583.109.917-.309 1.878.115 2.812-.177.278-.087.64.098 1.03.168.761-.284 1.597-.277 2.208-.125.776-.029 1.33-.065 1.884-.067.501-.002 1.003.065 1.503.042.558-.026 1.118-.182 1.557.101.552-.054 1.027-.128 1.502-.141.801-.021 1.604.431 2.405-.003.495.367 1.005-.131 1.475.012.52.158 1.001-.075 1.498-.014.513.062 1.021.002 1.553.118.403.091.923.19 1.464-.054.476-.214 1.183-.233 1.781.147.716-.313 1.474-.291 2.371-.053.692-.416 1.563-.02 2.413-.067.1-.006.231.145.302.114.951-.417 1.948-.083 2.919-.192.796-.089 1.603.011 2.398.031.542.014 1.07-.166 1.608-.05.685.148 1.378-.057 2.058.016.627.064 1.255.046 1.88.08.705.039 1.415-.147 2.122.108.163.06.41-.113.638-.187.181.098.372.203.562.307.023.075.064.146.064.215.005 3.556.016 7.11-.002 10.665-.003.423-.164.844-.24 1.21-1.103.166-2.087.126-3.195.147-.064-.031-.268-.126-.438-.206-.675.083-1.32.164-2.166.269-.284-.078-.777-.216-1.289-.357-.137.11-.281.228-.435.352-.614-.278-1.261.083-1.84-.024-.72-.133-1.362-.027-2.053.05-.604.067-1.237-.391-1.892.057-.143-.062-.303-.171-.477-.203-.468-.087-.87.413-1.401.109-.431-.247-.918-.121-1.412-.017-.44.093-.936-.098-1.406-.104-.501-.006-1.001.07-1.503.087-.476.018-.952.004-1.563.004-.013-.011-.158-.131-.307-.253-.343.109-.685.219-.963.308-.411-.057-.774-.151-1.135-.144-.517.012-1.047.2-1.543.125-.479-.072-.891-.147-1.391.001-.325.098-.761-.178-1.141-.285-.164.048-.339.132-.517.142-.676.039-1.354.036-2.029.082-.597.041-1.213-.287-1.791.091-1.373-.375-2.772-.125-4.157-.145-.761-.01-1.527-.062-2.285-.008-.734.052-1.459.039-2.191.002-.167-.008-.341.12-.262.09-.871-.044-1.498-.071-2.124-.106-.649-.035-1.288.106-1.949.022-.613-.077-1.251.032-1.898.224-.263-.178-.523-.355-.778-.528-.231.117-.516.36-.825.396-.469.053-.958-.014-1.433-.072-1.101-.138-2.201.1-3.301-.021-.125-.013-.267.118-.399.183-.038 0-.078.008-.113-.001-1.783-.445-3.596-.124-5.393-.184-.639-.02-1.291-.016-1.935.045-.1.011-.193.101-.265.14-.071 0-.121.016-.144-.002-.437-.352-.951-.213-1.423-.188-1.108.061-2.215.038-3.322.021-.097-.002-.195.106-.194.106-.8-.048-1.511-.157-2.212-.109-.586.04-1.166-.042-1.735-.006-1.7.105-3.401-.187-5.103.067-.526.079-1.086-.103-1.627-.081-.816.033-1.658-.204-2.443.202-.592-.307-1.22.036-1.819-.1-.396-.09-.847.077-1.181-.27M78.759 61.699c-.881-.202-1.707-.116-2.524-.09-.384.013-1.935-.075-2.353-.188-.142.111-.286.227-.319.254-.862-.035-1.62-.018-2.364-.112-.733-.093-1.466.174-2.171 0-.746-.184-1.53.285-2.239-.188-.348.116-.696.232-1.053.352-.591-.204-1.201-.252-1.8.007-.728-.3-1.492-.151-2.229-.132-.501.014-.996-.007-1.494-.012-.617-.006-1.234.07-1.854.088-.612.016-1.229-.047-1.835.011-.698.067-1.369-.085-2.067-.13-.145-.196-.296-.4-.456-.617h-.812c.165.178.291.313.488.527-.54.094-.966.168-1.255.219-1.418-.033-2.691-.166-4.003 0-1.242.158-2.523-.383-3.813.131-.487-.225-1.017-.414-1.527-.084-.718-.231-1.403-.249-2.193.043-.555-.543-1.32-.113-2.012-.134-.688-.019-1.445-.281-2.177.085-.04-.056-.094-.134-.175-.252-.235.031-.507.074-.78.101-.297.029-.649-.048-.883.087-.311.177-.481-.224-.72-.074-.278.172-.566-.017-.806.024-.514.09-.999-.093-1.497-.029-.482.061-.97.146-1.454.138-.774-.012-1.549-.123-2.324-.133-.643-.009-1.288.123-1.928.092-.649-.03-1.297-.273-1.928.078-.988-.469-2.027.025-3.038-.161-.446-.082-.949.14-1.391.051-.512-.103-.953-.047-1.408.148-.032.014-.078.017-.112.006-.926-.303-1.868-.232-2.817-.15-.589.053-1.185.037-1.776.026-.354-.007-.708-.062-1.062-.101-.916-.103-1.815.226-2.738.087-.326-.05-.673.057-1.006.035-.31-.019-.575-.161-.931-.007-.261.113-.668-.155-.972-.086-.334.076-.641-.062-.926-.009-.897.166-1.82-.217-2.737.116-.852-.409-1.847.18-2.705-.203-.61-.41-.528-1.086-.49-1.573.069-.884-.215-1.765-.024-2.613.174-.78.345-1.586.169-2.327-.305-1.275-.132-2.544-.187-3.813-.017-.423.062-.85.107-1.42.151-.114.421-.316.881-.661.258.02.764.059 1.519.115.578-.199 4.593-.199 5.405.082.225-.068.436-.19.645-.187 1.087.021 2.178.144 3.259.085.509-.026 1.038-.044 1.542-.059.948-.028 1.902-.092 2.853-.035 1.349.08 2.709-.186 4.047.153 1.187-.437 2.406.084 3.612-.123.471-.081 1.002-.047 1.485-.001.511.05 1.012-.115 1.493-.019 1.129.23 2.242.105 3.364-.01.533-.054 1.057.12 1.61.02.541-.101 1.118-.064 1.648.194.09.044.249.042.333-.009.831-.506 1.73.025 2.578-.186.435.439.988-.325 1.421.14.41-.312.856.062 1.344-.104.608-.21 1.351-.022 2.036-.021.423.001.847-.02 1.271-.038.422-.018.83.085 1.271.031.497-.062 1.057-.193 1.538.152.479-.337 1.03-.19 1.537-.156.318.021.764-.083.976.365.034.07.27.045.46.068-.011-.168-.02-.284-.025-.368.487 0 .983.063 1.455-.016.59-.1 1.129.058 1.689.141.294.044.641.082.896-.029 1.059-.461 2.041.046 3.032.076.068.258.115.433.158.593.663.087.94-.517 1.409-.748.592-.293 1.091.36 1.587-.061.142.118.287.239.448.372.139-.12.279-.24.454-.39.407.037.851.115 1.291.105.403-.009.826-.078 1.211-.09.841-.024 1.686.003 2.53-.017.268-.007.529.031.815.003.542-.052 1.099.053 1.645.093.546-.04 1.103-.142 1.647-.1.472.038.92.123 1.402.005.257-.063.603.18.835.093.313-.118.596.279.934-.062.14-.143.614.095.923.056.297-.038.643.288.894-.103.682.118 1.37.017 2.055.07.167.013.335.028.502.021.406-.018.84-.151 1.212-.051 1.036.281 2.061-.009 3.089.047.891.046 1.787-.015 2.681-.022.507-.005 1.013-.001 1.57-.001.137.14.319.328.516.532v2.375c0 .757.057 1.518-.015 2.268-.073.77.024 1.526.018 2.289-.008.756.006 1.513-.005 2.27-.01.762-.039 1.523-.062 2.385-.231.146-.535.34-.697.441-.888-.062-1.62-.221-2.324-.139-1.127.135-2.273-.284-3.297.098M.375 37.07C.04 36.264.34 35.437.086 34.682c.466-.305-.146-.644.034-1.019.139-.281-.046-.703-.001-1.053.044-.334.021-.633-.044-.964-.066-.343.04-.72.088-1.278-.356-.443-.067-1.007.294-1.583-.332-.438-.425-.925-.334-1.491.076-.491.016-1.005.151-1.518-.073-.167-.146-.335-.244-.56.191-.2.393-.411.641-.67.766.084 1.541.209 2.318.239.438.018.895-.221 1.319-.166.511.067.998-.034 1.495-.027.492.007.982.002 1.475.002.491 0 .983-.011 1.475.002.718.02 1.435.075 2.152.084.719.009 1.445-.28 2.151.077 1.026-.337 2.082-.107 3.122-.153.514-.022 1.019.01 1.547.161.505.145 1.106-.065 1.667-.095.394-.022.79-.004 1.341-.004.642-.207 1.479.014 2.291-.08.768-.089 1.517.117 2.29.036.784-.081 1.589.05 2.386.062.71.011 1.422-.006 2.132-.021.826-.017 1.654-.07 2.48-.062.781.007 1.574-.104 2.396.117.144-.032.36-.128.571-.115.882.053 1.778-.059 2.642.024 1.53.146 3.041-.142 4.562-.041.748.049 1.503-.022 2.233.217.103.034.26.061.333.008.561-.401 1.195-.128 1.787-.182.614-.057 1.28-.219 1.879.146.792-.385 1.632-.123 2.446-.172.791-.047 1.59-.037 2.382-.002.681.031 1.357.155 2.039.189.242.012.49-.17.738-.176.517-.013 1.057-.153 1.431.11.575-.05 1.05-.128 1.523-.124.73.006 1.45.124 2.193.017.435-.062.926.013 1.355.049.429.036.946-.354 1.331.116.515-.393 1.131.187 1.647-.175.849.2 1.695-.034 2.543-.016 1.378.029 2.756.082 4.133.073.837-.007 1.675-.008 2.514-.06.904-.057 1.818.04 2.72-.034.509-.042.971.194 1.502.065.399-.097.871.146 1.311.149.464.004.916-.151 1.398-.001.22.069.507-.037.755-.099.785-.194 1.652-.12 2.416.238.169.961.007 1.949-.019 2.924-.011.434.099.841.087 1.27-.047 1.966-.004 3.933-.028 5.898-.008.661-.119 1.321-.189 2.051-.938 0-1.765-.023-2.589.007-.802.029-1.595-.099-2.402-.023-.824.076-1.661.017-2.493.017H62.487c-.831 0-1.663.001-2.495 0s-1.67.062-2.492-.025c-.811-.084-1.6.091-2.403.037-.828-.054-1.663-.012-2.494-.012h-2.496c-.832 0-1.669.06-2.494-.017-.807-.074-1.601.035-2.4.02-.869-.015-1.739-.003-2.609-.003-.831 0-1.664.021-2.495-.006-.82-.025-1.639-.135-2.458-.135-.812 0-1.624.11-2.437.135-.831.026-1.664.006-2.495.006H12.754c-.832 0-1.664.019-2.495-.005-.801-.021-1.6-.033-2.4-.002-.831.032-1.664.007-2.495.007H.375z"/>
</symbol><symbol id="hbc-tech-logo" viewBox="0 0 100 100">
	<path fill="#231F20" d="M29.846 86.93c-.022.346-.23.52-.622.52-.089 0-.234-.012-.438-.032-.203-.022-.356-.032-.459-.032-.223 0-.4.038-.532.115l-1.561.365c-.247.298-.418.688-.517 1.171.13.031.268.048.412.048.249 0 .648-.071 1.198-.211.517-.129.904-.185 1.162-.167.14.054.21.264.21.63-.125.129-.336.198-.63.206-.37.012-.602.035-.695.069l-1.326.27c-.086-.057-.21-.086-.373-.086-.193 0-.33.039-.407.116-.021.038-.117.198-.292.484-.111.184-.185.353-.219.506.12.112.306.167.554.167.065 0 .167-.004.303-.012.136-.009.236-.013.302-.013.071 0 .136.003.193.008.194-.051.562-.102 1.103-.154.501-.049.876-.116 1.128-.206.095 0 .157.051.188.15.052.158.08.238.082.24.009.025.013.054.013.082 0 .177-.095.342-.283.493l-1.024.06c-.032-.054-.074-.081-.125-.081-.031 0-.081.011-.148.034-.066.022-.119.035-.157.035-.027 0-.055-.006-.081-.019-.089.029-.232.047-.433.055-.201.007-.356.028-.472.065-.32.043-.552.084-.695.121-.275.068-.484.168-.626.3-.126-.062-.282-.103-.468-.12-.158-.009-.313-.019-.468-.029-.261-.066-.391-.242-.391-.528 0-.111.03-.206.09-.283.221-.312.551-.773.991-1.386.029-.074.222-.456.579-1.145.255-.492.395-.935.416-1.326.063-.071.191-.151.383-.24.211-.094.354-.174.429-.24.525-.049 1.053-.098 1.578-.146.606-.074 1.124-.206 1.553-.396.129.012.244.079.344.202.077.115.155.227.231.34"/>
	<path fill="none" stroke="#231F20" stroke-width=".25" stroke-miterlimit="10" d="M29.846 86.93c-.022.346-.23.52-.622.52-.089 0-.234-.012-.438-.032-.203-.022-.356-.032-.459-.032-.223 0-.4.038-.532.115l-1.561.365c-.247.298-.418.688-.517 1.171.13.031.268.048.412.048.249 0 .648-.071 1.198-.211.517-.129.904-.185 1.162-.167.14.054.21.264.21.63-.125.129-.336.198-.63.206-.37.012-.602.035-.695.069l-1.326.27c-.086-.057-.21-.086-.373-.086-.193 0-.33.039-.407.116-.021.038-.117.198-.292.484-.111.184-.185.353-.219.506.12.112.306.167.554.167.065 0 .167-.004.303-.012.136-.009.236-.013.302-.013.071 0 .136.003.193.008.194-.051.562-.102 1.103-.154.501-.049.876-.116 1.128-.206.095 0 .157.051.188.15.052.158.08.238.082.24.009.025.013.054.013.082 0 .177-.095.342-.283.493l-1.024.06c-.032-.054-.074-.081-.125-.081-.031 0-.081.011-.148.034-.066.022-.119.035-.157.035-.027 0-.055-.006-.081-.019-.089.029-.232.047-.433.055-.201.007-.356.028-.472.065-.32.043-.552.084-.695.121-.275.068-.484.168-.626.3-.126-.062-.282-.103-.468-.12-.158-.009-.313-.019-.468-.029-.261-.066-.391-.242-.391-.528 0-.111.03-.206.09-.283.221-.312.551-.773.991-1.386.029-.074.222-.456.579-1.145.255-.492.395-.935.416-1.326.063-.071.191-.151.383-.24.211-.094.354-.174.429-.24.525-.049 1.053-.098 1.578-.146.606-.074 1.124-.206 1.553-.396.129.012.244.079.344.202.077.115.155.227.231.34z"/>
	<path fill="#231F20" d="M37.196 87.342c.049.065.072.126.072.18 0 .083-.063.168-.191.254-.155.104-.244.176-.268.21-.24-.203-.573-.305-.999-.305-.271 0-.741.068-1.407.206.061.153.25.256.571.304.377.061.615.131.715.211.054.086.224.129.513.129.327.206.51.547.544 1.025-.015.297-.107.597-.279.9-.163.292-.369.536-.617.733-.953.435-1.748.652-2.385.652-.437 0-.839-.09-1.211-.267-.074-.064-.218-.146-.433-.244-.223-.1-.375-.183-.454-.249-.141-.108-.212-.233-.212-.378 0-.12.047-.257.139-.411.062-.009.146-.04.253-.095.097-.048.17-.073.219-.073.058 0 .114.025.171.073-.002.009-.006.019-.008.026 0 .04.021.07.066.092.044.021.088.023.131.007.523.454 1.012.682 1.467.682.117 0 .239-.013.365-.038.598-.029 1.152-.264 1.669-.703.008-.041.058-.155.149-.345.08-.165.12-.296.12-.39 0-.157-.102-.266-.305-.326-.483-.114-.968-.228-1.454-.339-.557-.168-.896-.44-1.016-.815-.01-.07-.014-.139-.014-.201 0-.286.122-.497.368-.635.109-.015.516-.091 1.219-.228.507-.097.916-.146 1.23-.146.436 0 .816.082 1.142.245l.13.259z"/>
	<path fill="none" stroke="#231F20" stroke-width=".25" stroke-miterlimit="10" d="M37.196 87.342c.049.065.072.126.072.18 0 .083-.063.168-.191.254-.155.104-.244.176-.268.21-.24-.203-.573-.305-.999-.305-.271 0-.741.068-1.407.206.061.153.25.256.571.304.377.061.615.131.715.211.054.086.224.129.513.129.327.206.51.547.544 1.025-.015.297-.107.597-.279.9-.163.292-.369.536-.617.733-.953.435-1.748.652-2.385.652-.437 0-.839-.09-1.211-.267-.074-.064-.218-.146-.433-.244-.223-.1-.375-.183-.454-.249-.141-.108-.212-.233-.212-.378 0-.12.047-.257.139-.411.062-.009.146-.04.253-.095.097-.048.17-.073.219-.073.058 0 .114.025.171.073-.002.009-.006.019-.008.026 0 .04.021.07.066.092.044.021.088.023.131.007.523.454 1.012.682 1.467.682.117 0 .239-.013.365-.038.598-.029 1.152-.264 1.669-.703.008-.041.058-.155.149-.345.08-.165.12-.296.12-.39 0-.157-.102-.266-.305-.326-.483-.114-.968-.228-1.454-.339-.557-.168-.896-.44-1.016-.815-.01-.07-.014-.139-.014-.201 0-.286.122-.497.368-.635.109-.015.516-.091 1.219-.228.507-.097.916-.146 1.23-.146.436 0 .816.082 1.142.245l.13.259z"/>
	<path fill="#231F20" d="M46.792 86.212c.012.071.018.14.018.206 0 .172-.048.332-.146.48-.097.123-.191.245-.287.368-.062.013-.119.018-.172.018-.091 0-.188-.023-.289-.068-.102-.046-.204-.092-.311-.138l-2.406.096c-.212.516-.537 1.086-.978 1.712-.381.532-.761 1.064-1.142 1.597-.092.134-.325.389-.703.763-.31.304-.512.584-.609.841 0 0-.074.039-.214.116-.101.054-.181.082-.241.082-.068 0-.12-.035-.154-.104-.111-.171-.168-.33-.168-.476 0-.22.174-.469.521-.746.386-.309.61-.554.673-.734.146-.257.382-.572.708-.947.392-.454.644-.76.755-.914.254-.36.419-.713.493-1.06-.071-.006-.15-.009-.236-.009-.131 0-.346.012-.645.035-.3.022-.523.034-.672.034-.363 0-.647-.051-.854-.155-.091-.151-.138-.307-.138-.467 0-.135.036-.289.107-.463.08-.066.164-.1.253-.1.08 0 .2.039.36.116.161.077.288.114.382.111 1.145-.055 2.288-.108 3.433-.163 1.301-.074.744-.023 1.731-.16.092-.12.196-.18.314-.18.088 0 .195.04.324.12.099.063.196.126.293.189"/>
	<path fill="none" stroke="#231F20" stroke-width=".25" stroke-miterlimit="10" d="M46.792 86.212c.012.071.018.14.018.206 0 .172-.048.332-.146.48-.097.123-.191.245-.287.368-.062.013-.119.018-.172.018-.091 0-.188-.023-.289-.068-.102-.046-.204-.092-.311-.138l-2.406.096c-.212.516-.537 1.086-.978 1.712-.381.532-.761 1.064-1.142 1.597-.092.134-.325.389-.703.763-.31.304-.512.584-.609.841 0 0-.074.039-.214.116-.101.054-.181.082-.241.082-.068 0-.12-.035-.154-.104-.111-.171-.168-.33-.168-.476 0-.22.174-.469.521-.746.386-.309.61-.554.673-.734.146-.257.382-.572.708-.947.392-.454.644-.76.755-.914.254-.36.419-.713.493-1.06-.071-.006-.15-.009-.236-.009-.131 0-.346.012-.645.035-.3.022-.523.034-.672.034-.363 0-.647-.051-.854-.155-.091-.151-.138-.307-.138-.467 0-.135.036-.289.107-.463.08-.066.164-.1.253-.1.08 0 .2.039.36.116.161.077.288.114.382.111 1.145-.055 2.288-.108 3.433-.163 1.301-.074.744-.023 1.731-.16.092-.12.196-.18.314-.18.088 0 .195.04.324.12.099.063.196.126.293.189z"/>
	<path fill="#231F20" d="M49.558 90.898c.008.07.012.14.012.206 0 .172-.033.332-.101.479-.065.123-.131.246-.195.369-.042.012-.081.017-.116.017-.063 0-.129-.022-.197-.067-.069-.046-.14-.092-.212-.139-.252-.159-.84.05-1.113.065-.616.036-1.231.116-1.849.186-.203.023-.356.034-.457.034-.248 0-.442-.051-.582-.154-.062-.151-.093-.308-.093-.468 0-.135.023-.289.073-.463.054-.065.111-.099.172-.099.055 0 .137.039.246.116.108.077.195.113.26.11.779-.054 1.558-.107 2.338-.163.886-.073.508-.022 1.18-.159.062-.12.134-.181.213-.181.062 0 .135.04.223.12.065.065.132.128.198.191"/>
	<path fill="none" stroke="#231F20" stroke-width=".25" stroke-miterlimit="10" d="M49.558 90.898c.008.07.012.14.012.206 0 .172-.033.332-.101.479-.065.123-.131.246-.195.369-.042.012-.081.017-.116.017-.063 0-.129-.022-.197-.067-.069-.046-.14-.092-.212-.139-.252-.159-.84.05-1.113.065-.616.036-1.231.116-1.849.186-.203.023-.356.034-.457.034-.248 0-.442-.051-.582-.154-.062-.151-.093-.308-.093-.468 0-.135.023-.289.073-.463.054-.065.111-.099.172-.099.055 0 .137.039.246.116.108.077.195.113.26.11.779-.054 1.558-.107 2.338-.163.886-.073.508-.022 1.18-.159.062-.12.134-.181.213-.181.062 0 .135.04.223.12.065.065.132.128.198.191z"/>
	<path fill="#231F20" d="M47.222 89.959c-.078-.025-.169-.038-.275-.038-.042 0-.106.002-.192.006-.085.004-.149.007-.189.007-.243 0-.424-.085-.544-.254-.035-.099-.051-.198-.051-.295 0-.258.106-.4.321-.425.491-.732.764-1.144.814-1.232.272-.471.438-.934.498-1.389.159-.095.413-.236.759-.425.157.067.32.182.489.339.206.183.352.303.438.36.354.314.53.688.53 1.119 0 .135-.021.265-.062.391-.169.498-.487.912-.953 1.244-.452.321-.98.518-1.583.592m1.737-2.725c-.13-.105-.336-.239-.622-.402-.126.383-.466 1.044-1.018 1.981-.12.16-.203.285-.248.373.4.026.783-.084 1.149-.33.321-.215.579-.495.777-.841.039-.072.06-.16.06-.266.001-.113-.032-.285-.098-.515"/>
	<path fill="none" stroke="#231F20" stroke-width=".25" stroke-miterlimit="10" d="M47.222 89.959c-.078-.025-.169-.038-.275-.038-.042 0-.106.002-.192.006-.085.004-.149.007-.189.007-.243 0-.424-.085-.544-.254-.035-.099-.051-.198-.051-.295 0-.258.106-.4.321-.425.491-.732.764-1.144.814-1.232.272-.471.438-.934.498-1.389.159-.095.413-.236.759-.425.157.067.32.182.489.339.206.183.352.303.438.36.354.314.53.688.53 1.119 0 .135-.021.265-.062.391-.169.498-.487.912-.953 1.244-.452.321-.98.518-1.583.592zm1.737-2.725c-.13-.105-.336-.239-.622-.402-.126.383-.466 1.044-1.018 1.981-.12.16-.203.285-.248.373.4.026.783-.084 1.149-.33.321-.215.579-.495.777-.841.039-.072.06-.16.06-.266.001-.113-.032-.285-.098-.515z"/>
	<path fill="#231F20" d="M57.86 87.388c.036.103.053.212.053.326 0 .248-.089.562-.266.942-.152.314-.303.628-.454.938l-.63 1.029c-.251.411-.443.771-.576 1.079-.154.051-.26.076-.316.076-.061 0-.11-.016-.15-.046-.126-.169-.19-.344-.19-.524 0-.212.102-.476.305-.789.266-.414.416-.666.453-.757.52-.681.778-1.411.778-2.194v-.244c.076-.121.188-.182.338-.182.265.001.484.116.655.346"/>
	<path fill="none" stroke="#231F20" stroke-width=".25" stroke-miterlimit="10" d="M57.86 87.388c.036.103.053.212.053.326 0 .248-.089.562-.266.942-.152.314-.303.628-.454.938l-.63 1.029c-.251.411-.443.771-.576 1.079-.154.051-.26.076-.316.076-.061 0-.11-.016-.15-.046-.126-.169-.19-.344-.19-.524 0-.212.102-.476.305-.789.266-.414.416-.666.453-.757.52-.681.778-1.411.778-2.194v-.244c.076-.121.188-.182.338-.182.265.001.484.116.655.346z"/>
	<path fill="#231F20" d="M63.907 90.42c.009.068.014.136.014.199 0 .338-.143.635-.427.889-.056.045-.33.228-.825.548-.265.115-.53.228-.793.34-.326.121-.616.181-.87.181-.178 0-.348-.027-.508-.086-.267-.142-.452-.306-.562-.494-.087-.15-.167-.408-.239-.774.117-.555.398-1.143.843-1.758.384-.518.769-1.033 1.156-1.551.404-.626.64-1.249.706-1.871.101-.199.223-.312.367-.337.199.017.34.126.421.332.037.169.075.339.114.508-.35 1.142-.996 2.277-1.935 3.407.042.021.094.026.157.015.072-.019.109-.057.109-.113.012-.006.181-.097.507-.273.222-.116.413-.176.576-.176.157 0 .308.048.454.146.301.164.546.454.735.868m-1.038.299c.039-.019.059-.038.059-.06 0-.036-.053-.07-.159-.104-.142.045-.285.092-.431.14-.165.059-.249.159-.249.305 0 .035.004.076.014.121.146-.054.292-.109.441-.169.15-.058.257-.137.325-.233"/>
	<path fill="none" stroke="#231F20" stroke-width=".25" stroke-miterlimit="10" d="M63.907 90.42c.009.068.014.136.014.199 0 .338-.143.635-.427.889-.056.045-.33.228-.825.548-.265.115-.53.228-.793.34-.326.121-.616.181-.87.181-.178 0-.348-.027-.508-.086-.267-.142-.452-.306-.562-.494-.087-.15-.167-.408-.239-.774.117-.555.398-1.143.843-1.758.384-.518.769-1.033 1.156-1.551.404-.626.64-1.249.706-1.871.101-.199.223-.312.367-.337.199.017.34.126.421.332.037.169.075.339.114.508-.35 1.142-.996 2.277-1.935 3.407.042.021.094.026.157.015.072-.019.109-.057.109-.113.012-.006.181-.097.507-.273.222-.116.413-.176.576-.176.157 0 .308.048.454.146.301.164.546.454.735.868zm-1.038.299c.039-.019.059-.038.059-.06 0-.036-.053-.07-.159-.104-.142.045-.285.092-.431.14-.165.059-.249.159-.249.305 0 .035.004.076.014.121.146-.054.292-.109.441-.169.15-.058.257-.137.325-.233z"/>
	<path fill="#231F20" d="M70.125 86.137c.004.04.005.081.005.122 0 .248-.091.53-.272.848-.263.466-.407.733-.435.802-.734.979-1.271 1.804-1.604 2.471-.157.28-.314.563-.472.848-.172.326-.271.634-.299.924-.139.188-.305.281-.499.281-.144 0-.257-.07-.335-.213-.124-.117-.187-.24-.187-.367 0-.121.074-.287.223-.498.16-.227.248-.394.263-.503.205-.544.539-1.162 1.002-1.854.389-.573.781-1.147 1.174-1.722v-.2c-.058-.006-.114-.009-.173-.009-.283 0-.718.074-1.303.22-.584.147-1.018.221-1.298.221-.152-.272-.228-.488-.228-.648 0-.139.042-.279.127-.422.101-.111.224-.167.372-.167.055 0 .163.013.326.04.148.028.271.037.367.028.426-.082.85-.165 1.272-.25.49-.105.913-.223 1.271-.35.224-.028.457.105.703.398"/>
	<path fill="none" stroke="#231F20" stroke-width=".25" stroke-miterlimit="10" d="M70.125 86.137c.004.04.005.081.005.122 0 .248-.091.53-.272.848-.263.466-.407.733-.435.802-.734.979-1.271 1.804-1.604 2.471-.157.28-.314.563-.472.848-.172.326-.271.634-.299.924-.139.188-.305.281-.499.281-.144 0-.257-.07-.335-.213-.124-.117-.187-.24-.187-.367 0-.121.074-.287.223-.498.16-.227.248-.394.263-.503.205-.544.539-1.162 1.002-1.854.389-.573.781-1.147 1.174-1.722v-.2c-.058-.006-.114-.009-.173-.009-.283 0-.718.074-1.303.22-.584.147-1.018.221-1.298.221-.152-.272-.228-.488-.228-.648 0-.139.042-.279.127-.422.101-.111.224-.167.372-.167.055 0 .163.013.326.04.148.028.271.037.367.028.426-.082.85-.165 1.272-.25.49-.105.913-.223 1.271-.35.224-.028.457.105.703.398z"/>
	<path fill="#231F20" d="M74.957 87.596c.212.48.318.958.318 1.433 0 .556-.15 1.015-.449 1.378-.641.772-1.388 1.219-2.239 1.337-.544-.23-.89-.675-1.038-1.337-.012-.441.101-.892.336-1.351.211-.375.422-.75.634-1.125.23-.268.46-.536.693-.802.308-.311.617-.467.925-.467.148 0 .299.034.453.1l.367.834zm-.536 1.84c.034-.169.051-.338.051-.507 0-.32-.061-.686-.182-1.097-.084-.209-.236-.313-.453-.313-.036 0-.075.005-.113.015-.441.485-.877 1.288-1.306 2.406-.045.078-.068.169-.068.271 0 .218.079.372.236.462.387 0 .755-.131 1.105-.394.3-.223.544-.504.73-.843"/>
	<path fill="none" stroke="#231F20" stroke-width=".25" stroke-miterlimit="10" d="M74.957 87.596c.212.48.318.958.318 1.433 0 .556-.15 1.015-.449 1.378-.641.772-1.388 1.219-2.239 1.337-.544-.23-.89-.675-1.038-1.337-.012-.441.101-.892.336-1.351.211-.375.422-.75.634-1.125.23-.268.46-.536.693-.802.308-.311.617-.467.925-.467.148 0 .299.034.453.1l.367.834zm-.536 1.84c.034-.169.051-.338.051-.507 0-.32-.061-.686-.182-1.097-.084-.209-.236-.313-.453-.313-.036 0-.075.005-.113.015-.441.485-.877 1.288-1.306 2.406-.045.078-.068.169-.068.271 0 .218.079.372.236.462.387 0 .755-.131 1.105-.394.3-.223.544-.504.73-.843z"/>
	<path fill="#231F20" d="M45.667.671c.091-.144.189-.296.333-.524.347.037.709.093 1.073.112.379.021.759.006 1.139.007.337 0 .675 0 1.016.043C50.301-.04 51.42.125 52.482.254c1.062.128 2.117.503 3.042 1.119.165.33.33.66.505 1.012.072-.026.15-.054.216-.078.189.63.382 1.267.564 1.872-.062.502-.124.988-.185 1.475.027.004.056.008.085.012-.217.469-.434.938-.668 1.449.165.366.302.814.694 1.146.191.16.236.487.368.727.082.147.205.272.372.489 0 .426-.09.981.025 1.488.121.532-.159 1.017-.021 1.416-.337.963-.765 1.747-1.481 2.354-.73.618-1.688.711-2.521 1.138-.861 0-1.744-.01-2.626.007-.272.005-.543.09-.815.123-.147.018-.298.004-.446.004l-1.066-.004c-.433.099-.857.121-1.112-.028-.537.035-.934.085-1.327.081-.358-.004-.744-.168-1.067-.078-.425.118-.783.094-1.158-.089-.03.002-.069-.008-.092.007-.523.35-1.106.073-1.668.181-.163-.152-.322-.301-.516-.481.086-.845-.167-1.714.161-2.577.083-.22-.075-.531-.148-.947.061-.251.421-.64.009-1.022.121-.139.204-.234.242-.278-.057-.93-.112-1.811-.166-2.692-.04-.001-.081-.003-.121-.004.069-.201.255-.462.188-.592-.337-.648.261-1.325-.104-1.952.082-.04.164-.081.284-.141-.113-.143-.221-.279-.312-.395.092-.464.18-.908.271-1.37-.051-.024-.134-.062-.274-.127.194-.412-.09-.849.123-1.333.172-.389.062-.902.079-1.413-.001-.001-.097-.058-.278-.167.374-.155.677-.281.99-.412.135.062.272.125.287.132.551-.054.977-.133 1.402-.127.363.005.73.085 1.084.18.14.038.246.206.366.312m5.054 8.454c-.368 0-.57-.016-.768.005-.212.021-.425.128-.628.111-.817-.069-1.641-.101-2.452-.065-.603.026-1.241-.255-1.834.17-.054.102-.125.238-.164.313.241.933.013 1.849.148 2.769.431.437.901.2 1.383.037.298.437.61.052.878.021.571.305 1.147.164 1.698.163.517-.001.992.295 1.544.095.519-.187 1.081-.128 1.59.023.208-.084.393-.158.573-.231.053.113.09.197.125.275.415-.278.823-.552 1.242-.833.439-.942.188-1.818-.207-2.593-.489-.093-.881-.212-1.275-.229-.423-.017-.849.063-1.261.099-.064-.229-.105-.373-.141-.495-.198.16-.396.32-.451.365m-.555-2.956c.345-.115.633-.211.958-.319.374.509.899-.129 1.346.142.311-.162.636-.333.932-.488.104-.304.191-.563.271-.794-.157-.478-.411-.852-.872-1.025-.041-.162-.078-.308-.124-.493-.087.139-.149.238-.245.393-.261-.342-.622-.016-.959-.175-.276-.129-.6.1-.946-.004-.33-.099-.722.011-1.252.037-.018-.009-.21-.106-.396-.201-.202.089-.41.181-.608.27-.061-.121-.102-.202-.145-.29-.096.127-.181.24-.275.367-.449-.116-.881-.228-1.303-.336-.45.489-.886.144-1.294.009-.116.171-.217.323-.315.469-.113-.047-.199-.082-.253-.104.044.705.083 1.341.125 2.01-.169-.063-.248-.093-.357-.135.005.112.009.195.012.272.795.172 1.566.34 2.381.516.01-.016.072-.113.162-.255.345 0 .729-.051 1.091.015.337.062.618-.156.963-.069.318.082.679.019 1.027.019.019.042.043.097.076.169M4.6 30.718c-.255-.406-.071-.948-.118-1.446.382-.631 1.036-.417 1.547-.49.523-.074 1.083.112 1.531.172.055.237.106.393.126.554.083.667.086 1.331.02 2.004-.067.686-.021 1.382-.061 2.072-.025.425-.006.818.278 1.183.408.029.816.027 1.211.095.384.067.76-.202 1.145.022.033.064.075.145.135.26.141-.103.278-.202.414-.302.383-.064.752.334 1.166.002.109-.087.398.051.701.102.273-.179.65-.239 1.052.054.353-.226.73-.301 1.068-.046.452-.089.865-.17 1.301-.256.035-.475.159-.927.074-1.336-.097-.465.094-.886.041-1.336-.039-.33.076-.676.076-1.015.001-.325-.096-.652-.08-.975.018-.361.116-.717.184-1.102.129.071.184.101.274.15.038-.06.078-.122.154-.24h1.967c.026.044.082.143.133.232.135-.046.269-.091.433-.146-.052.635.165 1.201.046 1.756-.124.581.097 1.141.015 1.711-.066.456.134.942-.157 1.373.379.435.081.925.06 1.371-.021.398.054.81-.072 1.217-.062.202.056.459.089.691.105.733.078 1.47.095 2.207.028 1.312-.158 2.628.1 3.942.07.361-.111.772-.184 1.193-.056-.019-.129-.042-.226-.073-.051.086-.109.183-.205.343-.252-.236-.7-.076-.861-.472-.226.128-.439.301-.684.373-.213.063-.46.013-.74.013-.195-.187-.552-.35-.385-.788.159.022.316.044.627.087-.342-.386-.587-.661-.768-.865.068-.707.125-1.303.183-1.912-.019-.009-.075-.033-.171-.075.016-.2.068-.421.042-.633-.028-.236-.127-.464-.19-.678.173-.131.291-.219.368-.278-.066-.397-.126-.758-.155-.936-.215-.365-.345-.585-.462-.784-.57.862-1.512.15-2.242.487-.057-.1-.115-.202-.197-.345-.117.098-.228.19-.3.25-.828.002-1.656.33-2.358-.283-.072.145-.114.227-.146.293H7.909c.013-.013-.098.089-.212.194.356.806-.296 1.652.124 2.434-.407.957-.081 1.906-.009 2.847-.039.176-.067.356-.121.528-.053.168-.132.328-.215.529-.49-.059-.963.141-1.394-.167-.399.255-.874-.148-1.343.237-.071-.114-.18-.214-.197-.328-.091-.609-.159-1.222-.235-1.834.448-.478-.163-1.064.16-1.555-.295-.538.111-1.059.038-1.608-.058-.429-.1-.876-.088-1.32.01-.406-.056-.813-.047-1.219.028-1.305.021-2.615.145-3.912.043-.461-.15-.886-.038-1.334.057-.232.068-.478.123-.889m87.268.42c.051-.091.094-.171.151-.277.146.276.284.537.445.843-.152.114-.315.237-.483.364.031.056.075.136.146.264-.122.179-.319.363-.375.583-.053.204-.58.15-.261.509-.206.173-.409.346-.649.548-.346-.316-.847-.475-1.325-.69-.567-.254-1.069-.646-1.634-.915-.473-.225-.886-.593-1.487-.492-.2.033-.437-.154-.742-.274-.053.026-.188.092-.323.158-.757-.356-1.558-.222-2.294-.037-.42.105-.878.006-1.259.246-.267.169-.478.44-.825.461-.104.006-.211-.014-.271-.018-.18.224-.353.439-.552.689-.086-.136-.144-.226-.201-.316l-.402.67c-.02-.046.003.008.026.062.01.025.019.051.04.109-.204.168-.417.344-.586.483-.062.226-.118.437-.177.652-.11-.042-.19-.071-.307-.115.018.48-.51.914-.031 1.421-.489 1.02-.016 1.982.21 2.964.604.64 1.212 1.287 1.877 1.992.015-.004.125-.036.247-.071.576.251 1.174.512 1.782.776.107-.036.25-.084.406-.136.154.155.289.292.448.451.095-.165.154-.269.19-.332.403.088.791.173 1.162.254.203-.104.396-.203.563-.288.215.068.418.132.628.198-.031.08-.062.16-.099.251.459.17.273-.27.445-.48.366-.117.798-.261 1.233-.395.407-.125.812-.283 1.231-.349.561-.087 1.004-.368 1.412-.717.347-.296.701-.519 1.161-.443.181.271.46.517.501.797.052.358.228.635.347.95.125.33.211.675.269.861-.141.157-.277.311-.478.536-.01-.003-.178-.064-.368-.132-.119.222-.235.435-.358.664-.119.339-.545.019-.757.362-.196.317-.731.19-.995.383-.288.209-.588.214-.87.268-.366.072-.757.009-1.007.375-.325-.189-.625.085-.957.051-.326-.032-.666.129-1.004.16-.345.032-.692.007-1.044.007-.07-.114-.134-.216-.212-.343-.064.102-.121.193-.198.313h-.543c-.079-.103-.168-.219-.296-.386-.18.142-.345.273-.482.383-.452-.097-.88-.188-1.383-.295-.035-.055-.128-.204-.229-.364-.307.031-.598.06-.899.091.041-.113.069-.195.085-.234-.522-.156-1.047-.313-1.608-.481.045-.135.069-.21.112-.339-.203-.025-.402-.051-.655-.083.021-.076.04-.144.061-.219-.922-.363-1.392-1.256-2.125-1.822-.041-.647-.423-1.144-.727-1.623-.283-.445-.327-.917-.472-1.374-.091-.288.023-.651-.094-.918-.115-.261.303-.547-.086-.737.077-.548.155-1.095.242-1.709.005-.003.08-.05.171-.107.147-.45.032-1.043.603-1.328-.073-.55.374-.908.512-1.403.208-.102.428-.211.67-.331-.034-.073-.066-.148-.113-.252.407-.386.819-.795 1.253-1.18.369-.329.874-.476 1.236-.828.526-.177 1.087-.344 1.626-.51.79-.243.938-.411 1.631-.251.049-.077.104-.165.16-.254.058-.021.117-.066.17-.058.731.106 1.454.088 2.191.011.477-.049.994.043 1.46.183 1.344.401 2.757.634 3.99 1.539.028.103.078.278.143.509.074-.12.125-.204.189-.308.151.07.307.141.462.213-.038.072-.068.127-.099.183.153.142.303.284.455.427M46.037 63.555c.099.803.038 1.385-.182 1.852-.266.224-.538-.166-.851.033-.24.153-.588.162-.891.183-.272.019-.565.015-.82-.069-.376-.121-.718-.139-1.07.063-.092-.082-.186-.166-.255-.228-.475.037-.926.071-1.438.111-.115.107-.275.258-.428.4.142.47.437.59.904.636.621.062 1.219.108 1.82-.027.127.177.271.376.421.584.033.294.067.597.118 1.031-.018.06-.077.257-.147.487-.132.072-.306.25-.452.229-.383-.054-.783.056-1.135-.05-.265-.08-.449-.12-.695.021-.095.055-.272-.037-.445-.067-.442.301-.179.763-.239 1.221.424.041.806.131 1.177.1.377-.032.786-.062 1.118-.002.386.069.729-.152 1.137.014.316.13.759-.051 1.125-.092.18.143.325.26.367.294.399-.037.701-.065 1.01-.095.369.637-.113 1.263.073 1.943-.371.106-.742.213-1.148.33-.057-.092-.116-.191-.179-.293-.346.079-.691.159-.906.208-1.986-.196-3.868-.026-5.818-.115-.073-.314-.197-.634-.21-.958-.021-.504.081-1.007-.003-1.52-.071-.437.102-.872.01-1.332-.086-.425-.029-.88-.014-1.321.007-.209.061-.418.103-.682-.416-.35.062-.85-.068-1.324-.117-.436.039-.945.079-1.484.076-.08.21-.222.298-.314.271 0 .521-.037.755.01.284.057.52.057.804-.07.184-.082.51.165.702.088.252-.1.479-.022.715-.057.253-.036.515-.008.926-.008.017.014.156.132.316.266.111-.095.227-.193.297-.252.339.03.645.113.933.073 1.088-.149 1.086-.165 2.186.183m21.9 5.015c-.048.099-.088.181-.147.301-.168-.059-.332-.116-.541-.189-.091.1-.265.204-.278.326-.043.373-.028.754-.029 1.131-.002.662-.001 1.324-.001 2.026-.219.082-.439.164-.667.248-.495-.261-1.216-.038-1.593-.722.06-.356-.148-.812.152-1.21-.307-.395-.098-.854-.158-1.278-.061-.412.191-.819.002-1.236-.188-.415.187-.786.086-1.244-.082-.372-.116-.803-.094-1.215.023-.439.006-.882.006-1.309.135-.492.402-.846.9-.973.445.07.893.141 1.375.217-.034.521-.068.984-.095 1.448-.023.431.311.87-.073 1.236.392.556.973.419 1.404.394.397-.021.76-.187 1.149.057.068.045.227-.051.358-.088.068.084.153.191.251.312.222-.133.425-.266.636-.38.179-.097.367-.175.577-.272-.317-.914-.356-1.766.018-2.672.01-.006.085-.05.16-.094.08-.049.16-.098.237-.146.189.098.382.195.585.301.105-.09.225-.189.348-.293.149.074.302.149.455.226-.042.075-.072.13-.112.204.098.057.196.111.294.168-.049.107-.097.217-.161.359.118.067.217.125.325.188-.334 1.141-.023 2.339-.245 3.605.275.604.069 1.357.122 2.088-.132.08-.236.142-.354.214.088.046.168.088.245.13.044.515.087 1.038.125 1.508-.434.661-1.147.09-1.592.487-.692-.394-.766-.567-.58-1.302.044-.178.133-.412.06-.538-.296-.508-.1-1.05-.2-1.667-.044-.051-.143-.165-.24-.278-.188.088-.299.14-.409.19-.057-.103-.114-.209-.2-.366-.19.125-.364.241-.554.366-.483-.08-.989-.164-1.547-.258m-17.124 1.715c-.157-.097-.313-.193-.492-.302.039-.099.068-.174.105-.269-.088-.055-.183-.115-.315-.197v-.855c-.368-.499-.361-.496-.14-1.085.099-.26.049-.545.1-.821.25-1.406 1.059-2.32 2.311-2.91.182-.084.332-.234.579-.414.269-.047.659-.181 1.042-.16.349.019.517-.547.982-.121-.004-.006.058.097.106.176.392-.104.774-.204 1.233-.325.373.496 1.066.32 1.615.662.508.315 1.011.679 1.562.938.062.199.123.399.193.627-.418.447-.856.914-1.285 1.373-.451-.326-.843-.609-1.237-.894.022-.044.051-.099.056-.108-.432-.088-.879-.18-1.37-.279-.028.016-.11.061-.191.107-.059-.106-.118-.213-.181-.324h-.668c.01.027.021.053.03.08-.484.172-1.006.279-1.442.533-.435.254-.782.653-1.14.965-.07.498-.142.992-.223 1.566.058.067.155.176.296.336.014.221.032.495.046.715.646.377 1.245.727 1.778 1.038.572.012 1.098.081 1.581.018.516-.068 1.055-.136 1.578-.397.474-.239.984-.455 1.469-.703.177.088.339.168.539.27.162.523.332 1.073.484 1.565-.76.834-1.796.861-2.633 1.339-.367.041-.759.085-1.215.135-.115-.055-.306-.146-.499-.237-.12.103-.239.204-.344.294-.175-.088-.341-.172-.509-.257-.736.228-1.365-.079-2.023-.341.062-.118.09-.173.162-.313-.195.047-.329.079-.533.127-.592-.291-1.104-.775-1.515-1.358.052-.094.083-.149.108-.194m-22.28-4.359c-.162-.162-.316-.316-.436-.437-.885.002-1.704.222-2.567-.081-.07-.23-.253-.512-.205-.744.097-.47-.017-1.015.35-1.365.541 0 1.037.023 1.529-.006.503-.031 1.012-.277 1.361.014.424-.024.726-.085 1.015-.047.274.037.522.096.787-.047.286-.154.545.164.87.061.258-.083.608.102.854.005.293-.114.546.113.852-.049.23-.123.63-.127.85.284v1.65c-.249.473-.763.477-1.141.392-.627-.14-1.218-.035-1.832.016-.141.815.131 1.675-.187 2.563.033.095.175.287.138.434-.117.453.029.889.02 1.331-.01.472.026.947-.012 1.416-.026.324-.146.64-.213.921-.57.121-1.091-.086-1.631.217-.115-.132-.257-.292-.401-.456v-6.072z"/>
	<path fill="#231F20" d="M99.331 77.313c-.602-.295-1.089-.729-1.561-1.148-.34-.303-.662-.589-1.022-.829-.339-.223-.668-.457-.998-.69-.225-.158-.448-.316-.673-.472-.175-.121-.354-.232-.532-.346l-.314-.202c-.04-.025-.078-.06-.116-.094l-.144-.133.049-.179-2.696-2.25-.082.101-.238-.263-.292-.537-.324-.062-.282-.389-.439.365-.473-.926.103-.237-4.22-3.507c-.343-.371-.689-.742-1.068-1.106-.229-.222-.49-.403-.766-.599-.484-.342-.985-.696-1.321-1.267-.088-.151-.245-.282-.41-.423-.043-.036-.087-.072-.129-.109-.111.028-.21.023-.298-.014-.189-.076-.251-.257-.297-.389-.016-.041-.039-.11-.056-.128-.284-.104-.521-.323-.75-.535l-.121-.111c-.109-.098-.187-.219-.249-.321l-.348.041-.094-.519c-.236-.071-.409-.226-.554-.354-.169-.148-.279-.241-.43-.254-.16-.018-.227-.149-.26-.213-.054-.076-.097-.132-.14-.188-.098-.126-.189-.245-.295-.333-.162-.138-.342-.252-.522-.369-.086-.056-.172-.11-.256-.17l-.184-.125.065-.125-.549-.237-1.005-1.014-.009-.053-.17.076-.735-.961-.749-.135-.074-.469c-.098-.062-.198-.123-.297-.182-.396-.236-.803-.479-1.038-.928-.478-.154-.762-.508-1.017-.822-.146-.178-.282-.349-.444-.475l-.99.334.316-.699-.9-.535.117-.199c-.036-.025-.072-.051-.108-.075-.246-.172-.502-.351-.643-.621-.176-.339-.467-.546-.776-.767-.155-.11-.311-.221-.454-.35-.128-.113-.262-.221-.396-.328-.229-.186-.463-.375-.674-.595-.114-.116-.266-.198-.427-.282-.234-.125-.5-.267-.696-.55-.166-.241-.416-.437-.683-.644-.114-.092-.231-.18-.341-.275-.269-.234-.539-.465-.809-.696l-1.893-1.627-.892.234.262-.595c-.714-.858-1.624-1.508-2.505-2.135-.499-.357-1.015-.725-1.494-1.128l-.259-.218c-1.2-1.013-2.441-2.059-3.663-2.994l-.098-.076v-.861l.092-.075c.327-.269.665-.528 1.007-.791.811-.623 1.648-1.268 2.411-2.079l.069-.052c.591-.3 1.254-.678 1.643-1.383l.111-.204.295.135.823-.898.839-.657c.967-.753 1.938-1.509 2.903-2.274.083-.066.156-.17.233-.28.044-.063.088-.125.135-.185l.063-.057c.082-.05.172-.097.263-.144.173-.089.336-.172.427-.286.439-.551.985-.974 1.514-1.382.251-.194.502-.388.739-.595l.33-.287c.716-.623 1.456-1.268 2.224-1.835.478-.354.921-.772 1.349-1.177.539-.508 1.097-1.035 1.743-1.456l.115-.073c.439-.285.895-.581 1.249-.942.285-.293.586-.572.885-.849.492-.456.956-.887 1.359-1.381l.122-.149.212.096.16-.325 1.694-1.09 1.391-1.492.216.099c.042-.092.071-.193.103-.293l.138-.439.308.164 1.546-1.19c.087-.328.372-.625.758-.639l1.142-1.057.108.036c.12-.113.239-.226.358-.338.347-.33.688-.654 1.048-.957.196-.166.415-.316.631-.463.367-.25.712-.485.935-.796.208-.291.505-.453.768-.596.34-.186.551-.313.601-.582l.021-.102.086-.059c.237-.161.48-.307.719-.452.504-.304.98-.59 1.326-.974.319-.353.691-.629 1.051-.897.413-.308.804-.598 1.107-.988.405-.524.928-.936 1.347-1.45.312-.381.554-.831.886-1.194.26-.284.722-.401.944-.669.832-1.009-.551-1.166-1.264-.92-.221.076-.421.2-.619.323-.759.47-1.659.887-2.347 1.454-.542.449-.95.949-1.614 1.267-.035.017-.089.082-.135.14-.041.051-.083.101-.128.146-.157.156-.312.314-.467.472-.36.369-.732.75-1.135 1.092-.652.555-1.337 1.089-1.999 1.605l-.732.574c-.101.079-.208.15-.314.221l-.06.04-.076.59-.3-.118c-.209-.079-.278-.015-.468.206-.081.096-.171.2-.286.28l-.065.776-.386-.132-.232.34-.395-.152c-.303.247-.593.517-.875.78-.587.546-1.191 1.11-1.941 1.501-.095.105-.188.212-.28.319-.249.287-.507.584-.786.858-.126.124-.267.205-.403.283-.135.076-.263.148-.366.26-.546.586-1.207 1.115-1.967 1.57-.657.396-1.325.798-1.677 1.5-.104.211-.312.337-.498.447-.053.032-.104.063-.151.096-.084.057-.175.107-.265.157-.092.051-.184.101-.266.164-.137.105-.269.219-.4.332-.21.182-.428.368-.669.525-.819.536-1.579 1.185-2.312 1.813-.455.39-.926.792-1.409 1.167-.323.251-.635.531-.938.802-.531.477-1.081.969-1.732 1.346-.412.24-.823.587-1.292 1.094-.476.514-1.02.951-1.545 1.373-.262.211-.522.421-.775.64-.241.209-.491.407-.743.605-.371.294-.756.599-1.099.934l-.21.206c-.438.433-.89.879-1.422 1.208-.799.494-1.522 1.119-2.222 1.724-.424.367-.862.746-1.316 1.095-.208.161-.406.336-.598.516-.109.103-.226.204-.341.305-.28.243-.547.472-.725.748-.241.377-.566.584-.88.784-.128.082-.256.164-.378.259-.406.32-.829.602-1.246.913-.518.384-.811.304-1.293-.051-.15-.112-1.285-1.106-1.22-1.22l-.197.338-.226-.311c-.076-.107-.149-.22-.221-.333-.142-.224-.276-.437-.45-.579-1.078-.884-2.188-1.728-3.324-2.588-.218-.164-.461-.302-.718-.448-.12-.069-.242-.138-.362-.212l-.188-.112.065-.148c-1.389-1.129-2.853-2.205-4.27-3.247-1.102-.81-2.241-1.647-3.348-2.511l-.491.141-.149-.666-.627-.461c-.528-.388-1.064-.78-1.587-1.188-.205-.159-.415-.311-.626-.462-.48-.347-.978-.705-1.406-1.155-.116-.121-.299-.206-.491-.295-.109-.051-.218-.102-.32-.16l-.086-.049c-.137-.078-.28-.158-.41-.268-.344-.29-.681-.586-1.005-.871l-.247-.217-.323.134-.116-.12c-.123-.126-.235-.262-.345-.394-.199-.244-.39-.474-.598-.56-.587-.242-1.122-.604-1.674-1.133l-.274.139-.429-.543-.329.185-.372-.682-.192.097-.121-.19c-.213-.332-.227-.34-.586-.557l-.235-.142c-.2-.123-.359-.282-.513-.437-.179-.177-.347-.345-.562-.444-.493-.225-.881-.467-1.185-.738-.32-.287-.677-.558-1.121-.601l-.186-.018-.096-.5c-.491-.083-.806-.43-1.089-.741-.151-.166-.295-.323-.459-.441-.172-.125-.393-.219-.607-.311-.427-.182-.907-.387-1.065-.883-.083-.054-.16-.1-.229-.142-.19-.115-.34-.206-.467-.343-.248-.267-.562-.46-.894-.663-.376-.229-.764-.467-1.071-.828-.422-.043-.82-.267-1.184-.667-.104-.113-.245-.194-.397-.281-.212-.122-.45-.259-.611-.509-.654-.252-1.118-.724-1.568-1.18l-.258-.26c-.1-.097-.24-.173-.39-.254-.061-.034-.123-.067-.182-.102-.074-.044-.149-.083-.224-.123-.146-.076-.29-.153-.421-.249-.346-.251-.687-.507-1.03-.763-.929-.693-1.901-1.227-2.94-1.753-.473-.239-1.596-.862-2.065-.276-.409.51.17 1.09.612 1.371.476.303.766.766 1.228 1.103.9.655 1.711 1.992 2.798 2.278.586.154 1.01.46 1.165.837.075.101.162.136.282.181.123.048.275.108.407.28.339.443.864.78 1.284 1.024.513.298 1.141.662 1.622 1.209l.117-.055.167.078.337.278c.246.204.484.4.732.585.139.102.285.193.432.284.152.093.302.187.445.29.209.153.409.32.609.486l.358.298c.056.05.113.1.175.14 1.091.703 1.944 1.325 2.683 1.956.361.31.693.428 1.046.395l.195-.019.236.671 2.047 1.22c.254.307.521.563.794.758.084.06.197.109.315.161.218.094.464.202.594.42.052.09.123.131.241.197.096.052.205.113.303.217.141.151.322.279.516.414.052.036.104.072.156.11l.277-.132.172.312.302-.109.158.618.639.26 1.248 1.215c.415.051.665.342.87.578.104.122.203.237.315.318l.335.246c.301.222.61.453.932.637.1.058.206.106.311.153.328.147.696.313.836.729.063.036.126.069.187.102.188.101.368.198.528.327.443.355.882.719 1.318 1.083.303.252.606.504.911.753.104.085.214.161.324.237.119.081.236.163.348.253.079.064.171.163.257.258.031.034.072.079.106.114.123-.035.231-.032.328.009.177.078.231.251.269.365.01.032.025.081.035.096.432.057.757.355 1.072.643.136.125.271.251.421.354.083.058.158.127.23.197.073.069.142.136.21.171.709.371 1.338.861 1.943 1.336.507.396 1.03.806 1.588 1.132.148.086.257.214.354.326l.076.089c.453.496.984.942 1.627 1.364.439.289.938.617 1.365 1.024.793.755 1.608 1.389 2.493 1.935.12.074.234.193.336.299.029.03.067.07.101.101.376-.111.546.188.604.292.014.024.034.059.043.069.114.068.229.164.341.261.133.114.26.221.408.288.529.238.759.59.686 1.048l-.017.091-.59.493c-.434.362-.868.724-1.304 1.083-.224.182-.435.376-.646.572-.347.319-.704.649-1.118.928-.462.313-.893.705-1.309 1.084-.236.214-.471.429-.716.632-.294.247-.593.488-.894.728-.353.282-.705.564-1.048.857-.09.077-.165.196-.245.321-.05.078-.101.157-.155.23-.044.059-.098.112-.151.165l-.173.181-.226-.085s-1.808 1.564-1.82 1.558l-.109.471-.385-.163-.741.846-.167-.062-.36.288c-.314.25-.609.484-.901.722-.31.253-.615.509-.921.767l-.748.623c-.254.213-.509.426-.767.635l-.711.578c-.388.314-.774.627-1.156.948-.605.507-1.058.902-1.468 1.283-.205.192-.394.403-.583.614-.088.099-.176.197-.266.294l-.139.151-.175-.107c-.339.24-.617.547-.913.867-.326.356-.666.726-1.098 1.015l-.106.073-.091-.037c-.389.259-.726.579-1.053.891-.485.461-.945.898-1.551 1.141l-1.005 1.068-.2-.078c-.356.414-.793.729-1.217 1.035-.429.309-.833.603-1.145.982-.358.441-.817.736-1.263 1.021-.518.334-1.008.647-1.275 1.16l-.038.072-.074.036c-.911.444-1.664 1.049-2.304 1.849-.352.318-.698.575-1.033.824-.422.312-.859.636-1.237 1.018-.418.42-.886.793-1.34 1.152-.295.234-.591.471-.875.721-.283.25-.574.487-.866.727-.448.367-.911.746-1.331 1.158-.315.31-.672.572-1.017.826-.426.313-.828.609-1.16.986l-.122.14-.144-.066-.687.564c-.658.541-1.306 1.073-1.953 1.609-.156.131-.307.271-.459.411-.31.289-.632.587-1.008.806-.734.425-.999.95-.902 1.801l.727 1.07c.497.2.869.537 1.414.522.465-.014 1.133-.077 1.618.053.802.214 1.724-.129 2.661 0 .522.073 1.043-.04 1.595-.021.514.019 1.044.037 1.568.104.381.048.764.038 1.171.027.628-.018 1.269-.035 1.908.176 1.777-.045 3.33-.146 4.827.035.123.014.255-.012.403-.043.231-.048.496-.104.801.003.212.071.474.058.751.039.126-.007.251-.015.375-.015h.07c.114 0 .229-.001.343-.003.282-.004.563-.007.845.01.156.01.312.041.468.073.145.029.287.06.432.064.332.012.657-.001 1.034-.016l.616-.02.051.022c.236.103.543.069.902.031.35-.037.744-.08 1.138.012.175.039.397-.01.636-.062.131-.029.265-.059.401-.078l.047-.006.047.011c.062.015.132.039.203.064.123.043.264.088.348.073.303-.061.584-.034.856-.009.171.015.345.036.512.021.523-.028 1.052-.013 1.564.001.872.027 1.698.051 2.525-.127l.083-.019.079.038c.277.135.565.087.9.032l.172-.027c.317-.048.634-.002.941.042.163.024.326.047.489.056.357.018.716.01 1.072.002l.235-.005c.124-.002.244-.029.366-.056.29-.062.623-.133.992.05.164.081.36.032.587-.025.157-.04.318-.081.493-.086.343-.014.703.035 1.042.078.423.054.823.105 1.228.053.174-.022.354-.025.532-.028.264-.004.513-.008.723-.082.113-.039.221-.055.323-.055.204 0 .387.062.544.115.214.071.354.111.502.068.38-.114.809-.146 1.21-.096.111.014.219.006.329 0 .179-.01.381-.021.6.037.194.054.432.026.686-.004.095-.011.189-.021.283-.028.021-.002.083-.025.118-.039.126-.048.3-.113.451-.004.21.15.415.123.726.062.109-.021.222-.041.335-.051.281-.026.562-.006.833.014.046.003.093.007.139.01l.147-.34.655.301c.422-.048.829-.011 1.226.027.558.055 1.088.105 1.58-.12l.67-.53.166.693c1.049.007 1.086-.006 1.621-.267l.196-.097.25.38c.044.004.091.01.136.015.091.011.242.029.29.012.228-.231.504-.169.667-.13.117.027.17.035.215.009.354-.19.847-.128 1.197-.044.325.079.614.06.946.004.201-.031.406.028.586.081.11.033.28.082.329.06.405-.185.805-.13 1.16-.082.33.045.617.083.882-.054l.144-.076.128.1c.068.055.129.05.322-.006.153-.045.345-.1.548-.035.071.023.147.003.277-.035.183-.053.432-.127.72.011.166.078.437.052.697.022l.202-.02c.402-.032.792-.065 1.2-.005.211.03.434.024.669.018.181-.005.361-.008.537 0 .176.012.334.063.486.112.032.011.064.021.096.03.556-.229 1.103-.167 1.63-.107.251.028.496.062.725.05l.254-.225 1.582.27.828-.716.161.734c.295-.063.582-.021.843.021.357.052.589.079.783-.072l.081-.063.102.013c.17.02.318.033.455.046.28.025.521.047.756.109.058.011.133-.016.223-.049.152-.058.371-.136.602-.026.489-.158.968-.079 1.381.033.381-.159.766-.106 1.112-.057.351.049.652.094.93-.062l.156-.086.132.118c.122.108.231.093.489.028.188-.049.401-.103.632-.043.172.043.361.041.566.04.233-.005.48-.006.734.061.016-.003.095-.037.143-.057.138-.059.31-.134.489-.064.291.117.592.223.801.136.31-.13.583-.066.804-.017.118.028.231.056.335.047.22-.013.438-.038.656-.064.431-.051.874-.104 1.338-.06.11.011.232.036.354.062.13.027.373.08.433.05.297-.241.595-.124.755-.062.037.015.095.037.114.038.264-.256.568-.174.769-.12.076.021.151.034.2.038.467-.021.918-.008 1.4.008.154.005.312.01.471.014l.425-.482.432.563c.017-.002.046-.012.103-.035.123-.052.329-.135.574-.016.048.017.192-.03.282-.057.112-.034.242-.072.37-.082.331-.025.663-.042.995-.058.618-.03 1.258-.062 1.869-.157.091-.014.184-.026.276-.038.464-.062.905-.119 1.224-.439l.105-.885.28.104c-.041-.464-.301-.851-.571-1.255l-.085-.13zm-4.684-.114c-.175.479-.526.504-.811.524-.445.031-.856-.008-1.252-.046-.625-.062-1.21-.119-1.791.081-.214.076-.438-.016-.635-.097-.013-.005-.025-.01-.038-.016l-.409.519-.291-.479c-.13-.016-.26-.032-.389-.05-.363-.047-.708-.091-1.049-.098-.273 0-.54.022-.825.051-.214.022-.429.044-.643.052-.264.009-.527.007-.788.004-.274-.005-.547-.009-.819.006-.319.014-.638.051-.962.087l-.59.063-.141-.241c-.735.201-1.486.16-2.213.117-.702-.038-1.426-.078-2.149.093l-.06.015-.966-.253-1.023.263-.165-.107c-1.194-.035-2.378-.038-3.568-.034h-.758l-.329.531-.339-.49c-.093.001-.189.016-.293.031-.269.042-.572.086-.905-.075-.135-.065-.361-.042-.582-.021-.077.007-.154.016-.229.021-.084.005-.167.015-.249.024-.233.028-.497.062-.787-.018-.188-.049-.441-.005-.687.039l-.129.022c-.198.033-.391.091-.594.149-.097.028-.195.058-.298.085l-.098.026-.087-.048c-.488-.268-.841-.425-1.265-.178l-.113.067-.12-.058c-.201-.097-.431-.053-.7-.003-.333.065-.744.144-1.133-.112l-.763.003c-.837.002-1.7.003-2.547.045-.115.007-.218-.006-.319-.02-.06-.008-.118-.016-.178-.016-.857.004-1.715.02-2.572.036l-1.191.021c-.087-.01-.162-.011-.242-.023l-.255-.032c-.322-.036-.599-.072-.794.07l-.082.06-.1-.014c-.117-.018-.229-.036-.335-.055-.472-.084-.836-.068-1.239-.036-.323.023-.659.049-.993.023-.102-.008-.205-.02-.307-.03-.399-.044-.773-.085-1.125.074l-.08.036-.083-.017c-.7-.176-1.407-.153-2.153-.128-.625.02-1.272.041-1.92-.065-.146-.027-.317-.001-.499.025-.141.021-.285.04-.426.041l-.428.003c-1.009.009-2.053.016-3.079-.007-.244-.005-.488.004-.731.014-.577.022-1.169.045-1.762-.124-.594.181-1.186.151-1.759.124-.283-.014-.565-.029-.848-.016-.597.027-1.201.019-1.786.015-.476-.005-.951-.008-1.43.01-.514.019-1.042.038-1.561-.046-.253-.041-.514-.015-.788.012-.424.043-.864.087-1.333-.106-.117-.05-.315-.004-.508.035-.219.047-.466.1-.699.053-.21-.04-.415-.013-.63.016-.155.021-.308.04-.47.04-.713-.002-1.338-.021-1.908-.055-.171-.014-.354.01-.545.031-.366.043-.779.089-1.183-.099-.274.16-.561.107-.778.066-.116-.021-.228-.042-.318-.031-.402.048-.825.067-1.249.062-.209-.004-.413-.043-.61-.079-.071-.014-.144-.027-.217-.04-.054.01-.111.022-.169.033-.187.04-.396.086-.616.075-.177-.009-.34-.053-.498-.096-.225-.062-.42-.113-.598-.052-.288.097-.548.047-.777.001-.147-.028-.286-.058-.422-.039-.392.047-.787.032-1.166.019l-.196-.007c-1.38-.043-2.854.159-4.234.11l-1.495-.072c-.397-.189-.849.04-1.308.048-.47.009-.968.239-1.451.042-.191-.086-.829-.094-1.04-.096-.172-.002-.356-.13-.533-.154-.663-.089-1.767.045-2.437.031.625-.393 1.937-1.339 2.505-1.809.589-.487 1.152-.952 1.711-1.422.202-.169.399-.343.596-.517.31-.271.618-.543.942-.796.624-.486 1.257-.963 1.888-1.439.379-.285.758-.571 1.136-.859.082-.062.155-.137.229-.21.055-.056.111-.111.17-.164l.405-.364c.445-.4.891-.803 1.346-1.193.784-.678 1.621-1.396 2.462-2.084.499-.408 1.002-.809 1.505-1.209.767-.611 1.56-1.244 2.321-1.886.312-.264.588-.587.88-.929.14-.165.283-.334.437-.502l.044-.049.062-.021c.609-.203 1.05-.672 1.516-1.169.337-.359.686-.73 1.12-1.027l.066-.166.157.062c.124-.075.25-.144.373-.213.317-.177.617-.343.82-.567.265-.293.561-.55.847-.798.309-.269.601-.521.854-.813.092-.107.177-.218.271-.34l.265-.343.306.116c.012-.016.024-.032.036-.049.139-.185.297-.395.501-.568.164-.141.354-.23.538-.314.097-.047.194-.092.287-.146l.06-.036c.179-.105.363-.213.493-.346.557-.57 1.185-1.079 1.921-1.557.106-.067.2-.18.3-.299.116-.139.237-.283.399-.391.826-.553 1.579-1.229 2.308-1.883.41-.369.821-.737 1.247-1.09.765-.629 1.526-1.266 2.282-1.908.182-.155.369-.346.574-.578.353-.408.417-.458.961-.646.047-.106.1-.226.212-.309.239-.178.485-.342.732-.504l.091-.059-.107-.26.229-.096c.651-.271 1.002-.548 1.169-.924l.031-.072.068-.041c.096-.058.19-.108.279-.156.169-.093.315-.173.433-.272.309-.263.633-.509.956-.754.614-.467 1.25-.949 1.76-1.54l.051-.058.075-.021c.439-.115.748-.432 1.075-.768.278-.286.564-.58.948-.773.102-.051.201-.176.324-.333.074-.095.155-.198.253-.303l.052-.058.859-.19.094.077c.048.04.1.078.152.118.129.096.264.2.379.32 1.053 1.112 2.298 2.048 3.5 2.952l.695.525c.548.417 1.076.872 1.587 1.312.343.296.686.591 1.036.877.275.226.584.429.884.626l.251.166c.022.015.079.034.124.05.129.045.306.105.364.282.097.277.318.432.575.607.112.076.222.153.325.24l.271.228c.493.413 1.003.841 1.449 1.323.094.102.221.164.368.233.23.111.493.237.67.55.101.176.342.32.576.461.099.059.197.118.29.18-.029-.021.053-.014.094-.014.022 0 .045.002.067.004l.136.01.063.121c.247.468.67.752 1.117 1.055.181.122.361.244.531.378.118.092.237.183.354.271.231.176.462.351.68.541l.412.361c.43.38.86.76 1.305 1.126.213.175.433.343.653.511.38.291.774.59 1.131.934.11.107.208.23.314.369.033.043.068.087.104.134.454.139.744.483 1.025.815.198.234.389.459.626.604l.437-.854.189 1.369 2.753 2.266.034-.051.248.205.423.521.392-.223.036.387c.03.344.26.557.524.804.06.054.116.106.173.163l.168-.088.131.12c.102.095.213.184.322.272.271.215.552.44.712.75.107.207.283.322.486.457.177.115.359.235.51.424.142.181.337.34.562.524.106.087.219.181.338.283.042.008.087.019.134.03l.203.049.052.105c.228.456.621.754 1.038 1.07.185.141.367.279.538.432.21.189.412.389.614.588.511.504.994.979 1.609 1.301.14.072.23.19.311.294.028.034.054.069.082.101l.594.651.653-1.011-.089 1.574c.205.212.438.414.683.627.314.272.638.554.93.879.14.155.316.285.504.424.14.104.28.207.408.323.287.26.568.525.85.792.503.478 1.023.971 1.567 1.41.225.181.451.356.68.533.614.477 1.252.97 1.813 1.548.024.023.135.05.209.067.072.017.149.035.223.06l.242.082-.084.243z"/>
	</symbol>
	<symbol id="arrow-box" viewBox="0 0 30 30"><style>.st0{fill:none;stroke:#eb4e36;stroke-miterlimit:10}</style><path id="box" class="st0" d="M.5.5h29v29H.5z"/><g id="arrow"><path class="st0" d="M15.8 8.1l7.1 7.2-7.1 6.6M22.9 15.3H6.4"/></g></symbol><symbol id="avatar-default" viewBox="0 0 32 32"><style>.st0{fill:#9b9b9b}.st1{fill:#fff}</style><path id="circle" class="st0" d="M16 31.9C7.2 31.9.1 24.8.1 16S7.2.1 16 .1 31.9 7.2 31.9 16 24.8 31.9 16 31.9z"/><path id="head" class="st1" d="M16 5.4c-3.2 0-5.8 3.1-5.8 7s2.6 7 5.8 7 5.8-3.1 5.8-7-2.6-7-5.8-7z"/><path id="body" class="st1" d="M6.5 20.4c-1.4.9-1.9 4.8-1.9 4.8s4.1 5.4 11.7 5.4 11-5.4 11-5.4-.3-3.7-2-4.8c-1.4-.9-4.4-1.3-4.4-1.3s-2 2.1-4.9 2.1-4.7-2.1-4.7-2.1c0-.1-3.4.4-4.8 1.3z"/></symbol><symbol id="facebook" viewBox="0 0 36 36"><path d="M29.1-76.1H6.8c-1.9 0-3.5-.7-4.8-2S0-81 0-82.9v-22.4c0-1.9.7-3.5 2-4.8s2.9-2 4.8-2h22.4c1.9 0 3.5.7 4.8 2 1.3 1.3 2 2.9 2 4.8v22.4c0 1.9-.7 3.5-2 4.8-1.3 1.4-3 2-4.9 2zM6.8-109.9c-1.3 0-2.4.4-3.4 1.4s-1.4 2-1.4 3.4v22.4c0 1.3.4 2.4 1.4 3.4s2 1.4 3.4 1.4h22.4c1.3 0 2.4-.4 3.4-1.4 1-1 1.4-2 1.4-3.4v-22.4c0-1.3-.4-2.4-1.4-3.4s-2-1.4-3.4-1.4H6.8z" transform="translate(0 112)"/><path d="M24.6-77v-13.1H29l.7-5.2h-5.1v-3.3c0-1.5.4-2.5 2.5-2.5h2.7v-4.6c-.5-.1-2.1-.2-4-.2-3.9 0-6.6 2.4-6.6 6.8v3.8H15v5.2h4.4V-77h5.2z" transform="translate(0 112)"/></symbol><symbol id="hbc-tech-beta" viewBox="0 0 205 43.5"><g id="hbc"><path class="st0" d="M40.3 22.3c0 1-.3 1.8-.6 2.6-.2.5-.1.9.2 1.3.4.5.7 1.1 1.1 1.7.1.2.2.5.2.8.2 1.6-.1 3-1.3 4.2-.8.8-1.7 1.4-3 1.4-.5 0-1 .2-1.5.3H35c-.1 0-.3-.1-.4-.1-.7 0-1.5.1-2.2.1-.4 0-.8-.1-1.2 0-.3.1-.7.1-1 0-1.4-.3-2.9.1-4.3-.2-.2 0-.4.1-.6.1-.5 0-.8-.3-.8-.8v-3c0-.2-.1-.4-.1-.6.2-1.9 0-3.8.1-5.7 0-.4-.1-.9 0-1.3 0-.5.1-1 .1-1.6 0-.3-.1-.7-.1-1 0-.7.1-1.3.1-2 0-.2.5-.4.7-.4h1.8c.5 0 1 .1 1.5.1.3 0 .5 0 .8-.1.3-.1.6.1 1 0 .5-.1 1-.1 1.5.1h.4c1.3-.3 2.6-.2 3.8-.1 1.4.1 2.7.7 3.5 2 .3.5.4.9.5 1.5.1.1.1.5.2.7zM31 27.5c-.8 0-1.5.1-2.3 0-.5 0-.9.2-.9.6v2.5c0 .1.2.4.3.4.5.1 1 .1 1.5.1.4 0 .7 0 1.1-.1.2 0 .4.1.6 0 .6-.1 1.1 0 1.7 0 .3 0 .5.1.8.1.5 0 1.1-.1 1.6-.1.7 0 1.2-.2 1.8-.5.1-.1.2-.1.3-.2.2-.4.3-.9.2-1.3-.1-.5-.3-1.1-.9-1.2-.6-.1-1.2-.3-1.8-.3h-4zm5.8-4.8c0-.8-.4-1.3-1.1-1.3-.9-.1-1.7-.1-2.6-.1h-4.3c-.4-.2-.6 0-1 .1-.2.1-.3.2-.2.4.1.1.1.3 0 .5-.3.5 0 .9.1 1.4 0 .1.2.4.3.4.7-.1 1.3.3 2 .1.3-.1.6 0 .9 0h1c.3 0 .6.1 1 .1s.8-.2 1.2-.1c.5.2 1 0 1.4-.1.9-.2 1.3-.7 1.3-1.4zm-10.7-.4s.1 0 0 0c.1 0 0 0 0 0zM12.4 24.1c0-1 .1-1.8.1-2.7 0-.5-.1-.9-.1-1.4 0-.5.1-1.1.1-1.6 0-.3.3-.5.6-.4.5.1.9 0 1.4 0h.3c.8.1 1 .3.9 1.1v1.1c-.1.7.1 1.4-.1 2.1-.1.2 0 .4 0 .5.2 1 .1 2 .1 3V29c0 .3-.1.7-.1 1v1.3c0 .5 0 1.1.1 1.6 0 .4-.3.8-.1 1.2-.4.2-.7.4-1 .4-.3 0-.7-.1-1-.1-.2 0-.4-.1-.5-.1-.3 0-.5-.1-.5-.5-.1-1-.2-2-.1-3 .1-.9.2-1.8 0-2.7-.1-.4-.2-.6-.7-.6H9.4c-.5 0-.9.1-1.4 0-.4-.1-.9.1-1.4.1H4.3c-.5 0-.6.2-.6.7v5.1c0 .9-.2 1.1-1.1 1.2H1c-.5 0-.7-.3-.8-.8v-.5V19c0-.7.2-1 .8-1.1h.2c.6 0 1.1.1 1.7.1.5 0 .8.3.8.8 0 1.6.1 3.1.1 4.7 0 .4.1.5.6.6 1 .2 1.9.1 2.9.1h3c.5 0 .9.1 1.4 0 0-.1.3-.1.7-.1zM64.8 20.9c-.1.2-.2.4-.4.6-.1.1-.2.3-.3.4-.1.2-.3.4-.4.6-.3.7-.8.8-1.3.3-.8-.6-1.6-1.2-2.6-1.5l-1.8-.6c-.3-.1-.6-.1-1-.1h-1.1c-.4 0-.9-.2-1.3.2-.2.2-.6.3-.9.3-.3 0-.5.2-.8.3-.2.1-.3.3-.6.3-.1 0-.1.1-.2.1-.5.7-1.3 1.3-1.7 2.2-.2.4-.2.8-.3 1.2-.1.3 0 .7-.1.9-.1.2 0 .4 0 .6l.6 2.1.3.6.1.1c.4-.3.5.2.6.4.1.2.3.3.5.5.3.2.8.2 1 .6.1.1.4 0 .6.1.5.4 1.2.5 1.8.5.5 0 1 .1 1.5 0 .6-.1 1.3-.2 1.9 0 .1 0 .1-.1.2-.1l.9-.3c.3-.1.6-.3.9-.4.5-.1 1-.4 1.5-.6.4-.2.7-.4 1.1-.5.5-.2.5-.2.7.3.3.6.6 1.3.9 2 .1.3 0 .5-.2.6-.5.3-1 .6-1.5.8-.8.4-1.7.6-2.6.7-.2 0-.5-.1-.8-.2-.1.1-.1.5-.5.2-.1-.1-.4.2-.6.3-.2.1-.3.2-.5.2-.4 0-.8.1-1.2.2-.2.1-.4 0-.6 0-.5 0-1.1-.1-1.6-.1-.5-.1-.9-.2-1.3-.3-.3 0-.6 0-.9-.2-.2-.2-.5-.3-.7-.4-.3-.2-.7-.3-1-.4-.9-.4-1.7-1.1-2.4-1.8-.3-.3-.6-.7-.7-1.2 0-.1-.1-.1-.1-.2-.6-.6-.8-1.5-.9-2.3-.1-.6-.1-1.3-.1-1.9 0-.8.2-1.6.4-2.4.1-.2.1-.5.2-.7.3-.7.6-1.3 1.2-1.7.2-.2.4-.5.6-.8.8-1 1.9-1.5 3-2.1.6-.3 1.3-.5 2-.7.4-.1.8 0 1.2-.1.5-.2.9-.2 1.4-.1.9.1 1.9.1 2.8.3 1.2.3 2.3.8 3.4 1.4.8.5 1.3 1.1 1.7 1.8zm-5 9.9c0 .1 0 .1 0 0 0 .1 0 .1 0 0z"/></g><g id="beaver"><path id="XMLID_208_" class="st1" d="M100.4 17.1c-.1.1-.3.1-.4.4-.3 0-.4-.2-.5-.3.4-.1.8-.2.9-.1"/><path id="XMLID_207_" class="st1" d="M89.4 20.7c1.9-.6 3.9-1.3 5.8-1.6-.6.5-1 .8-1.8 1.3-1.3.7-2.4 1.6-3.2 1.5-.2-.6-.8-.5-.8-1.2"/><path id="XMLID_206_" class="st1" d="M96.2 20.6c-1.4.7-2.9 1.2-4.3 2.1-.3-.1-.5-.3-.9-.5 1.3-1.2 3.1-1.7 5.3-2l-.1.4z"/><path id="XMLID_205_" class="st1" d="M100 20.9c.1.1.3.1.4.4-.3 0-.7.2-.8 0 0-.3.2-.3.4-.4"/><path id="XMLID_204_" class="st1" d="M98.7 21.1c.1.4-.9.8-1.3.7.2-.6.8-.6 1.3-.7"/><path id="XMLID_164_" class="st1" d="M103.4 23.5c.4-.8 1.1.2 1.3.7-.3.1-.7.1-.8.2-.3-.3-.6-.5-.5-.9"/><path id="XMLID_163_" class="st1" d="M105.3 25.7c-.4 0-.6.2-1.1.3-.3-.3-.2-.8-.3-1.2.3-.1.6-.2 1-.2-.1.4.3.6.4 1.1"/><path id="XMLID_162_" class="st1" d="M99.8 24.8c0-.8 1.1-.6 1.1.1-.5-.2-.7.1-1.1-.1"/><path id="XMLID_161_" class="st1" d="M99.2 24.5c-.3.4-.7.6-1.4.7 0-.3.1-.3.2-.5.3-.1 1-.5 1.2-.2"/><path id="XMLID_160_" class="st1" d="M100.6 26.5c0-.4.2-.5.4-.7.2.3 0 .9-.4.7"/><path id="XMLID_159_" class="st1" d="M100.1 25.8c0 .7-.7.8-1.3.9.3-.4.5-1.1 1.3-.9"/><path class="st1" d="M114.1 30.5c-.2-.6-.5-.4-1.2-.5 0-.1.4-.4 0-.3 0-.3.3-.3.6-.4-.4-.6-1.1-.2-1.5-.6.4-.5-.6-1-.9-.5-.3 0-.4-.2-.5-.3-.3 0-.5.1-.6.2.3 0 .5-.1.7.2-.1.3-.7.1-.9-.1 0-.1.3.1.3-.1-.4-.4-1.2-.5-1.4.2.1.1.3 0 .3.1-.3 1.3 1.6.5 1.9 1.6.4-.1.7 0 .8.4.7.5 1.3.4 2.4.1m-2.8-1.5c.3-.1.7 0 .5.4-.1 0 0 .3-.3.3-.1-.1-.5 0-.8-.3.3-.2.2-.3.6-.4"/><path id="XMLID_158_" class="st1" d="M99.7 28.2c0-.8.9-.8 1.5-.9-.1.8-1.1.5-1.5.9"/><path id="XMLID_157_" class="st1" d="M106.9 36.3c.8.3 1.4.9 1.5 1.7-.5.1-.8.1-1.2.1-.1-.5-.5-.8-.6-1.4.2 0 .1-.2.3-.4"/><path class="st1" d="M118.5 32.6c-.1-.5-.4-.8-.9-1.3-.2-1-.9-.9-1.1-2-.8-.9-.7-2.1-1.5-3.2-.4-.2-.1-.1-.1-.4-.4-.3-.2-.7-.6-.6-.3-1.5-1.8-1.7-2.4-2.8-.7 0-.9-.6-1.3-.9-.3-.1-1.3-.2-1.5-.4-.4-.2-.9-.9-1.2-1.1-.4-.3-.2-.4-.5-.7-.5-.4-.9-.9-1.3-1.3s-.8-.3-1.3-.6c-.4-.3-.1-.3-.6-.6-1.1-.6-1.5-1.4-2.7-1.9-1.9-.8-3.8-2-6.5-2-.7-.2-1.3-.6-2-.8-3.9-.8-6.5.6-9.1 2.1-1.8 1.1-2.9 2.8-4.2 4.7-.4.5-1 1-1.4 1.7-1.2 1.8-2.4 4.1-3.1 6.5-.2.8-.6 1.9-.6 2.7.1.7.6 1 .6 1.8-.3.3-1 .6-1.1.3-.6 1.2-2.1 1.5-3.1 2.4-1 .8-1.4 1.7-2 2.7-.2.4-.4.8-.6 1.1-.2.5.1 1.4-.2 1.9.3.3.4.6.3 1.1.9.3.8 2.2 2 2.4.4 0 1.9-.2 2.5-.3 1.6-.2 3.3-1.3 4.7-1.5 1.1-1.2 2.2-2.9 1.9-5.3.3-.3.8 0 1.1-.1 0-.1-.1-.5.2-.4.7.2 1.2.1 1.7.4.4.3.5.8.9 1 1.5.8 4.7.7 6.9.8.9.1 2 0 3 0 .4 0 .8.2 1.1.2.4-.1.7-.4 1.1-.3.7 0 .9.6 1.4-.2-.6-.7-1.7-1-3.1-.7-.4-.2-.4-.6-.9-.5-.4 0 .1.5-.3.3-.5 0-.5-.8-1-.7.1-.3-.1-.7-.5-.8-.4.2-.4.8-1 1-.8.2-2.8 0-3.2-.2-.7-.2-2.1-.5-2-1.1.2-.5.8.4 1.1.1-.3 0-.5.1-.4-.2.7-.4 2.3.3 2.9-.3.1-.3-.1-.8-.1-1-.3-.1-.7.2-.8.1.3-.1.8-.2.6-.6-.8-.3-1.8 1-2.3.7.3-.1.3-.3.4-.4-.4 0-.8.4-1.1.2.6-.4 1.4-.7 1.7-1.1 1.1-.3 3-1.1 3.5-2.1-2.2 1.4-5.4 1.2-7 3.2.7-1.3 2.1-1.9 3.5-2.5.8-.4 2.3-.4 2.4-1.6-1.5.9-3.3.9-4.8 1.5-2.1.7-3.6 2.2-5.3 2.8 1.7-1.7 4.3-2.5 6.4-3.6.4-.2.7-.6 1.1-.9.8-.4 2.1-.6 2.4-1.4-.4-.2-.4.7-.7.4.1 0 .1-.3-.1-.1-3.6 1.3-7.3 2.3-10 4.5.2-.9 1.3-1.2 2.1-1.6 2.5-1.4 5-2.7 7.5-3.9-.9-.5-1.9.2-2.7.5-1 .2-1.9.6-3 .7-1 .8-2.5 1.1-3.6 1.8-.6.4-.9 1-1.4 1.1.9-1.2 1.9-1.7 3.2-2.4 1.7-.7 3.1-1.6 4.6-2.3.7-.4 1.7-.6 2.1-1.4-2.1.6-4 1-5.8 1.7-.7.2-1.5.6-2.1.8-1 .5-1.7 1.5-2.7 1.5 1.1-.8 2.3-1.5 3.6-2.1 1.4-.5 2.9-.9 3.9-1.7-.3 0-.4.1-.5-.2 1.5-.3 3.2-.8 3.9-1.6-3.6.8-7.7 1.6-10.1 3.4 1.3-1.7 3.9-2.1 6-2.9.7-.2 1.9-.7 2-1.7-2.6.4-4.8 1.2-6.6 2.5.9-1 2.3-1.5 3.6-2.1.8-.4 1.7-.9 2.4-1.1 1.4-.5 2.9-.7 4.1-1.4.3.1.7.4.9.3 1.2-.3 2.1-1 3.2-1.6.6-.2 1.2-.1 1.7-.6-1.1.1-1.8.2-3.1.2-.1-.4-.9-.1-1.8.2-.3.1-1 .4-1.1.1-.3.7-.9.8-1.2 1.3-2 1.1-4.7 1.2-6.8 2.1-.7.2-1.3.9-2 1.3.8-1.5 2.5-1.5 4.2-2.1 1-.5 2-1.3 2.9-1.5.3-.1.7 0 1.1-.1.8-.2 1.3-1 2-1.5 1.7-1.3 4-2 6.2-2.6.7-.2 1.5-.6 2.3-.4-1.3.6-3.2.9-3.9 1.8.8 0 .7 0 .8-.2l.9.1c.6-.4 1.5-.6 2.3-.8.8-.2 1.8-.9 2.5-.3-1 .4-2.3.6-3.3 1.2.8.2 1.4-.1 1.9-.3.7.3 1.2-.2 1.9-.2 0 .3.5.2.8.2 0 .3-.5.1-.4.5.8.9 1.5-.1 2.3.7-.4 0-1.5.2-1.9.3.7 1.3 2.8-.9 3.8.6-.8-.2-1.1.3-1.8.3.3 0 .8.4 1.6.5.5 0 2.1-.3 1.7.4-.4-.3-.4.1 0 .1-.1.1-1.1-.2-1.6.2.4.7 1.3.2 2 .7.4.3.3 1.4.9 1-.3.1-.4-.2-.1-.1.5.3.6.7.5.2 1.3.5 2.8 1.2 3.5 2.1.3.3.6.6.8.7.6.6 1.3 1.7 1.8 2.5.4.7.6 1.5 1 2.2 1.1 2.1 2.3 2.8 1.5 4-.4.2-1.6-.8-1.4.7-.7.2-.6.5-1.4.3-.2.4-.9-.1-.6.2-.8.2-1.6.2-2.4.1.3-.1 1-.1.7-.6-.9-.2-2.1.4-2.7.4.6-.6 1.9-.4 2.4-1.4-1.2-.3-2.6.3-4 .6.3-.7 1-.5 1.4-.6.8-.4 1.5-.9 2.4-1-.5-.4-1.9-.4-2.8-.2-.8.1-1.5.9-2.3.6.6-.4 1.2-.5 1.9-.7.4-.5 1-.8 1.8-1-.9-.9-2.9.3-4.2-.1.5-.1 1.1-.1 1.6-.3.4-.1 1.1-.5 1.1-.8-.5-.7-2.2-.1-2.7-.3.4-.5 1.8-.2 2.3-.7-.4-.7-2.5-.5-3-.4.3-.7 1.4-.5 1.9-.7-.8-.4-1.6-.9-2.5-.7.4-.5 1.5-.2 1.7-.7.3-.8-1.1-.5-1.7-.5.2.6-.1.9-.1 1.5-.4-.3-.7.6-.9 1 .4.8.3 2.2.4 3.3-.3.5-1 .6-.9 1.4.1 1.1 1.8 1.5 2.8 1.6.7.2 1.5.6 1.7.8.1.1.4 0 .5.2.5.4.3 1.1 1 1.4.7 0 1.2.2 1.8 0-.3.9 1.3.2 1.6.5.3-.3.3-.7.2-1.1.9.1 1.7-.7 2.6-.8 1-.1 1.5-.2 2.1-.4.7-.4.6-.9.9-1.8v-.3l.4-.7zm-37.4 2.1c-.2.4-1.1.6-1.5.6.5-.1.8-.7 1.5-.6m-11.4 3.4c.3-.5 1-.2 1.6-.2 1.6 0 3.3-.5 5.2-.4.3-.4.9.1.8-.4 0-.1 0-.1.1-.1.8.7-.2 1.6 0 2.6-.7.4-.9 1.2-1.4 1.7-1.2.1-2.3.6-3.5.4-.3 0-.4-.3-.7-.3-.7 0-1.6.3-2.2-.3 2-.2 4.5 0 6.3-.5-.1-.1-.1-.3 0-.4-.3 0-.3-.3-.5-.3-2 .2-4.3-.2-6.4-.1 2.2-1 6.7.6 7.7-1.8-2.1.5-4.2 0-7 .1m7.2-1.9c-1.9.6-3.9.1-6 .2 1.8-.4 4.1-.5 6-.5v.3M71.7 35c1.1-.3 3-.4 4.2-.5-.8.5-3 .5-4.2.5m17.4-21.5c.1.1.5.2.7.3-2.5.7-4.5 2.2-6.5 3 1.8-1.2 3.7-2.4 5.8-3.3m1.9.7c.1.1.8-.1 1.1.2-.4.1-.8.1-1.1.2-2.1 1.5-5 2-6.9 3.8-1.2-.1-2.6.5-3.3 1 .6-1.3 1.9-.7 3.2-1.5 2.2-1.1 4.8-3.2 7-3.7m-5.4 4.3c2.4-2.2 5.3-3.2 9-4 0 .4-1 .1-.4.5-2.2.6-4.3 1.9-6.2 2.6-1.2.5-1.8.9-2.9 1.3 0 .1.1.3 0 .3-.3.1-1 .6-1.8.4.4-.1.8-.2 1.1-.5-1.7.6-3.4.9-4.5 2.2.2-.5.7-1.3 1.2-1.4 1.3-.5 3.4-.8 4.5-1.4"/><path id="XMLID_156_" class="st1" d="M100.8 17.4c.1.1.7.3.4.6 0-.3-.6-.5-.4-.6"/><path id="XMLID_155_" class="st1" d="M89 18.4c-.3.1-.4.4-.7.5 0-.3.6-.6.7-.5"/><path id="XMLID_154_" class="st1" d="M95.3 37.2c0-.1.2-.7-.1-.5-.2.1.1.2.1.5-.4.2-.8 0-1.2-.2 0-.4-.4-.4-.1-.8-1.1-.3-1.9-.5-2.8-1-.3-.3-.2-.8-.8-.9.3-1.2 1.5-2 1.5-3.2.3-.4 1-1.4 1.2-2.5.2-.4.3-3.2.3-3.2s-.3-2.1-1.2-2.9c1.4-.7 3.4-.9 5.1-1.4-.4 1.7-3 1.1-3.7 2.7.8-.6 1.9-.7 3-.9 0 .3-.3.5 0 .7 0-.3.2-.4.3-.7.5 0 .8-.2 1.2-.3-.1 1.6-2.8 1-3.1 2.4 1.1-.1 1.8-.4 2.7-.7-.1 1.9-2.7 1.6-3.1 2.5 1-.2 1.8-.7 2.8-.9.1 0 0 .3.1.4 0-.5.8-.4 1.2-.5-.1 2-2.8 1.6-3.7 2.7 1.5-.6 3-.7 4.5-1 .1.4-.2.4-.2.7-1.2.5-2.2 1.4-3.6 1.8-.4.1-.8 0-1.1.3 2.4-.1 3.9-1.4 6.1-1.8-.3.7-.9 1-1.8 1 0 .3.1.1 0 .4-1 .2-1.5.9-2.5 1.2v.4c-.6.2-1.4.2-1.8.6 2.2 0 3.6-1.2 5.2-1.3 0 .1 0 .1.1.1-.7.6-1.8 1.1-2.8 1.6.1 1-1.9.6-2.4 1.4 2.1-.3 3.4-1 5.1-1.6 0 .8-1.7.7-1.3 1.4.4-.1.8-.2 1.1-.3 0 .3-.7.2-.6.5.5-.1 1.1-.3 1.1-.8v.5c-1.3.6-2.4 1-3.6 1.6 1.4-.3 2.7-.7 3.7-1.4-.2 1.2-1.1 1.2-1.9 1.7 1.8-.2 4.7.3 5.9 1.9.1 0 .5.2.5-.1-.1-.3-.2-.6-.1-1.1 1.1-.1 2 .9 1.8 2-1.4.3-3 0-4.5-.1-2-.1-4.1-.2-5.7-.7-.1.2-.5-.2-.9-.2"/><path id="XMLID_153_" class="st1" d="M99.8 22.4c0 .4-.4.2-.6.5 0 .1.3.1.1.3-.3-.1-.4.2-.5 0 .1-.5.7-.6 1-.8"/><path id="XMLID_152_" class="st1" d="M108.6 27.2c-1.5.6-2-3.1-.9-3.3.5.2 1.2.5 1.6.6-.1.1-.2.4-.4.4-.3 0-.4-.3-.7-.4 0 .1-.3.1-.3.4.7.3.7 1.4 1.7 1.4 0-.3-.5-.4-.4-.6.1.1.3.3.5.3.2-.5-.4-.8-.2-1.1.1.3 0-.1-.1-.1.7.2.4.2 1.1.6-.2.7.2.7.2 1.4-.7.1-1.8 0-2.6.4-.1 0 .8-.1.5 0"/></g><g id="tech"><path class="st0" d="M137.1 18.2c.5.6-.1.8-.1 1.6s.6 1 0 1.6c-.5.5-.7.1-1.4.1h-3c-.7 0-.9-.5-1.5 0-.5.5 0 .7 0 1.4v2.8c0 .7.1.7.1 1.4s-.1.7-.1 1.4.1.7.1 1.4-.1.7-.1 1.4v1.4c0 .7.6 1 .1 1.5-.6.5-.9 0-1.7 0s-1 .6-1.6 0c-.5-.5.1-.8.1-1.5s-.1-.7-.1-1.4v-1.4-1.4-1.4c0-.7.1-.7.1-1.4s-.1-.7-.1-1.4.1-.7.1-1.4.4-.9-.1-1.4c-.5-.5-.7-.1-1.4-.1H125c-.7 0-.7.1-1.5.1-.7 0-.9.5-1.4-.1-.5-.6-.1-.8-.1-1.6s-.5-1 .1-1.6c.4-.5.6 0 1.3 0h1.4c.7 0 .7-.1 1.4-.1s.7.1 1.4.1.7-.1 1.4-.1h2.8c.7 0 .7.1 1.4.1h1.4c.7 0 .7 0 1.4-.1.4-.1.6-.4 1.1.1zM158 18.2c.5.6 0 .8 0 1.6s.5.9 0 1.6c-.4.5-.6 0-1.3 0H152.5c-.7 0-.7-.1-1.4-.1h-1.4c-.7 0-.7-.1-1.4-.1s-1-.5-1.4 0c-.5.5.1.8.1 1.5s-.6 1-.1 1.5.8-.1 1.5-.1.7.1 1.5.1h1.5c.8 0 1-.6 1.5-.1.5.6 0 .8 0 1.6s.5 1-.1 1.6c-.5.5-.7 0-1.5 0-.7 0-.7-.1-1.5-.1h-1.5c-.7 0-.9-.4-1.4.1-.5.4-.1.6-.1 1.1v1.2c0 .6-.4.7.1 1.1.6.4.7 0 1.4 0s.7.1 1.4.1h1.4c.7 0 .7-.1 1.4-.1h2.8c.7 0 .7.1 1.4.1s.9-.5 1.4 0c.5.6.1.8.1 1.6s.4 1-.1 1.6c-.4.5-.6.1-1.3.1h-2.6c-.7 0-.7-.1-1.3-.1-.7 0-.7.1-1.3.1-.7 0-.7-.1-1.3-.1-.7 0-.7-.1-1.3-.1-.7 0-.7.1-1.3.1h-2.6c-.7 0-.8.5-1.3 0s-.1-.6-.1-1.3c0-.7.1-.7.1-1.3v-1.3-1.3-1.3c0-.7-.1-.7-.1-1.3 0-.7.1-.7.1-1.3 0-.7-.1-.7-.1-1.3 0-.7.1-.7.1-1.3V21v-1.3c0-.7-.5-.9 0-1.4.5-.5.7 0 1.4 0s.7.1 1.4.1h8.4c.7 0 .7.2 1.4 0 .9-.3 1.1-.7 1.6-.2zM179.7 23.6c-.3-.2-.7-.5-1.1-.8-.4-.2-.7-.5-1.2-.8-.4-.2-.8-.4-1.3-.6-.4-.1-.9-.3-1.3-.4-.4-.1-.9-.1-1.4-.1-.5 0-.9 0-1.3.1s-.8.3-1.2.4c-.4.2-.8.3-1.2.5-.4.2-.7.6-1 .9-.3.3-.7.6-.9 1-.2.4-.4.8-.5 1.2-.1.4-.2.9-.2 1.3s.2.9.3 1.3c.1.4.2.9.5 1.3.2.4.6.6.9 1 .3.3.6.7 1 .9.4.2.8.2 1.3.4.4.1.8.3 1.3.4.4.1.9 0 1.3 0 .5 0 1 0 1.4-.1.5-.1 1-.1 1.4-.2.5-.1.9-.3 1.4-.5.5-.2.9-.4 1.3-.6.5-.3.9-.5 1.2-.7.5.6.4.7.7 1.5s.5.7.7 1.5c-.4.3-.7.6-1.2.8-.4.2-.8.5-1.3.7-.4.2-1 .2-1.4.3-.5.1-.9.3-1.4.4-.5.1-1 .1-1.4.2-.5.1-1 .2-1.4.2-.4 0-.9-.1-1.3-.2-.4 0-.9 0-1.3-.1s-.9-.2-1.3-.4c-.4-.1-.8-.4-1.2-.6-.4-.2-.8-.3-1.2-.6-.4-.2-.7-.5-1.1-.8-.3-.3-.6-.6-.9-1-.3-.3-.4-.8-.6-1.2-.2-.4-.4-.8-.5-1.2-.1-.4-.3-.8-.3-1.3-.1-.4 0-.9 0-1.3 0-.5-.1-1 0-1.4.1-.5.2-1 .4-1.4.2-.5.4-.9.7-1.3.2-.4.6-.8.9-1.1.3-.4.6-.7 1-1 .4-.3.7-.6 1.1-.9.4-.2.8-.4 1.3-.6.4-.2.9-.3 1.4-.5.5-.1.9-.3 1.4-.3.5-.1 1-.1 1.4-.1.5 0 1 0 1.5.1s1 .3 1.4.4c.5.1 1 .2 1.4.4.5.2.9.4 1.3.6.5.2.9.5 1.2.8.4.3.8.6 1.2.8-.3.8-.6.6-1 1.4-.4.6-.3.7-.9 1.3zM192.9 18.3c.6.5 0 .7 0 1.5v1.5c0 .8-.1.8-.1 1.5 0 .8-.5 1 0 1.5s.7-.1 1.5-.1h1.4c.7 0 .7.1 1.4.1s.7-.1 1.4-.1h1.4c.7 0 .9.5 1.4 0 .5-.5.1-.7.1-1.5v-1.5-1.5c0-.8-.6-1-.1-1.5.6-.6.8 0 1.6 0s.9-.5 1.6 0c.5.4 0 .6 0 1.3 0 .7.1.7.1 1.3v2.6c0 .7-.1.7-.1 1.3V26c0 .7.1.7.1 1.3V31.2c0 .7.1.7.1 1.3s.5.9 0 1.4c-.6.5-.8 0-1.6 0s-1 .5-1.6 0c-.5-.4 0-.7 0-1.4v-1.3-1.3-1.4c0-.7.6-.9.1-1.4-.5-.5-.7.1-1.5.1-.7 0-.7-.1-1.4-.1h-1.4c-.7 0-.7.1-1.4.1s-.7-.1-1.4-.1-.9-.5-1.5 0c-.5.5.1.7.1 1.4s-.1.7-.1 1.3c0 .7.1.7.1 1.3 0 .7-.1.7-.1 1.4s.6.9.1 1.4c-.6.5-.8 0-1.6 0s-1 .5-1.6 0c-.5-.4 0-.6 0-1.3v-1.3c0-.7.1-.7.1-1.3 0-.7.1-.7.1-1.3 0-.7-.1-.7-.1-1.3v-1.3-1.3c0-.7.1-.7.1-1.3 0-.7-.1-.7-.1-1.3v-1.3-1.3c0-.7-.5-1 0-1.4.6-.5.9.2 1.7.1.5-.2.6-.6 1.2 0z"/></g><g id="beta"><path class="st2" d="M136.7 3.6C131.4-.8 122.2-.2 115.8.5c-5.4.6-11.5 3.1-11 9.5v.2c.5 2 1 4.3 2.8 5.6 2.2 1.7 4.8 2 4.5 5.9 0 .5.7.6.9.2 1.9-2.8 2.8-4.6 6.4-4.9 2.3-.2 4.6-.3 6.9-.4 3.2-.1 7.6.6 10.5-1 4.9-2.6 3.5-9-.1-12zm-8.9 12c-2.8.1-5.6.2-8.4.5-3.6.3-4.6 1.5-6.3 3.9 0-1.3-.3-2.6-1.5-3.5-.6-.4-1.3-.5-1.9-.8-2.5-1.2-3.3-3.1-3.9-5.8-.6-8.5 10.5-8.8 16.4-8.8 2.9 0 6.1 0 9 .8 3.5 1 9.8 4.8 7.7 9.5-2.1 4.7-6.9 4.1-11.1 4.2z"/><path class="st2" d="M124.4 11.6l-.3-.9c-.2-.7-1.2-.4-1 .3.1.2.1.4.2.6-1.1.2-2.1.3-3.2.5.1-.7.1-1.4.1-2 .6-.2 1.2-.3 1.8-.5v.1c.1.7 1.1.7 1.1 0-.1-.7-.2-1.3-.6-1.9-.3-.6-1.2-.1-.9.5 0 .1.1.2.1.2-.5.2-1.1.2-1.6.4-.1-.9-.3-1.9-.6-2.7.7-.1 1.4-.3 2.1-.5.1.7 1.1.7 1.1 0v-.5c.3-.4 0-1-.5-.8-1 .3-2.1.7-3.1.8-.4-.1-.8.3-.6.8.4.9.6 1.9.7 3-.6-1.3-2.4-1.7-4-1.5.1-.4.1-.7-.1-1.1-.8-1.3-2.8-1.1-3.9-.5-.5.2-.3.8.1 1 .1.9.3 1.9.4 2.8.3 1.4 1 3 .7 4.4-.1.7.9.9 1 .3v-.5c1.8-.2 4.7-.6 5.7-2.1 0 .3-.1.5-.1.8-.1.4.2.7.6.6 1.4-.2 2.9-.4 4.3-.6.3-.1.4-.3.4-.6.1-.1.1-.2.1-.4zm-10.8-4.5c0 .3-.1.6-.3.8-.3.1-.6.3-.9.5-.1-.6-.2-1.3-.3-1.9.7-.2 1.5-.2 1.5.6zm-.3 5.6c-.1-.6-.2-1.2-.4-1.8-.1-.5-.2-1-.3-1.4h.1c.3-.2.7-.4 1.1-.6 1.5-.6 3.9-.5 4.4.9 1 2.6-3.1 2.8-4.9 2.9z"/><path class="st2" d="M135 10.2c-1.6-1.3-4.1-3.3-4.4-5.4-.1-.5-.7-.5-.9-.1-.1 0-.3.1-.4.3-.1.2-.1.3-.2.5 0-.1-.1-.2-.1-.2-.4-.5-.7-.9-1.4-.9-.8 0-1.7.3-2.5.5-1.4.3-2.7.3-2.4 2 .1.7 1.1.4 1-.3-.1-.6.5-.5.9-.6.2 0 .3-.1.5-.1.2 1.9.2 3.8.4 5.7.1.7 1.1.7 1.1 0-.2-2-.3-3.9-.5-5.9.9-.2 1.5-.4 2.1.3.2.2.5.2.7 0-.6 1.7-1 3.4-1.2 5.2-.1.1-.1.2-.1.4v.2c.1.6 1 .4 1-.1.1-.5.1-1 .2-1.5.1 0 .1 0 .2-.1.8-.6 1.5-1.2 2.3-1.8.9 1 2 1.9 2.9 2.6.6.5 1.3-.2.8-.7zm-4.4-2.5c-.5.4-.9.8-1.4 1.1.2-.8.4-1.7.7-2.5.2.4.5.9.8 1.3 0 0-.1 0-.1.1z"/><ellipse class="st2" cx="136" cy="11.2" rx=".4" ry=".5"/></g></symbol><symbol id="instagram" viewBox="0 0 30 30"><circle cx="22.9" cy="7" r="1.8"/><path d="M29.8 8.8c0-1.2-.3-2.5-.7-3.6-.4-1-1-1.9-1.7-2.6-.7-.8-1.6-1.3-2.6-1.7-1.1-.4-2.4-.7-3.6-.7C19.5.1 19 .1 15 .1s-4.5 0-6.1.1C7.7.2 6.5.5 5.3.9c-1 .4-1.9 1-2.6 1.7-.8.7-1.4 1.6-1.8 2.6C.5 6.4.3 7.6.3 8.8c-.1 1.6-.1 2.1-.1 6.1s0 4.5.1 6.1c0 1.2.3 2.5.7 3.6.4 1 1 1.9 1.7 2.6.7.8 1.6 1.5 2.6 1.8 1.1.4 2.3.6 3.6.7 1.6.1 2.1.1 6.1.1s4.5 0 6.1-.1c1.2 0 2.5-.2 3.6-.7 1-.4 1.9-1 2.6-1.7.8-.7 1.3-1.6 1.7-2.6.4-1.2.7-2.4.7-3.6.1-1.6.1-2.1.1-6.1.1-4.1.1-4.6 0-6.2zM27 20.9c0 .9-.2 1.9-.5 2.8-.2.6-.6 1.2-1.1 1.7-.5.5-1.1.9-1.7 1.1-.9.3-1.8.5-2.7.5-1.6.1-2 .1-6 .1s-4.4 0-6-.1c-.9 0-1.9-.2-2.8-.5-.6-.2-1.2-.6-1.7-1.1-.5-.5-.9-1.1-1.1-1.7-.3-.9-.5-1.8-.5-2.7-.1-1.6-.1-2-.1-6s0-4.4.1-6c0-.9.2-1.9.5-2.8.3-.6.7-1.2 1.1-1.7.5-.5 1.1-.9 1.8-1.1.8-.4 1.8-.5 2.7-.5 1.6-.1 2-.1 6-.1s4.4 0 6 .1c.9 0 1.9.2 2.8.5.6.2 1.2.6 1.7 1.1.5.5.9 1.1 1.1 1.7.3.9.4 1.8.4 2.8.1 1.6.1 2 .1 6 0 3.9 0 4.4-.1 5.9z"/><path d="M22.6 14.9c0-4.2-3.4-7.6-7.6-7.6-4.2 0-7.6 3.4-7.6 7.6 0 4.2 3.4 7.6 7.6 7.6 4.2.1 7.6-3.4 7.6-7.6zm-7.5 5c-.1 0-.1 0 0 0-2.8 0-5-2.2-5-5 0-2.7 2.2-4.9 5-4.9 2.7 0 4.9 2.2 4.9 4.9s-2.2 5-4.9 5z"/></symbol><symbol id="linkedin" viewBox="0 0 36 36"><style>.st0{fill:#9b9b9b}</style><path class="st0" d="M29.2-20H6.8c-1.9 0-3.5-.7-4.8-2s-2-2.9-2-4.8v-22.5c0-1.9.7-3.5 2-4.8s2.9-2 4.8-2h22.5c1.9 0 3.5.7 4.8 2s2 2.9 2 4.8v22.5c0 1.9-.7 3.5-2 4.8s-3 2-4.9 2zM6.8-54c-1.3 0-2.4.4-3.4 1.4-1 1-1.4 2-1.4 3.4v22.5c0 1.3.4 2.4 1.4 3.4 1 1 2 1.4 3.4 1.4h22.5c1.3 0 2.4-.4 3.4-1.4s1.4-2 1.4-3.4v-22.5c0-1.3-.4-2.4-1.4-3.4-1-1-2-1.4-3.4-1.4H6.8z" transform="translate(0 56)"/><path class="st0" d="M11.9-27.3H6.8v-15.5h5.1zM11.5-45.7c-.5.5-1.2.8-2.1.8-.8 0-1.5-.3-2.1-.8-.5-.5-.8-1.1-.8-1.9 0-.8.3-1.4.8-1.9s1.2-.8 2.1-.8 1.6.3 2.1.8.8 1.1.8 1.9c0 .8-.3 1.4-.8 1.9zm19 18.4h-5.2v-8.3c0-2.3-.9-3.5-2.6-3.5-.7 0-1.2.2-1.7.5-.4.4-.8.8-1 1.3-.1.3-.2.7-.2 1.2v8.7h-5.2v-15.5h5.2v2.2c1.1-1.7 2.6-2.5 4.6-2.5 1.8 0 3.2.6 4.3 1.8 1.1 1.2 1.6 2.9 1.6 5.2l.2 8.9z" transform="translate(0 56)"/></symbol><symbol id="reddit" viewBox="0 0 36 36"><style>.st0{fill:#9b9b9b}</style><path class="st0" d="M29.2 36H6.8c-1.9 0-3.5-.7-4.8-2s-2-2.9-2-4.8V6.8C0 4.9.7 3.3 2 2s2.9-2 4.8-2h22.5c1.9 0 3.5.7 4.8 2s2 2.9 2 4.8v22.5c0 1.9-.7 3.5-2 4.8-1.4 1.2-3 1.9-4.9 1.9zM6.8 2c-1.4 0-2.5.4-3.4 1.4-1 1-1.4 2-1.4 3.4v22.5c0 1.3.4 2.4 1.4 3.4 1 1 2 1.4 3.4 1.4h22.5c1.3 0 2.4-.4 3.4-1.4 1-1 1.4-2 1.4-3.4V6.8c0-1.3-.4-2.4-1.4-3.4S30.7 2 29.3 2H6.8z"/><path class="st0" d="M31.2 17.5c-.5-1.9-2.5-2.7-4.3-1.8l-.6.3-.7-.4c-1.3-.8-3.7-1.6-5.3-1.8-.4 0-1-.1-1.2-.1l-.4-.1.2-.9c.1-.5.3-1.5.5-2.1.2-.7.3-1.6.4-2.1.1-.7.2-.8.4-.8.1 0 1.1.2 2.1.4s1.9.4 1.9.4.1.2.1.4c.1.6.4 1 1 1.3 1.4.7 3.1-.2 3.1-1.9 0-2-2.5-2.9-3.7-1.3-.2.3-.4.4-.6.3-.2-.1-1.3-.3-2.5-.5-1.6-.3-2.2-.4-2.4-.3-.2.2-.2 0-.9 3.2-.8 3.7-.8 3.9-.9 4 0 0-.6.1-1.3.2-2 .2-4.2.9-5.7 1.8l-.6.3-.7-.3c-1.8-.9-3.7 0-4.3 1.8-.2.7-.2.8 0 1.5.2.6.4.9.9 1.4.6.6.6.6.6 1.4 0 3.5 3.6 6.8 8.3 7.8 1.6.3 1.7.3 3.7.3 1.3 0 2.3-.1 3-.3 1.4-.3 2.3-.7 3.3-1.2 3-1.5 4.9-4.1 4.9-6.6 0-.8 0-.8.7-1.4.5-.5.7-.8.9-1.4.3-.7.3-.8.1-1.5zm-19.7 2.8c0-.9.4-1.6 1.3-1.9.6-.2.7-.2 1.3 0 1.5.6 1.8 2.4.6 3.4-.6.5-1.4.6-2.1.2-.8-.3-1.1-.9-1.1-1.7zm11.1 5.6c-1.5 1.1-4.4 1.6-6.7 1-1.1-.2-2.3-.8-2.7-1.2-.3-.2-.2-.7.2-.7.1 0 .5.2.8.3 1.8 1.2 5.9 1.2 7.7 0 .6-.4 1.1-.4 1.1 0 0 .2-.1.4-.4.6zm.8-3.8c-.6.3-1.1.3-1.7.1-.6-.3-1-.7-1.1-1.3-.3-1 .2-2 1.3-2.4.6-.2.6-.2 1.3 0 .9.3 1.3.9 1.3 1.9 0 .7-.4 1.3-1.1 1.7z"/></symbol><symbol id="twitter" viewBox="0 0 36 36"><style>.st0{fill:#9b9b9b}</style><path class="st0" d="M27.1 13.4v.6c0 1.2-.2 2.4-.5 3.6-.3 1.2-.9 2.4-1.6 3.5-.7 1.1-1.6 2.1-2.6 2.9-1 .8-2.2 1.5-3.6 2s-2.9.8-4.5.8c-2.5 0-4.8-.7-6.9-2 .3 0 .7.1 1.1.1 2.1 0 3.9-.6 5.6-1.9-1 0-1.8-.3-2.6-.9-.8-.6-1.3-1.3-1.6-2.2.4.1.6.1.8.1.3 0 .7-.1 1.1-.2-1-.2-1.9-.7-2.6-1.5-.7-.8-1.1-1.8-1.1-2.9.8.4 1.5.5 2.1.6-1.3-.9-1.9-2.1-1.9-3.7 0-.8.2-1.6.6-2.3 1.1 1.4 2.5 2.5 4.1 3.3 1.6.8 3.3 1.3 5.2 1.4-.1-.3-.1-.6-.1-1 0-1.2.4-2.3 1.3-3.2.9-1.1 2-1.5 3.2-1.5 1.3 0 2.4.5 3.3 1.4 1-.2 1.9-.5 2.9-1.1-.4 1.1-1 1.9-2 2.5.9-.1 1.8-.4 2.6-.7-.6.9-1.4 1.7-2.3 2.3z"/><path class="st0" d="M29.2 36H6.8c-1.9 0-3.5-.7-4.8-2-1.3-1.3-2-2.9-2-4.8V6.8C0 4.9.7 3.3 2 2s2.9-2 4.8-2h22.5c1.9 0 3.5.7 4.8 2s2 2.9 2 4.8v22.5c0 1.9-.7 3.5-2 4.8-1.4 1.2-3 1.9-4.9 1.9zM6.8 2c-1.4 0-2.5.4-3.4 1.4-1 1-1.4 2-1.4 3.4v22.5c0 1.3.4 2.4 1.4 3.4 1 1 2 1.4 3.4 1.4h22.5c1.3 0 2.4-.4 3.4-1.4 1-1 1.4-2 1.4-3.4V6.8c0-1.3-.4-2.4-1.4-3.4-1-1-2-1.4-3.4-1.4H6.8z"/></symbol></svg>