<svg id="hbc-tech-logo" xmlns="http://www.w3.org/2000/svg" viewBox="0 0 99.99 92.701" xml:space="preserve">
<g>
	<path d="M29.282,86.265l-0.032-0.003l-0.029,0.013c-0.416,0.184-0.926,0.313-1.514,0.386l-1.579,0.146
		l-0.041,0.003l-0.031,0.028c-0.043,0.039-0.147,0.108-0.398,0.22c-0.209,0.098-0.348,0.186-0.423,0.271l-0.029,0.032l-0.002,0.044
		c-0.02,0.37-0.155,0.8-0.402,1.275c-0.244,0.47-0.543,1.051-0.57,1.129c-0.44,0.613-0.771,1.075-0.989,1.383
		c-0.077,0.1-0.116,0.221-0.116,0.359c0,0.344,0.167,0.568,0.507,0.653c0.155,0.011,0.311,0.021,0.465,0.028
		c0.17,0.017,0.312,0.053,0.424,0.108l0.078,0.038l0.063-0.059c0.125-0.116,0.317-0.207,0.572-0.271
		c0.142-0.037,0.377-0.077,0.702-0.123c0.103-0.033,0.25-0.054,0.438-0.06c0.188-0.008,0.325-0.022,0.423-0.048
		c0.077,0.021,0.148,0.016,0.284-0.03c0.077-0.026,0.108-0.027,0.125-0.007l0.039,0.064l1.14-0.066l0.031-0.024
		c0.219-0.176,0.33-0.375,0.33-0.591c0-0.044-0.006-0.263-0.02-0.301l-0.009-0.205h-0.001c-0.012,0-0.036,0.074-0.07-0.031
		c-0.047-0.15-0.16-0.149-0.308-0.149l-0.042,0.052c-0.24,0.086-0.599,0.173-1.098,0.222c-0.537,0.052-0.898,0.113-1.101,0.164
		c-0.112-0.011-0.217-0.007-0.492,0.011c-0.132,0.008-0.231,0.015-0.295,0.015c-0.178,0-0.316-0.028-0.412-0.088
		c0.036-0.12,0.098-0.252,0.183-0.393c0.156-0.255,0.25-0.41,0.285-0.47c0.056-0.046,0.164-0.07,0.308-0.07
		c0.136,0,0.238,0.021,0.304,0.065l0.043,0.028l1.395-0.285c0.046-0.017,0.192-0.047,0.656-0.062
		c0.327-0.009,0.374-0.091,0.522-0.244l-0.159-0.036v-0.051c0-0.428,0.099-0.672-0.096-0.746l0.06-0.009
		c-0.264-0.018-0.623,0.038-1.152,0.171c-0.541,0.138-0.91,0.207-1.144,0.207c-0.089,0-0.165-0.007-0.25-0.021
		c0.093-0.389,0.247-0.712,0.444-0.961l1.521-0.355l0.036-0.015c0.111-0.064,0.27-0.098,0.47-0.098c0.073,0,0.21,0.006,0.447,0.031
		c0.228,0.023,0.363,0.033,0.451,0.033c0.455,0,0.72-0.226,0.747-0.637l0.003-0.043l-0.262-0.383
		C29.591,86.362,29.446,86.279,29.282,86.265z"/>
	<path d="M37.16,86.991l-0.037-0.019c-0.342-0.172-0.745-0.259-1.198-0.259c-0.319,0-0.729,0.049-1.254,0.148
		c-0.712,0.139-1.109,0.213-1.211,0.227l-0.044,0.015c-0.287,0.161-0.432,0.411-0.432,0.744c0,0.067,0.004,0.142,0.02,0.239
		c0.133,0.415,0.503,0.717,1.107,0.899c0.486,0.111,0.97,0.225,1.446,0.337c0.215,0.063,0.215,0.163,0.215,0.206
		c0,0.052-0.019,0.151-0.107,0.335c-0.09,0.186-0.129,0.276-0.146,0.328c-0.491,0.409-1.004,0.622-1.584,0.652
		c-0.117,0.023-0.231,0.035-0.34,0.035c-0.421,0-0.887-0.219-1.385-0.651l-0.084-0.031l-0.065,0.025l0.016-0.071l-0.058-0.049
		C31.936,90.034,31.852,90,31.765,90c-0.069,0-0.154,0.026-0.276,0.087c-0.116,0.06-0.18,0.077-0.213,0.082l-0.059,0.009
		l-0.031,0.052c-0.105,0.177-0.156,0.332-0.156,0.475c0,0.184,0.088,0.344,0.256,0.474c0.088,0.073,0.246,0.161,0.483,0.268
		c0.249,0.112,0.356,0.185,0.402,0.225l0.028,0.019c0.389,0.185,0.815,0.278,1.265,0.278c0.651,0,1.471-0.224,2.462-0.68
		c0.261-0.207,0.479-0.466,0.648-0.77c0.18-0.318,0.28-0.641,0.295-0.971c-0.037-0.517-0.239-0.768-0.602-0.996l-0.03,0.107h-0.036
		c-0.359,0-0.406-0.195-0.407-0.197l-0.028-0.094c-0.119-0.096-0.365-0.203-0.774-0.27c-0.149-0.021-0.267-0.071-0.348-0.116
		c0.54-0.106,0.932-0.168,1.166-0.168c0.394,0,0.703,0.089,0.918,0.271l0.103,0.075l0.08-0.102c0.001-0.002,0.037-0.045,0.235-0.18
		c0.164-0.109,0.247-0.23,0.247-0.357c0-0.082-0.033-0.168-0.085-0.235L37.16,86.991z"/>
	<path d="M45.864,87.33c0.186,0.082,0.338,0.098,0.537,0.059l0.045-0.009l0.321-0.412
		c0.111-0.167,0.167-0.353,0.167-0.55c0-0.073-0.006-0.148-0.019-0.227l-0.009-0.055l-0.34-0.22
		c-0.344-0.212-0.576-0.172-0.771,0.049c-0.181,0.025-0.306,0.044-0.401,0.058c-0.283,0.041-0.283,0.041-0.683,0.062l-4.024,0.195
		c-0.05,0-0.146-0.017-0.317-0.099c-0.182-0.088-0.314-0.129-0.415-0.129c-0.118,0-0.23,0.043-0.333,0.128l-0.036,0.049
		c-0.078,0.189-0.117,0.361-0.117,0.511c0,0.181,0.052,0.359,0.155,0.531l0.019,0.03l0.032,0.017
		c0.224,0.113,0.522,0.169,0.91,0.169c0.148,0,0.371,0.107,0.682,0.086c0.294-0.023,0.508,0.084,0.635,0.084
		c0.027,0,0.053,0,0.078,0c-0.082,0-0.229,0.455-0.437,0.75c-0.109,0.152-0.368,0.406-0.748,0.846
		c-0.336,0.387-0.573,0.674-0.732,0.959c-0.038,0.107-0.178,0.298-0.633,0.662c-0.382,0.306-0.567,0.574-0.567,0.837
		c0,0.169,0.063,0.349,0.181,0.527c0.056,0.112,0.15,0.172,0.267,0.172c0.081,0,0.176-0.031,0.302-0.099
		c0.137-0.076,0.211-0.115,0.211-0.115l0.042-0.022l0.017-0.045c0.091-0.239,0.287-0.508,0.581-0.796
		c0.377-0.373,0.619-0.636,0.717-0.779l1.142-1.597c0.422-0.6,0.745-1.158,0.96-1.662l2.298-0.092
		C45.677,87.246,45.771,87.288,45.864,87.33z"/>
	<path d="M49.677,90.84l-0.234-0.224c-0.251-0.228-0.452-0.194-0.6,0.042
		c-0.109,0.022-0.188,0.04-0.248,0.053c-0.19,0.041-0.19,0.041-0.456,0.062l-0.404,0.031c-0.78,0.056-1.559,0.109-2.336,0.163
		c-0.014,0-0.066-0.006-0.18-0.088c-0.137-0.096-0.235-0.139-0.318-0.139c-0.068,0-0.17,0.025-0.269,0.145l-0.023,0.045
		c-0.052,0.181-0.078,0.348-0.078,0.497c0,0.175,0.034,0.349,0.102,0.515l0.013,0.032l0.028,0.021
		c0.16,0.118,0.381,0.179,0.656,0.179c0.11,0,0.273-0.012,0.471-0.035l0.369-0.042c0.483-0.056,0.983-0.114,1.473-0.143
		c0.091-0.006,0.209-0.029,0.333-0.054c0.264-0.054,0.594-0.101,0.705-0.032l0.211,0.139c0.138,0.092,0.273,0.107,0.416,0.066
		l0.052-0.015l0.224-0.423c0.074-0.162,0.112-0.341,0.112-0.531c0-0.071-0.004-0.145-0.013-0.22L49.677,90.84z"/>
	<path d="M48.937,86.161c-0.181-0.168-0.358-0.29-0.525-0.362l-0.056-0.023l-0.054,0.029
		c-0.347,0.189-0.603,0.331-0.763,0.427l-0.052,0.031l-0.008,0.06c-0.057,0.437-0.219,0.889-0.482,1.343
		c-0.058,0.103-0.441,0.676-0.78,1.181c-0.161,0.035-0.373,0.154-0.373,0.539c0,0.115,0.02,0.229,0.058,0.337l0.016,0.03
		c0.145,0.203,0.362,0.307,0.646,0.307c0.041,0,0.108-0.003,0.195-0.007c0.083-0.004,0.146-0.006,0.187-0.006
		c0.093,0,0.17,0.011,0.237,0.032l0.026,0.009l0.027-0.004c0.622-0.076,1.173-0.283,1.641-0.614
		c0.486-0.347,0.822-0.786,0.999-1.307c0.046-0.137,0.069-0.281,0.069-0.43c0-0.467-0.192-0.875-0.586-1.224
		C49.281,86.457,49.138,86.339,48.937,86.161z M48.933,87.75c0,0.082-0.015,0.151-0.043,0.203c-0.188,0.329-0.437,0.598-0.739,0.8
		c-0.275,0.185-0.562,0.288-0.856,0.309c0.037-0.054,0.081-0.115,0.133-0.185c0.499-0.848,0.82-1.459,0.977-1.862
		c0.191,0.113,0.341,0.212,0.446,0.293C48.905,87.506,48.933,87.655,48.933,87.75z"/>
	<path d="M57.96,87.313c-0.195-0.263-0.45-0.396-0.757-0.396c-0.191,0-0.496,0.083-0.595,0.24l-0.171,0.03
		v0.28c0,0.751-0.102,1.464-0.602,2.118l0.061,0.029c-0.021,0.048-0.066,0.207-0.405,0.735c-0.219,0.338-0.306,0.618-0.306,0.857
		c0,0.206,0.081,0.407,0.224,0.6l0.03,0.024c0.062,0.047,0.142,0.071,0.229,0.071c0.045,0,0.132-0.009,0.356-0.082l0.054-0.018
		l0.023-0.052c0.128-0.299,0.319-0.657,0.567-1.063l0.636-1.04l0.455-0.94c0.187-0.402,0.277-0.728,0.277-0.995
		c0-0.131-0.021-0.255-0.06-0.368L57.96,87.313z"/>
	<path d="M64.02,90.368c-0.198-0.437-0.464-0.749-0.778-0.923c-0.332-0.221-0.669-0.23-1.159,0.024
		c-0.121,0.065-0.22,0.119-0.297,0.161c0.776-1.011,1.326-2.035,1.637-3.05l0.01-0.031l-0.007-0.033
		c-0.039-0.168-0.077-0.299-0.12-0.486c-0.098-0.248-0.279-0.372-0.526-0.372h-0.017l-0.016-0.037
		c-0.185,0.033-0.339,0.148-0.457,0.384l-0.013,0.033c-0.064,0.6-0.295,1.205-0.682,1.805c-0.389,0.518-0.773,1.032-1.158,1.55
		c-0.452,0.627-0.743,1.232-0.863,1.805l-0.006,0.024l0.005,0.024c0.076,0.382,0.159,0.647,0.255,0.813
		c0.123,0.211,0.323,0.388,0.627,0.548c0.17,0.062,0.355,0.094,0.551,0.094c0.27,0,0.577-0.063,0.919-0.19l0.214-0.092
		c0.192-0.082,0.387-0.164,0.599-0.259c0.493-0.318,0.773-0.506,0.84-0.56c0.312-0.277,0.469-0.607,0.469-0.981
		c0-0.068-0.005-0.142-0.015-0.215L64.02,90.368z M62.719,90.702c-0.054,0.053-0.128,0.098-0.222,0.134
		c-0.094,0.037-0.186,0.073-0.276,0.107c0.015-0.047,0.054-0.093,0.155-0.129C62.492,90.776,62.606,90.739,62.719,90.702z"/>
	<path d="M70.246,86.086l-0.025-0.029c-0.252-0.301-0.494-0.447-0.742-0.447c-0.023,0-0.047,0.001-0.098,0.01
		c-0.356,0.127-0.778,0.243-1.253,0.346c-0.423,0.084-0.847,0.167-1.26,0.248c-0.082,0.003-0.197-0.002-0.335-0.027
		c-0.165-0.028-0.282-0.042-0.347-0.042c-0.184,0-0.34,0.07-0.479,0.228c-0.096,0.161-0.145,0.325-0.145,0.486
		c0,0.185,0.08,0.43,0.243,0.723l0.036,0.078h0.073c0.292,0,0.676-0.089,1.266-0.238c0.609-0.151,1.258-0.245,1.258-0.229v0.044
		c0,0.564-0.708,1.128-1.09,1.691c-0.467,0.697-0.776,1.329-0.991,1.907c-0.008,0.06-0.041,0.187-0.226,0.447
		c-0.165,0.235-0.237,0.422-0.237,0.57c0,0.157,0.075,0.307,0.216,0.444c0.1,0.171,0.251,0.261,0.437,0.261
		c0.235,0,0.438-0.111,0.601-0.332l0.021-0.028l0.003-0.034c0.026-0.271,0.122-0.567,0.284-0.875
		c0.157-0.284,0.314-0.567,0.474-0.853c0.328-0.653,0.863-1.479,1.593-2.451l0.017-0.028c0.012-0.03,0.077-0.167,0.427-0.786
		c0.191-0.336,0.289-0.642,0.289-0.91c0-0.045-0.001-0.09-0.006-0.134L70.246,86.086z"/>
	<path d="M75.071,87.545l-0.387-0.879l-0.046-0.02c-0.534-0.225-1.024-0.101-1.521,0.4
		c-0.183,0.207-0.362,0.416-0.542,0.626l-0.166,0.196l-0.637,1.13c-0.244,0.476-0.361,0.95-0.347,1.435
		c0.157,0.699,0.531,1.179,1.111,1.425l0.032,0.014l0.034-0.005c0.879-0.122,1.659-0.587,2.318-1.382
		c0.316-0.385,0.478-0.875,0.478-1.457C75.4,88.539,75.29,88.04,75.071,87.545z M73.837,87.644c0.166,0,0.272,0.074,0.333,0.224
		c0.117,0.397,0.177,0.755,0.177,1.062c0,0.155-0.015,0.311-0.045,0.464c-0.174,0.312-0.404,0.576-0.686,0.787
		c-0.315,0.236-0.65,0.36-0.995,0.368c-0.1-0.069-0.146-0.177-0.146-0.337c0-0.079,0.018-0.149,0.061-0.227
		c0.412-1.076,0.834-1.862,1.254-2.337C73.806,87.645,73.822,87.644,73.837,87.644z"/>
</g>
<path d="M45.667,0.671C45.758,0.527,45.856,0.375,46,0.147c0.347,0.037,0.709,0.093,1.073,0.112
	c0.379,0.021,0.759,0.006,1.139,0.007c0.337,0,0.675,0,1.016,0.043c1.073-0.349,2.192-0.184,3.254-0.055
	c1.062,0.128,2.117,0.503,3.042,1.119c0.165,0.33,0.33,0.66,0.505,1.012c0.072-0.026,0.15-0.054,0.216-0.078
	c0.189,0.63,0.382,1.267,0.564,1.872c-0.062,0.502-0.124,0.988-0.185,1.475c0.027,0.004,0.056,0.008,0.085,0.012
	c-0.217,0.469-0.434,0.938-0.668,1.449c0.165,0.366,0.302,0.814,0.694,1.146c0.191,0.16,0.236,0.487,0.368,0.727
	c0.082,0.147,0.205,0.272,0.372,0.489c0,0.426-0.09,0.981,0.025,1.488c0.121,0.532-0.159,1.017-0.021,1.416
	c-0.337,0.963-0.765,1.747-1.481,2.354c-0.73,0.618-1.688,0.711-2.521,1.138c-0.861,0-1.744-0.01-2.626,0.007
	c-0.272,0.005-0.543,0.09-0.815,0.123c-0.147,0.018-0.298,0.004-0.446,0.004l-1.066-0.004c-0.433,0.099-0.857,0.121-1.112-0.028
	c-0.537,0.035-0.934,0.085-1.327,0.081c-0.358-0.004-0.744-0.168-1.067-0.078c-0.425,0.118-0.783,0.094-1.158-0.089
	c-0.03,0.002-0.069-0.008-0.092,0.007c-0.523,0.35-1.106,0.073-1.668,0.181c-0.163-0.152-0.322-0.301-0.516-0.481
	c0.086-0.845-0.167-1.714,0.161-2.577c0.083-0.22-0.075-0.531-0.148-0.947c0.061-0.251,0.421-0.64,0.009-1.022
	c0.121-0.139,0.204-0.234,0.242-0.278c-0.057-0.93-0.112-1.811-0.166-2.692c-0.04-0.001-0.081-0.003-0.121-0.004
	c0.069-0.201,0.255-0.462,0.188-0.592c-0.337-0.648,0.261-1.325-0.104-1.952c0.082-0.04,0.164-0.081,0.284-0.141
	c-0.113-0.143-0.221-0.279-0.312-0.395c0.092-0.464,0.18-0.908,0.271-1.37c-0.051-0.024-0.134-0.062-0.274-0.127
	c0.194-0.412-0.09-0.849,0.123-1.333c0.172-0.389,0.062-0.902,0.079-1.413c-0.001-0.001-0.097-0.058-0.278-0.167
	c0.374-0.155,0.677-0.281,0.99-0.412c0.135,0.062,0.272,0.125,0.287,0.132c0.551-0.054,0.977-0.133,1.402-0.127
	c0.363,0.005,0.73,0.085,1.084,0.18C45.441,0.397,45.547,0.565,45.667,0.671 M50.721,9.125c-0.368,0-0.57-0.016-0.768,0.005
	c-0.212,0.021-0.425,0.128-0.628,0.111c-0.817-0.069-1.641-0.101-2.452-0.065c-0.603,0.026-1.241-0.255-1.834,0.17
	c-0.054,0.102-0.125,0.238-0.164,0.313c0.241,0.933,0.013,1.849,0.148,2.769c0.431,0.437,0.901,0.2,1.383,0.037
	c0.298,0.437,0.61,0.052,0.878,0.021c0.571,0.305,1.147,0.164,1.698,0.163c0.517-0.001,0.992,0.295,1.544,0.095
	c0.519-0.187,1.081-0.128,1.59,0.023c0.208-0.084,0.393-0.158,0.573-0.231c0.053,0.113,0.09,0.197,0.125,0.275
	c0.415-0.278,0.823-0.552,1.242-0.833c0.439-0.942,0.188-1.818-0.207-2.593c-0.489-0.093-0.881-0.212-1.275-0.229
	c-0.423-0.017-0.849,0.063-1.261,0.099c-0.064-0.229-0.105-0.373-0.141-0.495C50.974,8.92,50.776,9.08,50.721,9.125 M50.166,6.169
	c0.345-0.115,0.633-0.211,0.958-0.319c0.374,0.509,0.899-0.129,1.346,0.142c0.311-0.162,0.636-0.333,0.932-0.488
	c0.104-0.304,0.191-0.563,0.271-0.794c-0.157-0.478-0.411-0.852-0.872-1.025c-0.041-0.162-0.078-0.308-0.124-0.493
	c-0.087,0.139-0.149,0.238-0.245,0.393c-0.261-0.342-0.622-0.016-0.959-0.175c-0.276-0.129-0.6,0.1-0.946-0.004
	c-0.33-0.099-0.722,0.011-1.252,0.037c-0.018-0.009-0.21-0.106-0.396-0.201c-0.202,0.089-0.41,0.181-0.608,0.27
	c-0.061-0.121-0.102-0.202-0.145-0.29c-0.096,0.127-0.181,0.24-0.275,0.367c-0.449-0.116-0.881-0.228-1.303-0.336
	c-0.45,0.489-0.886,0.144-1.294,0.009c-0.116,0.171-0.217,0.323-0.315,0.469c-0.113-0.047-0.199-0.082-0.253-0.104
	c0.044,0.705,0.083,1.341,0.125,2.01c-0.169-0.063-0.248-0.093-0.357-0.135c0.005,0.112,0.009,0.195,0.012,0.272
	c0.795,0.172,1.566,0.34,2.381,0.516c0.01-0.016,0.072-0.113,0.162-0.255c0.345,0,0.729-0.051,1.091,0.015
	c0.337,0.062,0.618-0.156,0.963-0.069C49.381,6.063,49.742,6,50.09,6C50.109,6.042,50.133,6.097,50.166,6.169"/>
<path d="M4.6,30.718c-0.255-0.406-0.071-0.948-0.118-1.446c0.382-0.631,1.036-0.417,1.547-0.49
	c0.523-0.074,1.083,0.112,1.531,0.172c0.055,0.237,0.106,0.393,0.126,0.554c0.083,0.667,0.086,1.331,0.02,2.004
	c-0.067,0.686-0.021,1.382-0.061,2.072c-0.025,0.425-0.006,0.818,0.278,1.183c0.408,0.029,0.816,0.027,1.211,0.095
	c0.384,0.067,0.76-0.202,1.145,0.022c0.033,0.064,0.075,0.145,0.135,0.26c0.141-0.103,0.278-0.202,0.414-0.302
	c0.383-0.064,0.752,0.334,1.166,0.002c0.109-0.087,0.398,0.051,0.701,0.102c0.273-0.179,0.65-0.239,1.052,0.054
	c0.353-0.226,0.73-0.301,1.068-0.046c0.452-0.089,0.865-0.17,1.301-0.256c0.035-0.475,0.159-0.927,0.074-1.336
	c-0.097-0.465,0.094-0.886,0.041-1.336c-0.039-0.33,0.076-0.676,0.076-1.015c0.001-0.325-0.096-0.652-0.08-0.975
	c0.018-0.361,0.116-0.717,0.184-1.102c0.129,0.071,0.184,0.101,0.274,0.15c0.038-0.06,0.078-0.122,0.154-0.24h1.967
	c0.026,0.044,0.082,0.143,0.133,0.232c0.135-0.046,0.269-0.091,0.433-0.146c-0.052,0.635,0.165,1.201,0.046,1.756
	c-0.124,0.581,0.097,1.141,0.015,1.711c-0.066,0.456,0.134,0.942-0.157,1.373c0.379,0.435,0.081,0.925,0.06,1.371
	c-0.021,0.398,0.054,0.81-0.072,1.217c-0.062,0.202,0.056,0.459,0.089,0.691c0.105,0.733,0.078,1.47,0.095,2.207
	c0.028,1.312-0.158,2.628,0.1,3.942c0.07,0.361-0.111,0.772-0.184,1.193c-0.056-0.019-0.129-0.042-0.226-0.073
	c-0.051,0.086-0.109,0.183-0.205,0.343c-0.252-0.236-0.7-0.076-0.861-0.472c-0.226,0.128-0.439,0.301-0.684,0.373
	c-0.213,0.063-0.46,0.013-0.74,0.013c-0.195-0.187-0.552-0.35-0.385-0.788c0.159,0.022,0.316,0.044,0.627,0.087
	c-0.342-0.386-0.587-0.661-0.768-0.865c0.068-0.707,0.125-1.303,0.183-1.912c-0.019-0.009-0.075-0.033-0.171-0.075
	c0.016-0.2,0.068-0.421,0.042-0.633c-0.028-0.236-0.127-0.464-0.19-0.678c0.173-0.131,0.291-0.219,0.368-0.278
	c-0.066-0.397-0.126-0.758-0.155-0.936c-0.215-0.365-0.345-0.585-0.462-0.784c-0.57,0.862-1.512,0.15-2.242,0.487
	c-0.057-0.1-0.115-0.202-0.197-0.345c-0.117,0.098-0.228,0.19-0.3,0.25c-0.828,0.002-1.656,0.33-2.358-0.283
	c-0.072,0.145-0.114,0.227-0.146,0.293H7.909c0.013-0.013-0.098,0.089-0.212,0.194c0.356,0.806-0.296,1.652,0.124,2.434
	C7.414,41.7,7.74,42.649,7.812,43.59c-0.039,0.176-0.067,0.356-0.121,0.528c-0.053,0.168-0.132,0.328-0.215,0.529
	c-0.49-0.059-0.963,0.141-1.394-0.167c-0.399,0.255-0.874-0.148-1.343,0.237c-0.071-0.114-0.18-0.214-0.197-0.328
	c-0.091-0.609-0.159-1.222-0.235-1.834c0.448-0.478-0.163-1.064,0.16-1.555c-0.295-0.538,0.111-1.059,0.038-1.608
	c-0.058-0.429-0.1-0.876-0.088-1.32c0.01-0.406-0.056-0.813-0.047-1.219c0.028-1.305,0.021-2.615,0.145-3.912
	c0.043-0.461-0.15-0.886-0.038-1.334C4.534,31.375,4.545,31.129,4.6,30.718"/>
<path d="M91.868,31.138c0.051-0.091,0.094-0.171,0.151-0.277c0.146,0.276,0.284,0.537,0.445,0.843
	c-0.152,0.114-0.315,0.237-0.483,0.364c0.031,0.056,0.075,0.136,0.146,0.264c-0.122,0.179-0.319,0.363-0.375,0.583
	c-0.053,0.204-0.58,0.15-0.261,0.509c-0.206,0.173-0.409,0.346-0.649,0.548c-0.346-0.316-0.847-0.475-1.325-0.69
	c-0.567-0.254-1.069-0.646-1.634-0.915c-0.473-0.225-0.886-0.593-1.487-0.492c-0.2,0.033-0.437-0.154-0.742-0.274
	c-0.053,0.026-0.188,0.092-0.323,0.158c-0.757-0.356-1.558-0.222-2.294-0.037c-0.42,0.105-0.878,0.006-1.259,0.246
	c-0.267,0.169-0.478,0.44-0.825,0.461c-0.104,0.006-0.211-0.014-0.271-0.018c-0.18,0.224-0.353,0.439-0.552,0.689
	c-0.086-0.136-0.144-0.226-0.201-0.316c-0.123,0.205-0.246,0.41-0.402,0.67c-0.02-0.046,0.003,0.008,0.026,0.062
	c0.01,0.025,0.019,0.051,0.04,0.109c-0.204,0.168-0.417,0.344-0.586,0.483c-0.062,0.226-0.118,0.437-0.177,0.652
	c-0.11-0.042-0.19-0.071-0.307-0.115c0.018,0.48-0.51,0.914-0.031,1.421c-0.489,1.02-0.016,1.982,0.21,2.964
	c0.604,0.64,1.212,1.287,1.877,1.992c0.015-0.004,0.125-0.036,0.247-0.071c0.576,0.251,1.174,0.512,1.782,0.776
	c0.107-0.036,0.25-0.084,0.406-0.136c0.154,0.155,0.289,0.292,0.448,0.451c0.095-0.165,0.154-0.269,0.19-0.332
	c0.403,0.088,0.791,0.173,1.162,0.254c0.203-0.104,0.396-0.203,0.563-0.288c0.215,0.068,0.418,0.132,0.628,0.198
	c-0.031,0.08-0.062,0.16-0.099,0.251c0.459,0.17,0.273-0.27,0.445-0.48c0.366-0.117,0.798-0.261,1.233-0.395
	c0.407-0.125,0.812-0.283,1.231-0.349c0.561-0.087,1.004-0.368,1.412-0.717c0.347-0.296,0.701-0.519,1.161-0.443
	c0.181,0.271,0.46,0.517,0.501,0.797c0.052,0.358,0.228,0.635,0.347,0.95c0.125,0.33,0.211,0.675,0.269,0.861
	c-0.141,0.157-0.277,0.311-0.478,0.536c-0.01-0.003-0.178-0.064-0.368-0.132c-0.119,0.222-0.235,0.435-0.358,0.664
	c-0.119,0.339-0.545,0.019-0.757,0.362c-0.196,0.317-0.731,0.19-0.995,0.383c-0.288,0.209-0.588,0.214-0.87,0.268
	c-0.366,0.072-0.757,0.009-1.007,0.375c-0.325-0.189-0.625,0.085-0.957,0.051c-0.326-0.032-0.666,0.129-1.004,0.16
	c-0.345,0.032-0.692,0.007-1.044,0.007c-0.07-0.114-0.134-0.216-0.212-0.343c-0.064,0.102-0.121,0.193-0.198,0.313h-0.543
	c-0.079-0.103-0.168-0.219-0.296-0.386c-0.18,0.142-0.345,0.273-0.482,0.383c-0.452-0.097-0.88-0.188-1.383-0.295
	c-0.035-0.055-0.128-0.204-0.229-0.364c-0.307,0.031-0.598,0.06-0.899,0.091c0.041-0.113,0.069-0.195,0.085-0.234
	c-0.522-0.156-1.047-0.313-1.608-0.481c0.045-0.135,0.069-0.21,0.112-0.339c-0.203-0.025-0.402-0.051-0.655-0.083
	c0.021-0.076,0.04-0.144,0.061-0.219c-0.922-0.363-1.392-1.256-2.125-1.822c-0.041-0.647-0.423-1.144-0.727-1.623
	c-0.283-0.445-0.327-0.917-0.472-1.374c-0.091-0.288,0.023-0.651-0.094-0.918c-0.115-0.261,0.303-0.547-0.086-0.737
	c0.077-0.548,0.155-1.095,0.242-1.709c0.005-0.003,0.08-0.05,0.171-0.107c0.147-0.45,0.032-1.043,0.603-1.328
	c-0.073-0.55,0.374-0.908,0.512-1.403c0.208-0.102,0.428-0.211,0.67-0.331c-0.034-0.073-0.066-0.148-0.113-0.252
	c0.407-0.386,0.819-0.795,1.253-1.18c0.369-0.329,0.874-0.476,1.236-0.828c0.526-0.177,1.087-0.344,1.626-0.51
	c0.79-0.243,0.938-0.411,1.631-0.251c0.049-0.077,0.104-0.165,0.16-0.254c0.058-0.021,0.117-0.066,0.17-0.058
	c0.731,0.106,1.454,0.088,2.191,0.011c0.477-0.049,0.994,0.043,1.46,0.183c1.344,0.401,2.757,0.634,3.99,1.539
	c0.028,0.103,0.078,0.278,0.143,0.509c0.074-0.12,0.125-0.204,0.189-0.308c0.151,0.07,0.307,0.141,0.462,0.213
	c-0.038,0.072-0.068,0.127-0.099,0.183C91.566,30.853,91.716,30.995,91.868,31.138"/>
<path d="M46.037,63.555c0.099,0.803,0.038,1.385-0.182,1.852c-0.266,0.224-0.538-0.166-0.851,0.033
	c-0.24,0.153-0.588,0.162-0.891,0.183c-0.272,0.019-0.565,0.015-0.82-0.069c-0.376-0.121-0.718-0.139-1.07,0.063
	c-0.092-0.082-0.186-0.166-0.255-0.228c-0.475,0.037-0.926,0.071-1.438,0.111c-0.115,0.107-0.275,0.258-0.428,0.4
	c0.142,0.47,0.437,0.59,0.904,0.636c0.621,0.062,1.219,0.108,1.82-0.027c0.127,0.177,0.271,0.376,0.421,0.584
	c0.033,0.294,0.067,0.597,0.118,1.031c-0.018,0.06-0.077,0.257-0.147,0.487c-0.132,0.072-0.306,0.25-0.452,0.229
	c-0.383-0.054-0.783,0.056-1.135-0.05c-0.265-0.08-0.449-0.12-0.695,0.021c-0.095,0.055-0.272-0.037-0.445-0.067
	c-0.442,0.301-0.179,0.763-0.239,1.221c0.424,0.041,0.806,0.131,1.177,0.1c0.377-0.032,0.786-0.062,1.118-0.002
	c0.386,0.069,0.729-0.152,1.137,0.014c0.316,0.13,0.759-0.051,1.125-0.092c0.18,0.143,0.325,0.26,0.367,0.294
	c0.399-0.037,0.701-0.065,1.01-0.095c0.369,0.637-0.113,1.263,0.073,1.943c-0.371,0.106-0.742,0.213-1.148,0.33
	c-0.057-0.092-0.116-0.191-0.179-0.293c-0.346,0.079-0.691,0.159-0.906,0.208c-1.986-0.196-3.868-0.026-5.818-0.115
	c-0.073-0.314-0.197-0.634-0.21-0.958c-0.021-0.504,0.081-1.007-0.003-1.52c-0.071-0.437,0.102-0.872,0.01-1.332
	c-0.086-0.425-0.029-0.88-0.014-1.321c0.007-0.209,0.061-0.418,0.103-0.682c-0.416-0.35,0.062-0.85-0.068-1.324
	c-0.117-0.436,0.039-0.945,0.079-1.484c0.076-0.08,0.21-0.222,0.298-0.314c0.271,0,0.521-0.037,0.755,0.01
	c0.284,0.057,0.52,0.057,0.804-0.07c0.184-0.082,0.51,0.165,0.702,0.088c0.252-0.1,0.479-0.022,0.715-0.057
	c0.253-0.036,0.515-0.008,0.926-0.008c0.017,0.014,0.156,0.132,0.316,0.266c0.111-0.095,0.227-0.193,0.297-0.252
	c0.339,0.03,0.645,0.113,0.933,0.073C44.939,63.223,44.937,63.207,46.037,63.555"/>
<path d="M67.937,68.57c-0.048,0.099-0.088,0.181-0.147,0.301c-0.168-0.059-0.332-0.116-0.541-0.189
	c-0.091,0.1-0.265,0.204-0.278,0.326c-0.043,0.373-0.028,0.754-0.029,1.131c-0.002,0.662-0.001,1.324-0.001,2.026
	c-0.219,0.082-0.439,0.164-0.667,0.248c-0.495-0.261-1.216-0.038-1.593-0.722c0.06-0.356-0.148-0.812,0.152-1.21
	c-0.307-0.395-0.098-0.854-0.158-1.278c-0.061-0.412,0.191-0.819,0.002-1.236c-0.188-0.415,0.187-0.786,0.086-1.244
	c-0.082-0.372-0.116-0.803-0.094-1.215c0.023-0.439,0.006-0.882,0.006-1.309c0.135-0.492,0.402-0.846,0.9-0.973
	c0.445,0.07,0.893,0.141,1.375,0.217c-0.034,0.521-0.068,0.984-0.095,1.448c-0.023,0.431,0.311,0.87-0.073,1.236
	c0.392,0.556,0.973,0.419,1.404,0.394c0.397-0.021,0.76-0.187,1.149,0.057c0.068,0.045,0.227-0.051,0.358-0.088
	c0.068,0.084,0.153,0.191,0.251,0.312c0.222-0.133,0.425-0.266,0.636-0.38c0.179-0.097,0.367-0.175,0.577-0.272
	c-0.317-0.914-0.356-1.766,0.018-2.672c0.01-0.006,0.085-0.05,0.16-0.094c0.08-0.049,0.16-0.098,0.237-0.146
	c0.189,0.098,0.382,0.195,0.585,0.301c0.105-0.09,0.225-0.189,0.348-0.293c0.149,0.074,0.302,0.149,0.455,0.226
	c-0.042,0.075-0.072,0.13-0.112,0.204c0.098,0.057,0.196,0.111,0.294,0.168c-0.049,0.107-0.097,0.217-0.161,0.359
	c0.118,0.067,0.217,0.125,0.325,0.188c-0.334,1.141-0.023,2.339-0.245,3.605c0.275,0.604,0.069,1.357,0.122,2.088
	c-0.132,0.08-0.236,0.142-0.354,0.214c0.088,0.046,0.168,0.088,0.245,0.13c0.044,0.515,0.087,1.038,0.125,1.508
	c-0.434,0.661-1.147,0.09-1.592,0.487c-0.692-0.394-0.766-0.567-0.58-1.302c0.044-0.178,0.133-0.412,0.06-0.538
	c-0.296-0.508-0.1-1.05-0.2-1.667c-0.044-0.051-0.143-0.165-0.24-0.278c-0.188,0.088-0.299,0.14-0.409,0.19
	c-0.057-0.103-0.114-0.209-0.2-0.366c-0.19,0.125-0.364,0.241-0.554,0.366C69.001,68.748,68.495,68.664,67.937,68.57"/>
<path d="M50.813,70.285c-0.157-0.097-0.313-0.193-0.492-0.302c0.039-0.099,0.068-0.174,0.105-0.269
	c-0.088-0.055-0.183-0.115-0.315-0.197v-0.855c-0.368-0.499-0.361-0.496-0.14-1.085c0.099-0.26,0.049-0.545,0.1-0.821
	c0.25-1.406,1.059-2.32,2.311-2.91c0.182-0.084,0.332-0.234,0.579-0.414c0.269-0.047,0.659-0.181,1.042-0.16
	c0.349,0.019,0.517-0.547,0.982-0.121c-0.004-0.006,0.058,0.097,0.106,0.176c0.392-0.104,0.774-0.204,1.233-0.325
	c0.373,0.496,1.066,0.32,1.615,0.662c0.508,0.315,1.011,0.679,1.562,0.938c0.062,0.199,0.123,0.399,0.193,0.627
	c-0.418,0.447-0.856,0.914-1.285,1.373c-0.451-0.326-0.843-0.609-1.237-0.894c0.022-0.044,0.051-0.099,0.056-0.108
	c-0.432-0.088-0.879-0.18-1.37-0.279c-0.028,0.016-0.11,0.061-0.191,0.107c-0.059-0.106-0.118-0.213-0.181-0.324h-0.668
	c0.01,0.027,0.021,0.053,0.03,0.08c-0.484,0.172-1.006,0.279-1.442,0.533c-0.435,0.254-0.782,0.653-1.14,0.965
	c-0.07,0.498-0.142,0.992-0.223,1.566c0.058,0.067,0.155,0.176,0.296,0.336c0.014,0.221,0.032,0.495,0.046,0.715
	c0.646,0.377,1.245,0.727,1.778,1.038c0.572,0.012,1.098,0.081,1.581,0.018c0.516-0.068,1.055-0.136,1.578-0.397
	c0.474-0.239,0.984-0.455,1.469-0.703c0.177,0.088,0.339,0.168,0.539,0.27c0.162,0.523,0.332,1.073,0.484,1.565
	c-0.76,0.834-1.796,0.861-2.633,1.339c-0.367,0.041-0.759,0.085-1.215,0.135c-0.115-0.055-0.306-0.146-0.499-0.237
	c-0.12,0.103-0.239,0.204-0.344,0.294c-0.175-0.088-0.341-0.172-0.509-0.257c-0.736,0.228-1.365-0.079-2.023-0.341
	c0.062-0.118,0.09-0.173,0.162-0.313c-0.195,0.047-0.329,0.079-0.533,0.127c-0.592-0.291-1.104-0.775-1.515-1.358
	C50.757,70.385,50.788,70.33,50.813,70.285"/>
<path d="M28.533,65.926c-0.162-0.162-0.316-0.316-0.436-0.437c-0.885,0.002-1.704,0.222-2.567-0.081
	c-0.07-0.23-0.253-0.512-0.205-0.744c0.097-0.47-0.017-1.015,0.35-1.365c0.541,0,1.037,0.023,1.529-0.006
	c0.503-0.031,1.012-0.277,1.361,0.014c0.424-0.024,0.726-0.085,1.015-0.047c0.274,0.037,0.522,0.096,0.787-0.047
	c0.286-0.154,0.545,0.164,0.87,0.061c0.258-0.083,0.608,0.102,0.854,0.005c0.293-0.114,0.546,0.113,0.852-0.049
	c0.23-0.123,0.63-0.127,0.85,0.284v1.65c-0.249,0.473-0.763,0.477-1.141,0.392c-0.627-0.14-1.218-0.035-1.832,0.016
	c-0.141,0.815,0.131,1.675-0.187,2.563c0.033,0.095,0.175,0.287,0.138,0.434c-0.117,0.453,0.029,0.889,0.02,1.331
	c-0.01,0.472,0.026,0.947-0.012,1.416c-0.026,0.324-0.146,0.64-0.213,0.921c-0.57,0.121-1.091-0.086-1.631,0.217
	c-0.115-0.132-0.257-0.292-0.401-0.456V65.926z"/>
<path d="M99.331,77.313c-0.602-0.295-1.089-0.729-1.561-1.148c-0.34-0.303-0.662-0.589-1.022-0.829
	c-0.339-0.223-0.668-0.457-0.998-0.69c-0.225-0.158-0.448-0.316-0.673-0.472c-0.175-0.121-0.354-0.232-0.532-0.346l-0.314-0.202
	c-0.04-0.025-0.078-0.06-0.116-0.094l-0.144-0.133l0.049-0.179l-2.696-2.25l-0.082,0.101l-0.238-0.263l-0.292-0.537l-0.324-0.062
	l-0.282-0.389l-0.439,0.365l-0.473-0.926l0.103-0.237l-4.22-3.507c-0.343-0.371-0.689-0.742-1.068-1.106
	c-0.229-0.222-0.49-0.403-0.766-0.599c-0.484-0.342-0.985-0.696-1.321-1.267c-0.088-0.151-0.245-0.282-0.41-0.423
	c-0.043-0.036-0.087-0.072-0.129-0.109c-0.111,0.028-0.21,0.023-0.298-0.014c-0.189-0.076-0.251-0.257-0.297-0.389
	c-0.016-0.041-0.039-0.11-0.056-0.128c-0.284-0.104-0.521-0.323-0.75-0.535l-0.121-0.111c-0.109-0.098-0.187-0.219-0.249-0.321
	l-0.348,0.041l-0.094-0.519c-0.236-0.071-0.409-0.226-0.554-0.354c-0.169-0.148-0.279-0.241-0.43-0.254
	c-0.16-0.018-0.227-0.149-0.26-0.213c-0.054-0.076-0.097-0.132-0.14-0.188c-0.098-0.126-0.189-0.245-0.295-0.333
	c-0.162-0.138-0.342-0.252-0.522-0.369c-0.086-0.056-0.172-0.11-0.256-0.17l-0.184-0.125l0.065-0.125l-0.549-0.237l-1.005-1.014
	l-0.009-0.053l-0.17,0.076l-0.735-0.961l-0.749-0.135l-0.074-0.469c-0.098-0.062-0.198-0.123-0.297-0.182
	c-0.396-0.236-0.803-0.479-1.038-0.928c-0.478-0.154-0.762-0.508-1.017-0.822c-0.146-0.178-0.282-0.349-0.444-0.475l-0.99,0.334
	l0.316-0.699l-0.9-0.535l0.117-0.199c-0.036-0.025-0.072-0.051-0.108-0.075c-0.246-0.172-0.502-0.351-0.643-0.621
	c-0.176-0.339-0.467-0.546-0.776-0.767c-0.155-0.11-0.311-0.221-0.454-0.35c-0.128-0.113-0.262-0.221-0.396-0.328
	c-0.229-0.186-0.463-0.375-0.674-0.595c-0.114-0.116-0.266-0.198-0.427-0.282c-0.234-0.125-0.5-0.267-0.696-0.55
	c-0.166-0.241-0.416-0.437-0.683-0.644c-0.114-0.092-0.231-0.18-0.341-0.275c-0.269-0.234-0.539-0.465-0.809-0.696l-1.893-1.627
	l-0.892,0.234l0.262-0.595c-0.714-0.858-1.624-1.508-2.505-2.135c-0.499-0.357-1.015-0.725-1.494-1.128l-0.259-0.218
	c-1.2-1.013-2.441-2.059-3.663-2.994l-0.098-0.076v-0.861l0.092-0.075c0.327-0.269,0.665-0.528,1.007-0.791
	c0.811-0.623,1.648-1.268,2.411-2.079l0.069-0.052c0.591-0.3,1.254-0.678,1.643-1.383l0.111-0.204l0.295,0.135l0.823-0.898
	l0.839-0.657c0.967-0.753,1.938-1.509,2.903-2.274c0.083-0.066,0.156-0.17,0.233-0.28c0.044-0.063,0.088-0.125,0.135-0.185
	l0.063-0.057c0.082-0.05,0.172-0.097,0.263-0.144c0.173-0.089,0.336-0.172,0.427-0.286c0.439-0.551,0.985-0.974,1.514-1.382
	c0.251-0.194,0.502-0.388,0.739-0.595l0.33-0.287c0.716-0.623,1.456-1.268,2.224-1.835c0.478-0.354,0.921-0.772,1.349-1.177
	c0.539-0.508,1.097-1.035,1.743-1.456l0.115-0.073c0.439-0.285,0.895-0.581,1.249-0.942c0.285-0.293,0.586-0.572,0.885-0.849
	c0.492-0.456,0.956-0.887,1.359-1.381l0.122-0.149l0.212,0.096l0.16-0.325l1.694-1.09l1.391-1.492l0.216,0.099
	c0.042-0.092,0.071-0.193,0.103-0.293l0.138-0.439l0.308,0.164l1.546-1.19c0.087-0.328,0.372-0.625,0.758-0.639l1.142-1.057
	l0.108,0.036c0.12-0.113,0.239-0.226,0.358-0.338c0.347-0.33,0.688-0.654,1.048-0.957c0.196-0.166,0.415-0.316,0.631-0.463
	c0.367-0.25,0.712-0.485,0.935-0.796c0.208-0.291,0.505-0.453,0.768-0.596c0.34-0.186,0.551-0.313,0.601-0.582l0.021-0.102
	l0.086-0.059c0.237-0.161,0.48-0.307,0.719-0.452c0.504-0.304,0.98-0.59,1.326-0.974c0.319-0.353,0.691-0.629,1.051-0.897
	c0.413-0.308,0.804-0.598,1.107-0.988c0.405-0.524,0.928-0.936,1.347-1.45c0.312-0.381,0.554-0.831,0.886-1.194
	c0.26-0.284,0.722-0.401,0.944-0.669c0.832-1.009-0.551-1.166-1.264-0.92c-0.221,0.076-0.421,0.2-0.619,0.323
	c-0.759,0.47-1.659,0.887-2.347,1.454c-0.542,0.449-0.95,0.949-1.614,1.267c-0.035,0.017-0.089,0.082-0.135,0.14
	c-0.041,0.051-0.083,0.101-0.128,0.146c-0.157,0.156-0.312,0.314-0.467,0.472c-0.36,0.369-0.732,0.75-1.135,1.092
	c-0.652,0.555-1.337,1.089-1.999,1.605l-0.732,0.574c-0.101,0.079-0.208,0.15-0.314,0.221l-0.06,0.04l-0.076,0.59l-0.3-0.118
	C83.649,7.826,83.58,7.89,83.39,8.111c-0.081,0.096-0.171,0.2-0.286,0.28l-0.065,0.776l-0.386-0.132l-0.232,0.34l-0.395-0.152
	c-0.303,0.247-0.593,0.517-0.875,0.78c-0.587,0.546-1.191,1.11-1.941,1.501c-0.095,0.105-0.188,0.212-0.28,0.319
	c-0.249,0.287-0.507,0.584-0.786,0.858c-0.126,0.124-0.267,0.205-0.403,0.283c-0.135,0.076-0.263,0.148-0.366,0.26
	c-0.546,0.586-1.207,1.115-1.967,1.57c-0.657,0.396-1.325,0.798-1.677,1.5c-0.104,0.211-0.312,0.337-0.498,0.447
	c-0.053,0.032-0.104,0.063-0.151,0.096c-0.084,0.057-0.175,0.107-0.265,0.157c-0.092,0.051-0.184,0.101-0.266,0.164
	c-0.137,0.105-0.269,0.219-0.4,0.332c-0.21,0.182-0.428,0.368-0.669,0.525c-0.819,0.536-1.579,1.185-2.312,1.813
	c-0.455,0.39-0.926,0.792-1.409,1.167c-0.323,0.251-0.635,0.531-0.938,0.802c-0.531,0.477-1.081,0.969-1.732,1.346
	c-0.412,0.24-0.823,0.587-1.292,1.094c-0.476,0.514-1.02,0.951-1.545,1.373c-0.262,0.211-0.522,0.421-0.775,0.64
	c-0.241,0.209-0.491,0.407-0.743,0.605c-0.371,0.294-0.756,0.599-1.099,0.934l-0.21,0.206c-0.438,0.433-0.89,0.879-1.422,1.208
	c-0.799,0.494-1.522,1.119-2.222,1.724c-0.424,0.367-0.862,0.746-1.316,1.095c-0.208,0.161-0.406,0.336-0.598,0.516
	c-0.109,0.103-0.226,0.204-0.341,0.305c-0.28,0.243-0.547,0.472-0.725,0.748c-0.241,0.377-0.566,0.584-0.88,0.784
	c-0.128,0.082-0.256,0.164-0.378,0.259c-0.406,0.32-0.829,0.602-1.246,0.913c-0.518,0.384-0.811,0.304-1.293-0.051
	c-0.15-0.112-1.285-1.106-1.22-1.22l-0.197,0.338l-0.226-0.311c-0.076-0.107-0.149-0.22-0.221-0.333
	c-0.142-0.224-0.276-0.437-0.45-0.579c-1.078-0.884-2.188-1.728-3.324-2.588c-0.218-0.164-0.461-0.302-0.718-0.448
	c-0.12-0.069-0.242-0.138-0.362-0.212l-0.188-0.112l0.065-0.148c-1.389-1.129-2.853-2.205-4.27-3.247
	c-1.102-0.81-2.241-1.647-3.348-2.511l-0.491,0.141L33.907,23.6l-0.627-0.461c-0.528-0.388-1.064-0.78-1.587-1.188
	c-0.205-0.159-0.415-0.311-0.626-0.462c-0.48-0.347-0.978-0.705-1.406-1.155c-0.116-0.121-0.299-0.206-0.491-0.295
	c-0.109-0.051-0.218-0.102-0.32-0.16l-0.086-0.049c-0.137-0.078-0.28-0.158-0.41-0.268c-0.344-0.29-0.681-0.586-1.005-0.871
	l-0.247-0.217l-0.323,0.134l-0.116-0.12c-0.123-0.126-0.235-0.262-0.345-0.394c-0.199-0.244-0.39-0.474-0.598-0.56
	c-0.587-0.242-1.122-0.604-1.674-1.133l-0.274,0.139l-0.429-0.543l-0.329,0.185L22.642,15.5l-0.192,0.097l-0.121-0.19
	c-0.213-0.332-0.227-0.34-0.586-0.557l-0.235-0.142c-0.2-0.123-0.359-0.282-0.513-0.437c-0.179-0.177-0.347-0.345-0.562-0.444
	c-0.493-0.225-0.881-0.467-1.185-0.738c-0.32-0.287-0.677-0.558-1.121-0.601l-0.186-0.018l-0.096-0.5
	c-0.491-0.083-0.806-0.43-1.089-0.741c-0.151-0.166-0.295-0.323-0.459-0.441c-0.172-0.125-0.393-0.219-0.607-0.311
	c-0.427-0.182-0.907-0.387-1.065-0.883c-0.083-0.054-0.16-0.1-0.229-0.142c-0.19-0.115-0.34-0.206-0.467-0.343
	c-0.248-0.267-0.562-0.46-0.894-0.663c-0.376-0.229-0.764-0.467-1.071-0.828c-0.422-0.043-0.82-0.267-1.184-0.667
	c-0.104-0.113-0.245-0.194-0.397-0.281c-0.212-0.122-0.45-0.259-0.611-0.509c-0.654-0.252-1.118-0.724-1.568-1.18l-0.258-0.26
	C7.846,4.624,7.706,4.548,7.556,4.467C7.495,4.433,7.433,4.4,7.374,4.365C7.3,4.321,7.225,4.282,7.15,4.242
	C7.004,4.166,6.86,4.089,6.729,3.993C6.383,3.742,6.042,3.486,5.699,3.23C4.77,2.537,3.798,2.003,2.759,1.477
	C2.286,1.238,1.163,0.615,0.694,1.201c-0.409,0.51,0.17,1.09,0.612,1.371c0.476,0.303,0.766,0.766,1.228,1.103
	c0.9,0.655,1.711,1.992,2.798,2.278c0.586,0.154,1.01,0.46,1.165,0.837c0.075,0.101,0.162,0.136,0.282,0.181
	c0.123,0.048,0.275,0.108,0.407,0.28C7.525,7.694,8.05,8.031,8.47,8.275c0.513,0.298,1.141,0.662,1.622,1.209l0.117-0.055
	l0.167,0.078l0.337,0.278c0.246,0.204,0.484,0.4,0.732,0.585c0.139,0.102,0.285,0.193,0.432,0.284
	c0.152,0.093,0.302,0.187,0.445,0.29c0.209,0.153,0.409,0.32,0.609,0.486l0.358,0.298c0.056,0.05,0.113,0.1,0.175,0.14
	c1.091,0.703,1.944,1.325,2.683,1.956c0.361,0.31,0.693,0.428,1.046,0.395l0.195-0.019l0.236,0.671l2.047,1.22
	c0.254,0.307,0.521,0.563,0.794,0.758c0.084,0.06,0.197,0.109,0.315,0.161c0.218,0.094,0.464,0.202,0.594,0.42
	c0.052,0.09,0.123,0.131,0.241,0.197c0.096,0.052,0.205,0.113,0.303,0.217c0.141,0.151,0.322,0.279,0.516,0.414
	c0.052,0.036,0.104,0.072,0.156,0.11l0.277-0.132l0.172,0.312l0.302-0.109l0.158,0.618l0.639,0.26l1.248,1.215
	c0.415,0.051,0.665,0.342,0.87,0.578c0.104,0.122,0.203,0.237,0.315,0.318l0.335,0.246c0.301,0.222,0.61,0.453,0.932,0.637
	c0.1,0.058,0.206,0.106,0.311,0.153c0.328,0.147,0.696,0.313,0.836,0.729c0.063,0.036,0.126,0.069,0.187,0.102
	c0.188,0.101,0.368,0.198,0.528,0.327c0.443,0.355,0.882,0.719,1.318,1.083c0.303,0.252,0.606,0.504,0.911,0.753
	c0.104,0.085,0.214,0.161,0.324,0.237c0.119,0.081,0.236,0.163,0.348,0.253c0.079,0.064,0.171,0.163,0.257,0.258
	c0.031,0.034,0.072,0.079,0.106,0.114c0.123-0.035,0.231-0.032,0.328,0.009c0.177,0.078,0.231,0.251,0.269,0.365
	c0.01,0.032,0.025,0.081,0.035,0.096c0.432,0.057,0.757,0.355,1.072,0.643c0.136,0.125,0.271,0.251,0.421,0.354
	c0.083,0.058,0.158,0.127,0.23,0.197c0.073,0.069,0.142,0.136,0.21,0.171c0.709,0.371,1.338,0.861,1.943,1.336
	c0.507,0.396,1.03,0.806,1.588,1.132c0.148,0.086,0.257,0.214,0.354,0.326l0.076,0.089c0.453,0.496,0.984,0.942,1.627,1.364
	c0.439,0.289,0.938,0.617,1.365,1.024c0.793,0.755,1.608,1.389,2.493,1.935c0.12,0.074,0.234,0.193,0.336,0.299
	c0.029,0.03,0.067,0.07,0.101,0.101c0.376-0.111,0.546,0.188,0.604,0.292c0.014,0.024,0.034,0.059,0.043,0.069
	c0.114,0.068,0.229,0.164,0.341,0.261c0.133,0.114,0.26,0.221,0.408,0.288c0.529,0.238,0.759,0.59,0.686,1.048l-0.017,0.091
	l-0.59,0.493c-0.434,0.362-0.868,0.724-1.304,1.083c-0.224,0.182-0.435,0.376-0.646,0.572c-0.347,0.319-0.704,0.649-1.118,0.928
	c-0.462,0.313-0.893,0.705-1.309,1.084c-0.236,0.214-0.471,0.429-0.716,0.632c-0.294,0.247-0.593,0.488-0.894,0.728
	c-0.353,0.282-0.705,0.564-1.048,0.857c-0.09,0.077-0.165,0.196-0.245,0.321c-0.05,0.078-0.101,0.157-0.155,0.23
	c-0.044,0.059-0.098,0.112-0.151,0.165l-0.173,0.181l-0.226-0.085c0,0-1.808,1.564-1.82,1.558l-0.109,0.471l-0.385-0.163
	l-0.741,0.846l-0.167-0.062l-0.36,0.288c-0.314,0.25-0.609,0.484-0.901,0.722c-0.31,0.253-0.615,0.509-0.921,0.767l-0.748,0.623
	c-0.254,0.213-0.509,0.426-0.767,0.635l-0.711,0.578c-0.388,0.314-0.774,0.627-1.156,0.948c-0.605,0.507-1.058,0.902-1.468,1.283
	c-0.205,0.192-0.394,0.403-0.583,0.614c-0.088,0.099-0.176,0.197-0.266,0.294l-0.139,0.151l-0.175-0.107
	c-0.339,0.24-0.617,0.547-0.913,0.867c-0.326,0.356-0.666,0.726-1.098,1.015L25.368,56.4l-0.091-0.037
	c-0.389,0.259-0.726,0.579-1.053,0.891c-0.485,0.461-0.945,0.898-1.551,1.141l-1.005,1.068l-0.2-0.078
	c-0.356,0.414-0.793,0.729-1.217,1.035c-0.429,0.309-0.833,0.603-1.145,0.982c-0.358,0.441-0.817,0.736-1.263,1.021
	c-0.518,0.334-1.008,0.647-1.275,1.16l-0.038,0.072l-0.074,0.036c-0.911,0.444-1.664,1.049-2.304,1.849
	c-0.352,0.318-0.698,0.575-1.033,0.824c-0.422,0.312-0.859,0.636-1.237,1.018c-0.418,0.42-0.886,0.793-1.34,1.152
	c-0.295,0.234-0.591,0.471-0.875,0.721c-0.283,0.25-0.574,0.487-0.866,0.727c-0.448,0.367-0.911,0.746-1.331,1.158
	c-0.315,0.31-0.672,0.572-1.017,0.826c-0.426,0.313-0.828,0.609-1.16,0.986l-0.122,0.14l-0.144-0.066l-0.687,0.564
	c-0.658,0.541-1.306,1.073-1.953,1.609c-0.156,0.131-0.307,0.271-0.459,0.411c-0.31,0.289-0.632,0.587-1.008,0.806
	c-0.734,0.425-0.999,0.95-0.902,1.801l0.727,1.07c0.497,0.2,0.869,0.537,1.414,0.522c0.465-0.014,1.133-0.077,1.618,0.053
	c0.802,0.214,1.724-0.129,2.661,0c0.522,0.073,1.043-0.04,1.595-0.021c0.514,0.019,1.044,0.037,1.568,0.104
	c0.381,0.048,0.764,0.038,1.171,0.027c0.628-0.018,1.269-0.035,1.908,0.176c1.777-0.045,3.33-0.146,4.827,0.035
	c0.123,0.014,0.255-0.012,0.403-0.043c0.231-0.048,0.496-0.104,0.801,0.003c0.212,0.071,0.474,0.058,0.751,0.039
	c0.126-0.007,0.251-0.015,0.375-0.015h0.07c0.114,0,0.229-0.001,0.343-0.003c0.282-0.004,0.563-0.007,0.845,0.01
	c0.156,0.01,0.312,0.041,0.468,0.073c0.145,0.029,0.287,0.06,0.432,0.064c0.332,0.012,0.657-0.001,1.034-0.016l0.616-0.02
	l0.051,0.022c0.236,0.103,0.543,0.069,0.902,0.031c0.35-0.037,0.744-0.08,1.138,0.012c0.175,0.039,0.397-0.01,0.636-0.062
	c0.131-0.029,0.265-0.059,0.401-0.078l0.047-0.006l0.047,0.011c0.062,0.015,0.132,0.039,0.203,0.064
	c0.123,0.043,0.264,0.088,0.348,0.073c0.303-0.061,0.584-0.034,0.856-0.009c0.171,0.015,0.345,0.036,0.512,0.021
	c0.523-0.028,1.052-0.013,1.564,0.001c0.872,0.027,1.698,0.051,2.525-0.127l0.083-0.019l0.079,0.038
	c0.277,0.135,0.565,0.087,0.9,0.032l0.172-0.027c0.317-0.048,0.634-0.002,0.941,0.042c0.163,0.024,0.326,0.047,0.489,0.056
	c0.357,0.018,0.716,0.01,1.072,0.002l0.235-0.005c0.124-0.002,0.244-0.029,0.366-0.056c0.29-0.062,0.623-0.133,0.992,0.05
	c0.164,0.081,0.36,0.032,0.587-0.025c0.157-0.04,0.318-0.081,0.493-0.086c0.343-0.014,0.703,0.035,1.042,0.078
	c0.423,0.054,0.823,0.105,1.228,0.053c0.174-0.022,0.354-0.025,0.532-0.028c0.264-0.004,0.513-0.008,0.723-0.082
	c0.113-0.039,0.221-0.055,0.323-0.055c0.204,0,0.387,0.062,0.544,0.115c0.214,0.071,0.354,0.111,0.502,0.068
	c0.38-0.114,0.809-0.146,1.21-0.096c0.111,0.014,0.219,0.006,0.329,0c0.179-0.01,0.381-0.021,0.6,0.037
	c0.194,0.054,0.432,0.026,0.686-0.004c0.095-0.011,0.189-0.021,0.283-0.028c0.021-0.002,0.083-0.025,0.118-0.039
	c0.126-0.048,0.3-0.113,0.451-0.004c0.21,0.15,0.415,0.123,0.726,0.062c0.109-0.021,0.222-0.041,0.335-0.051
	c0.281-0.026,0.562-0.006,0.833,0.014c0.046,0.003,0.093,0.007,0.139,0.01l0.147-0.34l0.655,0.301
	c0.422-0.048,0.829-0.011,1.226,0.027c0.558,0.055,1.088,0.105,1.58-0.12l0.67-0.53l0.166,0.693
	c1.049,0.007,1.086-0.006,1.621-0.267l0.196-0.097l0.25,0.38c0.044,0.004,0.091,0.01,0.136,0.015
	c0.091,0.011,0.242,0.029,0.29,0.012c0.228-0.231,0.504-0.169,0.667-0.13c0.117,0.027,0.17,0.035,0.215,0.009
	c0.354-0.19,0.847-0.128,1.197-0.044c0.325,0.079,0.614,0.06,0.946,0.004c0.201-0.031,0.406,0.028,0.586,0.081
	c0.11,0.033,0.28,0.082,0.329,0.06c0.405-0.185,0.805-0.13,1.16-0.082c0.33,0.045,0.617,0.083,0.882-0.054l0.144-0.076l0.128,0.1
	c0.068,0.055,0.129,0.05,0.322-0.006c0.153-0.045,0.345-0.1,0.548-0.035c0.071,0.023,0.147,0.003,0.277-0.035
	c0.183-0.053,0.432-0.127,0.72,0.011c0.166,0.078,0.437,0.052,0.697,0.022l0.202-0.02c0.402-0.032,0.792-0.065,1.2-0.005
	c0.211,0.03,0.434,0.024,0.669,0.018c0.181-0.005,0.361-0.008,0.537,0c0.176,0.012,0.334,0.063,0.486,0.112
	c0.032,0.011,0.064,0.021,0.096,0.03c0.556-0.229,1.103-0.167,1.63-0.107c0.251,0.028,0.496,0.062,0.725,0.05l0.254-0.225
	l1.582,0.27l0.828-0.716l0.161,0.734c0.295-0.063,0.582-0.021,0.843,0.021c0.357,0.052,0.589,0.079,0.783-0.072l0.081-0.063
	l0.102,0.013c0.17,0.02,0.318,0.033,0.455,0.046c0.28,0.025,0.521,0.047,0.756,0.109c0.058,0.011,0.133-0.016,0.223-0.049
	c0.152-0.058,0.371-0.136,0.602-0.026c0.489-0.158,0.968-0.079,1.381,0.033c0.381-0.159,0.766-0.106,1.112-0.057
	c0.351,0.049,0.652,0.094,0.93-0.062l0.156-0.086l0.132,0.118c0.122,0.108,0.231,0.093,0.489,0.028
	c0.188-0.049,0.401-0.103,0.632-0.043c0.172,0.043,0.361,0.041,0.566,0.04c0.233-0.005,0.48-0.006,0.734,0.061
	c0.016-0.003,0.095-0.037,0.143-0.057c0.138-0.059,0.31-0.134,0.489-0.064c0.291,0.117,0.592,0.223,0.801,0.136
	c0.31-0.13,0.583-0.066,0.804-0.017c0.118,0.028,0.231,0.056,0.335,0.047c0.22-0.013,0.438-0.038,0.656-0.064
	c0.431-0.051,0.874-0.104,1.338-0.06c0.11,0.011,0.232,0.036,0.354,0.062c0.13,0.027,0.373,0.08,0.433,0.05
	c0.297-0.241,0.595-0.124,0.755-0.062c0.037,0.015,0.095,0.037,0.114,0.038c0.264-0.256,0.568-0.174,0.769-0.12
	c0.076,0.021,0.151,0.034,0.2,0.038c0.467-0.021,0.918-0.008,1.4,0.008c0.154,0.005,0.312,0.01,0.471,0.014l0.425-0.482l0.432,0.563
	c0.017-0.002,0.046-0.012,0.103-0.035c0.123-0.052,0.329-0.135,0.574-0.016c0.048,0.017,0.192-0.03,0.282-0.057
	c0.112-0.034,0.242-0.072,0.37-0.082c0.331-0.025,0.663-0.042,0.995-0.058c0.618-0.03,1.258-0.062,1.869-0.157
	c0.091-0.014,0.184-0.026,0.276-0.038c0.464-0.062,0.905-0.119,1.224-0.439l0.105-0.885l0.28,0.104
	c-0.041-0.464-0.301-0.851-0.571-1.255L99.331,77.313z M94.647,77.199c-0.175,0.479-0.526,0.504-0.811,0.524
	c-0.445,0.031-0.856-0.008-1.252-0.046c-0.625-0.062-1.21-0.119-1.791,0.081c-0.214,0.076-0.438-0.016-0.635-0.097
	c-0.013-0.005-0.025-0.01-0.038-0.016l-0.409,0.519l-0.291-0.479c-0.13-0.016-0.26-0.032-0.389-0.05
	c-0.363-0.047-0.708-0.091-1.049-0.098c-0.273,0-0.54,0.022-0.825,0.051c-0.214,0.022-0.429,0.044-0.643,0.052
	c-0.264,0.009-0.527,0.007-0.788,0.004c-0.274-0.005-0.547-0.009-0.819,0.006c-0.319,0.014-0.638,0.051-0.962,0.087l-0.59,0.063
	l-0.141-0.241c-0.735,0.201-1.486,0.16-2.213,0.117c-0.702-0.038-1.426-0.078-2.149,0.093l-0.06,0.015l-0.966-0.253l-1.023,0.263
	l-0.165-0.107c-1.194-0.035-2.378-0.038-3.568-0.034h-0.758l-0.329,0.531l-0.339-0.49c-0.093,0.001-0.189,0.016-0.293,0.031
	c-0.269,0.042-0.572,0.086-0.905-0.075c-0.135-0.065-0.361-0.042-0.582-0.021c-0.077,0.007-0.154,0.016-0.229,0.021
	c-0.084,0.005-0.167,0.015-0.249,0.024c-0.233,0.028-0.497,0.062-0.787-0.018c-0.188-0.049-0.441-0.005-0.687,0.039l-0.129,0.022
	c-0.198,0.033-0.391,0.091-0.594,0.149c-0.097,0.028-0.195,0.058-0.298,0.085l-0.098,0.026l-0.087-0.048
	c-0.488-0.268-0.841-0.425-1.265-0.178l-0.113,0.067l-0.12-0.058c-0.201-0.097-0.431-0.053-0.7-0.003
	c-0.333,0.065-0.744,0.144-1.133-0.112l-0.763,0.003c-0.837,0.002-1.7,0.003-2.547,0.045c-0.115,0.007-0.218-0.006-0.319-0.02
	c-0.06-0.008-0.118-0.016-0.178-0.016c-0.857,0.004-1.715,0.02-2.572,0.036l-1.191,0.021c-0.087-0.01-0.162-0.011-0.242-0.023
	l-0.255-0.032c-0.322-0.036-0.599-0.072-0.794,0.07l-0.082,0.06l-0.1-0.014c-0.117-0.018-0.229-0.036-0.335-0.055
	c-0.472-0.084-0.836-0.068-1.239-0.036c-0.323,0.023-0.659,0.049-0.993,0.023c-0.102-0.008-0.205-0.02-0.307-0.03
	c-0.399-0.044-0.773-0.085-1.125,0.074l-0.08,0.036L50.17,77.77c-0.7-0.176-1.407-0.153-2.153-0.128
	c-0.625,0.02-1.272,0.041-1.92-0.065c-0.146-0.027-0.317-0.001-0.499,0.025c-0.141,0.021-0.285,0.04-0.426,0.041l-0.428,0.003
	c-1.009,0.009-2.053,0.016-3.079-0.007c-0.244-0.005-0.488,0.004-0.731,0.014c-0.577,0.022-1.169,0.045-1.762-0.124
	c-0.594,0.181-1.186,0.151-1.759,0.124c-0.283-0.014-0.565-0.029-0.848-0.016c-0.597,0.027-1.201,0.019-1.786,0.015
	c-0.476-0.005-0.951-0.008-1.43,0.01c-0.514,0.019-1.042,0.038-1.561-0.046c-0.253-0.041-0.514-0.015-0.788,0.012
	c-0.424,0.043-0.864,0.087-1.333-0.106c-0.117-0.05-0.315-0.004-0.508,0.035c-0.219,0.047-0.466,0.1-0.699,0.053
	c-0.21-0.04-0.415-0.013-0.63,0.016c-0.155,0.021-0.308,0.04-0.47,0.04c-0.713-0.002-1.338-0.021-1.908-0.055
	c-0.171-0.014-0.354,0.01-0.545,0.031c-0.366,0.043-0.779,0.089-1.183-0.099c-0.274,0.16-0.561,0.107-0.778,0.066
	c-0.116-0.021-0.228-0.042-0.318-0.031c-0.402,0.048-0.825,0.067-1.249,0.062c-0.209-0.004-0.413-0.043-0.61-0.079
	c-0.071-0.014-0.144-0.027-0.217-0.04c-0.054,0.01-0.111,0.022-0.169,0.033c-0.187,0.04-0.396,0.086-0.616,0.075
	c-0.177-0.009-0.34-0.053-0.498-0.096c-0.225-0.062-0.42-0.113-0.598-0.052c-0.288,0.097-0.548,0.047-0.777,0.001
	c-0.147-0.028-0.286-0.058-0.422-0.039c-0.392,0.047-0.787,0.032-1.166,0.019l-0.196-0.007c-1.38-0.043-2.854,0.159-4.234,0.11
	l-1.495-0.072c-0.397-0.189-0.849,0.04-1.308,0.048c-0.47,0.009-0.968,0.239-1.451,0.042c-0.191-0.086-0.829-0.094-1.04-0.096
	c-0.172-0.002-0.356-0.13-0.533-0.154c-0.663-0.089-1.767,0.045-2.437,0.031c0.625-0.393,1.937-1.339,2.505-1.809
	c0.589-0.487,1.152-0.952,1.711-1.422c0.202-0.169,0.399-0.343,0.596-0.517c0.31-0.271,0.618-0.543,0.942-0.796
	c0.624-0.486,1.257-0.963,1.888-1.439c0.379-0.285,0.758-0.571,1.136-0.859c0.082-0.062,0.155-0.137,0.229-0.21
	c0.055-0.056,0.111-0.111,0.17-0.164l0.405-0.364c0.445-0.4,0.891-0.803,1.346-1.193c0.784-0.678,1.621-1.396,2.462-2.084
	c0.499-0.408,1.002-0.809,1.505-1.209c0.767-0.611,1.56-1.244,2.321-1.886c0.312-0.264,0.588-0.587,0.88-0.929
	c0.14-0.165,0.283-0.334,0.437-0.502l0.044-0.049l0.062-0.021c0.609-0.203,1.05-0.672,1.516-1.169
	c0.337-0.359,0.686-0.73,1.12-1.027l0.066-0.166l0.157,0.062c0.124-0.075,0.25-0.144,0.373-0.213
	c0.317-0.177,0.617-0.343,0.82-0.567c0.265-0.293,0.561-0.55,0.847-0.798c0.309-0.269,0.601-0.521,0.854-0.813
	c0.092-0.107,0.177-0.218,0.271-0.34l0.265-0.343l0.306,0.116c0.012-0.016,0.024-0.032,0.036-0.049
	c0.139-0.185,0.297-0.395,0.501-0.568c0.164-0.141,0.354-0.23,0.538-0.314c0.097-0.047,0.194-0.092,0.287-0.146l0.06-0.036
	c0.179-0.105,0.363-0.213,0.493-0.346c0.557-0.57,1.185-1.079,1.921-1.557c0.106-0.067,0.2-0.18,0.3-0.299
	c0.116-0.139,0.237-0.283,0.399-0.391c0.826-0.553,1.579-1.229,2.308-1.883c0.41-0.369,0.821-0.737,1.247-1.09
	c0.765-0.629,1.526-1.266,2.282-1.908c0.182-0.155,0.369-0.346,0.574-0.578c0.353-0.408,0.417-0.458,0.961-0.646
	c0.047-0.106,0.1-0.226,0.212-0.309c0.239-0.178,0.485-0.342,0.732-0.504l0.091-0.059l-0.107-0.26l0.229-0.096
	c0.651-0.271,1.002-0.548,1.169-0.924l0.031-0.072l0.068-0.041c0.096-0.058,0.19-0.108,0.279-0.156
	c0.169-0.093,0.315-0.173,0.433-0.272c0.309-0.263,0.633-0.509,0.956-0.754c0.614-0.467,1.25-0.949,1.76-1.54l0.051-0.058
	l0.075-0.021c0.439-0.115,0.748-0.432,1.075-0.768c0.278-0.286,0.564-0.58,0.948-0.773c0.102-0.051,0.201-0.176,0.324-0.333
	c0.074-0.095,0.155-0.198,0.253-0.303l0.052-0.058l0.859-0.19l0.094,0.077c0.048,0.04,0.1,0.078,0.152,0.118
	c0.129,0.096,0.264,0.2,0.379,0.32c1.053,1.112,2.298,2.048,3.5,2.952l0.695,0.525c0.548,0.417,1.076,0.872,1.587,1.312
	c0.343,0.296,0.686,0.591,1.036,0.877c0.275,0.226,0.584,0.429,0.884,0.626l0.251,0.166c0.022,0.015,0.079,0.034,0.124,0.05
	c0.129,0.045,0.306,0.105,0.364,0.282c0.097,0.277,0.318,0.432,0.575,0.607c0.112,0.076,0.222,0.153,0.325,0.24l0.271,0.228
	c0.493,0.413,1.003,0.841,1.449,1.323c0.094,0.102,0.221,0.164,0.368,0.233c0.23,0.111,0.493,0.237,0.67,0.55
	c0.101,0.176,0.342,0.32,0.576,0.461c0.099,0.059,0.197,0.118,0.29,0.18c-0.029-0.021,0.053-0.014,0.094-0.014
	c0.022,0,0.045,0.002,0.067,0.004l0.136,0.01l0.063,0.121c0.247,0.468,0.67,0.752,1.117,1.055c0.181,0.122,0.361,0.244,0.531,0.378
	c0.118,0.092,0.237,0.183,0.354,0.271c0.231,0.176,0.462,0.351,0.68,0.541l0.412,0.361c0.43,0.38,0.86,0.76,1.305,1.126
	c0.213,0.175,0.433,0.343,0.653,0.511c0.38,0.291,0.774,0.59,1.131,0.934c0.11,0.107,0.208,0.23,0.314,0.369
	c0.033,0.043,0.068,0.087,0.104,0.134c0.454,0.139,0.744,0.483,1.025,0.815c0.198,0.234,0.389,0.459,0.626,0.604l0.437-0.854
	l0.189,1.369l2.753,2.266l0.034-0.051l0.248,0.205l0.423,0.521l0.392-0.223l0.036,0.387c0.03,0.344,0.26,0.557,0.524,0.804
	c0.06,0.054,0.116,0.106,0.173,0.163l0.168-0.088l0.131,0.12c0.102,0.095,0.213,0.184,0.322,0.272
	c0.271,0.215,0.552,0.44,0.712,0.75c0.107,0.207,0.283,0.322,0.486,0.457c0.177,0.115,0.359,0.235,0.51,0.424
	c0.142,0.181,0.337,0.34,0.562,0.524c0.106,0.087,0.219,0.181,0.338,0.283c0.042,0.008,0.087,0.019,0.134,0.03l0.203,0.049
	l0.052,0.105c0.228,0.456,0.621,0.754,1.038,1.07c0.185,0.141,0.367,0.279,0.538,0.432c0.21,0.189,0.412,0.389,0.614,0.588
	c0.511,0.504,0.994,0.979,1.609,1.301c0.14,0.072,0.23,0.19,0.311,0.294c0.028,0.034,0.054,0.069,0.082,0.101l0.594,0.651
	l0.653-1.011l-0.089,1.574c0.205,0.212,0.438,0.414,0.683,0.627c0.314,0.272,0.638,0.554,0.93,0.879
	c0.14,0.155,0.316,0.285,0.504,0.424c0.14,0.104,0.28,0.207,0.408,0.323c0.287,0.26,0.568,0.525,0.85,0.792
	c0.503,0.478,1.023,0.971,1.567,1.41c0.225,0.181,0.451,0.356,0.68,0.533c0.614,0.477,1.252,0.97,1.813,1.548
	c0.024,0.023,0.135,0.05,0.209,0.067c0.072,0.017,0.149,0.035,0.223,0.06l0.242,0.082L94.647,77.199z"/>
</svg>
