<?xml version="1.0" encoding="utf-8"?>
<!-- Generator: Adobe Illustrator 21.0.0, SVG Export Plug-In . SVG Version: 6.00 Build 0)  -->
<!DOCTYPE svg PUBLIC "-//W3C//DTD SVG 1.1//EN" "http://www.w3.org/Graphics/SVG/1.1/DTD/svg11.dtd">
<svg version="1.1" id="Layer_1" xmlns="http://www.w3.org/2000/svg" xmlns:xlink="http://www.w3.org/1999/xlink" x="0px" y="0px"
	 viewBox="0 0 205 43.5" style="enable-background:new 0 0 205 43.5;" xml:space="preserve">
<style type="text/css">
	.st0{fill:#231F20;}
	.st1{fill:#010101;stroke:#FFFFFF;stroke-width:0.1651;stroke-miterlimit:10;}
	.st2{fill:#CA3E96;}
</style>
<g id="nDZFYP_6_">
	<g>
		<path class="st0" d="M40.3,22.3c0,1-0.3,1.8-0.6,2.6c-0.2,0.5-0.1,0.9,0.2,1.3c0.4,0.5,0.7,1.1,1.1,1.7c0.1,0.2,0.2,0.5,0.2,0.8
			c0.2,1.6-0.1,3-1.3,4.2c-0.8,0.8-1.7,1.4-3,1.4c-0.5,0-1,0.2-1.5,0.3c-0.1,0-0.3,0-0.4,0c-0.1,0-0.3-0.1-0.4-0.1
			c-0.7,0-1.5,0.1-2.2,0.1c-0.4,0-0.8-0.1-1.2,0c-0.3,0.1-0.7,0.1-1,0c-1.4-0.3-2.9,0.1-4.3-0.2c-0.2,0-0.4,0.1-0.6,0.1
			c-0.5,0-0.8-0.3-0.8-0.8c0-1,0-2,0-3c0-0.2-0.1-0.4-0.1-0.6c0.2-1.9,0-3.8,0.1-5.7c0-0.4-0.1-0.9,0-1.3c0-0.5,0.1-1,0.1-1.6
			c0-0.3-0.1-0.7-0.1-1c0-0.7,0.1-1.3,0.1-2c0-0.2,0.5-0.4,0.7-0.4c0.6,0,1.2,0,1.8,0c0.5,0,1,0.1,1.5,0.1c0.3,0,0.5,0,0.8-0.1
			c0.3-0.1,0.6,0.1,1,0c0.5-0.1,1-0.1,1.5,0.1c0.1,0,0.3,0,0.4,0c1.3-0.3,2.6-0.2,3.8-0.1c1.4,0.1,2.7,0.7,3.5,2
			c0.3,0.5,0.4,0.9,0.5,1.5C40.2,21.7,40.2,22.1,40.3,22.3z M31,27.5c-0.8,0-1.5,0.1-2.3,0c-0.5,0-0.9,0.2-0.9,0.6
			c0,0.8,0,1.7,0,2.5c0,0.1,0.2,0.4,0.3,0.4c0.5,0.1,1,0.1,1.5,0.1c0.4,0,0.7,0,1.1-0.1c0.2,0,0.4,0.1,0.6,0c0.6-0.1,1.1,0,1.7,0
			c0.3,0,0.5,0.1,0.8,0.1c0.5,0,1.1-0.1,1.6-0.1c0.7,0,1.2-0.2,1.8-0.5c0.1-0.1,0.2-0.1,0.3-0.2c0.2-0.4,0.3-0.9,0.2-1.3
			c-0.1-0.5-0.3-1.1-0.9-1.2c-0.6-0.1-1.2-0.3-1.8-0.3C33.6,27.5,32.3,27.5,31,27.5z M36.8,22.7c0-0.8-0.4-1.3-1.1-1.3
			c-0.9-0.1-1.7-0.1-2.6-0.1c-1.3,0-2.5,0-3.8,0c-0.2,0-0.4,0-0.5,0c-0.4-0.2-0.6,0-1,0.1c-0.2,0.1-0.3,0.2-0.2,0.4
			c0.1,0.1,0.1,0.3,0,0.5c-0.3,0.5,0,0.9,0.1,1.4c0,0.1,0.2,0.4,0.3,0.4c0.7-0.1,1.3,0.3,2,0.1c0.3-0.1,0.6,0,0.9,0
			c0.2,0,0.4,0,0.5,0c0.2,0,0.3,0,0.5,0c0.3,0,0.6,0.1,1,0.1c0.4,0,0.8-0.2,1.2-0.1c0.5,0.2,1,0,1.4-0.1
			C36.4,23.9,36.8,23.4,36.8,22.7z M26.1,22.3C26.1,22.3,26.1,22.3,26.1,22.3C26.1,22.3,26.1,22.3,26.1,22.3
			C26.1,22.3,26.2,22.3,26.1,22.3C26.2,22.3,26.1,22.3,26.1,22.3z"/>
		<path class="st0" d="M12.4,24.1c0-1,0.1-1.8,0.1-2.7c0-0.5-0.1-0.9-0.1-1.4c0-0.5,0.1-1.1,0.1-1.6c0-0.3,0.3-0.5,0.6-0.4
			c0.5,0.1,0.9,0,1.4,0c0.1,0,0.2,0,0.3,0c0.8,0.1,1,0.3,0.9,1.1c0,0.3,0,0.6,0,0.9c0,0.1,0,0.1,0,0.2c-0.1,0.7,0.1,1.4-0.1,2.1
			c-0.1,0.2,0,0.4,0,0.5c0.2,1,0.1,2,0.1,3c0,0.5,0,0.9,0,1.4c0,0.6,0,1.2,0,1.8c0,0.3-0.1,0.7-0.1,1c0,0.4,0,0.9,0,1.3
			c0,0.5,0,1.1,0.1,1.6c0,0.4-0.3,0.8-0.1,1.2c-0.4,0.2-0.7,0.4-1,0.4c-0.3,0-0.7-0.1-1-0.1c-0.2,0-0.4-0.1-0.5-0.1
			c-0.3,0-0.5-0.1-0.5-0.5c-0.1-1-0.2-2-0.1-3c0.1-0.9,0.2-1.8,0-2.7c-0.1-0.4-0.2-0.6-0.7-0.6c-0.8,0-1.6,0-2.4,0
			c-0.5,0-0.9,0.1-1.4,0c-0.4-0.1-0.9,0.1-1.4,0.1c-0.6,0-1.3,0-1.9,0c-0.1,0-0.2,0-0.4,0c-0.5,0-0.6,0.2-0.6,0.7c0,1.7,0,3.4,0,5.1
			c0,0.9-0.2,1.1-1.1,1.2c-0.5,0-1.1,0-1.6,0c-0.5,0-0.7-0.3-0.8-0.8c0-0.2,0-0.3,0-0.5c0-4.8,0-9.5,0-14.3c0-0.7,0.2-1,0.8-1.1
			c0.1,0,0.1,0,0.2,0c0.6,0,1.1,0.1,1.7,0.1c0.5,0,0.8,0.3,0.8,0.8c0,1.6,0.1,3.1,0.1,4.7c0,0.4,0.1,0.5,0.6,0.6
			c1,0.2,1.9,0.1,2.9,0.1c0.5,0,1,0,1.5,0c0.5,0,1,0,1.5,0c0.5,0,0.9,0.1,1.4,0C11.7,24.1,12,24.1,12.4,24.1z"/>
		<path class="st0" d="M64.8,20.9c-0.1,0.2-0.2,0.4-0.4,0.6c-0.1,0.1-0.2,0.3-0.3,0.4c-0.1,0.2-0.3,0.4-0.4,0.6
			c-0.3,0.7-0.8,0.8-1.3,0.3c-0.8-0.6-1.6-1.2-2.6-1.5c-0.6-0.2-1.2-0.4-1.8-0.6c-0.3-0.1-0.6-0.1-1-0.1c-0.4,0-0.8,0-1.1,0
			c-0.4,0-0.9-0.2-1.3,0.2c-0.2,0.2-0.6,0.3-0.9,0.3c-0.3,0-0.5,0.2-0.8,0.3c-0.2,0.1-0.3,0.3-0.6,0.3c-0.1,0-0.1,0.1-0.2,0.1
			c-0.5,0.7-1.3,1.3-1.7,2.2c-0.2,0.4-0.2,0.8-0.3,1.2c-0.1,0.3,0,0.7-0.1,0.9c-0.1,0.2,0,0.4,0,0.6c0.2,0.7,0.4,1.4,0.6,2.1
			c0.1,0.2,0.2,0.4,0.3,0.6c0,0,0.1,0.1,0.1,0.1c0.4-0.3,0.5,0.2,0.6,0.4c0.1,0.2,0.3,0.3,0.5,0.5c0.3,0.2,0.8,0.2,1,0.6
			c0.1,0.1,0.4,0,0.6,0.1c0.5,0.4,1.2,0.5,1.8,0.5c0.5,0,1,0.1,1.5,0c0.6-0.1,1.3-0.2,1.9,0c0.1,0,0.1-0.1,0.2-0.1
			c0.3-0.1,0.6-0.2,0.9-0.3c0.3-0.1,0.6-0.3,0.9-0.4c0.5-0.1,1-0.4,1.5-0.6c0.4-0.2,0.7-0.4,1.1-0.5c0.5-0.2,0.5-0.2,0.7,0.3
			c0.3,0.6,0.6,1.3,0.9,2c0.1,0.3,0,0.5-0.2,0.6c-0.5,0.3-1,0.6-1.5,0.8c-0.8,0.4-1.7,0.6-2.6,0.7c-0.2,0-0.5-0.1-0.8-0.2
			c-0.1,0.1-0.1,0.5-0.5,0.2c-0.1-0.1-0.4,0.2-0.6,0.3c-0.2,0.1-0.3,0.2-0.5,0.2c-0.4,0-0.8,0.1-1.2,0.2c-0.2,0.1-0.4,0-0.6,0
			c-0.5,0-1.1-0.1-1.6-0.1c-0.5-0.1-0.9-0.2-1.3-0.3c-0.3,0-0.6,0-0.9-0.2c-0.2-0.2-0.5-0.3-0.7-0.4c-0.3-0.2-0.7-0.3-1-0.4
			c-0.9-0.4-1.7-1.1-2.4-1.8c-0.3-0.3-0.6-0.7-0.7-1.2c0-0.1-0.1-0.1-0.1-0.2c-0.6-0.6-0.8-1.5-0.9-2.3c-0.1-0.6-0.1-1.3-0.1-1.9
			c0-0.8,0.2-1.6,0.4-2.4c0.1-0.2,0.1-0.5,0.2-0.7c0.3-0.7,0.6-1.3,1.2-1.7c0.2-0.2,0.4-0.5,0.6-0.8c0.8-1,1.9-1.5,3-2.1
			c0.6-0.3,1.3-0.5,2-0.7c0.4-0.1,0.8,0,1.2-0.1c0.5-0.2,0.9-0.2,1.4-0.1c0.9,0.1,1.9,0.1,2.8,0.3c1.2,0.3,2.3,0.8,3.4,1.4
			C63.9,19.6,64.4,20.2,64.8,20.9z M59.8,30.8C59.8,30.8,59.8,30.8,59.8,30.8C59.8,30.8,59.8,30.8,59.8,30.8
			C59.8,30.9,59.8,30.9,59.8,30.8C59.8,30.9,59.8,30.9,59.8,30.8z"/>
	</g>
</g>
<g>
	<path id="XMLID_208_" class="st1" d="M100.4,17.1c-0.1,0.1-0.3,0.1-0.4,0.4c-0.3,0-0.4-0.2-0.5-0.3C99.9,17.1,100.3,17,100.4,17.1"
		/>
	<path id="XMLID_207_" class="st1" d="M89.4,20.7c1.9-0.6,3.9-1.3,5.8-1.6c-0.6,0.5-1,0.8-1.8,1.3c-1.3,0.7-2.4,1.6-3.2,1.5
		C90,21.3,89.4,21.4,89.4,20.7"/>
	<path id="XMLID_206_" class="st1" d="M96.2,20.6c-1.4,0.7-2.9,1.2-4.3,2.1c-0.3-0.1-0.5-0.3-0.9-0.5c1.3-1.2,3.1-1.7,5.3-2
		L96.2,20.6L96.2,20.6z"/>
	<path id="XMLID_205_" class="st1" d="M100,20.9c0.1,0.1,0.3,0.1,0.4,0.4c-0.3,0-0.7,0.2-0.8,0C99.6,21,99.8,21,100,20.9"/>
	<path id="XMLID_204_" class="st1" d="M98.7,21.1c0.1,0.4-0.9,0.8-1.3,0.7C97.6,21.2,98.2,21.2,98.7,21.1"/>
	<path id="XMLID_164_" class="st1" d="M103.4,23.5c0.4-0.8,1.1,0.2,1.3,0.7c-0.3,0.1-0.7,0.1-0.8,0.2
		C103.6,24.1,103.3,23.9,103.4,23.5"/>
	<path id="XMLID_163_" class="st1" d="M105.3,25.7c-0.4,0-0.6,0.2-1.1,0.3c-0.3-0.3-0.2-0.8-0.3-1.2c0.3-0.1,0.6-0.2,1-0.2
		C104.8,25,105.2,25.2,105.3,25.7"/>
	<path id="XMLID_162_" class="st1" d="M99.8,24.8c0-0.8,1.1-0.6,1.1,0.1C100.4,24.7,100.2,25,99.8,24.8"/>
	<path id="XMLID_161_" class="st1" d="M99.2,24.5c-0.3,0.4-0.7,0.6-1.4,0.7c0-0.3,0.1-0.3,0.2-0.5C98.3,24.6,99,24.2,99.2,24.5"/>
	<path id="XMLID_160_" class="st1" d="M100.6,26.5c0-0.4,0.2-0.5,0.4-0.7C101.2,26.1,101,26.7,100.6,26.5"/>
	<path id="XMLID_159_" class="st1" d="M100.1,25.8c0,0.7-0.7,0.8-1.3,0.9C99.1,26.3,99.3,25.6,100.1,25.8"/>
	<path class="st1" d="M114.1,30.5c-0.2-0.6-0.5-0.4-1.2-0.5c0-0.1,0.4-0.4,0-0.3c0-0.3,0.3-0.3,0.6-0.4c-0.4-0.6-1.1-0.2-1.5-0.6
		c0.4-0.5-0.6-1-0.9-0.5c-0.3,0-0.4-0.2-0.5-0.3c-0.3,0-0.5,0.1-0.6,0.2c0.3,0,0.5-0.1,0.7,0.2c-0.1,0.3-0.7,0.1-0.9-0.1
		c0-0.1,0.3,0.1,0.3-0.1c-0.4-0.4-1.2-0.5-1.4,0.2c0.1,0.1,0.3,0,0.3,0.1c-0.3,1.3,1.6,0.5,1.9,1.6c0.4-0.1,0.7,0,0.8,0.4
		C112.4,30.9,113,30.8,114.1,30.5 M111.3,29c0.3-0.1,0.7,0,0.5,0.4c-0.1,0,0,0.3-0.3,0.3c-0.1-0.1-0.5,0-0.8-0.3
		C111,29.2,110.9,29.1,111.3,29"/>
	<path id="XMLID_158_" class="st1" d="M99.7,28.2c0-0.8,0.9-0.8,1.5-0.9C101.1,28.1,100.1,27.8,99.7,28.2"/>
	<path id="XMLID_157_" class="st1" d="M106.9,36.3c0.8,0.3,1.4,0.9,1.5,1.7c-0.5,0.1-0.8,0.1-1.2,0.1c-0.1-0.5-0.5-0.8-0.6-1.4
		C106.8,36.7,106.7,36.5,106.9,36.3"/>
	<path class="st1" d="M118.5,32.6c-0.1-0.5-0.4-0.8-0.9-1.3c-0.2-1-0.9-0.9-1.1-2c-0.8-0.9-0.7-2.1-1.5-3.2
		c-0.4-0.2-0.1-0.1-0.1-0.4c-0.4-0.3-0.2-0.7-0.6-0.6c-0.3-1.5-1.8-1.7-2.4-2.8c-0.7,0-0.9-0.6-1.3-0.9c-0.3-0.1-1.3-0.2-1.5-0.4
		c-0.4-0.2-0.9-0.9-1.2-1.1c-0.4-0.3-0.2-0.4-0.5-0.7c-0.5-0.4-0.9-0.9-1.3-1.3c-0.4-0.4-0.8-0.3-1.3-0.6c-0.4-0.3-0.1-0.3-0.6-0.6
		c-1.1-0.6-1.5-1.4-2.7-1.9c-1.9-0.8-3.8-2-6.5-2c-0.7-0.2-1.3-0.6-2-0.8c-3.9-0.8-6.5,0.6-9.1,2.1c-1.8,1.1-2.9,2.8-4.2,4.7
		c-0.4,0.5-1,1-1.4,1.7c-1.2,1.8-2.4,4.1-3.1,6.5c-0.2,0.8-0.6,1.9-0.6,2.7c0.1,0.7,0.6,1,0.6,1.8c-0.3,0.3-1,0.6-1.1,0.3
		c-0.6,1.2-2.1,1.5-3.1,2.4c-1,0.8-1.4,1.7-2,2.7c-0.2,0.4-0.4,0.8-0.6,1.1c-0.2,0.5,0.1,1.4-0.2,1.9c0.3,0.3,0.4,0.6,0.3,1.1
		c0.9,0.3,0.8,2.2,2,2.4c0.4,0,1.9-0.2,2.5-0.3c1.6-0.2,3.3-1.3,4.7-1.5c1.1-1.2,2.2-2.9,1.9-5.3c0.3-0.3,0.8,0,1.1-0.1
		c0-0.1-0.1-0.5,0.2-0.4c0.7,0.2,1.2,0.1,1.7,0.4c0.4,0.3,0.5,0.8,0.9,1c1.5,0.8,4.7,0.7,6.9,0.8c0.9,0.1,2,0,3,0
		c0.4,0,0.8,0.2,1.1,0.2c0.4-0.1,0.7-0.4,1.1-0.3c0.7,0,0.9,0.6,1.4-0.2c-0.6-0.7-1.7-1-3.1-0.7c-0.4-0.2-0.4-0.6-0.9-0.5
		c-0.4,0,0.1,0.5-0.3,0.3c-0.5,0-0.5-0.8-1-0.7c0.1-0.3-0.1-0.7-0.5-0.8c-0.4,0.2-0.4,0.8-1,1c-0.8,0.2-2.8,0-3.2-0.2
		c-0.7-0.2-2.1-0.5-2-1.1c0.2-0.5,0.8,0.4,1.1,0.1c-0.3,0-0.5,0.1-0.4-0.2c0.7-0.4,2.3,0.3,2.9-0.3c0.1-0.3-0.1-0.8-0.1-1
		c-0.3-0.1-0.7,0.2-0.8,0.1c0.3-0.1,0.8-0.2,0.6-0.6c-0.8-0.3-1.8,1-2.3,0.7c0.3-0.1,0.3-0.3,0.4-0.4c-0.4,0-0.8,0.4-1.1,0.2
		c0.6-0.4,1.4-0.7,1.7-1.1c1.1-0.3,3-1.1,3.5-2.1c-2.2,1.4-5.4,1.2-7,3.2c0.7-1.3,2.1-1.9,3.5-2.5c0.8-0.4,2.3-0.4,2.4-1.6
		c-1.5,0.9-3.3,0.9-4.8,1.5c-2.1,0.7-3.6,2.2-5.3,2.8c1.7-1.7,4.3-2.5,6.4-3.6c0.4-0.2,0.7-0.6,1.1-0.9c0.8-0.4,2.1-0.6,2.4-1.4
		c-0.4-0.2-0.4,0.7-0.7,0.4c0.1,0,0.1-0.3-0.1-0.1c-3.6,1.3-7.3,2.3-10,4.5c0.2-0.9,1.3-1.2,2.1-1.6c2.5-1.4,5-2.7,7.5-3.9
		c-0.9-0.5-1.9,0.2-2.7,0.5c-1,0.2-1.9,0.6-3,0.7c-1,0.8-2.5,1.1-3.6,1.8c-0.6,0.4-0.9,1-1.4,1.1c0.9-1.2,1.9-1.7,3.2-2.4
		c1.7-0.7,3.1-1.6,4.6-2.3c0.7-0.4,1.7-0.6,2.1-1.4c-2.1,0.6-4,1-5.8,1.7c-0.7,0.2-1.5,0.6-2.1,0.8c-1,0.5-1.7,1.5-2.7,1.5
		c1.1-0.8,2.3-1.5,3.6-2.1c1.4-0.5,2.9-0.9,3.9-1.7c-0.3,0-0.4,0.1-0.5-0.2c1.5-0.3,3.2-0.8,3.9-1.6c-3.6,0.8-7.7,1.6-10.1,3.4
		c1.3-1.7,3.9-2.1,6-2.9c0.7-0.2,1.9-0.7,2-1.7c-2.6,0.4-4.8,1.2-6.6,2.5c0.9-1,2.3-1.5,3.6-2.1c0.8-0.4,1.7-0.9,2.4-1.1
		c1.4-0.5,2.9-0.7,4.1-1.4c0.3,0.1,0.7,0.4,0.9,0.3c1.2-0.3,2.1-1,3.2-1.6c0.6-0.2,1.2-0.1,1.7-0.6c-1.1,0.1-1.8,0.2-3.1,0.2
		c-0.1-0.4-0.9-0.1-1.8,0.2c-0.3,0.1-1,0.4-1.1,0.1c-0.3,0.7-0.9,0.8-1.2,1.3c-2,1.1-4.7,1.2-6.8,2.1c-0.7,0.2-1.3,0.9-2,1.3
		c0.8-1.5,2.5-1.5,4.2-2.1c1-0.5,2-1.3,2.9-1.5c0.3-0.1,0.7,0,1.1-0.1c0.8-0.2,1.3-1,2-1.5c1.7-1.3,4-2,6.2-2.6
		c0.7-0.2,1.5-0.6,2.3-0.4c-1.3,0.6-3.2,0.9-3.9,1.8c0.8,0,0.7,0,0.8-0.2l0.9,0.1c0.6-0.4,1.5-0.6,2.3-0.8c0.8-0.2,1.8-0.9,2.5-0.3
		c-1,0.4-2.3,0.6-3.3,1.2c0.8,0.2,1.4-0.1,1.9-0.3c0.7,0.3,1.2-0.2,1.9-0.2c0,0.3,0.5,0.2,0.8,0.2c0,0.3-0.5,0.1-0.4,0.5
		c0.8,0.9,1.5-0.1,2.3,0.7c-0.4,0-1.5,0.2-1.9,0.3c0.7,1.3,2.8-0.9,3.8,0.6c-0.8-0.2-1.1,0.3-1.8,0.3c0.3,0,0.8,0.4,1.6,0.5
		c0.5,0,2.1-0.3,1.7,0.4c-0.4-0.3-0.4,0.1,0,0.1c-0.1,0.1-1.1-0.2-1.6,0.2c0.4,0.7,1.3,0.2,2,0.7c0.4,0.3,0.3,1.4,0.9,1
		c-0.3,0.1-0.4-0.2-0.1-0.1c0.5,0.3,0.6,0.7,0.5,0.2c1.3,0.5,2.8,1.2,3.5,2.1c0.3,0.3,0.6,0.6,0.8,0.7c0.6,0.6,1.3,1.7,1.8,2.5
		c0.4,0.7,0.6,1.5,1,2.2c1.1,2.1,2.3,2.8,1.5,4c-0.4,0.2-1.6-0.8-1.4,0.7c-0.7,0.2-0.6,0.5-1.4,0.3c-0.2,0.4-0.9-0.1-0.6,0.2
		c-0.8,0.2-1.6,0.2-2.4,0.1c0.3-0.1,1-0.1,0.7-0.6c-0.9-0.2-2.1,0.4-2.7,0.4c0.6-0.6,1.9-0.4,2.4-1.4c-1.2-0.3-2.6,0.3-4,0.6
		c0.3-0.7,1-0.5,1.4-0.6c0.8-0.4,1.5-0.9,2.4-1c-0.5-0.4-1.9-0.4-2.8-0.2c-0.8,0.1-1.5,0.9-2.3,0.6c0.6-0.4,1.2-0.5,1.9-0.7
		c0.4-0.5,1-0.8,1.8-1c-0.9-0.9-2.9,0.3-4.2-0.1c0.5-0.1,1.1-0.1,1.6-0.3c0.4-0.1,1.1-0.5,1.1-0.8c-0.5-0.7-2.2-0.1-2.7-0.3
		c0.4-0.5,1.8-0.2,2.3-0.7c-0.4-0.7-2.5-0.5-3-0.4c0.3-0.7,1.4-0.5,1.9-0.7c-0.8-0.4-1.6-0.9-2.5-0.7c0.4-0.5,1.5-0.2,1.7-0.7
		c0.3-0.8-1.1-0.5-1.7-0.5c0.2,0.6-0.1,0.9-0.1,1.5c-0.4-0.3-0.7,0.6-0.9,1c0.4,0.8,0.3,2.2,0.4,3.3c-0.3,0.5-1,0.6-0.9,1.4
		c0.1,1.1,1.8,1.5,2.8,1.6c0.7,0.2,1.5,0.6,1.7,0.8c0.1,0.1,0.4,0,0.5,0.2c0.5,0.4,0.3,1.1,1,1.4c0.7,0,1.2,0.2,1.8,0
		c-0.3,0.9,1.3,0.2,1.6,0.5c0.3-0.3,0.3-0.7,0.2-1.1c0.9,0.1,1.7-0.7,2.6-0.8c1-0.1,1.5-0.2,2.1-0.4c0.7-0.4,0.6-0.9,0.9-1.8l0-0.3
		L118.5,32.6z M81.1,34.7c-0.2,0.4-1.1,0.6-1.5,0.6C80.1,35.2,80.4,34.6,81.1,34.7 M69.7,38.1c0.3-0.5,1-0.2,1.6-0.2
		c1.6,0,3.3-0.5,5.2-0.4c0.3-0.4,0.9,0.1,0.8-0.4c0-0.1,0-0.1,0.1-0.1c0.8,0.7-0.2,1.6,0,2.6c-0.7,0.4-0.9,1.2-1.4,1.7
		c-1.2,0.1-2.3,0.6-3.5,0.4c-0.3,0-0.4-0.3-0.7-0.3c-0.7,0-1.6,0.3-2.2-0.3c2-0.2,4.5,0,6.3-0.5c-0.1-0.1-0.1-0.3,0-0.4
		c-0.3,0-0.3-0.3-0.5-0.3c-2,0.2-4.3-0.2-6.4-0.1c2.2-1,6.7,0.6,7.7-1.8C74.6,38.5,72.5,38,69.7,38.1 M76.9,36.2
		c-1.9,0.6-3.9,0.1-6,0.2c1.8-0.4,4.1-0.5,6-0.5L76.9,36.2 M71.7,35c1.1-0.3,3-0.4,4.2-0.5C75.1,35,72.9,35,71.7,35 M89.1,13.5
		c0.1,0.1,0.5,0.2,0.7,0.3c-2.5,0.7-4.5,2.2-6.5,3C85.1,15.6,87,14.4,89.1,13.5 M91,14.2c0.1,0.1,0.8-0.1,1.1,0.2
		c-0.4,0.1-0.8,0.1-1.1,0.2c-2.1,1.5-5,2-6.9,3.8c-1.2-0.1-2.6,0.5-3.3,1c0.6-1.3,1.9-0.7,3.2-1.5C86.2,16.8,88.8,14.7,91,14.2
		 M85.6,18.5c2.4-2.2,5.3-3.2,9-4c0,0.4-1,0.1-0.4,0.5c-2.2,0.6-4.3,1.9-6.2,2.6c-1.2,0.5-1.8,0.9-2.9,1.3c0,0.1,0.1,0.3,0,0.3
		c-0.3,0.1-1,0.6-1.8,0.4c0.4-0.1,0.8-0.2,1.1-0.5c-1.7,0.6-3.4,0.9-4.5,2.2c0.2-0.5,0.7-1.3,1.2-1.4C82.4,19.4,84.5,19.1,85.6,18.5
		"/>
	<path id="XMLID_156_" class="st1" d="M100.8,17.4c0.1,0.1,0.7,0.3,0.4,0.6C101.2,17.7,100.6,17.5,100.8,17.4"/>
	<path id="XMLID_155_" class="st1" d="M89,18.4c-0.3,0.1-0.4,0.4-0.7,0.5C88.3,18.6,88.9,18.3,89,18.4"/>
	<path id="XMLID_154_" class="st1" d="M95.3,37.2c0-0.1,0.2-0.7-0.1-0.5C95,36.8,95.3,36.9,95.3,37.2c-0.4,0.2-0.8,0-1.2-0.2
		c0-0.4-0.4-0.4-0.1-0.8c-1.1-0.3-1.9-0.5-2.8-1c-0.3-0.3-0.2-0.8-0.8-0.9c0.3-1.2,1.5-2,1.5-3.2c0.3-0.4,1-1.4,1.2-2.5
		c0.2-0.4,0.3-3.2,0.3-3.2s-0.3-2.1-1.2-2.9c1.4-0.7,3.4-0.9,5.1-1.4c-0.4,1.7-3,1.1-3.7,2.7c0.8-0.6,1.9-0.7,3-0.9
		c0,0.3-0.3,0.5,0,0.7c0-0.3,0.2-0.4,0.3-0.7c0.5,0,0.8-0.2,1.2-0.3C98,24.2,95.3,23.6,95,25c1.1-0.1,1.8-0.4,2.7-0.7
		c-0.1,1.9-2.7,1.6-3.1,2.5c1-0.2,1.8-0.7,2.8-0.9c0.1,0,0,0.3,0.1,0.4c0-0.5,0.8-0.4,1.2-0.5c-0.1,2-2.8,1.6-3.7,2.7
		c1.5-0.6,3-0.7,4.5-1c0.1,0.4-0.2,0.4-0.2,0.7c-1.2,0.5-2.2,1.4-3.6,1.8c-0.4,0.1-0.8,0-1.1,0.3c2.4-0.1,3.9-1.4,6.1-1.8
		c-0.3,0.7-0.9,1-1.8,1c0,0.3,0.1,0.1,0,0.4c-1,0.2-1.5,0.9-2.5,1.2l0,0.4c-0.6,0.2-1.4,0.2-1.8,0.6c2.2,0,3.6-1.2,5.2-1.3
		c0,0.1,0,0.1,0.1,0.1c-0.7,0.6-1.8,1.1-2.8,1.6c0.1,1-1.9,0.6-2.4,1.4c2.1-0.3,3.4-1,5.1-1.6c0,0.8-1.7,0.7-1.3,1.4
		c0.4-0.1,0.8-0.2,1.1-0.3c0,0.3-0.7,0.2-0.6,0.5c0.5-0.1,1.1-0.3,1.1-0.8l0,0.5c-1.3,0.6-2.4,1-3.6,1.6c1.4-0.3,2.7-0.7,3.7-1.4
		c-0.2,1.2-1.1,1.2-1.9,1.7c1.8-0.2,4.7,0.3,5.9,1.9c0.1,0,0.5,0.2,0.5-0.1c-0.1-0.3-0.2-0.6-0.1-1.1c1.1-0.1,2,0.9,1.8,2
		c-1.4,0.3-3,0-4.5-0.1c-2-0.1-4.1-0.2-5.7-0.7C96.1,37.6,95.7,37.2,95.3,37.2"/>
	<path id="XMLID_153_" class="st1" d="M99.8,22.4c0,0.4-0.4,0.2-0.6,0.5c0,0.1,0.3,0.1,0.1,0.3c-0.3-0.1-0.4,0.2-0.5,0
		C98.9,22.7,99.5,22.6,99.8,22.4"/>
	<path id="XMLID_152_" class="st1" d="M108.6,27.2c-1.5,0.6-2-3.1-0.9-3.3c0.5,0.2,1.2,0.5,1.6,0.6c-0.1,0.1-0.2,0.4-0.4,0.4
		c-0.3,0-0.4-0.3-0.7-0.4c0,0.1-0.3,0.1-0.3,0.4c0.7,0.3,0.7,1.4,1.7,1.4c0-0.3-0.5-0.4-0.4-0.6c0.1,0.1,0.3,0.3,0.5,0.3
		c0.2-0.5-0.4-0.8-0.2-1.1c0.1,0.3,0-0.1-0.1-0.1c0.7,0.2,0.4,0.2,1.1,0.6c-0.2,0.7,0.2,0.7,0.2,1.4c-0.7,0.1-1.8,0-2.6,0.4
		C108,27.2,108.9,27.1,108.6,27.2"/>
</g>
<g>
	<g>
		<path class="st0" d="M137.1,18.2c0.5,0.6-0.1,0.8-0.1,1.6s0.6,1,0,1.6c-0.5,0.5-0.7,0.1-1.4,0.1c-0.7,0-0.7,0-1.5,0
			c-0.7,0-0.7,0-1.5,0c-0.7,0-0.9-0.5-1.5,0c-0.5,0.5,0,0.7,0,1.4c0,0.7,0,0.7,0,1.4c0,0.7,0,0.7,0,1.4c0,0.7,0.1,0.7,0.1,1.4
			c0,0.7-0.1,0.7-0.1,1.4c0,0.7,0.1,0.7,0.1,1.4c0,0.7-0.1,0.7-0.1,1.4c0,0.7,0,0.7,0,1.4c0,0.7,0.6,1,0.1,1.5c-0.6,0.5-0.9,0-1.7,0
			s-1,0.6-1.6,0c-0.5-0.5,0.1-0.8,0.1-1.5c0-0.7-0.1-0.7-0.1-1.4c0-0.7,0-0.7,0-1.4c0-0.7,0-0.7,0-1.4c0-0.7,0-0.7,0-1.4
			c0-0.7,0.1-0.7,0.1-1.4c0-0.7-0.1-0.7-0.1-1.4c0-0.7,0.1-0.7,0.1-1.4s0.4-0.9-0.1-1.4c-0.5-0.5-0.7-0.1-1.4-0.1
			c-0.7,0-0.7,0-1.5,0c-0.7,0-0.7,0.1-1.5,0.1c-0.7,0-0.9,0.5-1.4-0.1c-0.5-0.6-0.1-0.8-0.1-1.6s-0.5-1,0.1-1.6c0.4-0.5,0.6,0,1.3,0
			c0.7,0,0.7,0,1.4,0c0.7,0,0.7-0.1,1.4-0.1c0.7,0,0.7,0.1,1.4,0.1c0.7,0,0.7-0.1,1.4-0.1c0.7,0,0.7,0,1.4,0c0.7,0,0.7,0,1.4,0
			c0.7,0,0.7,0.1,1.4,0.1c0.7,0,0.7,0,1.4,0c0.7,0,0.7,0,1.4-0.1C136.4,18,136.6,17.7,137.1,18.2z"/>
	</g>
	<g>
		<path class="st0" d="M158,18.2c0.5,0.6,0,0.8,0,1.6s0.5,0.9,0,1.6c-0.4,0.5-0.6,0-1.3,0c-0.7,0-0.7,0-1.4,0c-0.7,0-0.7,0-1.4,0
			c-0.7,0-0.7,0-1.4,0c-0.7,0-0.7-0.1-1.4-0.1c-0.7,0-0.7,0-1.4,0c-0.7,0-0.7-0.1-1.4-0.1c-0.7,0-1-0.5-1.4,0
			c-0.5,0.5,0.1,0.8,0.1,1.5s-0.6,1-0.1,1.5c0.5,0.5,0.8-0.1,1.5-0.1c0.7,0,0.7,0.1,1.5,0.1c0.7,0,0.7,0,1.5,0s1-0.6,1.5-0.1
			c0.5,0.6,0,0.8,0,1.6s0.5,1-0.1,1.6c-0.5,0.5-0.7,0-1.5,0c-0.7,0-0.7-0.1-1.5-0.1c-0.7,0-0.7,0-1.5,0c-0.7,0-0.9-0.4-1.4,0.1
			c-0.5,0.4-0.1,0.6-0.1,1.1c0,0.6,0,0.6,0,1.2s-0.4,0.7,0.1,1.1c0.6,0.4,0.7,0,1.4,0c0.7,0,0.7,0.1,1.4,0.1c0.7,0,0.7,0,1.4,0
			c0.7,0,0.7-0.1,1.4-0.1c0.7,0,0.7,0,1.4,0c0.7,0,0.7,0,1.4,0c0.7,0,0.7,0.1,1.4,0.1s0.9-0.5,1.4,0c0.5,0.6,0.1,0.8,0.1,1.6
			c0,0.8,0.4,1-0.1,1.6c-0.4,0.5-0.6,0.1-1.3,0.1c-0.7,0-0.7,0-1.3,0c-0.7,0-0.7,0-1.3,0c-0.7,0-0.7-0.1-1.3-0.1
			c-0.7,0-0.7,0.1-1.3,0.1c-0.7,0-0.7-0.1-1.3-0.1c-0.7,0-0.7-0.1-1.3-0.1c-0.7,0-0.7,0.1-1.3,0.1c-0.7,0-0.7,0-1.3,0
			c-0.7,0-0.7,0-1.3,0c-0.7,0-0.8,0.5-1.3,0c-0.5-0.5-0.1-0.6-0.1-1.3c0-0.7,0.1-0.7,0.1-1.3c0-0.7,0-0.7,0-1.3c0-0.7,0-0.7,0-1.3
			c0-0.7,0-0.7,0-1.3c0-0.7-0.1-0.7-0.1-1.3c0-0.7,0.1-0.7,0.1-1.3c0-0.7-0.1-0.7-0.1-1.3c0-0.7,0.1-0.7,0.1-1.3c0-0.7,0-0.7,0-1.3
			c0-0.7,0-0.7,0-1.3c0-0.7-0.5-0.9,0-1.4c0.5-0.5,0.7,0,1.4,0c0.7,0,0.7,0.1,1.4,0.1c0.7,0,0.7,0,1.4,0c0.7,0,0.7,0,1.4,0
			c0.7,0,0.7,0,1.4,0c0.7,0,0.7,0,1.4,0c0.7,0,0.7,0,1.4,0c0.7,0,0.7,0,1.4,0c0.7,0,0.7,0.2,1.4,0C157.3,18.1,157.5,17.7,158,18.2z"
			/>
	</g>
	<g>
		<path class="st0" d="M179.7,23.6c-0.3-0.2-0.7-0.5-1.1-0.8c-0.4-0.2-0.7-0.5-1.2-0.8c-0.4-0.2-0.8-0.4-1.3-0.6
			c-0.4-0.1-0.9-0.3-1.3-0.4c-0.4-0.1-0.9-0.1-1.4-0.1c-0.5,0-0.9,0-1.3,0.1c-0.4,0.1-0.8,0.3-1.2,0.4c-0.4,0.2-0.8,0.3-1.2,0.5
			c-0.4,0.2-0.7,0.6-1,0.9c-0.3,0.3-0.7,0.6-0.9,1c-0.2,0.4-0.4,0.8-0.5,1.2c-0.1,0.4-0.2,0.9-0.2,1.3c0,0.4,0.2,0.9,0.3,1.3
			c0.1,0.4,0.2,0.9,0.5,1.3c0.2,0.4,0.6,0.6,0.9,1c0.3,0.3,0.6,0.7,1,0.9c0.4,0.2,0.8,0.2,1.3,0.4c0.4,0.1,0.8,0.3,1.3,0.4
			c0.4,0.1,0.9,0,1.3,0c0.5,0,1,0,1.4-0.1c0.5-0.1,1-0.1,1.4-0.2c0.5-0.1,0.9-0.3,1.4-0.5c0.5-0.2,0.9-0.4,1.3-0.6
			c0.5-0.3,0.9-0.5,1.2-0.7c0.5,0.6,0.4,0.7,0.7,1.5s0.5,0.7,0.7,1.5c-0.4,0.3-0.7,0.6-1.2,0.8c-0.4,0.2-0.8,0.5-1.3,0.7
			c-0.4,0.2-1,0.2-1.4,0.3c-0.5,0.1-0.9,0.3-1.4,0.4c-0.5,0.1-1,0.1-1.4,0.2c-0.5,0.1-1,0.2-1.4,0.2c-0.4,0-0.9-0.1-1.3-0.2
			c-0.4,0-0.9,0-1.3-0.1c-0.4-0.1-0.9-0.2-1.3-0.4c-0.4-0.1-0.8-0.4-1.2-0.6c-0.4-0.2-0.8-0.3-1.2-0.6c-0.4-0.2-0.7-0.5-1.1-0.8
			c-0.3-0.3-0.6-0.6-0.9-1c-0.3-0.3-0.4-0.8-0.6-1.2c-0.2-0.4-0.4-0.8-0.5-1.2c-0.1-0.4-0.3-0.8-0.3-1.3c-0.1-0.4,0-0.9,0-1.3
			c0-0.5-0.1-1,0-1.4c0.1-0.5,0.2-1,0.4-1.4c0.2-0.5,0.4-0.9,0.7-1.3c0.2-0.4,0.6-0.8,0.9-1.1c0.3-0.4,0.6-0.7,1-1
			c0.4-0.3,0.7-0.6,1.1-0.9c0.4-0.2,0.8-0.4,1.3-0.6c0.4-0.2,0.9-0.3,1.4-0.5c0.5-0.1,0.9-0.3,1.4-0.3c0.5-0.1,1-0.1,1.4-0.1
			c0.5,0,1,0,1.5,0.1c0.5,0.1,1,0.3,1.4,0.4c0.5,0.1,1,0.2,1.4,0.4c0.5,0.2,0.9,0.4,1.3,0.6c0.5,0.2,0.9,0.5,1.2,0.8
			c0.4,0.3,0.8,0.6,1.2,0.8c-0.3,0.8-0.6,0.6-1,1.4C180.2,22.9,180.3,23,179.7,23.6z"/>
	</g>
	<g>
		<path class="st0" d="M192.9,18.3c0.6,0.5,0,0.7,0,1.5c0,0.8,0,0.8,0,1.5c0,0.8-0.1,0.8-0.1,1.5c0,0.8-0.5,1,0,1.5
			c0.5,0.5,0.7-0.1,1.5-0.1c0.7,0,0.7,0,1.4,0c0.7,0,0.7,0.1,1.4,0.1c0.7,0,0.7-0.1,1.4-0.1c0.7,0,0.7,0,1.4,0c0.7,0,0.9,0.5,1.4,0
			c0.5-0.5,0.1-0.7,0.1-1.5c0-0.8,0-0.8,0-1.5c0-0.8,0-0.8,0-1.5c0-0.8-0.6-1-0.1-1.5c0.6-0.6,0.8,0,1.6,0s0.9-0.5,1.6,0
			c0.5,0.4,0,0.6,0,1.3c0,0.7,0.1,0.7,0.1,1.3c0,0.7,0,0.7,0,1.3c0,0.7,0,0.7,0,1.3c0,0.7-0.1,0.7-0.1,1.3c0,0.7,0,0.7,0,1.3
			c0,0.7,0.1,0.7,0.1,1.3c0,0.7,0,0.7,0,1.3c0,0.7,0,0.7,0,1.3c0,0.7,0,0.7,0,1.3c0,0.7,0.1,0.7,0.1,1.3s0.5,0.9,0,1.4
			c-0.6,0.5-0.8,0-1.6,0s-1,0.5-1.6,0c-0.5-0.4,0-0.7,0-1.4c0-0.7,0-0.7,0-1.3c0-0.7,0-0.7,0-1.3c0-0.7,0-0.7,0-1.4
			c0-0.7,0.6-0.9,0.1-1.4c-0.5-0.5-0.7,0.1-1.5,0.1c-0.7,0-0.7-0.1-1.4-0.1c-0.7,0-0.7,0-1.4,0c-0.7,0-0.7,0.1-1.4,0.1
			c-0.7,0-0.7-0.1-1.4-0.1c-0.7,0-0.9-0.5-1.5,0c-0.5,0.5,0.1,0.7,0.1,1.4c0,0.7-0.1,0.7-0.1,1.3c0,0.7,0.1,0.7,0.1,1.3
			c0,0.7-0.1,0.7-0.1,1.4s0.6,0.9,0.1,1.4c-0.6,0.5-0.8,0-1.6,0s-1,0.5-1.6,0c-0.5-0.4,0-0.6,0-1.3c0-0.7,0-0.7,0-1.3
			c0-0.7,0.1-0.7,0.1-1.3c0-0.7,0.1-0.7,0.1-1.3c0-0.7-0.1-0.7-0.1-1.3c0-0.7,0-0.7,0-1.3c0-0.7,0-0.7,0-1.3c0-0.7,0.1-0.7,0.1-1.3
			c0-0.7-0.1-0.7-0.1-1.3c0-0.7,0-0.7,0-1.3c0-0.7,0-0.7,0-1.3c0-0.7-0.5-1,0-1.4c0.6-0.5,0.9,0.2,1.7,0.1
			C192.2,18.1,192.3,17.7,192.9,18.3z"/>
	</g>
</g>
<path class="st2" d="M136.7,3.6c-5.3-4.4-14.5-3.8-20.9-3.1c-5.4,0.6-11.5,3.1-11,9.5c0,0,0,0,0,0.1c0,0,0,0,0,0.1
	c0.5,2,1,4.3,2.8,5.6c2.2,1.7,4.8,2,4.5,5.9c0,0.5,0.7,0.6,0.9,0.2c1.9-2.8,2.8-4.6,6.4-4.9c2.3-0.2,4.6-0.3,6.9-0.4
	c3.2-0.1,7.6,0.6,10.5-1C141.7,13,140.3,6.6,136.7,3.6z M127.8,15.6c-2.8,0.1-5.6,0.2-8.4,0.5c-3.6,0.3-4.6,1.5-6.3,3.9
	c0-1.3-0.3-2.6-1.5-3.5c-0.6-0.4-1.3-0.5-1.9-0.8c-2.5-1.2-3.3-3.1-3.9-5.8c-0.6-8.5,10.5-8.8,16.4-8.8c2.9,0,6.1,0,9,0.8
	c3.5,1,9.8,4.8,7.7,9.5C136.8,16.1,132,15.5,127.8,15.6z"/>
<g>
	<path class="st2" d="M124.4,11.6c-0.1-0.3-0.2-0.6-0.3-0.9c-0.2-0.7-1.2-0.4-1,0.3c0.1,0.2,0.1,0.4,0.2,0.6
		c-1.1,0.2-2.1,0.3-3.2,0.5c0.1-0.7,0.1-1.4,0.1-2c0.6-0.2,1.2-0.3,1.8-0.5c0,0,0,0.1,0,0.1c0.1,0.7,1.1,0.7,1.1,0
		c-0.1-0.7-0.2-1.3-0.6-1.9c-0.3-0.6-1.2-0.1-0.9,0.5c0,0.1,0.1,0.2,0.1,0.2c-0.5,0.2-1.1,0.2-1.6,0.4c-0.1-0.9-0.3-1.9-0.6-2.7
		c0.7-0.1,1.4-0.3,2.1-0.5c0,0,0,0,0,0c0.1,0.7,1.1,0.7,1.1,0c0-0.2,0-0.3,0-0.5c0.3-0.4,0-1-0.5-0.8c-1,0.3-2.1,0.7-3.1,0.8
		c-0.4-0.1-0.8,0.3-0.6,0.8c0.4,0.9,0.6,1.9,0.7,3c-0.6-1.3-2.4-1.7-4-1.5c0.1-0.4,0.1-0.7-0.1-1.1c-0.8-1.3-2.8-1.1-3.9-0.5
		c-0.5,0.2-0.3,0.8,0.1,1c0.1,0.9,0.3,1.9,0.4,2.8c0.3,1.4,1,3,0.7,4.4c-0.1,0.7,0.9,0.9,1,0.3c0-0.2,0-0.3,0-0.5
		c1.8-0.2,4.7-0.6,5.7-2.1c0,0.3-0.1,0.5-0.1,0.8c-0.1,0.4,0.2,0.7,0.6,0.6c1.4-0.2,2.9-0.4,4.3-0.6c0.3-0.1,0.4-0.3,0.4-0.6
		C124.4,11.9,124.4,11.8,124.4,11.6z M113.6,7.1c0,0.3-0.1,0.6-0.3,0.8c-0.3,0.1-0.6,0.3-0.9,0.5c-0.1-0.6-0.2-1.3-0.3-1.9
		C112.8,6.3,113.6,6.3,113.6,7.1z M113.3,12.7c-0.1-0.6-0.2-1.2-0.4-1.8c-0.1-0.5-0.2-1-0.3-1.4c0,0,0,0,0.1,0
		c0.3-0.2,0.7-0.4,1.1-0.6c1.5-0.6,3.9-0.5,4.4,0.9C119.2,12.4,115.1,12.6,113.3,12.7z"/>
	<path class="st2" d="M135,10.2c-1.6-1.3-4.1-3.3-4.4-5.4c-0.1-0.5-0.7-0.5-0.9-0.1c-0.1,0-0.3,0.1-0.4,0.3
		c-0.1,0.2-0.1,0.3-0.2,0.5c0-0.1-0.1-0.2-0.1-0.2c-0.4-0.5-0.7-0.9-1.4-0.9c-0.8,0-1.7,0.3-2.5,0.5c-1.4,0.3-2.7,0.3-2.4,2
		c0.1,0.7,1.1,0.4,1-0.3c-0.1-0.6,0.5-0.5,0.9-0.6c0.2,0,0.3-0.1,0.5-0.1c0.2,1.9,0.2,3.8,0.4,5.7c0.1,0.7,1.1,0.7,1.1,0
		c-0.2-2-0.3-3.9-0.5-5.9c0.9-0.2,1.5-0.4,2.1,0.3c0.2,0.2,0.5,0.2,0.7,0c-0.6,1.7-1,3.4-1.2,5.2c-0.1,0.1-0.1,0.2-0.1,0.4
		c0,0.1,0,0.2,0,0.2c0.1,0.6,1,0.4,1-0.1c0.1-0.5,0.1-1,0.2-1.5c0.1,0,0.1,0,0.2-0.1c0.8-0.6,1.5-1.2,2.3-1.8c0,0,0,0,0,0
		c0.9,1,2,1.9,2.9,2.6C134.8,11.4,135.5,10.7,135,10.2z M130.6,7.7c-0.5,0.4-0.9,0.8-1.4,1.1c0.2-0.8,0.4-1.7,0.7-2.5
		c0.2,0.4,0.5,0.9,0.8,1.3C130.7,7.6,130.6,7.6,130.6,7.7z"/>
</g>
<ellipse class="st2" cx="136" cy="11.2" rx="0.4" ry="0.5"/>
</svg>
