<svg id="hbc-tech-logo" data-name="Layer 1" xmlns="http://www.w3.org/2000/svg" viewBox="0 0 100 86"><title>hbc-tech-logo.svg</title><path d="M45.78,3.82l.33-.52c.34,0,.7.09,1.06.11s.75,0,1.13,0a8,8,0,0,1,1,0,7.4,7.4,0,0,1,3.22-.06,7,7,0,0,1,3,1.11l.5,1,.21-.08.56,1.85-.18,1.46h.08L56,10.2a2.82,2.82,0,0,0,.69,1.13c.19.16.23.48.36.72a4.65,4.65,0,0,0,.37.48,6.45,6.45,0,0,0,0,1.47c.12.53-.16,1,0,1.4A5.08,5.08,0,0,1,56,17.74a11.71,11.71,0,0,1-2.5,1.13c-.85,0-1.73,0-2.6,0a2.64,2.64,0,0,0-.46.06l-.71.07H48.61a1.65,1.65,0,0,1-1.1,0c-.53,0-.92.08-1.31.08A4.18,4.18,0,0,0,45.13,19,1.52,1.52,0,0,1,44,18.88s-.07,0-.09,0c-.52.35-1.1.07-1.65.18l-.51-.48A9.24,9.24,0,0,1,41.89,16c.08-.22-.07-.53-.15-.94.06-.25.42-.63,0-1l.24-.28-.16-2.67h-.12c.07-.2.25-.46.19-.59-.33-.64.26-1.31-.1-1.93l.28-.14-.31-.39L42,6.74l-.27-.13c.19-.41-.09-.84.12-1.32A4.13,4.13,0,0,0,42,3.9l-.28-.16,1-.41.28.13a13.28,13.28,0,0,1,1.39-.13,4.43,4.43,0,0,1,1.07.18C45.55,3.54,45.66,3.71,45.78,3.82Zm5,8.56c-.36,0-.56,0-.76,0a3.62,3.62,0,0,1-.62.11A19.2,19.2,0,0,0,47,12.43c-.6,0-1.23-.25-1.82.17L45,12.9a24.54,24.54,0,0,1,.15,2.74c.43.43.89.2,1.37,0,.29.43.6.05.87,0a3.23,3.23,0,0,0,1.68.16c.51,0,1,.29,1.53.09a2.53,2.53,0,0,1,1.57,0l.57-.23.12.27,1.23-.83a2.8,2.8,0,0,0-.2-2.57,9.51,9.51,0,0,0-1.26-.23,9.69,9.69,0,0,0-1.25.1L51.23,12Zm-.55-2.93.95-.32c.37.5.89-.13,1.33.14l.92-.48L53.7,8a1.47,1.47,0,0,0-.86-1l-.12-.49-.24.39c-.26-.34-.62,0-.95-.17s-.59.1-.94,0a4.3,4.3,0,0,0-1.24,0L49,6.55l-.6.27-.14-.29-.27.36-1.29-.33c-.45.48-.88.14-1.28,0L45.05,7l-.25-.1.12,2-.35-.13v.27l2.36.51.16-.25a5.94,5.94,0,0,1,1.08,0c.33.06.61-.15,1-.07a4.28,4.28,0,0,0,1,0Z"/><path d="M5.26,33.82c-.25-.39-.07-.92-.11-1.4.37-.61,1-.41,1.5-.48a5.44,5.44,0,0,1,1.49.17c.05.23.1.38.12.54a8.73,8.73,0,0,1,0,1.95c-.07.67,0,1.34-.06,2a1.58,1.58,0,0,0,.27,1.15c.4,0,.79,0,1.17.09s.74-.2,1.11,0l.13.25.4-.29c.37-.06.73.32,1.13,0,.11-.08.39,0,.68.1a.85.85,0,0,1,1,.05.86.86,0,0,1,1,0l1.26-.25a5,5,0,0,0,.07-1.3c-.09-.45.09-.86,0-1.3a8.67,8.67,0,0,1,.07-1c0-.32-.09-.63-.08-.95a9,9,0,0,1,.18-1.07l.27.15.15-.23H19l.13.23.42-.14a15.24,15.24,0,0,1,0,1.7c-.12.56.09,1.11,0,1.66s.13.91-.15,1.33c.37.42.08.9.06,1.33a4.59,4.59,0,0,1-.07,1.18,1.74,1.74,0,0,0,.09.67,17.8,17.8,0,0,1,.09,2.14,22,22,0,0,0,.1,3.83,3.59,3.59,0,0,1-.18,1.16L19.37,47l-.2.33c-.24-.23-.68-.07-.84-.46a3.39,3.39,0,0,1-.66.36,2.75,2.75,0,0,1-.72,0c-.19-.18-.54-.34-.37-.77l.61.08-.75-.84.18-1.86-.17-.07a3.06,3.06,0,0,0,0-.61,4.09,4.09,0,0,0-.18-.66l.36-.27-.15-.91-.45-.76c-.55.84-1.47.15-2.18.47l-.19-.33-.29.24c-.8,0-1.61.32-2.29-.28L11,41H8.47l-.2.19c.35.78-.29,1.6.12,2.36a5.57,5.57,0,0,0,0,2.76c0,.17-.07.35-.12.51s-.13.32-.21.51c-.48-.06-.93.14-1.35-.16-.39.25-.85-.14-1.3.23-.07-.11-.17-.21-.19-.32C5.11,46.5,5,45.9,5,45.31c.44-.46-.16-1,.16-1.51-.29-.52.11-1,0-1.56A8.08,8.08,0,0,1,5.08,41c0-.39-.05-.79,0-1.18,0-1.27,0-2.54.14-3.8a8.62,8.62,0,0,1,0-1.3C5.19,34.46,5.2,34.22,5.26,33.82Z"/><path d="M91.52,34.28l.15-.27.44.83-.48.36.14.26a2.07,2.07,0,0,0-.37.58c-.05.2-.57.15-.26.5l-.64.54a4.88,4.88,0,0,0-1.31-.68c-.56-.25-1.06-.64-1.62-.91s-.88-.59-1.47-.49c-.2,0-.43-.15-.73-.27L85,34.9a3.32,3.32,0,0,0-2.27,0c-.42.1-.87,0-1.25.24s-.47.44-.82.46a1.73,1.73,0,0,1-.27,0l-.55.68-.2-.31-.4.66,0,.06,0,.11-.58.48-.17.65-.3-.11c0,.47-.51.9,0,1.41-.49,1,0,2,.21,2.93l1.86,2,.24-.07,1.76.77.4-.13.44.45.19-.33,1.15.25.56-.28.62.2-.1.25c.45.17.27-.27.44-.48l1.22-.39a8.94,8.94,0,0,1,1.22-.35,2.8,2.8,0,0,0,1.4-.71A1.38,1.38,0,0,1,91,42.8c.18.27.46.51.5.79a4.37,4.37,0,0,0,.34.94c.12.33.21.67.27.85l-.47.53-.36-.13-.36.66c-.12.34-.54,0-.75.36s-.72.19-1,.38a1.89,1.89,0,0,1-.86.27c-.36.07-.75,0-1,.37-.32-.19-.62.08-.95.05a5.62,5.62,0,0,0-1,.16c-.34,0-.68,0-1,0l-.21-.34L84,48h-.54l-.29-.38-.48.38-1.37-.29-.23-.36-.89.09.08-.23-1.59-.48.11-.34-.65-.08.06-.22c-.91-.36-1.38-1.24-2.1-1.8a3.43,3.43,0,0,0-.72-1.61,5.21,5.21,0,0,1-.47-1.36c-.09-.29,0-.65-.09-.91s.3-.54-.09-.73L75,38l.17-.11c.15-.45,0-1,.6-1.32-.07-.54.37-.9.51-1.39l.66-.33-.11-.25c.4-.38.81-.79,1.24-1.17s.86-.47,1.22-.82c.52-.17,1.08-.34,1.61-.5.78-.24.93-.41,1.61-.25l.16-.25c.06,0,.12-.07.17-.06a8.66,8.66,0,0,0,2.12,0,3.78,3.78,0,0,1,1.46.16,12.13,12.13,0,0,1,4,1.54l.14.5.19-.31.46.21-.1.18Z"/><path d="M46.14,66.27A3.29,3.29,0,0,1,46,68.1c-.26.22-.53-.16-.84,0a1.94,1.94,0,0,1-.88.18,2.21,2.21,0,0,1-.81-.07,1.23,1.23,0,0,0-1.06.06l-.25-.23-1.43.11-.42.4c.14.46.43.58.9.63a5.61,5.61,0,0,0,1.8,0l.42.58.12,1-.15.48c-.13.07-.3.25-.45.23a8,8,0,0,1-1.12,0,.76.76,0,0,0-.69,0c-.09.05-.27,0-.44-.07-.44.3-.18.76-.24,1.21a6.78,6.78,0,0,0,1.17.1,4.5,4.5,0,0,1,1.11,0c.38.07.72-.15,1.13,0s.75-.05,1.11-.09l.36.29,1-.09c.37.63-.11,1.25.07,1.92l-1.14.33L45,74.79l-.9.21c-2-.19-3.83,0-5.76-.11a5.28,5.28,0,0,1-.21-.95,12.06,12.06,0,0,0,0-1.5c-.07-.43.1-.86,0-1.32a5.77,5.77,0,0,1,0-1.31,6,6,0,0,1,.1-.68c-.41-.35.06-.84-.07-1.31a4.77,4.77,0,0,1,.08-1.47l.3-.31a4,4,0,0,1,.75,0,1.2,1.2,0,0,0,.8-.07c.18-.08.5.16.69.09a2.62,2.62,0,0,1,.71-.06,7.36,7.36,0,0,1,.92,0l.31.26.29-.25a4.38,4.38,0,0,0,.92.07A3.3,3.3,0,0,1,46.14,66.27Z"/><path d="M67.83,71.23l-.15.3-.54-.19c-.09.1-.26.2-.28.32a10.2,10.2,0,0,0,0,1.12c0,.66,0,1.31,0,2l-.66.25c-.49-.26-1.2,0-1.58-.71.06-.35-.15-.8.15-1.2-.3-.39-.1-.85-.16-1.27s.19-.81,0-1.22.19-.78.09-1.23a4.59,4.59,0,0,1-.09-1.2c0-.44,0-.87,0-1.3a1.22,1.22,0,0,1,.89-1l1.36.21c0,.52-.07,1-.09,1.43s.31.86-.07,1.22c.39.55,1,.41,1.39.39s.75-.19,1.14.06c.07,0,.22-.05.36-.09l.25.31c.22-.13.42-.26.63-.38s.36-.17.57-.27a3.53,3.53,0,0,1,0-2.64l.16-.09.24-.14.58.3.34-.29.45.22-.11.2.29.17-.16.35.32.19c-.33,1.13,0,2.32-.24,3.57A6.34,6.34,0,0,1,73,72.73l-.35.21.24.13L73,74.57c-.43.65-1.14.09-1.58.48-.69-.39-.76-.56-.57-1.29,0-.18.13-.41.06-.53-.29-.5-.1-1-.2-1.65l-.24-.28-.41.19-.2-.36-.55.36Z"/><path d="M50.69,73.13l-.49-.3.1-.26-.31-.2v-.85c-.36-.49-.36-.49-.14-1.07a4.51,4.51,0,0,0,.1-.81,3.77,3.77,0,0,1,2.29-2.88,4.3,4.3,0,0,0,.57-.41,4.41,4.41,0,0,1,1-.16c.34,0,.51-.54,1-.12l.11.17,1.22-.32c.37.49,1.06.32,1.6.65a15.83,15.83,0,0,0,1.55.93l.19.62-1.27,1.36L57,68.6l.06-.11-1.36-.28-.19.11L55.32,68h-.66l0,.08a8.35,8.35,0,0,0-1.43.53,7.86,7.86,0,0,0-1.13,1l-.22,1.55.29.33,0,.71,1.76,1a11,11,0,0,0,1.56,0,4.71,4.71,0,0,0,1.56-.39c.47-.24,1-.45,1.45-.7l.53.27.48,1.55c-.75.83-1.78.85-2.61,1.33l-1.2.13-.49-.23-.34.29-.5-.25a2.89,2.89,0,0,1-2-.34l.16-.31-.53.13a4.1,4.1,0,0,1-1.5-1.35Z"/><path d="M29,68.69l-.41-.41a6.93,6.93,0,0,1-2.44-.08c-.07-.22-.24-.49-.19-.71.09-.45,0-1,.33-1.3.51,0,1,0,1.45,0s1-.26,1.29,0a5.71,5.71,0,0,1,1,0,1.13,1.13,0,0,0,.75,0c.27-.15.52.16.83.06s.58.1.81,0,.52.11.81,0a.58.58,0,0,1,.81.27V68a.91.91,0,0,1-1.08.37,5.55,5.55,0,0,0-1.74,0A12.32,12.32,0,0,1,31,70.79c0,.09.17.27.13.41a5.28,5.28,0,0,0,0,1.27c0,.45,0,.9,0,1.35a5.65,5.65,0,0,1-.2.88c-.54.12-1-.08-1.55.21L29,74.46Z"/><path d="M99.36,80.17A7,7,0,0,1,97.82,79a9.23,9.23,0,0,0-1-.82c-.33-.22-.66-.45-1-.68l-.67-.47-.53-.34-.31-.2-.12-.09-.14-.13,0-.18-2.67-2.23-.08.1-.24-.26-.29-.53-.32-.06-.28-.38-.44.36-.47-.92.1-.23-4.18-3.47c-.34-.37-.68-.73-1.06-1.1a6.36,6.36,0,0,0-.76-.59,4.19,4.19,0,0,1-1.31-1.25,1.83,1.83,0,0,0-.41-.42L81.59,65a.45.45,0,0,1-.3,0,.56.56,0,0,1-.29-.38.63.63,0,0,0-.05-.13A2.36,2.36,0,0,1,80.2,64l-.12-.11a1.36,1.36,0,0,1-.25-.32l-.34,0-.09-.51a1.47,1.47,0,0,1-.55-.35.78.78,0,0,0-.43-.25.33.33,0,0,1-.26-.21L78,62.07a2.05,2.05,0,0,0-.29-.33,5.18,5.18,0,0,0-.52-.37L77,61.2l-.18-.12.06-.12-.54-.23-1-1v-.05l-.17.08-.73-1-.74-.13-.07-.46L73.3,58a2.46,2.46,0,0,1-1-.92,2.18,2.18,0,0,1-1-.81,2.86,2.86,0,0,0-.44-.47l-1,.33.31-.69-.89-.53.12-.2-.11-.07a1.85,1.85,0,0,1-.64-.61,2.24,2.24,0,0,0-.77-.76,5.35,5.35,0,0,1-.45-.35L67,52.6a7.16,7.16,0,0,1-.67-.59,1.63,1.63,0,0,0-.42-.28,1.77,1.77,0,0,1-.69-.54,3.13,3.13,0,0,0-.68-.64l-.34-.27-.8-.69L61.56,48l-.88.23.26-.59a12.66,12.66,0,0,0-2.48-2.11c-.49-.35-1-.72-1.48-1.12l-.26-.22c-1.19-1-2.42-2-3.63-3l-.1-.07v-.85l.09-.07c.32-.27.66-.52,1-.78a19.39,19.39,0,0,0,2.39-2.06l.07-.05a3.53,3.53,0,0,0,1.63-1.37l.11-.2.29.13.81-.89.83-.65,2.88-2.25a1.32,1.32,0,0,0,.23-.28l.13-.18.06-.06.26-.14a1.31,1.31,0,0,0,.42-.28,8.45,8.45,0,0,1,1.5-1.37c.25-.19.5-.38.73-.59l.33-.28c.71-.62,1.44-1.26,2.2-1.82a14.94,14.94,0,0,0,1.34-1.17A12.51,12.51,0,0,1,72,24.48l.11-.07a7.16,7.16,0,0,0,1.24-.93c.28-.29.58-.57.88-.84a13.88,13.88,0,0,0,1.35-1.37l.12-.15.21.1.16-.32,1.68-1.08,1.38-1.48.21.1a2.44,2.44,0,0,0,.1-.29l.14-.43.3.16,1.53-1.18a.83.83,0,0,1,.75-.63l1.13-1,.11,0,.35-.33c.34-.33.68-.65,1-.95a7.46,7.46,0,0,1,.62-.46,3.59,3.59,0,0,0,.93-.79,2.1,2.1,0,0,1,.76-.59c.34-.18.55-.31.6-.58l0-.1.09-.06c.24-.16.48-.3.71-.45a5.67,5.67,0,0,0,1.31-1,6.91,6.91,0,0,1,1-.89,5.39,5.39,0,0,0,1.1-1c.4-.52.92-.93,1.33-1.44s.55-.82.88-1.18.72-.4.93-.66c.82-1-.55-1.15-1.25-.91a3.13,3.13,0,0,0-.61.32,20.83,20.83,0,0,0-2.32,1.44,7.82,7.82,0,0,1-1.6,1.25.59.59,0,0,0-.13.14L89.08,7l-.46.47c-.36.37-.73.74-1.12,1.08-.65.55-1.32,1.08-2,1.59l-.73.57-.31.22-.06,0-.08.58-.3-.12c-.21-.08-.28,0-.46.2a1.51,1.51,0,0,1-.28.28l-.07.77-.38-.13-.23.34-.39-.15c-.3.24-.59.51-.87.77A9,9,0,0,1,79.44,15l-.28.32c-.25.28-.5.58-.78.85a1.83,1.83,0,0,1-.4.28,1.43,1.43,0,0,0-.36.26,8.92,8.92,0,0,1-1.95,1.55A3.93,3.93,0,0,0,74,19.76a1.18,1.18,0,0,1-.49.44l-.15.09-.26.16a2,2,0,0,0-.26.16l-.4.33a6.21,6.21,0,0,1-.66.52,22.52,22.52,0,0,0-2.29,1.79c-.45.39-.92.78-1.4,1.16-.32.25-.63.53-.93.79a10.44,10.44,0,0,1-1.72,1.33,5.62,5.62,0,0,0-1.28,1.08A13.88,13.88,0,0,1,62.65,29l-.77.63c-.24.21-.49.4-.74.6a13.84,13.84,0,0,0-1.09.92l-.21.2a8.29,8.29,0,0,1-1.41,1.2,17.56,17.56,0,0,0-2.2,1.71c-.42.36-.85.74-1.3,1.08-.21.16-.4.33-.59.51l-.34.3a3.71,3.71,0,0,0-.72.74,2.58,2.58,0,0,1-.87.78c-.13.08-.25.16-.37.26-.4.32-.82.6-1.23.9s-.8.3-1.28-.05c-.15-.11-1.27-1.09-1.21-1.21l-.19.33-.22-.31-.22-.33a2.36,2.36,0,0,0-.45-.57C46.18,35.81,45.08,35,44,34.12a6.49,6.49,0,0,0-.71-.44l-.36-.21-.19-.11.06-.15C41.39,32.09,39.94,31,38.54,30c-1.09-.8-2.22-1.63-3.31-2.49l-.49.14L34.59,27,34,26.54c-.52-.38-1.05-.77-1.57-1.18l-.62-.46a9.77,9.77,0,0,1-1.39-1.14,1.61,1.61,0,0,0-.49-.29l-.32-.16-.09,0a2.61,2.61,0,0,1-.41-.26l-1-.86-.24-.21-.32.13-.12-.12c-.12-.12-.23-.26-.34-.39a1.85,1.85,0,0,0-.59-.55,5.27,5.27,0,0,1-1.66-1.12l-.27.14-.42-.54-.33.18L23.43,19l-.19.1-.12-.19a1.2,1.2,0,0,0-.58-.55l-.23-.14a2.81,2.81,0,0,1-.51-.43,2,2,0,0,0-.55-.44,4.62,4.62,0,0,1-1.17-.73A2,2,0,0,0,19,16l-.18,0-.09-.5a1.92,1.92,0,0,1-1.08-.73,3.1,3.1,0,0,0-.45-.44,3.19,3.19,0,0,0-.6-.31c-.42-.18-.9-.38-1.05-.88L15.27,13a2,2,0,0,1-.46-.34,4,4,0,0,0-.89-.66,4.15,4.15,0,0,1-1.06-.82,1.85,1.85,0,0,1-1.17-.66,1.59,1.59,0,0,0-.39-.28,1.62,1.62,0,0,1-.61-.5A4.5,4.5,0,0,1,9.14,8.56L8.88,8.3A1.77,1.77,0,0,0,8.5,8l-.18-.1L8.1,7.82a3.26,3.26,0,0,1-.42-.25l-1-.76A19.33,19.33,0,0,0,3.75,5.09c-.47-.24-1.58-.85-2-.27s.17,1.08.61,1.36.76.76,1.22,1.09c.89.65,1.69,2,2.77,2.26a1.63,1.63,0,0,1,1.15.83.54.54,0,0,0,.28.18.83.83,0,0,1,.4.28,4.35,4.35,0,0,0,1.27,1A6.21,6.21,0,0,1,11,13l.12-.05.16.08.33.28c.24.2.48.4.72.58s.28.19.43.28.3.18.44.29.41.32.6.48l.35.29.17.14A24.35,24.35,0,0,1,17,17.31a1.35,1.35,0,0,0,1,.39l.19,0,.23.66,2,1.21a4.21,4.21,0,0,0,.79.75,1.8,1.8,0,0,0,.31.16,1.18,1.18,0,0,1,.59.42.54.54,0,0,0,.24.19,1.14,1.14,0,0,1,.3.21,3.14,3.14,0,0,0,.51.41l.15.11.27-.13.17.31.3-.11.16.61.63.26L26.15,24a1.38,1.38,0,0,1,.86.57,1.88,1.88,0,0,0,.31.31l.33.24a9.66,9.66,0,0,0,.92.63l.31.15a1.31,1.31,0,0,1,.83.72l.18.1a3.39,3.39,0,0,1,.52.32l1.31,1.07.9.75.32.23.34.25a2.64,2.64,0,0,1,.25.26l.11.11a.47.47,0,0,1,.32,0,.53.53,0,0,1,.27.36.56.56,0,0,0,0,.09,2.05,2.05,0,0,1,1.06.64,3.84,3.84,0,0,0,.42.35,1.9,1.9,0,0,1,.23.2,1,1,0,0,0,.21.17,12.83,12.83,0,0,1,1.92,1.32,14.49,14.49,0,0,0,1.57,1.12,1.41,1.41,0,0,1,.35.32l.08.09a8.38,8.38,0,0,0,1.61,1.35,9.44,9.44,0,0,1,1.35,1,14.84,14.84,0,0,0,2.47,1.92,1.88,1.88,0,0,1,.33.3l.1.1a.5.5,0,0,1,.6.29l0,.07a2.63,2.63,0,0,1,.34.26,1.7,1.7,0,0,0,.4.29c.52.24.75.58.68,1l0,.09-.58.49-1.29,1.07c-.22.18-.43.37-.64.57a9.45,9.45,0,0,1-1.11.92,11.86,11.86,0,0,0-1.3,1.07c-.23.21-.47.43-.71.63l-.88.72c-.35.28-.7.56-1,.85a1.46,1.46,0,0,0-.24.32l-.15.23a1.48,1.48,0,0,1-.15.16l-.17.18-.22-.08s-1.79,1.55-1.8,1.54l-.11.47L37.24,50l-.73.84-.17-.06-.36.29-.89.71-.91.76-.74.62-.76.63-.7.57-1.15.94c-.6.5-1,.89-1.45,1.27-.2.19-.39.4-.58.61l-.26.29-.14.15-.17-.11a6,6,0,0,0-.9.86,6.15,6.15,0,0,1-1.09,1l-.11.07-.09,0a7.93,7.93,0,0,0-1,.88,5,5,0,0,1-1.54,1.13l-1,1.06-.2-.08a6.66,6.66,0,0,1-1.2,1,5.78,5.78,0,0,0-1.13,1,5,5,0,0,1-1.25,1,3.3,3.3,0,0,0-1.26,1.15l0,.07-.07,0A6.53,6.53,0,0,0,15,68.52c-.35.32-.69.57-1,.82a10.49,10.49,0,0,0-1.22,1,15,15,0,0,1-1.33,1.14c-.29.23-.59.47-.87.71s-.57.48-.86.72c-.44.36-.9.74-1.32,1.15a9.11,9.11,0,0,1-1,.82,7,7,0,0,0-1.15,1L6.14,76,6,75.93l-.68.56L3.38,78.08l-.45.41a5.75,5.75,0,0,1-1,.8A1.61,1.61,0,0,0,1,81.07l.72,1.06c.49.2.86.53,1.4.52a6.08,6.08,0,0,1,1.6.05c.79.21,1.71-.13,2.63,0a15.75,15.75,0,0,0,1.58,0c.51,0,1,0,1.55.1a7.66,7.66,0,0,0,1.16,0,5.42,5.42,0,0,1,1.89.17,33.76,33.76,0,0,1,4.78,0,1.29,1.29,0,0,0,.4,0,1.4,1.4,0,0,1,.79,0,2,2,0,0,0,.74,0h.78c.28,0,.56,0,.84,0a3.32,3.32,0,0,1,.46.07,2.6,2.6,0,0,0,.43.06c.33,0,.65,0,1,0l.61,0,.05,0a1.87,1.87,0,0,0,.89,0,3.35,3.35,0,0,1,1.13,0,1.58,1.58,0,0,0,.63-.06l.4-.08h.09l.2.06a.88.88,0,0,0,.34.07,2.82,2.82,0,0,1,.85,0,3,3,0,0,0,.51,0c.52,0,1,0,1.55,0a10.22,10.22,0,0,0,2.5-.13l.08,0,.08,0a1.44,1.44,0,0,0,.89,0l.17,0a3.2,3.2,0,0,1,.93,0c.16,0,.32,0,.48.06.35,0,.71,0,1.06,0h.23a1.86,1.86,0,0,0,.36-.06,1.39,1.39,0,0,1,1,.05.87.87,0,0,0,.58,0,2.19,2.19,0,0,1,.49-.09,6.45,6.45,0,0,1,1,.08,4.75,4.75,0,0,0,1.22.05,4.75,4.75,0,0,1,.53,0,2.31,2.31,0,0,0,.72-.08,1,1,0,0,1,.32-.05,1.65,1.65,0,0,1,.54.11.82.82,0,0,0,.5.07,3,3,0,0,1,1.2-.09,1.83,1.83,0,0,0,.33,0,1.82,1.82,0,0,1,.59,0,1.86,1.86,0,0,0,.68,0l.28,0,.12,0a.46.46,0,0,1,.45,0,.83.83,0,0,0,.72.06l.33-.05a5,5,0,0,1,.82,0h.14l.15-.34.65.3a5.74,5.74,0,0,1,1.21,0A3,3,0,0,0,54,83l.66-.53.16.69c1,0,1.08,0,1.6-.26l.2-.1.25.38H57a1,1,0,0,0,.29,0,.64.64,0,0,1,.66-.13c.12,0,.17,0,.21,0a1.78,1.78,0,0,1,1.19,0,2.22,2.22,0,0,0,.94,0,1.36,1.36,0,0,1,.58.08.83.83,0,0,0,.33.06,2,2,0,0,1,1.15-.08A1.42,1.42,0,0,0,63.2,83l.14-.08.13.1c.07.05.13,0,.32,0a.9.9,0,0,1,.54,0,.48.48,0,0,0,.28,0,.93.93,0,0,1,.71,0A1.46,1.46,0,0,0,66,83l.2,0a5.14,5.14,0,0,1,1.19,0,3.92,3.92,0,0,0,.66,0h.53a2,2,0,0,1,.48.11l.09,0A3.12,3.12,0,0,1,70.79,83a4.66,4.66,0,0,0,.72.05l.25-.22,1.57.27.82-.71.16.73a2.27,2.27,0,0,1,.83,0c.35.05.58.08.78-.07L76,83h.1l.45,0a4.42,4.42,0,0,1,.75.11.48.48,0,0,0,.22,0,.73.73,0,0,1,.6,0,2.36,2.36,0,0,1,1.37,0,2,2,0,0,1,1.1-.06,1.41,1.41,0,0,0,.92-.06l.15-.09.13.12c.12.11.23.09.48,0a1.21,1.21,0,0,1,.63,0,2.31,2.31,0,0,0,.56,0,2.59,2.59,0,0,1,.73.06l.14-.06A.63.63,0,0,1,84.8,83a1.19,1.19,0,0,0,.79.13,1.22,1.22,0,0,1,.8,0,1.09,1.09,0,0,0,.33,0l.65-.06a6.17,6.17,0,0,1,1.32-.06l.35.06a1.26,1.26,0,0,0,.43,0,.69.69,0,0,1,.75-.06l.11,0a.72.72,0,0,1,.76-.12l.2,0c.46,0,.91,0,1.39,0h.47l.42-.48.43.56.1,0a.64.64,0,0,1,.57,0,.79.79,0,0,0,.28-.06,1.77,1.77,0,0,1,.37-.08l1-.06a17.67,17.67,0,0,0,1.85-.16l.27,0a2,2,0,0,0,1.21-.44l.1-.88.28.1a2.72,2.72,0,0,0-.57-1.24Zm-5.09-.4a.77.77,0,0,1-.8.52,7.29,7.29,0,0,1-1.24,0,4.06,4.06,0,0,0-1.77.08.89.89,0,0,1-.63-.1l0,0-.4.51-.29-.47-.38,0a9.48,9.48,0,0,0-1-.1,8.18,8.18,0,0,0-.82.05l-.64.05h-.78c-.27,0-.54,0-.81,0s-.63.05-1,.09l-.58.06L83,80.13a6.73,6.73,0,0,1-2.19.12,7.35,7.35,0,0,0-2.13.09h-.06l-1-.25-1,.26-.16-.11c-1.18,0-3.53-.26-3.53-.26h-.75l-.33.75-.34-.49-.29,0a1.41,1.41,0,0,1-.9-.07,1.25,1.25,0,0,0-.58,0l-.23,0-.25,0a1.94,1.94,0,0,1-.78,0,1.76,1.76,0,0,0-.68,0l-.13,0a5.28,5.28,0,0,0-.59.15l-.29.08-.1,0-.09,0c-.48-.26-.83-.42-1.25-.18l-.11.07-.12-.06a1.11,1.11,0,0,0-.69,0,4.87,4.87,0,0,0-1.12.67h-.75A8,8,0,0,0,60,80.27a1.6,1.6,0,0,1-.32,0l-.18,0A25.14,25.14,0,0,1,57,80H55.82s-.16.28-.24.27l-.25,0a1.13,1.13,0,0,0-.79.07l-.08.06h-.1L54,80.3a4.45,4.45,0,0,0-1.23,0,6.65,6.65,0,0,1-1,0l-.3,0a2.08,2.08,0,0,0-1.11.07l-.08,0-.08,0a7.58,7.58,0,0,0-2.13-.13,9.75,9.75,0,0,1-1.9-.06,1.59,1.59,0,0,0-.49,0c-.14,0-.42.82-.42.82h-.42a13.44,13.44,0,0,0-3-.79h-.72a5.46,5.46,0,0,1-1.74-.12,5,5,0,0,1-1.74.12,8.36,8.36,0,0,0-.84,0c-.59,0-1.19,0-1.77,0s-.94,0-1.42,0a7.89,7.89,0,0,1-1.55,0,3.06,3.06,0,0,0-.78,0,2.59,2.59,0,0,1-1.32-.11,1,1,0,0,0-.5,0,1.73,1.73,0,0,1-.69.05,1.94,1.94,0,0,0-.62,0,3.47,3.47,0,0,1-.46,0c-.71,0-1.32,0-1.89-.05a2.82,2.82,0,0,0-.54,0,2.09,2.09,0,0,1-1.17-.1,1.06,1.06,0,0,1-.77.07,1.15,1.15,0,0,0-.32,0,9.44,9.44,0,0,1-1.24.06,3.64,3.64,0,0,1-.6-.08l-.21,0-.17,0a2.38,2.38,0,0,1-.61.07,2.3,2.3,0,0,1-.49-.09,1,1,0,0,0-.59-.05,1.42,1.42,0,0,1-.77,0,1.31,1.31,0,0,0-.42,0,7.45,7.45,0,0,1-1.15,0h-.19c-1.37,0-2.83.16-4.19.11l-1.48-.07c-.39-.19-.84,0-1.3,0s-1,.24-1.44,0a4.23,4.23,0,0,0-1-.09c-.17,0-.35-.13-.53-.15-.66-.09-1.75,0-2.41,0,.62-.39,1.92-1.33,2.48-1.79l1.69-1.41.59-.51c.31-.27.61-.54.93-.79.62-.48,1.24-1,1.87-1.43l1.12-.85a2.3,2.3,0,0,0,.23-.21l.17-.16.4-.36c.44-.4.88-.79,1.33-1.18.78-.67,1.61-1.38,2.44-2.06L18.89,68c.76-.61,1.54-1.23,2.3-1.87a7.88,7.88,0,0,0,.87-.92l.43-.5,0,0,.06,0a3.83,3.83,0,0,0,1.5-1.16,6.79,6.79,0,0,1,1.11-1l.06-.16.16.06.37-.21a3.11,3.11,0,0,0,.81-.56,9.43,9.43,0,0,1,.84-.79,8.09,8.09,0,0,0,.85-.81l.27-.34.26-.34.3.12,0,0a3.34,3.34,0,0,1,.5-.56,2.26,2.26,0,0,1,.53-.31l.28-.14.06,0A2.34,2.34,0,0,0,31,58a10.87,10.87,0,0,1,1.9-1.54,1.48,1.48,0,0,0,.3-.3,1.93,1.93,0,0,1,.4-.39A21.08,21.08,0,0,0,35.9,53.9c.41-.37.81-.73,1.23-1.08q1.14-.94,2.26-1.89a5.58,5.58,0,0,0,.57-.57,1.59,1.59,0,0,1,1-.64.7.7,0,0,1,.21-.3c.24-.18.48-.34.73-.5l.09-.06-.11-.26.23-.09a1.94,1.94,0,0,0,1.16-.91l0-.07.07,0,.28-.15a2.66,2.66,0,0,0,.43-.27c.31-.26.63-.5.95-.75a11.16,11.16,0,0,0,1.74-1.52l.05-.06.07,0a2.4,2.4,0,0,0,1.06-.76,3.56,3.56,0,0,1,.94-.76,1.2,1.2,0,0,0,.32-.33c.07-.09.15-.2.25-.3l.05-.06.85-.19.09.08.15.12a3,3,0,0,1,.37.32,27.15,27.15,0,0,0,3.47,2.92l.69.52c.54.41,1.07.86,1.57,1.3.34.29.68.58,1,.87a10.41,10.41,0,0,0,.88.62l.25.16.12,0a.5.5,0,0,1,.36.28,1.28,1.28,0,0,0,.57.6c.11.08.22.15.32.24l.27.23a15.36,15.36,0,0,1,1.43,1.31,1.14,1.14,0,0,0,.36.23,1.34,1.34,0,0,1,.66.54,1.61,1.61,0,0,0,.57.46l.29.18s.05,0,.09,0h.2l.06.12a3.07,3.07,0,0,0,1.11,1c.18.12.36.24.53.37l.35.27c.23.17.46.35.67.53l.41.36c.43.38.85.75,1.29,1.11l.65.5a12.66,12.66,0,0,1,1.12.93,3.27,3.27,0,0,1,.31.37l.1.13a2.24,2.24,0,0,1,1,.81,2.71,2.71,0,0,0,.62.6l.43-.85L72.91,61l2.72,2.24,0-.05.25.2.42.52.39-.22,0,.38a1.27,1.27,0,0,0,.52.8l.17.16.17-.09.13.12.32.27a2.49,2.49,0,0,1,.7.74,1.26,1.26,0,0,0,.48.45,2,2,0,0,1,.5.42,3.63,3.63,0,0,0,.56.52l.33.28.13,0,.2,0,.05.1a3.18,3.18,0,0,0,1,1.06c.18.14.36.28.53.43s.41.38.61.58a6.82,6.82,0,0,0,1.59,1.29,1,1,0,0,1,.31.29l.08.1.59.64.65-1-.09,1.56c.2.21.43.41.68.62a10.19,10.19,0,0,1,.92.87,3.29,3.29,0,0,0,.5.42c.14.1.28.2.4.32l.84.78c.5.47,1,1,1.55,1.4l.67.53a16.86,16.86,0,0,1,1.8,1.53.74.74,0,0,0,.21.07l.22.06.24.08Z"/></svg>