<?xml version="1.0" encoding="utf-8"?>
<!-- Generator: Adobe Illustrator 21.0.0, SVG Export Plug-In . SVG Version: 6.00 Build 0)  -->
<!DOCTYPE svg PUBLIC "-//W3C//DTD SVG 1.1//EN" "http://www.w3.org/Graphics/SVG/1.1/DTD/svg11.dtd">
<svg version="1.1" id="Layer_1" xmlns="http://www.w3.org/2000/svg" xmlns:xlink="http://www.w3.org/1999/xlink" x="0px" y="0px"
	 viewBox="0 0 109.8 45.6" style="enable-background:new 0 0 109.8 45.6;" xml:space="preserve">
<style type="text/css">
	.st0{fill:#010101;stroke:#FFFFFF;stroke-width:0.1651;stroke-miterlimit:10;}
	.st1{fill:#CA3E96;}
	.st2{fill:#C93F97;}
</style>
<g>
	<path id="XMLID_208_" class="st0" d="M32.3,19.3c-0.1,0.1-0.3,0.1-0.4,0.4c-0.3,0-0.4-0.2-0.5-0.3C31.8,19.3,32.2,19.2,32.3,19.3"
		/>
	<path id="XMLID_207_" class="st0" d="M21.3,22.9c1.9-0.6,3.9-1.3,5.8-1.6c-0.6,0.5-1,0.8-1.8,1.3c-1.3,0.7-2.4,1.6-3.2,1.5
		C21.9,23.5,21.3,23.6,21.3,22.9"/>
	<path id="XMLID_206_" class="st0" d="M28.1,22.8c-1.4,0.7-2.9,1.2-4.3,2.1c-0.3-0.1-0.5-0.3-0.9-0.5c1.3-1.2,3.1-1.7,5.3-2
		L28.1,22.8L28.1,22.8z"/>
	<path id="XMLID_205_" class="st0" d="M31.9,23.1c0.1,0.1,0.3,0.1,0.4,0.4c-0.3,0-0.7,0.2-0.8,0C31.5,23.2,31.7,23.2,31.9,23.1"/>
	<path id="XMLID_204_" class="st0" d="M30.6,23.3c0.1,0.4-0.9,0.8-1.3,0.7C29.5,23.4,30.1,23.4,30.6,23.3"/>
	<path id="XMLID_164_" class="st0" d="M35.3,25.7c0.4-0.8,1.1,0.2,1.3,0.7c-0.3,0.1-0.7,0.1-0.8,0.2C35.5,26.3,35.2,26.1,35.3,25.7"
		/>
	<path id="XMLID_163_" class="st0" d="M37.2,27.9c-0.4,0-0.6,0.2-1.1,0.3c-0.3-0.3-0.2-0.8-0.3-1.2c0.3-0.1,0.6-0.2,1-0.2
		C36.7,27.2,37.1,27.4,37.2,27.9"/>
	<path id="XMLID_162_" class="st0" d="M31.7,27c0-0.8,1.1-0.6,1.1,0.1C32.3,26.9,32.1,27.2,31.7,27"/>
	<path id="XMLID_161_" class="st0" d="M31.1,26.7c-0.3,0.4-0.7,0.6-1.4,0.7c0-0.3,0.1-0.3,0.2-0.5C30.2,26.8,30.9,26.4,31.1,26.7"/>
	<path id="XMLID_160_" class="st0" d="M32.5,28.7c0-0.4,0.2-0.5,0.4-0.7C33.1,28.3,32.9,28.9,32.5,28.7"/>
	<path id="XMLID_159_" class="st0" d="M32,28c0,0.7-0.7,0.8-1.3,0.9C31,28.5,31.2,27.8,32,28"/>
	<path class="st0" d="M46,32.7c-0.2-0.6-0.5-0.4-1.2-0.5c0-0.1,0.4-0.4,0-0.3c0-0.3,0.3-0.3,0.6-0.4c-0.4-0.6-1.1-0.2-1.5-0.6
		c0.4-0.5-0.6-1-0.9-0.5c-0.3,0-0.4-0.2-0.5-0.3c-0.3,0-0.5,0.1-0.6,0.2c0.3,0,0.5-0.1,0.7,0.2c-0.1,0.3-0.7,0.1-0.9-0.1
		c0-0.1,0.3,0.1,0.3-0.1c-0.4-0.4-1.2-0.5-1.4,0.2c0.1,0.1,0.3,0,0.3,0.1c-0.3,1.3,1.6,0.5,1.9,1.6c0.4-0.1,0.7,0,0.8,0.4
		C44.3,33.1,44.9,33,46,32.7 M43.2,31.2c0.3-0.1,0.7,0,0.5,0.4c-0.1,0,0,0.3-0.3,0.3c-0.1-0.1-0.5,0-0.8-0.3
		C42.9,31.4,42.8,31.3,43.2,31.2"/>
	<path id="XMLID_158_" class="st0" d="M31.6,30.4c0-0.8,0.9-0.8,1.5-0.9C33,30.3,32,30,31.6,30.4"/>
	<path id="XMLID_157_" class="st0" d="M38.8,38.5c0.8,0.3,1.4,0.9,1.5,1.7c-0.5,0.1-0.8,0.1-1.2,0.1c-0.1-0.5-0.5-0.8-0.6-1.4
		C38.7,38.9,38.6,38.7,38.8,38.5"/>
	<path class="st0" d="M50.4,34.8c-0.1-0.5-0.4-0.8-0.9-1.3c-0.2-1-0.9-0.9-1.1-2c-0.8-0.9-0.7-2.1-1.5-3.2c-0.4-0.2-0.1-0.1-0.1-0.4
		c-0.4-0.3-0.2-0.7-0.6-0.6c-0.3-1.5-1.8-1.7-2.4-2.8c-0.7,0-0.9-0.6-1.3-0.9c-0.3-0.1-1.3-0.2-1.5-0.4c-0.4-0.2-0.9-0.9-1.2-1.1
		c-0.4-0.3-0.2-0.4-0.5-0.7c-0.5-0.4-0.9-0.9-1.3-1.3s-0.8-0.3-1.3-0.6c-0.4-0.3-0.1-0.3-0.6-0.6c-1.1-0.6-1.5-1.4-2.7-1.9
		c-1.9-0.8-3.8-2-6.5-2c-0.7-0.2-1.3-0.6-2-0.8c-3.9-0.8-6.5,0.6-9.1,2.1c-1.8,1.1-2.9,2.8-4.2,4.7c-0.4,0.5-1,1-1.4,1.7
		c-1.2,1.8-2.4,4.1-3.1,6.5c-0.2,0.8-0.6,1.9-0.6,2.7c0.1,0.7,0.6,1,0.6,1.8C6.8,34,6.1,34.3,6,34c-0.6,1.2-2.1,1.5-3.1,2.4
		c-1,0.8-1.4,1.7-2,2.7c-0.2,0.4-0.4,0.8-0.6,1.1c-0.2,0.5,0.1,1.4-0.2,1.9c0.3,0.3,0.4,0.6,0.3,1.1c0.9,0.3,0.8,2.2,2,2.4
		c0.4,0,1.9-0.2,2.5-0.3c1.6-0.2,3.3-1.3,4.7-1.5c1.1-1.2,2.2-2.9,1.9-5.3c0.3-0.3,0.8,0,1.1-0.1c0-0.1-0.1-0.5,0.2-0.4
		c0.7,0.2,1.2,0.1,1.7,0.4c0.4,0.3,0.5,0.8,0.9,1c1.5,0.8,4.7,0.7,6.9,0.8c0.9,0.1,2,0,3,0c0.4,0,0.8,0.2,1.1,0.2
		c0.4-0.1,0.7-0.4,1.1-0.3c0.7,0,0.9,0.6,1.4-0.2c-0.6-0.7-1.7-1-3.1-0.7c-0.4-0.2-0.4-0.6-0.9-0.5c-0.4,0,0.1,0.5-0.3,0.3
		c-0.5,0-0.5-0.8-1-0.7c0.1-0.3-0.1-0.7-0.5-0.8c-0.4,0.2-0.4,0.8-1,1c-0.8,0.2-2.8,0-3.2-0.2c-0.7-0.2-2.1-0.5-2-1.1
		c0.2-0.5,0.8,0.4,1.1,0.1c-0.3,0-0.5,0.1-0.4-0.2c0.7-0.4,2.3,0.3,2.9-0.3c0.1-0.3-0.1-0.8-0.1-1c-0.3-0.1-0.7,0.2-0.8,0.1
		c0.3-0.1,0.8-0.2,0.6-0.6c-0.8-0.3-1.8,1-2.3,0.7c0.3-0.1,0.3-0.3,0.4-0.4c-0.4,0-0.8,0.4-1.1,0.2c0.6-0.4,1.4-0.7,1.7-1.1
		c1.1-0.3,3-1.1,3.5-2.1c-2.2,1.4-5.4,1.2-7,3.2c0.7-1.3,2.1-1.9,3.5-2.5c0.8-0.4,2.3-0.4,2.4-1.6c-1.5,0.9-3.3,0.9-4.8,1.5
		c-2.1,0.7-3.6,2.2-5.3,2.8c1.7-1.7,4.3-2.5,6.4-3.6c0.4-0.2,0.7-0.6,1.1-0.9c0.8-0.4,2.1-0.6,2.4-1.4c-0.4-0.2-0.4,0.7-0.7,0.4
		c0.1,0,0.1-0.3-0.1-0.1c-3.6,1.3-7.3,2.3-10,4.5c0.2-0.9,1.3-1.2,2.1-1.6c2.5-1.4,5-2.7,7.5-3.9c-0.9-0.5-1.9,0.2-2.7,0.5
		c-1,0.2-1.9,0.6-3,0.7c-1,0.8-2.5,1.1-3.6,1.8c-0.6,0.4-0.9,1-1.4,1.1c0.9-1.2,1.9-1.7,3.2-2.4c1.7-0.7,3.1-1.6,4.6-2.3
		c0.7-0.4,1.7-0.6,2.1-1.4c-2.1,0.6-4,1-5.8,1.7c-0.7,0.2-1.5,0.6-2.1,0.8c-1,0.5-1.7,1.5-2.7,1.5c1.1-0.8,2.3-1.5,3.6-2.1
		c1.4-0.5,2.9-0.9,3.9-1.7c-0.3,0-0.4,0.1-0.5-0.2c1.5-0.3,3.2-0.8,3.9-1.6c-3.6,0.8-7.7,1.6-10.1,3.4c1.3-1.7,3.9-2.1,6-2.9
		c0.7-0.2,1.9-0.7,2-1.7c-2.6,0.4-4.8,1.2-6.6,2.5c0.9-1,2.3-1.5,3.6-2.1c0.8-0.4,1.7-0.9,2.4-1.1c1.4-0.5,2.9-0.7,4.1-1.4
		c0.3,0.1,0.7,0.4,0.9,0.3c1.2-0.3,2.1-1,3.2-1.6c0.6-0.2,1.2-0.1,1.7-0.6c-1.1,0.1-1.8,0.2-3.1,0.2c-0.1-0.4-0.9-0.1-1.8,0.2
		c-0.3,0.1-1,0.4-1.1,0.1c-0.3,0.7-0.9,0.8-1.2,1.3c-2,1.1-4.7,1.2-6.8,2.1c-0.7,0.2-1.3,0.9-2,1.3c0.8-1.5,2.5-1.5,4.2-2.1
		c1-0.5,2-1.3,2.9-1.5c0.3-0.1,0.7,0,1.1-0.1c0.8-0.2,1.3-1,2-1.5c1.7-1.3,4-2,6.2-2.6c0.7-0.2,1.5-0.6,2.3-0.4
		c-1.3,0.6-3.2,0.9-3.9,1.8c0.8,0,0.7,0,0.8-0.2l0.9,0.1c0.6-0.4,1.5-0.6,2.3-0.8c0.8-0.2,1.8-0.9,2.5-0.3c-1,0.4-2.3,0.6-3.3,1.2
		c0.8,0.2,1.4-0.1,1.9-0.3c0.7,0.3,1.2-0.2,1.9-0.2c0,0.3,0.5,0.2,0.8,0.2c0,0.3-0.5,0.1-0.4,0.5c0.8,0.9,1.5-0.1,2.3,0.7
		c-0.4,0-1.5,0.2-1.9,0.3c0.7,1.3,2.8-0.9,3.8,0.6c-0.8-0.2-1.1,0.3-1.8,0.3c0.3,0,0.8,0.4,1.6,0.5c0.5,0,2.1-0.3,1.7,0.4
		c-0.4-0.3-0.4,0.1,0,0.1c-0.1,0.1-1.1-0.2-1.6,0.2c0.4,0.7,1.3,0.2,2,0.7c0.4,0.3,0.3,1.4,0.9,1c-0.3,0.1-0.4-0.2-0.1-0.1
		c0.5,0.3,0.6,0.7,0.5,0.2c1.3,0.5,2.8,1.2,3.5,2.1c0.3,0.3,0.6,0.6,0.8,0.7c0.6,0.6,1.3,1.7,1.8,2.5c0.4,0.7,0.6,1.5,1,2.2
		c1.1,2.1,2.3,2.8,1.5,4c-0.4,0.2-1.6-0.8-1.4,0.7c-0.7,0.2-0.6,0.5-1.4,0.3c-0.2,0.4-0.9-0.1-0.6,0.2c-0.8,0.2-1.6,0.2-2.4,0.1
		c0.3-0.1,1-0.1,0.7-0.6c-0.9-0.2-2.1,0.4-2.7,0.4c0.6-0.6,1.9-0.4,2.4-1.4c-1.2-0.3-2.6,0.3-4,0.6c0.3-0.7,1-0.5,1.4-0.6
		c0.8-0.4,1.5-0.9,2.4-1c-0.5-0.4-1.9-0.4-2.8-0.2c-0.8,0.1-1.5,0.9-2.3,0.6c0.6-0.4,1.2-0.5,1.9-0.7c0.4-0.5,1-0.8,1.8-1
		c-0.9-0.9-2.9,0.3-4.2-0.1c0.5-0.1,1.1-0.1,1.6-0.3c0.4-0.1,1.1-0.5,1.1-0.8c-0.5-0.7-2.2-0.1-2.7-0.3c0.4-0.5,1.8-0.2,2.3-0.7
		c-0.4-0.7-2.5-0.5-3-0.4c0.3-0.7,1.4-0.5,1.9-0.7c-0.8-0.4-1.6-0.9-2.5-0.7c0.4-0.5,1.5-0.2,1.7-0.7c0.3-0.8-1.1-0.5-1.7-0.5
		c0.2,0.6-0.1,0.9-0.1,1.5c-0.4-0.3-0.7,0.6-0.9,1c0.4,0.8,0.3,2.2,0.4,3.3c-0.3,0.5-1,0.6-0.9,1.4c0.1,1.1,1.8,1.5,2.8,1.6
		c0.7,0.2,1.5,0.6,1.7,0.8c0.1,0.1,0.4,0,0.5,0.2c0.5,0.4,0.3,1.1,1,1.4c0.7,0,1.2,0.2,1.8,0c-0.3,0.9,1.3,0.2,1.6,0.5
		c0.3-0.3,0.3-0.7,0.2-1.1c0.9,0.1,1.7-0.7,2.6-0.8c1-0.1,1.5-0.2,2.1-0.4c0.7-0.4,0.6-0.9,0.9-1.8v-0.3L50.4,34.8z M13,36.9
		c-0.2,0.4-1.1,0.6-1.5,0.6C12,37.4,12.3,36.8,13,36.9 M1.6,40.3c0.3-0.5,1-0.2,1.6-0.2c1.6,0,3.3-0.5,5.2-0.4
		c0.3-0.4,0.9,0.1,0.8-0.4c0-0.1,0-0.1,0.1-0.1c0.8,0.7-0.2,1.6,0,2.6c-0.7,0.4-0.9,1.2-1.4,1.7c-1.2,0.1-2.3,0.6-3.5,0.4
		c-0.3,0-0.4-0.3-0.7-0.3c-0.7,0-1.6,0.3-2.2-0.3c2-0.2,4.5,0,6.3-0.5c-0.1-0.1-0.1-0.3,0-0.4c-0.3,0-0.3-0.3-0.5-0.3
		c-2,0.2-4.3-0.2-6.4-0.1c2.2-1,6.7,0.6,7.7-1.8C6.5,40.7,4.4,40.2,1.6,40.3 M8.8,38.4c-1.9,0.6-3.9,0.1-6,0.2
		c1.8-0.4,4.1-0.5,6-0.5V38.4 M3.6,37.2c1.1-0.3,3-0.4,4.2-0.5C7,37.2,4.8,37.2,3.6,37.2 M21,15.7c0.1,0.1,0.5,0.2,0.7,0.3
		c-2.5,0.7-4.5,2.2-6.5,3C17,17.8,18.9,16.6,21,15.7 M22.9,16.4c0.1,0.1,0.8-0.1,1.1,0.2c-0.4,0.1-0.8,0.1-1.1,0.2
		c-2.1,1.5-5,2-6.9,3.8c-1.2-0.1-2.6,0.5-3.3,1c0.6-1.3,1.9-0.7,3.2-1.5C18.1,19,20.7,16.9,22.9,16.4 M17.5,20.7
		c2.4-2.2,5.3-3.2,9-4c0,0.4-1,0.1-0.4,0.5c-2.2,0.6-4.3,1.9-6.2,2.6c-1.2,0.5-1.8,0.9-2.9,1.3c0,0.1,0.1,0.3,0,0.3
		c-0.3,0.1-1,0.6-1.8,0.4c0.4-0.1,0.8-0.2,1.1-0.5c-1.7,0.6-3.4,0.9-4.5,2.2c0.2-0.5,0.7-1.3,1.2-1.4C14.3,21.6,16.4,21.3,17.5,20.7
		"/>
	<path id="XMLID_156_" class="st0" d="M32.7,19.6c0.1,0.1,0.7,0.3,0.4,0.6C33.1,19.9,32.5,19.7,32.7,19.6"/>
	<path id="XMLID_155_" class="st0" d="M20.9,20.6c-0.3,0.1-0.4,0.4-0.7,0.5C20.2,20.8,20.8,20.5,20.9,20.6"/>
	<path id="XMLID_154_" class="st0" d="M27.2,39.4c0-0.1,0.2-0.7-0.1-0.5C26.9,39,27.2,39.1,27.2,39.4c-0.4,0.2-0.8,0-1.2-0.2
		c0-0.4-0.4-0.4-0.1-0.8c-1.1-0.3-1.9-0.5-2.8-1c-0.3-0.3-0.2-0.8-0.8-0.9c0.3-1.2,1.5-2,1.5-3.2c0.3-0.4,1-1.4,1.2-2.5
		c0.2-0.4,0.3-3.2,0.3-3.2s-0.3-2.1-1.2-2.9c1.4-0.7,3.4-0.9,5.1-1.4c-0.4,1.7-3,1.1-3.7,2.7c0.8-0.6,1.9-0.7,3-0.9
		c0,0.3-0.3,0.5,0,0.7c0-0.3,0.2-0.4,0.3-0.7c0.5,0,0.8-0.2,1.2-0.3c-0.1,1.6-2.8,1-3.1,2.4c1.1-0.1,1.8-0.4,2.7-0.7
		c-0.1,1.9-2.7,1.6-3.1,2.5c1-0.2,1.8-0.7,2.8-0.9c0.1,0,0,0.3,0.1,0.4c0-0.5,0.8-0.4,1.2-0.5c-0.1,2-2.8,1.6-3.7,2.7
		c1.5-0.6,3-0.7,4.5-1c0.1,0.4-0.2,0.4-0.2,0.7c-1.2,0.5-2.2,1.4-3.6,1.8c-0.4,0.1-0.8,0-1.1,0.3c2.4-0.1,3.9-1.4,6.1-1.8
		c-0.3,0.7-0.9,1-1.8,1c0,0.3,0.1,0.1,0,0.4c-1,0.2-1.5,0.9-2.5,1.2v0.4c-0.6,0.2-1.4,0.2-1.8,0.6c2.2,0,3.6-1.2,5.2-1.3
		c0,0.1,0,0.1,0.1,0.1c-0.7,0.6-1.8,1.1-2.8,1.6c0.1,1-1.9,0.6-2.4,1.4c2.1-0.3,3.4-1,5.1-1.6c0,0.8-1.7,0.7-1.3,1.4
		c0.4-0.1,0.8-0.2,1.1-0.3c0,0.3-0.7,0.2-0.6,0.5c0.5-0.1,1.1-0.3,1.1-0.8v0.5c-1.3,0.6-2.4,1-3.6,1.6c1.4-0.3,2.7-0.7,3.7-1.4
		c-0.2,1.2-1.1,1.2-1.9,1.7c1.8-0.2,4.7,0.3,5.9,1.9c0.1,0,0.5,0.2,0.5-0.1c-0.1-0.3-0.2-0.6-0.1-1.1c1.1-0.1,2,0.9,1.8,2
		c-1.4,0.3-3,0-4.5-0.1c-2-0.1-4.1-0.2-5.7-0.7C28,39.8,27.6,39.4,27.2,39.4"/>
	<path id="XMLID_153_" class="st0" d="M31.7,24.6c0,0.4-0.4,0.2-0.6,0.5c0,0.1,0.3,0.1,0.1,0.3c-0.3-0.1-0.4,0.2-0.5,0
		C30.8,24.9,31.4,24.8,31.7,24.6"/>
	<path id="XMLID_152_" class="st0" d="M40.5,29.4c-1.5,0.6-2-3.1-0.9-3.3c0.5,0.2,1.2,0.5,1.6,0.6c-0.1,0.1-0.2,0.4-0.4,0.4
		c-0.3,0-0.4-0.3-0.7-0.4c0,0.1-0.3,0.1-0.3,0.4c0.7,0.3,0.7,1.4,1.7,1.4c0-0.3-0.5-0.4-0.4-0.6c0.1,0.1,0.3,0.3,0.5,0.3
		c0.2-0.5-0.4-0.8-0.2-1.1c0.1,0.3,0-0.1-0.1-0.1c0.7,0.2,0.4,0.2,1.1,0.6c-0.2,0.7,0.2,0.7,0.2,1.4c-0.7,0.1-1.8,0-2.6,0.4
		C39.9,29.4,40.8,29.3,40.5,29.4"/>
</g>
<path class="st1" d="M99.1,2.5C84.9-1.7,54,0.3,47.7,1.9s-11.5,3.8-11,10.2c0,0,0,0,0,0.1c0,0,0,0,0,0.1c0.5,2,1,4.3,2.8,5.6
	c2.2,1.7,4.8,2,4.5,5.9c0,0.5,0.7,0.6,0.9,0.2c1.9-2.8,2.8-4.6,6.4-4.9c1.2-0.1,12.7,1.4,23.5,1.3c10-0.1,19.4-1.7,20.5-1.7
	c3.2-0.1,7.6,0.6,10.5-1C110.7,15.2,113.5,6.7,99.1,2.5z M96.8,17.8c-1.4,0-11.4,1.7-21.9,1.7c-10.8,0.1-22.2-1.4-23.6-1.2
	c-3.6,0.3-4.6,1.5-6.3,3.9c0-1.3-0.3-2.6-1.5-3.5c-0.6-0.4-1.3-0.5-1.9-0.8c-2.5-1.2-3.3-3.1-3.9-5.8C37.1,3.6,51,1.6,72.3,1
	c11-0.3,22.1,0.7,27.1,2.5c5.9,2.1,10.6,5.4,8.5,10.1C105.8,18.3,101,17.7,96.8,17.8z"/>
<g>
	<g>
		<path class="st2" d="M49.2,7.6c0.5-0.1,1-0.2,1.5-0.3c-0.2,0-0.4-0.1-0.6-0.1c0.1,2.5,0,5.2,0.4,7.7c0.1-0.1,0.2-0.2,0.3-0.2
			c-0.3,0-0.7,0.1-1,0.1c-0.4,0-0.9,0.4-0.2,0.4c0.5,0,1,0,1.6-0.1c0.1,0,0.4-0.1,0.3-0.2C51,12.2,51.1,9.6,51,7.1
			c0-0.2-0.6-0.1-0.6-0.1c-0.5,0.1-1,0.2-1.5,0.3C48.3,7.3,48.8,7.6,49.2,7.6L49.2,7.6z"/>
	</g>
</g>
<g>
	<g>
		<path class="st2" d="M50.2,6.9c0.8,3.2,3.6,5.3,5.1,8.2c0.1,0.3,0.7,0.4,0.9,0.2c0.8-0.5-0.1-2.5-0.2-3.1
			c-0.2-0.9-0.3-1.8-0.4-2.7c-0.1-0.6-0.1-1.3-0.2-2c-0.1-0.7-0.3-1.1,0.6-1.3c0.5-0.1-0.4-0.5-0.6-0.4c-1.5,0.3-1,1.1-0.8,2.6
			c0.1,1,0.2,2,0.4,3c0.1,0.6,0.9,3.2,0.3,3.6c0.3,0.1,0.6,0.1,0.9,0.2c-1.5-2.9-4.3-4.9-5.1-8.2C51.1,6.8,50.1,6.6,50.2,6.9
			L50.2,6.9z"/>
	</g>
</g>
<g>
	<g>
		<path class="st2" d="M59.7,8.4c0-0.5-0.1-1,0.3-1.3c0.4-0.2,1.2,0.1,1.6,0.1c0.8,0.1,1.7,0.2,2.5,0.3c1.2,0.1,2.3,0.2,3.4-0.3
			c-0.3,0-0.6-0.1-0.9-0.1c0.1,0.3,0.2,0.5,0.2,0.8c0.1,0.3,1.1,0.3,1,0c-0.1-0.3-0.2-0.5-0.2-0.8c-0.1-0.3-0.7-0.2-0.9-0.1
			c-2.4,1-5.1-0.7-7.5-0.4c-0.1,0-0.2,0-0.3,0.2c-0.2,0.5-0.2,1-0.2,1.5C58.7,8.6,59.7,8.7,59.7,8.4L59.7,8.4z"/>
	</g>
</g>
<g>
	<g>
		<path class="st2" d="M62.4,7.3c0.4,2.2,0.7,4.3,1.4,6.4c0.1,0.2,1.1,0.2,1-0.1c-0.7-2-1-4.2-1.4-6.3C63.4,7,62.4,7,62.4,7.3
			L62.4,7.3z"/>
	</g>
</g>
<g>
	<g>
		<path class="st2" d="M71.4,5.9c0,2.8,0.3,5.4,0.8,8.1c0.1,0.3,1,0.3,1,0.1c-0.5-2.7-0.8-5.3-0.8-8.1C72.4,5.8,71.4,5.7,71.4,5.9
			L71.4,5.9z"/>
	</g>
</g>
<g>
	<g>
		<path class="st2" d="M70.6,6.3c2.1,0,4.2-0.1,6.3-0.3c-0.2,0-0.3-0.1-0.5-0.1c0,0.5,0,1,0.1,1.5c0.1,0.3,1,0.2,1-0.1
			c-0.1-0.5-0.1-1-0.1-1.5c0-0.2-0.4-0.1-0.5-0.1c-2,0.2-4,0.3-6.1,0.3C70.4,5.8,69.9,6.3,70.6,6.3L70.6,6.3z"/>
	</g>
</g>
<g>
	<g>
		<path class="st2" d="M72.4,9.5c0.8,0.1,1.7,0.2,2.5,0.2c0.2,0,0.3,0,0.3-0.2c-0.1-0.2-0.5-0.3-0.6-0.3C73.7,9.1,72.8,9.1,72,9
			c-0.2,0-0.3,0-0.3,0.2C71.8,9.3,72.2,9.5,72.4,9.5L72.4,9.5z"/>
	</g>
</g>
<g>
	<g>
		<path class="st2" d="M74.4,8.6c-0.1,0.6,0,1.1,0.1,1.6c0.1,0.3,1.1,0.4,1,0.1c-0.2-0.5-0.2-1-0.1-1.5C75.5,8.6,74.5,8.4,74.4,8.6
			L74.4,8.6z"/>
	</g>
</g>
<g>
	<g>
		<path class="st2" d="M59.3,10.5c-0.7-0.1-1.4-0.2-2,0.2c-0.6,0.4-0.9,1.1-0.5,1.8c0.7,1.3,2.8,1.6,4.1,1.4c0.7-0.1,1.4-0.3,1.6-1
			c0.1-0.6-0.2-1.3-0.6-1.7c-0.9-1-2.5-1.4-3.8-1c-0.3,0.1,0.5,0.6,0.7,0.5c0.9-0.3,1.9,0,2.4,0.8c0.5,0.7,0.5,1.6-0.4,1.9
			c-0.9,0.3-2.2,0.3-2.9-0.4c-1.1-1.1,0.4-2.2,1.5-2C60.1,11.1,59.7,10.6,59.3,10.5L59.3,10.5z"/>
	</g>
</g>
<g>
	<g>
		<path class="st2" d="M78.1,10.7c-0.7-0.1-1.4-0.2-2,0.2c-0.6,0.4-0.9,1.1-0.5,1.8c0.7,1.3,2.8,1.6,4.1,1.4c0.7-0.1,1.4-0.3,1.6-1
			c0.1-0.6-0.2-1.3-0.6-1.7c-0.9-1-2.5-1.4-3.8-1c-0.3,0.1,0.5,0.6,0.7,0.5c0.9-0.3,1.9,0,2.4,0.8c0.5,0.7,0.5,1.6-0.4,1.9
			c-0.9,0.3-2.2,0.3-2.9-0.4c-1.1-1.1,0.4-2.2,1.5-2C78.9,11.3,78.6,10.8,78.1,10.7L78.1,10.7z"/>
	</g>
</g>
<g>
	<g>
		<path class="st2" d="M81.5,9.6c-0.4,1.3,0.6,3.4,1.8,4c0.7,0.3,1.7,0.5,2.2-0.2c0.2-0.4,0.2-0.8,0.2-1.2c0-0.7-0.1-1.4-0.1-2.1
			c0-0.3-1-0.5-0.9-0.2c0,0.8,0.1,1.6,0.1,2.4c-0.1,0.8-0.9,1.6-1.5,0.7c-0.6-0.7-1.2-2.1-0.9-3C82.5,9.7,81.6,9.4,81.5,9.6
			L81.5,9.6z"/>
	</g>
</g>
<g>
	<g>
		<path class="st2" d="M91.7,8.9c0.3,1.6,0.6,3.2,1,4.9c0.1,0.3,1,0.3,1,0.1c-0.3-1.6-0.6-3.2-1-4.9C92.6,8.7,91.7,8.7,91.7,8.9
			L91.7,8.9z"/>
	</g>
</g>
<g>
	<g>
		<path class="st2" d="M92.8,9.4c1,0.1,2.4,0.9,2.8,1.7c0.8,1.4-1.7,2.1-2.6,2.2c-0.5,0.1,0.4,0.4,0.6,0.4c1.2-0.2,4-1.1,2.7-2.8
			c-0.8-1.1-2.5-1.9-3.8-2C91.9,8.9,92.4,9.3,92.8,9.4L92.8,9.4z"/>
	</g>
</g>
<g>
	<g>
		<path class="st2" d="M98,6.2c-0.1,0.8-0.1,1.5-0.2,2.3c-0.1,1.1-0.3,2.2,0,3.3c0.1,0.3,1.1,0.1,1-0.2c-0.3-1.1,0-2.2,0-3.3
			C98.9,7.6,98.9,6.8,99,6C99,5.8,98,5.9,98,6.2L98,6.2z"/>
	</g>
</g>
<g>
	<g>
		<path class="st2" d="M97.3,13.3c-0.2,0.5,0.4,0.5,0.8,0.5c0.1,0,0.5-0.1,0.5-0.3c0-0.1,0-0.2,0-0.3c0-0.2-1-0.2-1,0.1
			c0,0.1,0,0.2,0,0.3c0.2-0.1,0.3-0.2,0.5-0.3c0,0-0.1,0-0.1,0c0.1,0,0.3,0,0.4,0c0-0.1-0.1-0.1-0.1-0.2C98.3,13,97.4,13,97.3,13.3
			L97.3,13.3z"/>
	</g>
</g>
<g>
	<g>
		<path class="st2" d="M88,13.8c0.2-1.5-0.6-2.9-0.4-4.4c-0.3,0-0.6,0-0.9,0c1.4,1.4,2.5,3.1,4.1,4.4c0.1,0.1,1,0.3,0.9,0
			c-0.2-1.5-0.3-3.1-0.7-4.6c-0.1-0.3-1.1-0.3-1,0c0.4,1.5,0.5,3,0.7,4.5c0.3,0,0.6,0,0.9,0c-1.5-1.3-2.7-3-4.1-4.4
			c-0.1-0.1-0.9-0.3-0.9,0c-0.2,1.5,0.7,2.9,0.4,4.4C87,13.9,88,14.1,88,13.8L88,13.8z"/>
	</g>
</g>
</svg>
