<svg xmlns="http://www.w3.org/2000/svg"><symbol id="arrow-box" viewBox="0 0 30 30"><style>.st0{fill:none;stroke:#eb4e36;stroke-miterlimit:10}</style><path id="box" class="st0" d="M.5.5h29v29H.5z"/><g id="arrow"><path class="st0" d="M15.8 8.1l7.1 7.2-7.1 6.6M22.9 15.3H6.4"/></g></symbol><symbol id="avatar-default" viewBox="0 0 32 32"><style>.st0{fill:#9b9b9b}.st1{fill:#fff}</style><path id="circle" class="st0" d="M16 31.9C7.2 31.9.1 24.8.1 16S7.2.1 16 .1 31.9 7.2 31.9 16 24.8 31.9 16 31.9z"/><path id="head" class="st1" d="M16 5.4c-3.2 0-5.8 3.1-5.8 7s2.6 7 5.8 7 5.8-3.1 5.8-7-2.6-7-5.8-7z"/><path id="body" class="st1" d="M6.5 20.4c-1.4.9-1.9 4.8-1.9 4.8s4.1 5.4 11.7 5.4 11-5.4 11-5.4-.3-3.7-2-4.8c-1.4-.9-4.4-1.3-4.4-1.3s-2 2.1-4.9 2.1-4.7-2.1-4.7-2.1c0-.1-3.4.4-4.8 1.3z"/></symbol><symbol id="facebook" viewBox="0 0 36 36"><path d="M29.1-76.1H6.8c-1.9 0-3.5-.7-4.8-2S0-81 0-82.9v-22.4c0-1.9.7-3.5 2-4.8s2.9-2 4.8-2h22.4c1.9 0 3.5.7 4.8 2 1.3 1.3 2 2.9 2 4.8v22.4c0 1.9-.7 3.5-2 4.8-1.3 1.4-3 2-4.9 2zM6.8-109.9c-1.3 0-2.4.4-3.4 1.4s-1.4 2-1.4 3.4v22.4c0 1.3.4 2.4 1.4 3.4s2 1.4 3.4 1.4h22.4c1.3 0 2.4-.4 3.4-1.4 1-1 1.4-2 1.4-3.4v-22.4c0-1.3-.4-2.4-1.4-3.4s-2-1.4-3.4-1.4H6.8z" transform="translate(0 112)"/><path d="M24.6-77v-13.1H29l.7-5.2h-5.1v-3.3c0-1.5.4-2.5 2.5-2.5h2.7v-4.6c-.5-.1-2.1-.2-4-.2-3.9 0-6.6 2.4-6.6 6.8v3.8H15v5.2h4.4V-77h5.2z" transform="translate(0 112)"/></symbol><symbol id="hbc-tech-beta" viewBox="0 0 205 43.5"><g id="hbc"><path class="st0" d="M40.3 22.3c0 1-.3 1.8-.6 2.6-.2.5-.1.9.2 1.3.4.5.7 1.1 1.1 1.7.1.2.2.5.2.8.2 1.6-.1 3-1.3 4.2-.8.8-1.7 1.4-3 1.4-.5 0-1 .2-1.5.3H35c-.1 0-.3-.1-.4-.1-.7 0-1.5.1-2.2.1-.4 0-.8-.1-1.2 0-.3.1-.7.1-1 0-1.4-.3-2.9.1-4.3-.2-.2 0-.4.1-.6.1-.5 0-.8-.3-.8-.8v-3c0-.2-.1-.4-.1-.6.2-1.9 0-3.8.1-5.7 0-.4-.1-.9 0-1.3 0-.5.1-1 .1-1.6 0-.3-.1-.7-.1-1 0-.7.1-1.3.1-2 0-.2.5-.4.7-.4h1.8c.5 0 1 .1 1.5.1.3 0 .5 0 .8-.1.3-.1.6.1 1 0 .5-.1 1-.1 1.5.1h.4c1.3-.3 2.6-.2 3.8-.1 1.4.1 2.7.7 3.5 2 .3.5.4.9.5 1.5.1.1.1.5.2.7zM31 27.5c-.8 0-1.5.1-2.3 0-.5 0-.9.2-.9.6v2.5c0 .1.2.4.3.4.5.1 1 .1 1.5.1.4 0 .7 0 1.1-.1.2 0 .4.1.6 0 .6-.1 1.1 0 1.7 0 .3 0 .5.1.8.1.5 0 1.1-.1 1.6-.1.7 0 1.2-.2 1.8-.5.1-.1.2-.1.3-.2.2-.4.3-.9.2-1.3-.1-.5-.3-1.1-.9-1.2-.6-.1-1.2-.3-1.8-.3h-4zm5.8-4.8c0-.8-.4-1.3-1.1-1.3-.9-.1-1.7-.1-2.6-.1h-4.3c-.4-.2-.6 0-1 .1-.2.1-.3.2-.2.4.1.1.1.3 0 .5-.3.5 0 .9.1 1.4 0 .1.2.4.3.4.7-.1 1.3.3 2 .1.3-.1.6 0 .9 0h1c.3 0 .6.1 1 .1s.8-.2 1.2-.1c.5.2 1 0 1.4-.1.9-.2 1.3-.7 1.3-1.4zm-10.7-.4s.1 0 0 0c.1 0 0 0 0 0zM12.4 24.1c0-1 .1-1.8.1-2.7 0-.5-.1-.9-.1-1.4 0-.5.1-1.1.1-1.6 0-.3.3-.5.6-.4.5.1.9 0 1.4 0h.3c.8.1 1 .3.9 1.1v1.1c-.1.7.1 1.4-.1 2.1-.1.2 0 .4 0 .5.2 1 .1 2 .1 3V29c0 .3-.1.7-.1 1v1.3c0 .5 0 1.1.1 1.6 0 .4-.3.8-.1 1.2-.4.2-.7.4-1 .4-.3 0-.7-.1-1-.1-.2 0-.4-.1-.5-.1-.3 0-.5-.1-.5-.5-.1-1-.2-2-.1-3 .1-.9.2-1.8 0-2.7-.1-.4-.2-.6-.7-.6H9.4c-.5 0-.9.1-1.4 0-.4-.1-.9.1-1.4.1H4.3c-.5 0-.6.2-.6.7v5.1c0 .9-.2 1.1-1.1 1.2H1c-.5 0-.7-.3-.8-.8v-.5V19c0-.7.2-1 .8-1.1h.2c.6 0 1.1.1 1.7.1.5 0 .8.3.8.8 0 1.6.1 3.1.1 4.7 0 .4.1.5.6.6 1 .2 1.9.1 2.9.1h3c.5 0 .9.1 1.4 0 0-.1.3-.1.7-.1zM64.8 20.9c-.1.2-.2.4-.4.6-.1.1-.2.3-.3.4-.1.2-.3.4-.4.6-.3.7-.8.8-1.3.3-.8-.6-1.6-1.2-2.6-1.5l-1.8-.6c-.3-.1-.6-.1-1-.1h-1.1c-.4 0-.9-.2-1.3.2-.2.2-.6.3-.9.3-.3 0-.5.2-.8.3-.2.1-.3.3-.6.3-.1 0-.1.1-.2.1-.5.7-1.3 1.3-1.7 2.2-.2.4-.2.8-.3 1.2-.1.3 0 .7-.1.9-.1.2 0 .4 0 .6l.6 2.1.3.6.1.1c.4-.3.5.2.6.4.1.2.3.3.5.5.3.2.8.2 1 .6.1.1.4 0 .6.1.5.4 1.2.5 1.8.5.5 0 1 .1 1.5 0 .6-.1 1.3-.2 1.9 0 .1 0 .1-.1.2-.1l.9-.3c.3-.1.6-.3.9-.4.5-.1 1-.4 1.5-.6.4-.2.7-.4 1.1-.5.5-.2.5-.2.7.3.3.6.6 1.3.9 2 .1.3 0 .5-.2.6-.5.3-1 .6-1.5.8-.8.4-1.7.6-2.6.7-.2 0-.5-.1-.8-.2-.1.1-.1.5-.5.2-.1-.1-.4.2-.6.3-.2.1-.3.2-.5.2-.4 0-.8.1-1.2.2-.2.1-.4 0-.6 0-.5 0-1.1-.1-1.6-.1-.5-.1-.9-.2-1.3-.3-.3 0-.6 0-.9-.2-.2-.2-.5-.3-.7-.4-.3-.2-.7-.3-1-.4-.9-.4-1.7-1.1-2.4-1.8-.3-.3-.6-.7-.7-1.2 0-.1-.1-.1-.1-.2-.6-.6-.8-1.5-.9-2.3-.1-.6-.1-1.3-.1-1.9 0-.8.2-1.6.4-2.4.1-.2.1-.5.2-.7.3-.7.6-1.3 1.2-1.7.2-.2.4-.5.6-.8.8-1 1.9-1.5 3-2.1.6-.3 1.3-.5 2-.7.4-.1.8 0 1.2-.1.5-.2.9-.2 1.4-.1.9.1 1.9.1 2.8.3 1.2.3 2.3.8 3.4 1.4.8.5 1.3 1.1 1.7 1.8zm-5 9.9c0 .1 0 .1 0 0 0 .1 0 .1 0 0z"/></g><g id="beaver"><path id="XMLID_208_" class="st1" d="M100.4 17.1c-.1.1-.3.1-.4.4-.3 0-.4-.2-.5-.3.4-.1.8-.2.9-.1"/><path id="XMLID_207_" class="st1" d="M89.4 20.7c1.9-.6 3.9-1.3 5.8-1.6-.6.5-1 .8-1.8 1.3-1.3.7-2.4 1.6-3.2 1.5-.2-.6-.8-.5-.8-1.2"/><path id="XMLID_206_" class="st1" d="M96.2 20.6c-1.4.7-2.9 1.2-4.3 2.1-.3-.1-.5-.3-.9-.5 1.3-1.2 3.1-1.7 5.3-2l-.1.4z"/><path id="XMLID_205_" class="st1" d="M100 20.9c.1.1.3.1.4.4-.3 0-.7.2-.8 0 0-.3.2-.3.4-.4"/><path id="XMLID_204_" class="st1" d="M98.7 21.1c.1.4-.9.8-1.3.7.2-.6.8-.6 1.3-.7"/><path id="XMLID_164_" class="st1" d="M103.4 23.5c.4-.8 1.1.2 1.3.7-.3.1-.7.1-.8.2-.3-.3-.6-.5-.5-.9"/><path id="XMLID_163_" class="st1" d="M105.3 25.7c-.4 0-.6.2-1.1.3-.3-.3-.2-.8-.3-1.2.3-.1.6-.2 1-.2-.1.4.3.6.4 1.1"/><path id="XMLID_162_" class="st1" d="M99.8 24.8c0-.8 1.1-.6 1.1.1-.5-.2-.7.1-1.1-.1"/><path id="XMLID_161_" class="st1" d="M99.2 24.5c-.3.4-.7.6-1.4.7 0-.3.1-.3.2-.5.3-.1 1-.5 1.2-.2"/><path id="XMLID_160_" class="st1" d="M100.6 26.5c0-.4.2-.5.4-.7.2.3 0 .9-.4.7"/><path id="XMLID_159_" class="st1" d="M100.1 25.8c0 .7-.7.8-1.3.9.3-.4.5-1.1 1.3-.9"/><path class="st1" d="M114.1 30.5c-.2-.6-.5-.4-1.2-.5 0-.1.4-.4 0-.3 0-.3.3-.3.6-.4-.4-.6-1.1-.2-1.5-.6.4-.5-.6-1-.9-.5-.3 0-.4-.2-.5-.3-.3 0-.5.1-.6.2.3 0 .5-.1.7.2-.1.3-.7.1-.9-.1 0-.1.3.1.3-.1-.4-.4-1.2-.5-1.4.2.1.1.3 0 .3.1-.3 1.3 1.6.5 1.9 1.6.4-.1.7 0 .8.4.7.5 1.3.4 2.4.1m-2.8-1.5c.3-.1.7 0 .5.4-.1 0 0 .3-.3.3-.1-.1-.5 0-.8-.3.3-.2.2-.3.6-.4"/><path id="XMLID_158_" class="st1" d="M99.7 28.2c0-.8.9-.8 1.5-.9-.1.8-1.1.5-1.5.9"/><path id="XMLID_157_" class="st1" d="M106.9 36.3c.8.3 1.4.9 1.5 1.7-.5.1-.8.1-1.2.1-.1-.5-.5-.8-.6-1.4.2 0 .1-.2.3-.4"/><path class="st1" d="M118.5 32.6c-.1-.5-.4-.8-.9-1.3-.2-1-.9-.9-1.1-2-.8-.9-.7-2.1-1.5-3.2-.4-.2-.1-.1-.1-.4-.4-.3-.2-.7-.6-.6-.3-1.5-1.8-1.7-2.4-2.8-.7 0-.9-.6-1.3-.9-.3-.1-1.3-.2-1.5-.4-.4-.2-.9-.9-1.2-1.1-.4-.3-.2-.4-.5-.7-.5-.4-.9-.9-1.3-1.3s-.8-.3-1.3-.6c-.4-.3-.1-.3-.6-.6-1.1-.6-1.5-1.4-2.7-1.9-1.9-.8-3.8-2-6.5-2-.7-.2-1.3-.6-2-.8-3.9-.8-6.5.6-9.1 2.1-1.8 1.1-2.9 2.8-4.2 4.7-.4.5-1 1-1.4 1.7-1.2 1.8-2.4 4.1-3.1 6.5-.2.8-.6 1.9-.6 2.7.1.7.6 1 .6 1.8-.3.3-1 .6-1.1.3-.6 1.2-2.1 1.5-3.1 2.4-1 .8-1.4 1.7-2 2.7-.2.4-.4.8-.6 1.1-.2.5.1 1.4-.2 1.9.3.3.4.6.3 1.1.9.3.8 2.2 2 2.4.4 0 1.9-.2 2.5-.3 1.6-.2 3.3-1.3 4.7-1.5 1.1-1.2 2.2-2.9 1.9-5.3.3-.3.8 0 1.1-.1 0-.1-.1-.5.2-.4.7.2 1.2.1 1.7.4.4.3.5.8.9 1 1.5.8 4.7.7 6.9.8.9.1 2 0 3 0 .4 0 .8.2 1.1.2.4-.1.7-.4 1.1-.3.7 0 .9.6 1.4-.2-.6-.7-1.7-1-3.1-.7-.4-.2-.4-.6-.9-.5-.4 0 .1.5-.3.3-.5 0-.5-.8-1-.7.1-.3-.1-.7-.5-.8-.4.2-.4.8-1 1-.8.2-2.8 0-3.2-.2-.7-.2-2.1-.5-2-1.1.2-.5.8.4 1.1.1-.3 0-.5.1-.4-.2.7-.4 2.3.3 2.9-.3.1-.3-.1-.8-.1-1-.3-.1-.7.2-.8.1.3-.1.8-.2.6-.6-.8-.3-1.8 1-2.3.7.3-.1.3-.3.4-.4-.4 0-.8.4-1.1.2.6-.4 1.4-.7 1.7-1.1 1.1-.3 3-1.1 3.5-2.1-2.2 1.4-5.4 1.2-7 3.2.7-1.3 2.1-1.9 3.5-2.5.8-.4 2.3-.4 2.4-1.6-1.5.9-3.3.9-4.8 1.5-2.1.7-3.6 2.2-5.3 2.8 1.7-1.7 4.3-2.5 6.4-3.6.4-.2.7-.6 1.1-.9.8-.4 2.1-.6 2.4-1.4-.4-.2-.4.7-.7.4.1 0 .1-.3-.1-.1-3.6 1.3-7.3 2.3-10 4.5.2-.9 1.3-1.2 2.1-1.6 2.5-1.4 5-2.7 7.5-3.9-.9-.5-1.9.2-2.7.5-1 .2-1.9.6-3 .7-1 .8-2.5 1.1-3.6 1.8-.6.4-.9 1-1.4 1.1.9-1.2 1.9-1.7 3.2-2.4 1.7-.7 3.1-1.6 4.6-2.3.7-.4 1.7-.6 2.1-1.4-2.1.6-4 1-5.8 1.7-.7.2-1.5.6-2.1.8-1 .5-1.7 1.5-2.7 1.5 1.1-.8 2.3-1.5 3.6-2.1 1.4-.5 2.9-.9 3.9-1.7-.3 0-.4.1-.5-.2 1.5-.3 3.2-.8 3.9-1.6-3.6.8-7.7 1.6-10.1 3.4 1.3-1.7 3.9-2.1 6-2.9.7-.2 1.9-.7 2-1.7-2.6.4-4.8 1.2-6.6 2.5.9-1 2.3-1.5 3.6-2.1.8-.4 1.7-.9 2.4-1.1 1.4-.5 2.9-.7 4.1-1.4.3.1.7.4.9.3 1.2-.3 2.1-1 3.2-1.6.6-.2 1.2-.1 1.7-.6-1.1.1-1.8.2-3.1.2-.1-.4-.9-.1-1.8.2-.3.1-1 .4-1.1.1-.3.7-.9.8-1.2 1.3-2 1.1-4.7 1.2-6.8 2.1-.7.2-1.3.9-2 1.3.8-1.5 2.5-1.5 4.2-2.1 1-.5 2-1.3 2.9-1.5.3-.1.7 0 1.1-.1.8-.2 1.3-1 2-1.5 1.7-1.3 4-2 6.2-2.6.7-.2 1.5-.6 2.3-.4-1.3.6-3.2.9-3.9 1.8.8 0 .7 0 .8-.2l.9.1c.6-.4 1.5-.6 2.3-.8.8-.2 1.8-.9 2.5-.3-1 .4-2.3.6-3.3 1.2.8.2 1.4-.1 1.9-.3.7.3 1.2-.2 1.9-.2 0 .3.5.2.8.2 0 .3-.5.1-.4.5.8.9 1.5-.1 2.3.7-.4 0-1.5.2-1.9.3.7 1.3 2.8-.9 3.8.6-.8-.2-1.1.3-1.8.3.3 0 .8.4 1.6.5.5 0 2.1-.3 1.7.4-.4-.3-.4.1 0 .1-.1.1-1.1-.2-1.6.2.4.7 1.3.2 2 .7.4.3.3 1.4.9 1-.3.1-.4-.2-.1-.1.5.3.6.7.5.2 1.3.5 2.8 1.2 3.5 2.1.3.3.6.6.8.7.6.6 1.3 1.7 1.8 2.5.4.7.6 1.5 1 2.2 1.1 2.1 2.3 2.8 1.5 4-.4.2-1.6-.8-1.4.7-.7.2-.6.5-1.4.3-.2.4-.9-.1-.6.2-.8.2-1.6.2-2.4.1.3-.1 1-.1.7-.6-.9-.2-2.1.4-2.7.4.6-.6 1.9-.4 2.4-1.4-1.2-.3-2.6.3-4 .6.3-.7 1-.5 1.4-.6.8-.4 1.5-.9 2.4-1-.5-.4-1.9-.4-2.8-.2-.8.1-1.5.9-2.3.6.6-.4 1.2-.5 1.9-.7.4-.5 1-.8 1.8-1-.9-.9-2.9.3-4.2-.1.5-.1 1.1-.1 1.6-.3.4-.1 1.1-.5 1.1-.8-.5-.7-2.2-.1-2.7-.3.4-.5 1.8-.2 2.3-.7-.4-.7-2.5-.5-3-.4.3-.7 1.4-.5 1.9-.7-.8-.4-1.6-.9-2.5-.7.4-.5 1.5-.2 1.7-.7.3-.8-1.1-.5-1.7-.5.2.6-.1.9-.1 1.5-.4-.3-.7.6-.9 1 .4.8.3 2.2.4 3.3-.3.5-1 .6-.9 1.4.1 1.1 1.8 1.5 2.8 1.6.7.2 1.5.6 1.7.8.1.1.4 0 .5.2.5.4.3 1.1 1 1.4.7 0 1.2.2 1.8 0-.3.9 1.3.2 1.6.5.3-.3.3-.7.2-1.1.9.1 1.7-.7 2.6-.8 1-.1 1.5-.2 2.1-.4.7-.4.6-.9.9-1.8v-.3l.4-.7zm-37.4 2.1c-.2.4-1.1.6-1.5.6.5-.1.8-.7 1.5-.6m-11.4 3.4c.3-.5 1-.2 1.6-.2 1.6 0 3.3-.5 5.2-.4.3-.4.9.1.8-.4 0-.1 0-.1.1-.1.8.7-.2 1.6 0 2.6-.7.4-.9 1.2-1.4 1.7-1.2.1-2.3.6-3.5.4-.3 0-.4-.3-.7-.3-.7 0-1.6.3-2.2-.3 2-.2 4.5 0 6.3-.5-.1-.1-.1-.3 0-.4-.3 0-.3-.3-.5-.3-2 .2-4.3-.2-6.4-.1 2.2-1 6.7.6 7.7-1.8-2.1.5-4.2 0-7 .1m7.2-1.9c-1.9.6-3.9.1-6 .2 1.8-.4 4.1-.5 6-.5v.3M71.7 35c1.1-.3 3-.4 4.2-.5-.8.5-3 .5-4.2.5m17.4-21.5c.1.1.5.2.7.3-2.5.7-4.5 2.2-6.5 3 1.8-1.2 3.7-2.4 5.8-3.3m1.9.7c.1.1.8-.1 1.1.2-.4.1-.8.1-1.1.2-2.1 1.5-5 2-6.9 3.8-1.2-.1-2.6.5-3.3 1 .6-1.3 1.9-.7 3.2-1.5 2.2-1.1 4.8-3.2 7-3.7m-5.4 4.3c2.4-2.2 5.3-3.2 9-4 0 .4-1 .1-.4.5-2.2.6-4.3 1.9-6.2 2.6-1.2.5-1.8.9-2.9 1.3 0 .1.1.3 0 .3-.3.1-1 .6-1.8.4.4-.1.8-.2 1.1-.5-1.7.6-3.4.9-4.5 2.2.2-.5.7-1.3 1.2-1.4 1.3-.5 3.4-.8 4.5-1.4"/><path id="XMLID_156_" class="st1" d="M100.8 17.4c.1.1.7.3.4.6 0-.3-.6-.5-.4-.6"/><path id="XMLID_155_" class="st1" d="M89 18.4c-.3.1-.4.4-.7.5 0-.3.6-.6.7-.5"/><path id="XMLID_154_" class="st1" d="M95.3 37.2c0-.1.2-.7-.1-.5-.2.1.1.2.1.5-.4.2-.8 0-1.2-.2 0-.4-.4-.4-.1-.8-1.1-.3-1.9-.5-2.8-1-.3-.3-.2-.8-.8-.9.3-1.2 1.5-2 1.5-3.2.3-.4 1-1.4 1.2-2.5.2-.4.3-3.2.3-3.2s-.3-2.1-1.2-2.9c1.4-.7 3.4-.9 5.1-1.4-.4 1.7-3 1.1-3.7 2.7.8-.6 1.9-.7 3-.9 0 .3-.3.5 0 .7 0-.3.2-.4.3-.7.5 0 .8-.2 1.2-.3-.1 1.6-2.8 1-3.1 2.4 1.1-.1 1.8-.4 2.7-.7-.1 1.9-2.7 1.6-3.1 2.5 1-.2 1.8-.7 2.8-.9.1 0 0 .3.1.4 0-.5.8-.4 1.2-.5-.1 2-2.8 1.6-3.7 2.7 1.5-.6 3-.7 4.5-1 .1.4-.2.4-.2.7-1.2.5-2.2 1.4-3.6 1.8-.4.1-.8 0-1.1.3 2.4-.1 3.9-1.4 6.1-1.8-.3.7-.9 1-1.8 1 0 .3.1.1 0 .4-1 .2-1.5.9-2.5 1.2v.4c-.6.2-1.4.2-1.8.6 2.2 0 3.6-1.2 5.2-1.3 0 .1 0 .1.1.1-.7.6-1.8 1.1-2.8 1.6.1 1-1.9.6-2.4 1.4 2.1-.3 3.4-1 5.1-1.6 0 .8-1.7.7-1.3 1.4.4-.1.8-.2 1.1-.3 0 .3-.7.2-.6.5.5-.1 1.1-.3 1.1-.8v.5c-1.3.6-2.4 1-3.6 1.6 1.4-.3 2.7-.7 3.7-1.4-.2 1.2-1.1 1.2-1.9 1.7 1.8-.2 4.7.3 5.9 1.9.1 0 .5.2.5-.1-.1-.3-.2-.6-.1-1.1 1.1-.1 2 .9 1.8 2-1.4.3-3 0-4.5-.1-2-.1-4.1-.2-5.7-.7-.1.2-.5-.2-.9-.2"/><path id="XMLID_153_" class="st1" d="M99.8 22.4c0 .4-.4.2-.6.5 0 .1.3.1.1.3-.3-.1-.4.2-.5 0 .1-.5.7-.6 1-.8"/><path id="XMLID_152_" class="st1" d="M108.6 27.2c-1.5.6-2-3.1-.9-3.3.5.2 1.2.5 1.6.6-.1.1-.2.4-.4.4-.3 0-.4-.3-.7-.4 0 .1-.3.1-.3.4.7.3.7 1.4 1.7 1.4 0-.3-.5-.4-.4-.6.1.1.3.3.5.3.2-.5-.4-.8-.2-1.1.1.3 0-.1-.1-.1.7.2.4.2 1.1.6-.2.7.2.7.2 1.4-.7.1-1.8 0-2.6.4-.1 0 .8-.1.5 0"/></g><g id="tech"><path class="st0" d="M137.1 18.2c.5.6-.1.8-.1 1.6s.6 1 0 1.6c-.5.5-.7.1-1.4.1h-3c-.7 0-.9-.5-1.5 0-.5.5 0 .7 0 1.4v2.8c0 .7.1.7.1 1.4s-.1.7-.1 1.4.1.7.1 1.4-.1.7-.1 1.4v1.4c0 .7.6 1 .1 1.5-.6.5-.9 0-1.7 0s-1 .6-1.6 0c-.5-.5.1-.8.1-1.5s-.1-.7-.1-1.4v-1.4-1.4-1.4c0-.7.1-.7.1-1.4s-.1-.7-.1-1.4.1-.7.1-1.4.4-.9-.1-1.4c-.5-.5-.7-.1-1.4-.1H125c-.7 0-.7.1-1.5.1-.7 0-.9.5-1.4-.1-.5-.6-.1-.8-.1-1.6s-.5-1 .1-1.6c.4-.5.6 0 1.3 0h1.4c.7 0 .7-.1 1.4-.1s.7.1 1.4.1.7-.1 1.4-.1h2.8c.7 0 .7.1 1.4.1h1.4c.7 0 .7 0 1.4-.1.4-.1.6-.4 1.1.1zM158 18.2c.5.6 0 .8 0 1.6s.5.9 0 1.6c-.4.5-.6 0-1.3 0H152.5c-.7 0-.7-.1-1.4-.1h-1.4c-.7 0-.7-.1-1.4-.1s-1-.5-1.4 0c-.5.5.1.8.1 1.5s-.6 1-.1 1.5.8-.1 1.5-.1.7.1 1.5.1h1.5c.8 0 1-.6 1.5-.1.5.6 0 .8 0 1.6s.5 1-.1 1.6c-.5.5-.7 0-1.5 0-.7 0-.7-.1-1.5-.1h-1.5c-.7 0-.9-.4-1.4.1-.5.4-.1.6-.1 1.1v1.2c0 .6-.4.7.1 1.1.6.4.7 0 1.4 0s.7.1 1.4.1h1.4c.7 0 .7-.1 1.4-.1h2.8c.7 0 .7.1 1.4.1s.9-.5 1.4 0c.5.6.1.8.1 1.6s.4 1-.1 1.6c-.4.5-.6.1-1.3.1h-2.6c-.7 0-.7-.1-1.3-.1-.7 0-.7.1-1.3.1-.7 0-.7-.1-1.3-.1-.7 0-.7-.1-1.3-.1-.7 0-.7.1-1.3.1h-2.6c-.7 0-.8.5-1.3 0s-.1-.6-.1-1.3c0-.7.1-.7.1-1.3v-1.3-1.3-1.3c0-.7-.1-.7-.1-1.3 0-.7.1-.7.1-1.3 0-.7-.1-.7-.1-1.3 0-.7.1-.7.1-1.3V21v-1.3c0-.7-.5-.9 0-1.4.5-.5.7 0 1.4 0s.7.1 1.4.1h8.4c.7 0 .7.2 1.4 0 .9-.3 1.1-.7 1.6-.2zM179.7 23.6c-.3-.2-.7-.5-1.1-.8-.4-.2-.7-.5-1.2-.8-.4-.2-.8-.4-1.3-.6-.4-.1-.9-.3-1.3-.4-.4-.1-.9-.1-1.4-.1-.5 0-.9 0-1.3.1s-.8.3-1.2.4c-.4.2-.8.3-1.2.5-.4.2-.7.6-1 .9-.3.3-.7.6-.9 1-.2.4-.4.8-.5 1.2-.1.4-.2.9-.2 1.3s.2.9.3 1.3c.1.4.2.9.5 1.3.2.4.6.6.9 1 .3.3.6.7 1 .9.4.2.8.2 1.3.4.4.1.8.3 1.3.4.4.1.9 0 1.3 0 .5 0 1 0 1.4-.1.5-.1 1-.1 1.4-.2.5-.1.9-.3 1.4-.5.5-.2.9-.4 1.3-.6.5-.3.9-.5 1.2-.7.5.6.4.7.7 1.5s.5.7.7 1.5c-.4.3-.7.6-1.2.8-.4.2-.8.5-1.3.7-.4.2-1 .2-1.4.3-.5.1-.9.3-1.4.4-.5.1-1 .1-1.4.2-.5.1-1 .2-1.4.2-.4 0-.9-.1-1.3-.2-.4 0-.9 0-1.3-.1s-.9-.2-1.3-.4c-.4-.1-.8-.4-1.2-.6-.4-.2-.8-.3-1.2-.6-.4-.2-.7-.5-1.1-.8-.3-.3-.6-.6-.9-1-.3-.3-.4-.8-.6-1.2-.2-.4-.4-.8-.5-1.2-.1-.4-.3-.8-.3-1.3-.1-.4 0-.9 0-1.3 0-.5-.1-1 0-1.4.1-.5.2-1 .4-1.4.2-.5.4-.9.7-1.3.2-.4.6-.8.9-1.1.3-.4.6-.7 1-1 .4-.3.7-.6 1.1-.9.4-.2.8-.4 1.3-.6.4-.2.9-.3 1.4-.5.5-.1.9-.3 1.4-.3.5-.1 1-.1 1.4-.1.5 0 1 0 1.5.1s1 .3 1.4.4c.5.1 1 .2 1.4.4.5.2.9.4 1.3.6.5.2.9.5 1.2.8.4.3.8.6 1.2.8-.3.8-.6.6-1 1.4-.4.6-.3.7-.9 1.3zM192.9 18.3c.6.5 0 .7 0 1.5v1.5c0 .8-.1.8-.1 1.5 0 .8-.5 1 0 1.5s.7-.1 1.5-.1h1.4c.7 0 .7.1 1.4.1s.7-.1 1.4-.1h1.4c.7 0 .9.5 1.4 0 .5-.5.1-.7.1-1.5v-1.5-1.5c0-.8-.6-1-.1-1.5.6-.6.8 0 1.6 0s.9-.5 1.6 0c.5.4 0 .6 0 1.3 0 .7.1.7.1 1.3v2.6c0 .7-.1.7-.1 1.3V26c0 .7.1.7.1 1.3V31.2c0 .7.1.7.1 1.3s.5.9 0 1.4c-.6.5-.8 0-1.6 0s-1 .5-1.6 0c-.5-.4 0-.7 0-1.4v-1.3-1.3-1.4c0-.7.6-.9.1-1.4-.5-.5-.7.1-1.5.1-.7 0-.7-.1-1.4-.1h-1.4c-.7 0-.7.1-1.4.1s-.7-.1-1.4-.1-.9-.5-1.5 0c-.5.5.1.7.1 1.4s-.1.7-.1 1.3c0 .7.1.7.1 1.3 0 .7-.1.7-.1 1.4s.6.9.1 1.4c-.6.5-.8 0-1.6 0s-1 .5-1.6 0c-.5-.4 0-.6 0-1.3v-1.3c0-.7.1-.7.1-1.3 0-.7.1-.7.1-1.3 0-.7-.1-.7-.1-1.3v-1.3-1.3c0-.7.1-.7.1-1.3 0-.7-.1-.7-.1-1.3v-1.3-1.3c0-.7-.5-1 0-1.4.6-.5.9.2 1.7.1.5-.2.6-.6 1.2 0z"/></g><g id="beta"><path class="st2" d="M136.7 3.6C131.4-.8 122.2-.2 115.8.5c-5.4.6-11.5 3.1-11 9.5v.2c.5 2 1 4.3 2.8 5.6 2.2 1.7 4.8 2 4.5 5.9 0 .5.7.6.9.2 1.9-2.8 2.8-4.6 6.4-4.9 2.3-.2 4.6-.3 6.9-.4 3.2-.1 7.6.6 10.5-1 4.9-2.6 3.5-9-.1-12zm-8.9 12c-2.8.1-5.6.2-8.4.5-3.6.3-4.6 1.5-6.3 3.9 0-1.3-.3-2.6-1.5-3.5-.6-.4-1.3-.5-1.9-.8-2.5-1.2-3.3-3.1-3.9-5.8-.6-8.5 10.5-8.8 16.4-8.8 2.9 0 6.1 0 9 .8 3.5 1 9.8 4.8 7.7 9.5-2.1 4.7-6.9 4.1-11.1 4.2z"/><path class="st2" d="M124.4 11.6l-.3-.9c-.2-.7-1.2-.4-1 .3.1.2.1.4.2.6-1.1.2-2.1.3-3.2.5.1-.7.1-1.4.1-2 .6-.2 1.2-.3 1.8-.5v.1c.1.7 1.1.7 1.1 0-.1-.7-.2-1.3-.6-1.9-.3-.6-1.2-.1-.9.5 0 .1.1.2.1.2-.5.2-1.1.2-1.6.4-.1-.9-.3-1.9-.6-2.7.7-.1 1.4-.3 2.1-.5.1.7 1.1.7 1.1 0v-.5c.3-.4 0-1-.5-.8-1 .3-2.1.7-3.1.8-.4-.1-.8.3-.6.8.4.9.6 1.9.7 3-.6-1.3-2.4-1.7-4-1.5.1-.4.1-.7-.1-1.1-.8-1.3-2.8-1.1-3.9-.5-.5.2-.3.8.1 1 .1.9.3 1.9.4 2.8.3 1.4 1 3 .7 4.4-.1.7.9.9 1 .3v-.5c1.8-.2 4.7-.6 5.7-2.1 0 .3-.1.5-.1.8-.1.4.2.7.6.6 1.4-.2 2.9-.4 4.3-.6.3-.1.4-.3.4-.6.1-.1.1-.2.1-.4zm-10.8-4.5c0 .3-.1.6-.3.8-.3.1-.6.3-.9.5-.1-.6-.2-1.3-.3-1.9.7-.2 1.5-.2 1.5.6zm-.3 5.6c-.1-.6-.2-1.2-.4-1.8-.1-.5-.2-1-.3-1.4h.1c.3-.2.7-.4 1.1-.6 1.5-.6 3.9-.5 4.4.9 1 2.6-3.1 2.8-4.9 2.9z"/><path class="st2" d="M135 10.2c-1.6-1.3-4.1-3.3-4.4-5.4-.1-.5-.7-.5-.9-.1-.1 0-.3.1-.4.3-.1.2-.1.3-.2.5 0-.1-.1-.2-.1-.2-.4-.5-.7-.9-1.4-.9-.8 0-1.7.3-2.5.5-1.4.3-2.7.3-2.4 2 .1.7 1.1.4 1-.3-.1-.6.5-.5.9-.6.2 0 .3-.1.5-.1.2 1.9.2 3.8.4 5.7.1.7 1.1.7 1.1 0-.2-2-.3-3.9-.5-5.9.9-.2 1.5-.4 2.1.3.2.2.5.2.7 0-.6 1.7-1 3.4-1.2 5.2-.1.1-.1.2-.1.4v.2c.1.6 1 .4 1-.1.1-.5.1-1 .2-1.5.1 0 .1 0 .2-.1.8-.6 1.5-1.2 2.3-1.8.9 1 2 1.9 2.9 2.6.6.5 1.3-.2.8-.7zm-4.4-2.5c-.5.4-.9.8-1.4 1.1.2-.8.4-1.7.7-2.5.2.4.5.9.8 1.3 0 0-.1 0-.1.1z"/><ellipse class="st2" cx="136" cy="11.2" rx=".4" ry=".5"/></g></symbol><symbol id="instagram" viewBox="0 0 30 30"><circle cx="22.9" cy="7" r="1.8"/><path d="M29.8 8.8c0-1.2-.3-2.5-.7-3.6-.4-1-1-1.9-1.7-2.6-.7-.8-1.6-1.3-2.6-1.7-1.1-.4-2.4-.7-3.6-.7C19.5.1 19 .1 15 .1s-4.5 0-6.1.1C7.7.2 6.5.5 5.3.9c-1 .4-1.9 1-2.6 1.7-.8.7-1.4 1.6-1.8 2.6C.5 6.4.3 7.6.3 8.8c-.1 1.6-.1 2.1-.1 6.1s0 4.5.1 6.1c0 1.2.3 2.5.7 3.6.4 1 1 1.9 1.7 2.6.7.8 1.6 1.5 2.6 1.8 1.1.4 2.3.6 3.6.7 1.6.1 2.1.1 6.1.1s4.5 0 6.1-.1c1.2 0 2.5-.2 3.6-.7 1-.4 1.9-1 2.6-1.7.8-.7 1.3-1.6 1.7-2.6.4-1.2.7-2.4.7-3.6.1-1.6.1-2.1.1-6.1.1-4.1.1-4.6 0-6.2zM27 20.9c0 .9-.2 1.9-.5 2.8-.2.6-.6 1.2-1.1 1.7-.5.5-1.1.9-1.7 1.1-.9.3-1.8.5-2.7.5-1.6.1-2 .1-6 .1s-4.4 0-6-.1c-.9 0-1.9-.2-2.8-.5-.6-.2-1.2-.6-1.7-1.1-.5-.5-.9-1.1-1.1-1.7-.3-.9-.5-1.8-.5-2.7-.1-1.6-.1-2-.1-6s0-4.4.1-6c0-.9.2-1.9.5-2.8.3-.6.7-1.2 1.1-1.7.5-.5 1.1-.9 1.8-1.1.8-.4 1.8-.5 2.7-.5 1.6-.1 2-.1 6-.1s4.4 0 6 .1c.9 0 1.9.2 2.8.5.6.2 1.2.6 1.7 1.1.5.5.9 1.1 1.1 1.7.3.9.4 1.8.4 2.8.1 1.6.1 2 .1 6 0 3.9 0 4.4-.1 5.9z"/><path d="M22.6 14.9c0-4.2-3.4-7.6-7.6-7.6-4.2 0-7.6 3.4-7.6 7.6 0 4.2 3.4 7.6 7.6 7.6 4.2.1 7.6-3.4 7.6-7.6zm-7.5 5c-.1 0-.1 0 0 0-2.8 0-5-2.2-5-5 0-2.7 2.2-4.9 5-4.9 2.7 0 4.9 2.2 4.9 4.9s-2.2 5-4.9 5z"/></symbol><symbol id="linkedin" viewBox="0 0 36 36"><style>.st0{fill:#9b9b9b}</style><path class="st0" d="M29.2-20H6.8c-1.9 0-3.5-.7-4.8-2s-2-2.9-2-4.8v-22.5c0-1.9.7-3.5 2-4.8s2.9-2 4.8-2h22.5c1.9 0 3.5.7 4.8 2s2 2.9 2 4.8v22.5c0 1.9-.7 3.5-2 4.8s-3 2-4.9 2zM6.8-54c-1.3 0-2.4.4-3.4 1.4-1 1-1.4 2-1.4 3.4v22.5c0 1.3.4 2.4 1.4 3.4 1 1 2 1.4 3.4 1.4h22.5c1.3 0 2.4-.4 3.4-1.4s1.4-2 1.4-3.4v-22.5c0-1.3-.4-2.4-1.4-3.4-1-1-2-1.4-3.4-1.4H6.8z" transform="translate(0 56)"/><path class="st0" d="M11.9-27.3H6.8v-15.5h5.1zM11.5-45.7c-.5.5-1.2.8-2.1.8-.8 0-1.5-.3-2.1-.8-.5-.5-.8-1.1-.8-1.9 0-.8.3-1.4.8-1.9s1.2-.8 2.1-.8 1.6.3 2.1.8.8 1.1.8 1.9c0 .8-.3 1.4-.8 1.9zm19 18.4h-5.2v-8.3c0-2.3-.9-3.5-2.6-3.5-.7 0-1.2.2-1.7.5-.4.4-.8.8-1 1.3-.1.3-.2.7-.2 1.2v8.7h-5.2v-15.5h5.2v2.2c1.1-1.7 2.6-2.5 4.6-2.5 1.8 0 3.2.6 4.3 1.8 1.1 1.2 1.6 2.9 1.6 5.2l.2 8.9z" transform="translate(0 56)"/></symbol><symbol id="reddit" viewBox="0 0 36 36"><style>.st0{fill:#9b9b9b}</style><path class="st0" d="M29.2 36H6.8c-1.9 0-3.5-.7-4.8-2s-2-2.9-2-4.8V6.8C0 4.9.7 3.3 2 2s2.9-2 4.8-2h22.5c1.9 0 3.5.7 4.8 2s2 2.9 2 4.8v22.5c0 1.9-.7 3.5-2 4.8-1.4 1.2-3 1.9-4.9 1.9zM6.8 2c-1.4 0-2.5.4-3.4 1.4-1 1-1.4 2-1.4 3.4v22.5c0 1.3.4 2.4 1.4 3.4 1 1 2 1.4 3.4 1.4h22.5c1.3 0 2.4-.4 3.4-1.4 1-1 1.4-2 1.4-3.4V6.8c0-1.3-.4-2.4-1.4-3.4S30.7 2 29.3 2H6.8z"/><path class="st0" d="M31.2 17.5c-.5-1.9-2.5-2.7-4.3-1.8l-.6.3-.7-.4c-1.3-.8-3.7-1.6-5.3-1.8-.4 0-1-.1-1.2-.1l-.4-.1.2-.9c.1-.5.3-1.5.5-2.1.2-.7.3-1.6.4-2.1.1-.7.2-.8.4-.8.1 0 1.1.2 2.1.4s1.9.4 1.9.4.1.2.1.4c.1.6.4 1 1 1.3 1.4.7 3.1-.2 3.1-1.9 0-2-2.5-2.9-3.7-1.3-.2.3-.4.4-.6.3-.2-.1-1.3-.3-2.5-.5-1.6-.3-2.2-.4-2.4-.3-.2.2-.2 0-.9 3.2-.8 3.7-.8 3.9-.9 4 0 0-.6.1-1.3.2-2 .2-4.2.9-5.7 1.8l-.6.3-.7-.3c-1.8-.9-3.7 0-4.3 1.8-.2.7-.2.8 0 1.5.2.6.4.9.9 1.4.6.6.6.6.6 1.4 0 3.5 3.6 6.8 8.3 7.8 1.6.3 1.7.3 3.7.3 1.3 0 2.3-.1 3-.3 1.4-.3 2.3-.7 3.3-1.2 3-1.5 4.9-4.1 4.9-6.6 0-.8 0-.8.7-1.4.5-.5.7-.8.9-1.4.3-.7.3-.8.1-1.5zm-19.7 2.8c0-.9.4-1.6 1.3-1.9.6-.2.7-.2 1.3 0 1.5.6 1.8 2.4.6 3.4-.6.5-1.4.6-2.1.2-.8-.3-1.1-.9-1.1-1.7zm11.1 5.6c-1.5 1.1-4.4 1.6-6.7 1-1.1-.2-2.3-.8-2.7-1.2-.3-.2-.2-.7.2-.7.1 0 .5.2.8.3 1.8 1.2 5.9 1.2 7.7 0 .6-.4 1.1-.4 1.1 0 0 .2-.1.4-.4.6zm.8-3.8c-.6.3-1.1.3-1.7.1-.6-.3-1-.7-1.1-1.3-.3-1 .2-2 1.3-2.4.6-.2.6-.2 1.3 0 .9.3 1.3.9 1.3 1.9 0 .7-.4 1.3-1.1 1.7z"/></symbol><symbol id="twitter" viewBox="0 0 36 36"><style>.st0{fill:#9b9b9b}</style><path class="st0" d="M27.1 13.4v.6c0 1.2-.2 2.4-.5 3.6-.3 1.2-.9 2.4-1.6 3.5-.7 1.1-1.6 2.1-2.6 2.9-1 .8-2.2 1.5-3.6 2s-2.9.8-4.5.8c-2.5 0-4.8-.7-6.9-2 .3 0 .7.1 1.1.1 2.1 0 3.9-.6 5.6-1.9-1 0-1.8-.3-2.6-.9-.8-.6-1.3-1.3-1.6-2.2.4.1.6.1.8.1.3 0 .7-.1 1.1-.2-1-.2-1.9-.7-2.6-1.5-.7-.8-1.1-1.8-1.1-2.9.8.4 1.5.5 2.1.6-1.3-.9-1.9-2.1-1.9-3.7 0-.8.2-1.6.6-2.3 1.1 1.4 2.5 2.5 4.1 3.3 1.6.8 3.3 1.3 5.2 1.4-.1-.3-.1-.6-.1-1 0-1.2.4-2.3 1.3-3.2.9-1.1 2-1.5 3.2-1.5 1.3 0 2.4.5 3.3 1.4 1-.2 1.9-.5 2.9-1.1-.4 1.1-1 1.9-2 2.5.9-.1 1.8-.4 2.6-.7-.6.9-1.4 1.7-2.3 2.3z"/><path class="st0" d="M29.2 36H6.8c-1.9 0-3.5-.7-4.8-2-1.3-1.3-2-2.9-2-4.8V6.8C0 4.9.7 3.3 2 2s2.9-2 4.8-2h22.5c1.9 0 3.5.7 4.8 2s2 2.9 2 4.8v22.5c0 1.9-.7 3.5-2 4.8-1.4 1.2-3 1.9-4.9 1.9zM6.8 2c-1.4 0-2.5.4-3.4 1.4-1 1-1.4 2-1.4 3.4v22.5c0 1.3.4 2.4 1.4 3.4 1 1 2 1.4 3.4 1.4h22.5c1.3 0 2.4-.4 3.4-1.4 1-1 1.4-2 1.4-3.4V6.8c0-1.3-.4-2.4-1.4-3.4-1-1-2-1.4-3.4-1.4H6.8z"/></symbol></svg>