<svg id="monogram" xmlns="http://www.w3.org/2000/svg"
	 viewBox="0 0 110.197 110.716" xml:space="preserve">
<path d="M56.806,88.25c0.059-0.014,0.118-0.028,0.188-0.045c-0.003-0.046,0.012-0.105-0.013-0.136
	c-0.262-0.354-0.301-0.731-0.204-1.156c0.054-0.236,0.006-0.494,0.021-0.741c0.014-0.224,0.044-0.449,0.084-0.67
	c0.043-0.236,0.106-0.468,0.17-0.743c-0.096-0.11-0.217-0.252-0.298-0.346c0-0.318-0.013-0.588,0.004-0.857
	c0.016-0.236,0.043-0.477,0.103-0.706c0.085-0.326-0.043-0.6-0.161-0.882c0.316-0.205-0.103-0.463,0.059-0.727
	c0.108-0.177,0.007-0.479,0.009-0.726c0.002-0.235,0.018-0.471,0.094-0.702c-0.057-0.233-0.217-0.501-0.152-0.694
	c0.269-0.817-0.14-1.718,0.291-2.456c-0.047-0.226-0.087-0.423-0.126-0.613c0.137-0.057,0.22-0.092,0.376-0.158
	c-0.119-0.141-0.225-0.266-0.328-0.388c-0.179-0.313-0.025-0.661,0.041-0.923c0.084-0.337-0.339-0.699,0.078-0.975
	c-0.282-0.316-0.166-0.621-0.01-0.793c-0.094-0.782-0.171-1.438-0.25-2.104c0.045-0.02,0.129-0.054,0.212-0.089
	c0.372-0.573-0.45-1.183,0.051-1.757c-0.117-0.135-0.239-0.273-0.3-0.342c0.053-0.379,0.107-0.674,0.133-0.974
	c0.04-0.475,0.084-0.952,0.083-1.427c0-0.495-0.02-0.995-0.086-1.484c-0.165-1.207-0.087-2.416-0.078-3.623
	c0.001-0.102-0.081-0.199-0.097-0.304c-0.018-0.118-0.004-0.239-0.004-0.343c0.129-0.057,0.212-0.092,0.33-0.143
	c-0.099-0.207-0.196-0.412-0.294-0.617c-0.055-0.391,0.359-0.793,0.038-1.109c0.021-0.382,0.036-0.688,0.056-1.038
	c0.017-0.009,0.115-0.057,0.23-0.114c-0.146-0.08-0.266-0.146-0.512-0.285c0.249-0.129,0.37-0.193,0.449-0.235
	c-0.03-0.341-0.06-0.664-0.088-0.995c0.102-0.055,0.208-0.112,0.338-0.182c-0.111-0.059-0.208-0.111-0.307-0.164
	c-0.05-0.165-0.099-0.33-0.162-0.544c-0.285,0.147-0.526,0.272-0.818,0.422c-0.065-0.029-0.174-0.077-0.288-0.127
	c-0.318,0.144-0.653,0.296-1.001,0.454c-0.096-0.088-0.211-0.195-0.355-0.327c-0.124,0.174-0.243,0.343-0.373,0.524
	c-0.043-0.086-0.091-0.185-0.147-0.301c-0.211,0.107-0.423,0.213-0.675,0.342H52.5c-0.578,0.229-0.982,0.487-1.411,0.539
	c-1.119,0.137-2.18,0.6-3.318,0.586c-0.279-0.005-0.535,0.424-0.825,0.039c-0.119,0.108-0.234,0.215-0.268,0.244
	c-0.55,0.062-1.009,0.109-1.466,0.17c-0.085,0.012-0.161,0.108-0.245,0.116c-0.767,0.071-1.535,0.144-2.304,0.19
	c-0.521,0.033-1.034-0.006-1.554,0.175c-0.484,0.169-1.03-0.103-1.558,0.172c-0.232,0.121-0.673-0.181-0.932-0.075
	c-0.41,0.168-0.8,0.079-1.195,0.105c-0.376,0.025-0.758,0.029-1.132-0.006c-0.201-0.02-0.392-0.141-0.58-0.213
	c-0.387,0.443-0.495,0.85-0.199,1.363c0.146,0.253,0.211,0.551,0.378,0.812c0.193,0.303,0.302,0.66,0.429,1
	c0.127,0.339,0.159,0.734,0.358,1.019c0.577,0.822,0.78,1.86,1.524,2.58c0.021,0.022,0.054,0.041,0.063,0.067
	c0.339,0.945,1.065,1.637,1.617,2.439c0.32,0.465,0.614,0.939,1.12,1.299c0.449,0.316,0.81,0.807,1.245,1.182
	c0.923,0.798,1.939,1.484,2.78,2.377c1.008,0.371,1.83,1.066,2.75,1.592c1.162,0.663,2.479,0.961,3.671,1.618
	c0.105,0.202,0.219,0.417,0.313,0.597c0.098,0.367-0.322,0.602-0.105,1.006c0.126,0.235-0.03,0.624-0.072,0.943
	c-0.043,0.331,0.025,0.655-0.11,1.006c-0.092,0.238,0.218,0.604,0.233,0.919c0.015,0.317-0.111,0.64-0.153,0.851
	c-0.179,0.266-0.316,0.471-0.506,0.75c-0.14-0.22-0.198-0.312-0.268-0.422c-1.077-0.057-2.084-0.425-2.988-1.059
	c-0.103,0.062-0.181,0.111-0.295,0.182c-0.041-0.174-0.08-0.338-0.119-0.503c-0.114,0.048-0.219,0.092-0.362,0.154
	c-0.263-0.17-0.544-0.351-0.833-0.538c-0.052,0.038-0.128,0.091-0.276,0.197c-0.301-0.239-0.617-0.491-0.98-0.781
	c-0.037,0.02-0.143,0.077-0.261,0.14c-0.03-0.076-0.062-0.159-0.088-0.228c-0.33-0.156-0.727-0.242-0.962-0.484
	c-0.237-0.243-0.729-0.062-0.782-0.522c-1.446-0.555-2.534-1.632-3.666-2.613c-0.67-0.58-1.376-1.14-1.974-1.806
	c-0.582-0.647-1.146-1.312-1.695-1.988c-0.756-0.932-1.489-1.883-2.22-2.811c-0.014-0.209-0.025-0.394-0.038-0.596
	c-0.493-0.08-0.594-0.502-0.73-0.865c-0.17-0.447-0.506-0.783-0.718-1.192c-0.221-0.425-0.353-0.896-0.538-1.384
	c-0.008,0.01,0.029-0.041,0.093-0.129c-0.096-0.047-0.186-0.092-0.335-0.168v-1.049c-0.14,0.064-0.207,0.094-0.324,0.146
	c-0.058-0.245-0.089-0.5-0.181-0.73c-0.131-0.332-0.079-0.695-0.372-1.019c-0.201-0.222-0.195-0.673-0.324-1.019
	c-0.167-0.447-0.227-0.937-0.324-1.41c-0.056-0.266-0.093-0.534-0.152-0.887c-0.092-0.022-0.296-0.072-0.674-0.164
	c0.034,0.031-0.082-0.074-0.229-0.207c-0.345,0-0.72-0.008-1.094,0.004c-0.172,0.004-1.243-0.019-1.386-0.067
	c-0.611-0.21-1.227-0.362-1.885-0.334c-0.262,0.011-0.539-0.194-0.79-0.16c-0.445,0.062-0.85-0.451-1.296-0.067
	c-0.406-0.109-0.812-0.224-1.222-0.326c-0.438-0.109-0.885-0.307-1.319-0.287c-0.638,0.027-1.164-0.381-1.765-0.281
	c-0.058-0.135-0.095-0.217-0.131-0.299c-0.523,0.091-1.04-0.004-1.543-0.111c-0.163-0.034-0.277-0.3-0.42-0.468
	c-0.354,0.197-0.753,0.193-1.171-0.039c-0.207,0.308-0.41,0.608-0.628,0.933c0.138,0.121,0.298,0.211,0.38,0.348
	c0.088,0.148,0.104,0.34,0.174,0.598c-0.114,0.52-0.173,0.762,0.229,1.562c-0.117,0.068-0.237,0.138-0.371,0.215
	c0.192,0.207,0.383,0.41,0.576,0.617c-0.055,0.112-0.094,0.192-0.157,0.322c0.094,0.195,0.206,0.43,0.321,0.67v1.127
	c0.153,0.396,0.375,0.742,0.406,1.206c0.034,0.494,0.426,0.976,0.417,1.458c-0.009,0.445,0.442,0.654,0.339,1.121
	c-0.069,0.322,0.129,0.689,0.354,0.98c0.037,0.05,0.075,0.103,0.093,0.16c0.231,0.744,0.407,1.51,0.845,2.178
	c0.306,0.466,0.154,1.019,0.312,1.549c0.039-0.145,0.077-0.29,0.12-0.452c0.036,0.013,0.101,0.015,0.11,0.039
	c0.11,0.28,0.198,0.569,0.321,0.845c0.347,0.773,0.726,1.531,1.128,2.279c0.168,0.314,0.249,0.674,0.378,1.037
	c0.672,0.415,0.768,1.214,1.178,1.927c0.462,0.199,0.571,0.749,0.844,1.217c0.241,0.418,0.723,0.702,0.761,1.268
	c0.104-0.061,0.181-0.103,0.295-0.167c0.205,0.338,0.391,0.688,0.619,1.008c0.187,0.262,0.225,0.644,0.647,0.743
	c0.102,0.023,0.349,0.341,0.116,0.607c0.236,0.12,0.469,0.239,0.703,0.359c-0.04,0.061-0.074,0.114-0.108,0.166
	c0.178,0.143,0.391,0.257,0.524,0.433c0.655,0.857,1.56,1.465,2.245,2.286c0.062,0.076,0.024,0.236,0.033,0.354
	c0.198,0.062,0.41,0.069,0.534,0.178c0.621,0.545,1.222,1.116,1.936,1.777c0.669,0.267,1.208,0.979,1.916,1.44
	c0.719,0.471,1.307,1.064,2.004,1.649c0.087,0.69,0.177,1.419,0.255,2.039c-0.535,1.133-1.009,1.631-2.087,2.249
	c-0.34,0-0.688-0.021-1.032,0.007c-0.28,0.022-0.534-0.41-0.841-0.02c-0.486-0.313-0.99-0.603-1.452-0.947
	c-0.495-0.37-0.925-0.83-1.432-1.183c-0.468-0.326-0.9-0.682-1.325-1.059c-0.437-0.387-0.931-0.709-1.366-1.097
	c-0.445-0.398-0.868-0.826-1.27-1.269c-0.41-0.451-0.877-0.843-1.297-1.284c-0.388-0.405-0.806-0.787-1.13-1.427
	c-0.2-0.075-0.713-0.057-0.621-0.617c-0.629-0.688-1.334-1.281-1.75-2.17c-0.108-0.072-0.309-0.139-0.402-0.276
	c-0.344-0.507-0.654-1.036-1.051-1.678c-0.449-0.212-0.626-0.827-0.944-1.333c-0.309-0.49-0.629-0.974-0.937-1.465
	c-0.322-0.516-0.653-1.028-0.946-1.56c-0.276-0.501-0.491-1.035-0.765-1.537c-0.277-0.509-0.442-1.079-0.742-1.558
	c-0.311-0.492-0.313-1.115-0.761-1.604v-0.685c-0.098-0.045-0.179-0.084-0.312-0.146c0.006-0.038,0.018-0.104,0.045-0.286
	c-0.726-0.646-0.67-1.713-1.06-2.605c-0.343-0.784-0.646-1.58-0.572-2.438c-0.143-0.079-0.248-0.136-0.362-0.199v-1.037
	c-0.022,0.004-0.046,0.01-0.068,0.014c-0.165-0.547-0.345-1.09-0.491-1.641c-0.148-0.554-0.293-1.111-0.389-1.676
	c-0.098-0.572-0.247-1.174-0.166-1.732c0.086-0.586-0.468-1.121-0.069-1.696c-0.096-0.048-0.203-0.101-0.345-0.173
	c0.058-1.258-0.058-2.514-0.218-3.768c-0.018-0.141-0.14-0.268-0.221-0.415C6.952,52.432,5.79,52.29,5.023,51.41
	c-0.309-0.017-0.567-0.085-0.856-0.26c-0.743-0.452-1.557-0.786-2.457-1.223c-0.21-0.157-0.532-0.394-0.851-0.636
	c-0.586-0.445-0.746-1.098-0.84-1.772c-0.039-0.278-0.007-0.566-0.007-0.824c0.347-0.859,0.863-1.556,1.5-1.993
	c0.443-0.119,0.763-0.209,1.085-0.287c0.09-0.022,0.197-0.032,0.281-0.004c0.796,0.265,1.672,0.236,2.395,0.791
	c0.546,0.42,1.177,0.745,1.807,1.033c0.315,0.144,0.739,0.049,0.948,0.448c0.377-0.346,0.434-0.779,0.48-1.197
	c0.085-0.76,0.091-1.531,0.207-2.286c0.105-0.683,0.377-1.343,0.458-2.028c0.094-0.789,0.411-1.515,0.509-2.31
	c0.121-0.977,0.488-1.924,0.771-2.878c0.041-0.136,0.198-0.238,0.322-0.38v-0.65c0.209-0.319,0.378-0.576,0.548-0.836
	c-0.052-0.073-0.103-0.148-0.14-0.202c0.676-2.067,1.593-4.014,2.619-5.91c0.68-1.253,1.321-2.532,2.086-3.731
	c0.958-1.501,1.935-2.997,3.062-4.385c0.677-0.834,1.302-1.712,1.994-2.533c0.273-0.324,0.569-0.69,1.031-0.743
	c0.158-0.264,0.266-0.566,0.473-0.764c0.493-0.47,0.891-1.038,1.516-1.381c0.245-0.135,0.345-0.509,0.569-0.708
	c0.574-0.513,1.186-0.986,1.774-1.484c0.109-0.092,0.182-0.228,0.296-0.378c0.174,0.041,0.369,0.088,0.592,0.141v-0.47
	c0.998-0.954,2.08-1.679,3.158-2.437c0.038,0.021,0.114,0.063,0.19,0.105c0.149-0.352,0.366-0.613,0.744-0.767
	c0.616-0.25,1.064-0.788,1.733-0.988c0.361-0.108,0.644-0.459,0.983-0.666c0.515-0.313,1.04-0.611,1.579-0.882
	c0.181-0.091,0.415-0.079,0.618-0.113c0.097-0.159,0.191-0.313,0.31-0.506h0.759c0.144-0.17,0.215-0.325,0.332-0.383
	c0.654-0.32,1.318-0.622,1.982-0.92c0.303-0.136,0.615-0.252,0.925-0.369c0.452-0.17,0.848-0.517,1.383-0.43
	c0.078,0.012,0.176-0.047,0.253-0.091c0.801-0.46,1.692-0.635,2.572-0.857c0.226-0.057,0.42-0.233,0.675-0.381
	c0.125,0.04,0.293,0.095,0.472,0.153c0.1-0.09,0.217-0.195,0.365-0.328c0.313,0,0.661-0.034,0.999,0.009
	c0.324,0.042,0.638,0.165,0.911,0.24c0.055,0.132,0.088,0.213,0.12,0.293c0.088-0.05,0.162-0.092,0.208-0.118
	c0.88,0.588,1.188,1.483,1.401,2.49c-0.064,0.284-0.087,0.663-0.233,0.987c-0.41,0.911-1.055,1.568-2.091,1.775
	c-0.253,0.05-0.479,0.24-0.757,0.387c-0.112-0.044-0.251-0.099-0.411-0.163c-0.292,0.151-0.615,0.318-0.996,0.515
	c-0.058-0.022-0.167-0.064-0.345-0.132c-0.214,0.132-0.485,0.3-0.748,0.464c-0.076-0.046-0.154-0.094-0.286-0.174
	c-0.219,0.203-0.441,0.409-0.666,0.617c-0.16-0.073-0.295-0.136-0.488-0.225c-0.187,0.176-0.387,0.365-0.588,0.554
	c-0.052-0.028-0.102-0.055-0.23-0.125c-0.037,0.077-0.074,0.155-0.128,0.269c-0.329,0.179-0.754,0.177-1.098,0.458
	c-0.311,0.254-0.728,0.378-1.122,0.57c-0.067-0.034-0.147-0.074-0.231-0.116c-0.354,0.257-0.612,0.67-1.137,0.695
	c-0.166,0.009-0.354,0.128-0.481,0.251c-0.516,0.498-1.188,0.718-1.788,1.067c-0.344,0.2-0.663,0.444-1.013,0.683
	c-0.027-0.015-0.102-0.056-0.199-0.112c-0.102,0.148-0.202,0.298-0.353,0.519c-0.158,0.019-0.395,0.046-0.644,0.075
	c0.062,0.114,0.105,0.19,0.209,0.375c-0.225-0.074-0.356-0.117-0.518-0.17c-0.009,0.011-0.037,0.052-0.072,0.088
	c-0.248,0.266-0.467,0.572-0.753,0.788c-0.659,0.5-1.351,0.957-2.056,1.449c0.022,0.014-0.028-0.02-0.15-0.104
	c-0.038,0.172-0.071,0.322-0.105,0.474c-0.467,0.369-0.936,0.74-1.437,1.136c0.005,0.003-0.072-0.04-0.149-0.084
	c-0.283,0.897-1.339,1.154-1.661,2.009c-0.157,0.034-0.304,0.066-0.465,0.1c-0.016,0.139-0.03,0.26-0.028,0.256
	c-0.37,0.422-0.666,0.776-0.979,1.113c-0.321,0.346-0.67,0.667-0.985,1.017c-0.317,0.353-0.61,0.727-0.91,1.094
	c-0.3,0.366-0.605,0.727-0.889,1.106c-0.272,0.365-0.45,0.847-0.798,1.101c-0.418,0.306-0.187,1.055-0.782,1.087
	c-0.552,1.098-1.363,1.991-1.711,3.147c-0.079-0.042-0.153-0.081-0.228-0.12c-0.186,0.692-0.453,1.34-0.812,1.982
	c-0.591,1.056-1.036,2.194-1.54,3.299c-0.013,0.026,0.009,0.07-0.006,0.093c-0.529,0.804-0.517,1.797-0.927,2.644
	c-0.128,0.266-0.224,0.548-0.364,0.895c0.015,0.025,0.073,0.127,0.118,0.206c-0.267,0.565-0.493,1.107-0.549,1.742
	c-0.046,0.528-0.301,1.037-0.547,1.529c0,0.347,0.098,0.735-0.028,1.027c-0.119,0.273-0.018,0.536-0.135,0.803
	c-0.128,0.292-0.062,0.643-0.165,0.985c-0.185,0.606-0.172,1.272-0.233,1.914c-0.028,0.308,0.034,0.648-0.076,0.92
	c-0.109,0.275,0.11,0.515-0.071,0.825c-0.145,0.243,0.062,0.692,0.117,1.065c0.463,0.116,0.87,0.219,1.294,0.324
	c-0.041,0.112-0.09,0.241-0.154,0.42c0.251,0.071,0.302-0.174,0.427-0.23c1.237,0.281,2.462,0.56,3.749,0.852
	c-0.007-0.017,0.028,0.067,0.09,0.212c0.184-0.063,0.371-0.126,0.604-0.206c0.415,0.15,0.861,0.31,1.338,0.481
	c0.137-0.021,0.35-0.107,0.542-0.074c0.354,0.059,0.698,0.184,1.044,0.288c0.468,0.141,0.923,0.282,1.431,0.284
	c0.48,0.001,0.961,0.151,1.565,0.257c0.097,0.051,0.312,0.167,0.528,0.282c0.655-0.263,1.284-0.048,1.923,0.093
	c0.293,0.065,0.63-0.249,0.896,0.096c0.247-0.238,0.535,0.041,0.813-0.065c0.158-0.06,0.378,0.052,0.571,0.073
	c0.317,0.034,0.637,0.078,0.954,0.078c0.307,0.001,0.614-0.077,0.919-0.069c0.334,0.01,0.666,0.11,0.998,0.113
	c0.292,0.002,0.644-0.197,0.862-0.089c0.309,0.151,0.604,0.007,0.898,0.115c0.188,0.07,0.517-0.125,0.643-0.025
	c0.247,0.197,0.456-0.258,0.645,0.028c0.771-0.406,1.569,0.015,2.355-0.049c0.214-0.018,0.43,0.078,0.678-0.04
	c0.158-0.075,0.392,0.008,0.697,0.027c0.371-0.215,0.854-0.502,1.46-0.071c0.597-0.338,1.258-0.425,1.965-0.168
	c0.092-0.148,0.167-0.27,0.282-0.456c0.124,0.132,0.235,0.25,0.333,0.354c0.099-0.093,0.198-0.246,0.338-0.311
	c0.496-0.228,1.065-0.159,1.578-0.364c0.157-0.063,0.39,0.062,0.59,0.102c0.032-0.074,0.068-0.157,0.104-0.24
	c0.056-0.021,0.111-0.063,0.167-0.06c0.99,0.059,1.947-0.227,2.88-0.45c0.999-0.238,2.012-0.406,3.011-0.638
	c0.134-0.031,0.301,0.082,0.525,0.151c-0.097-0.17-0.139-0.246-0.177-0.313c0.807-0.18,1.604-0.358,2.419-0.54
	c0.526-0.158,1.081-0.301,1.62-0.49c0.854-0.298,1.728-0.564,2.539-0.956c1.073-0.518,2.227-0.758,3.348-1.108
	c0.747-0.233,1.527-0.361,2.277-0.589c0.328-0.099,0.64-0.192,0.985-0.181c0.18,0.006,0.366-0.03,0.542-0.076
	c0.582-0.154,1.157-0.34,1.744-0.471c0.153-0.034,0.343,0.084,0.609,0.159c0.098-0.08,0.261-0.214,0.363-0.298
	c0.614-0.091,1.157-0.225,1.702-0.237c0.504-0.011,0.988-0.483,1.521-0.06c0.552-0.235,1.129-0.355,1.748-0.348
	c0.517,0.006,1.031-0.122,1.55-0.172c0.521-0.049,1.051-0.13,1.569-0.099c0.856,0.05,1.742-0.172,2.558,0.256
	c0.057-0.117,0.106-0.22,0.163-0.335c0.066,0.124,0.124,0.229,0.193,0.358c0.043-0.094,0.078-0.171,0.142-0.31
	c0.384,0.137,0.808,0.227,1.215-0.011c0.033,0.086,0.066,0.171,0.127,0.323c0.143-0.126,0.268-0.236,0.394-0.347
	c0.075,0.051,0.15,0.102,0.268,0.182c0.11-0.059,0.242-0.129,0.388-0.207c0.126,0.059,0.26,0.124,0.392,0.186
	c0.146-0.067,0.281-0.13,0.533-0.246c-0.048,0.171-0.07,0.253-0.116,0.414c0.04,0.032,0.135,0.108,0.201,0.163
	c0.208-0.182,0.399-0.35,0.615-0.539c0.05,0.124,0.082,0.205,0.126,0.315c0.17-0.033,0.359-0.069,0.547-0.106
	c0.23-0.044,0.458-0.113,0.689-0.128c0.176-0.011,0.355,0.044,0.592,0.078c-0.002-0.007,0.031,0.078,0.092,0.232
	c0.119-0.101,0.221-0.188,0.367-0.312c0.092,0.034,0.214,0.102,0.344,0.123c0.15,0.023,0.307,0.005,0.438,0.005
	c0.08,0.147,0.137,0.253,0.207,0.382c0.044-0.101,0.08-0.182,0.118-0.27c0.188-0.029,0.392-0.06,0.61-0.094
	c0.076,0.114,0.156,0.235,0.259,0.391c0.423-0.221,0.875-0.106,1.273,0.028c0.295,0.1,0.488,0.161,0.768-0.017
	c0.118-0.074,0.353,0.035,0.659,0.078c0.028,0.024,0.168,0.141,0.33,0.278c0.105-0.051,0.213-0.104,0.341-0.166
	c0.042,0.089,0.09,0.189,0.139,0.29c0.133-0.056,0.267-0.112,0.424-0.178c0.274,0.136,0.547,0.271,0.84,0.416
	c0.748-0.029,1.506,0.02,2.197,0.42c0.079,0.046,0.155,0.128,0.238,0.135c0.219,0.019,0.438,0.007,0.645,0.007
	c0.158,0.136,0.301,0.259,0.444,0.384c0.697-0.04,1.293,0.152,1.906,0.526c0.548,0.334,1.254,0.406,1.884,0.614
	c0.12,0.04,0.208,0.174,0.397,0.341c0.094,0.01,0.304,0.034,0.551,0.062c0.026,0.146,0.051,0.292,0.078,0.443
	c0.213-0.036,0.429-0.073,0.724-0.123c-0.073,0.154-0.107,0.225-0.158,0.33c0.471,0.164,1.088,0.025,1.377,0.596
	c0.541,0.09,0.935,0.43,1.314,0.784c0.415,0.385,0.815,0.788,1.223,1.184c0.016,0.234,0.03,0.447,0.045,0.656
	c0.705-0.03,1.214,0.625,1.329,1.688c0.525,0.497,0.921,1.07,0.768,1.89c0.084,0.043,0.191,0.099,0.348,0.181
	c-0.053,0.127-0.106,0.258-0.166,0.4c0.076,0.029,0.161,0.062,0.251,0.096c0.091,0.275,0.226,0.555,0.265,0.846
	c0.036,0.277,0.018,0.582-0.063,0.849c-0.082,0.274,0.084,0.483,0.091,0.729c0.008,0.203,0.102,0.405,0.113,0.61
	c0.018,0.31,0.001,0.621-0.004,0.931c-0.006,0.322-0.015,0.644-0.141,0.971c0.08,0.226,0.16,0.451,0.252,0.708
	c-0.392,0.265-0.352,0.692-0.406,1.065c-0.059,0.4-0.013,0.816-0.013,1.254c-0.646,0.735-0.425,1.787-0.884,2.613
	c-0.474,0.855-0.492,1.855-0.896,2.754c-0.058-0.029-0.131-0.066-0.256-0.13c-0.022,0.282-0.043,0.548-0.057,0.714
	c-0.165,0.612-0.582,0.988-0.688,1.557c-0.098,0.523-0.407,1.006-0.615,1.51c-0.034,0.082,0.01,0.214-0.041,0.27
	c-0.681,0.728-0.917,1.694-1.38,2.539c-0.109,0.199-0.28,0.364-0.489,0.628v0.466c-0.123-0.03-0.217-0.053-0.341-0.082v0.543
	c-0.385,0.237-0.608,0.536-0.597,0.974c-0.175,0.118-0.35,0.236-0.542,0.366c0.057,0.093,0.1,0.163,0.159,0.26
	c-0.138,0.1-0.282,0.205-0.521,0.378c-0.01,0.101-0.03,0.31-0.048,0.504c-0.543,0.663-1.079,1.317-1.623,1.98
	c0.014,0.022,0.056,0.093,0.088,0.147c-0.979,1.102-1.854,2.257-2.914,3.256c0.015,0.023,0.05,0.076,0.084,0.129
	c-1.003,0.537-1.345,1.827-2.506,2.213c-0.147,0.416-0.379,0.796-0.81,1.077c-0.785,0.515-1.348,1.298-2.188,1.752
	c-0.264,0.145-0.411,0.503-0.621,0.773c-0.169-0.093-0.271-0.151-0.391-0.216c-0.041,0.18-0.081,0.355-0.106,0.463
	c-1.722,1.328-3.461,2.515-5.298,3.649c-0.044-0.023-0.146-0.078-0.271-0.146c-0.173,0.246-0.347,0.495-0.535,0.764
	c-0.135-0.061-0.244-0.109-0.313-0.141c-0.418,0.291-0.807,0.613-1.242,0.852c-0.692,0.383-1.432,0.683-2.12,1.072
	c-0.29,0.166-0.645,0.109-0.913,0.422c-0.209,0.242-0.653,0.278-0.99,0.412c-0.365,0.146-0.722,0.404-1.092,0.425
	c-0.574,0.032-0.927,0.517-1.514,0.557c-0.514,0.036-0.998,0.408-1.51,0.593c-0.31,0.111-0.644,0.183-0.972,0.211
	c-0.586,0.051-1.083,0.367-1.643,0.51c-0.679,0.174-1.351,0.318-2.045,0.385c-0.081,0.008-0.153,0.098-0.163,0.103
	c-0.424-0.068-0.78-0.126-1.139-0.185c-0.842-0.18-1.235-0.814-1.589-1.53c-0.337-0.683-0.376-1.364-0.166-2.124
	c0.055-0.027,0.162-0.08,0.288-0.143c-0.041-0.072-0.082-0.145-0.117-0.207c0.374-0.845,1.067-1.314,1.908-1.612
	c0.079,0.056,0.155,0.108,0.231,0.164c0.115-0.104,0.231-0.209,0.289-0.263c0.453-0.104,0.839-0.183,1.217-0.285
	c0.902-0.245,1.815-0.461,2.692-0.774c0.389-0.139,0.788-0.291,1.158-0.464c0.909-0.423,1.905-0.639,2.776-1.104
	c0.714-0.381,1.511-0.579,2.169-1.113c0.476-0.388,1.119-0.578,1.679-0.881c0.812-0.437,1.55-0.996,2.348-1.445
	c0.809-0.453,1.529-1.006,2.267-1.551c0.466-0.346,0.972-0.637,1.433-0.987c0.364-0.276,0.718-0.578,1.019-0.919
	c0.487-0.552,1.15-0.92,1.569-1.541c0.061-0.09,0.214-0.11,0.307-0.186c0.791-0.634,1.486-1.358,2.146-2.19
	c0.012,0.005,0.082,0.038,0.116,0.054c0.301-0.353,0.607-0.696,0.894-1.056c0.285-0.36,0.539-0.744,0.823-1.105
	c0.293-0.373,0.537-0.887,0.926-1.056c0.483-0.211,0.174-1.032,0.912-0.865c-0.071-0.129-0.099-0.18-0.137-0.248
	c0.197-0.344,0.401-0.699,0.608-1.06c0.056,0.105,0.111,0.212,0.18,0.343c0.186-0.486,0.364-0.955,0.572-1.499
	c0.76-0.474,0.777-1.59,1.585-2.133c-0.057-0.093-0.101-0.165-0.158-0.261c0.146-0.101,0.295-0.203,0.494-0.34
	c-0.004,0.006,0.034-0.043,0.051-0.099c0.066-0.231,0.171-0.463,0.181-0.698c0.016-0.404,0.469-0.541,0.498-0.976
	c0.024-0.361,0.313-0.703,0.476-1.058c0.217-0.467,0.424-0.938,0.636-1.408c0.231-0.514,0.573-0.975,0.686-1.553
	c0.108-0.559,0.287-1.104,0.429-1.629c0.117-0.045,0.203-0.076,0.29-0.109c-0.062-0.116-0.119-0.221-0.189-0.35
	c0.196-0.217,0.382-0.423,0.591-0.654v-0.721c0.125-0.066,0.23-0.123,0.351-0.188c-0.116-0.079-0.228-0.154-0.411-0.279
	c0.143-0.104,0.25-0.181,0.363-0.263c-0.033-0.177-0.128-0.384-0.092-0.565c0.04-0.199,0.198-0.376,0.225-0.421
	c0.019-0.563,0.16-1.034,0.016-1.389c-0.188-0.462,0.212-0.863-0.07-1.253c0.133-0.057,0.216-0.094,0.356-0.154
	c-0.356-0.322,0.117-0.973-0.554-1.104v-1.039c-0.178-0.118-0.352-0.234-0.523-0.349c0.045-0.069,0.096-0.147,0.195-0.299
	c-0.33-0.418-0.678-0.856-1.027-1.299c-0.111,0.066-0.187,0.111-0.246,0.146c-0.213-0.331-0.427-0.664-0.603-0.939
	c-0.372-0.097-0.757-0.096-0.99-0.283c-0.296-0.237-0.731-0.228-0.946-0.614c-0.084-0.153-0.361-0.213-0.561-0.282
	c-0.138-0.048-0.307-0.01-0.44-0.062c-0.47-0.182-0.838-0.651-1.426-0.494c-0.425-0.421-1.015-0.348-1.522-0.518
	c-0.309-0.103-0.574-0.336-0.923-0.549c-0.403,0.094-0.85-0.102-1.319-0.071c-0.107,0.008-0.229-0.196-0.366-0.321
	c-0.159,0.065-0.323,0.132-0.498,0.204c-0.087-0.129-0.167-0.249-0.246-0.366c-0.236,0.069-0.463,0.135-0.691,0.201
	c-0.102-0.156-0.183-0.279-0.285-0.434c-0.2,0.061-0.4,0.122-0.64,0.195c-0.443-0.135-0.896-0.395-1.444-0.367
	c-0.293,0.016-0.592-0.091-0.993-0.162c-0.069,0.03-0.233,0.103-0.41,0.181c-0.066-0.255-0.129-0.502-0.193-0.749
	c-0.032,0.001-0.064,0.002-0.096,0.003c-0.022,0.147-0.044,0.294-0.073,0.484c-0.551,0.256-1.163-0.309-1.716,0.13
	c-0.16-0.21-0.287-0.376-0.399-0.523c-0.432,0.152-0.893,0.314-1.424,0.5c0.075-0.216,0.12-0.344,0.168-0.481
	c-0.167-0.097-0.322-0.187-0.559-0.325c0.049,0.208,0.084,0.356,0.125,0.534c-0.061,0.053-0.15,0.133-0.254,0.225
	c-0.04-0.11-0.07-0.196-0.103-0.282c-0.674,0.01-1.311,0.399-2.03,0.255c0.062-0.114,0.104-0.191,0.15-0.276
	c-0.372-0.216-0.441,0.262-0.755,0.307c-0.063-0.037-0.167-0.097-0.317-0.183c-0.319,0.079-0.688,0.395-1.063,0.026
	c-0.213,0.113-0.426,0.226-0.675,0.358c-0.085-0.049-0.189-0.109-0.348-0.2c-0.249,0.049-0.554,0.396-0.868,0.032
	c-0.295,0.247-0.65,0.117-0.979,0.164c-0.295,0.042-0.582,0.14-0.878,0.176c-0.338,0.041-0.72-0.047-1.015,0.08
	c-0.355,0.155-0.635,0.149-0.93-0.027c-0.198,0.104-0.388,0.204-0.451,0.237c-1.347,0.169-2.574,0.263-3.776,0.492
	c-1.183,0.226-2.331,0.617-3.505,0.886c-1.18,0.27-2.336,0.596-3.501,1.044c0,0.61,0.001,1.203,0,1.797
	c-0.001,0.598,0.095,1.217-0.033,1.788c-0.118,0.522,0.326,1.073-0.13,1.545c0.36,0.263-0.001,0.6,0.091,0.893
	c0.084,0.264,0.071,0.576,0.041,0.809c-0.12,0.944,0.079,1.871,0.04,2.807c-0.04,0.976-0.036,1.953,0.01,2.928
	c0.011,0.238-0.289,0.404-0.077,0.667c0.2,0.247-0.104,0.456-0.113,0.679c-0.015,0.359-0.142,0.758,0.099,1.008
	c-0.07,0.754-0.135,1.445-0.21,2.238c0.146,0.409,0.355,0.918,0.11,1.51c-0.09,0.215-0.026,0.498-0.014,0.75
	c0.015,0.303,0.003,0.619,0.087,0.906c0.107,0.371,0.162,0.696-0.041,1.062c-0.08,0.146,0.02,0.392,0.04,0.619
	c-0.04,0.02-0.146,0.069-0.268,0.125c0.115,0.129,0.221,0.244,0.337,0.372c-0.043,0.069-0.087,0.141-0.146,0.235
	c0.131,0.121,0.27,0.249,0.452,0.418c0.42-0.104,0.875-0.218,1.406-0.349c0.095,0.041,0.259,0.111,0.465,0.202
	c0.06-0.105,0.115-0.202,0.191-0.337c1.015-0.132,2.022-0.45,3.009-0.82c1.019-0.382,2.018-0.818,3.012-1.261
	c0.969-0.431,1.83-1.063,2.801-1.502c0.967-0.436,1.585-1.392,2.538-1.828c0.127-0.17,0.247-0.332,0.365-0.489
	c0.092,0.065,0.144,0.101,0.133,0.094c0.404-0.405,0.799-0.802,1.209-1.213c0.049,0.101,0.099,0.2,0.14,0.285
	c0.416-0.167,0.828-0.337,1.244-0.496c0.072-0.028,1.397,0.347,1.462,0.419c0.14,0.157,0.257,0.335,0.382,0.502
	c0.122,0.018,0.244,0.033,0.365,0.057c0.02,0.002,0.033,0.036,0.033,0.036c-0.053,0.144-0.102,0.275-0.188,0.509
	c0.187-0.09,0.259-0.127,0.366-0.18c0.043,0.166,0.068,0.337,0.131,0.494c0.065,0.17,0.166,0.327,0.166,0.327
	c0.046,0.407,0.071,0.647,0.101,0.909c-0.151,0.121-0.333,0.264-0.529,0.418c0.146,0.072,0.255,0.125,0.425,0.209
	c-0.091,0.256-0.178,0.506-0.277,0.789c-0.114,0.017-0.233,0.033-0.429,0.062c-0.149,0.434-0.265,0.998-0.944,0.934
	c-0.122,0.244-0.23,0.461-0.34,0.68c-0.435,0.215-0.871,0.431-1.331,0.658c-0.204,0.293-0.423,0.607-0.654,0.938
	c-0.132-0.069-0.235-0.124-0.319-0.168c-0.482,0.951-1.683,1.003-2.257,1.866c-0.071-0.153-0.122-0.259-0.172-0.365
	c-0.049,0.03-0.1,0.06-0.148,0.09c-0.362,0.229-0.36,0.879-0.882,0.871c-0.433-0.006-0.681,0.352-1.089,0.39
	c-0.281,0.025-0.536,0.278-0.818,0.392c-0.391,0.156-0.795,0.275-1.31,0.449c0.016-0.031-0.038,0.077-0.097,0.197
	c-0.074-0.044-0.147-0.087-0.244-0.144c-0.308,0.232-0.628,0.473-0.997,0.75c-0.089-0.047-0.22-0.117-0.406-0.216
	c-0.832,0.658-1.848,0.802-3.049,0.982c-0.022,0.021-0.214,0.188-0.45,0.395c-0.053-0.229-0.092-0.396-0.141-0.607
	c-0.222,0.208-0.421,0.395-0.617,0.577c-0.362-0.265-0.755-0.062-1.028,0.035c-0.405,0.145-0.789,0.119-1.145,0.151
	c-0.195,0.101-0.357,0.186-0.481,0.25c0,0.355-0.012,0.693,0.004,1.03c0.013,0.32-0.132,0.624-0.07,0.948
	c0.069,0.357-0.144,0.759,0.156,1.062c-0.406,0.766,0,1.514,0.044,2.249c-0.13,0.089-0.237,0.163-0.356,0.245
	c0.114,0.05,0.196,0.087,0.345,0.152c-0.058,0.18-0.117,0.366-0.178,0.553c0.051,0.075,0.103,0.15,0.143,0.209
	c-0.104,0.199-0.201,0.391-0.307,0.593c0.096,0.049,0.199,0.102,0.34,0.174c-0.018,0.29-0.286,0.545-0.078,0.926
	c0.129,0.238-0.054,0.638,0.062,0.994c0.101,0.312,0.033,0.686,0.01,1.031c-0.008,0.109-0.111,0.213-0.151,0.285
	c0.05,0.325,0.236,0.747,0.111,0.887c-0.328,0.363,0.124,0.567,0.06,0.856c-0.071,0.321-0.078,0.655-0.171,0.982
	c0.135,0.494,0.344,0.99-0.021,1.482c0.184,0.376,0.289,0.745,0.094,1.15c-0.063,0.132-0.058,0.296-0.102,0.44
	c-0.1,0.322,0.158,0.625,0.049,0.942c-0.108,0.319-0.011,0.587,0.124,0.881c0.084,0.183,0.034,0.436,0.014,0.654
	c-0.026,0.302-0.181,0.631-0.101,0.896c0.096,0.321,0.018,0.599,0.012,0.898c-0.006,0.305,0.073,0.608,0.089,0.913
	c0.018,0.314,0.019,0.631,0,0.944c-0.017,0.272-0.089,0.543-0.101,0.815c-0.012,0.247,0.246,0.488,0.01,0.749
	c-0.032,0.035,0.013,0.146,0.032,0.219c0.256,0.944-0.053,1.824-0.358,2.687c-0.104,0.298-0.416,0.523-0.688,0.846
	c-0.322,0.162-0.731,0.367-1.149,0.578h-1.484c-0.778-0.252-1.349-0.766-1.891-1.409c-0.127-0.471-0.435-1.019-0.363-1.512
	c0.074-0.515-0.341-1.077,0.092-1.491c-0.049-0.374-0.217-0.751-0.11-1.02c0.233-0.588,0.127-1.117-0.008-1.683
	c-0.043-0.185,0.069-0.405,0.128-0.696c-0.03-0.104-0.197-0.416-0.125-0.488c0.27-0.269,0.1-0.585,0.078-0.81
	c-0.072-0.72,0.086-1.416,0.078-2.122c-0.005-0.392-0.152-0.779-0.168-1.171c-0.012-0.321,0.211-0.722,0.085-0.952
	c-0.203-0.37,0.062-0.582,0.084-0.864c0.02-0.276,0.058-0.603-0.064-0.823c-0.163-0.297,0.252-0.488,0.04-0.762
	c-0.082-0.106,0.105-1.328,0.167-1.528c-0.086-0.091-0.172-0.183-0.258-0.274c0.131-0.341,0.272-0.764,0.044-1.026
	c-0.293-0.335,0.356-0.658-0.081-0.908c0.268-0.303,0.016-0.615,0.025-0.924c0.01-0.291,0.12-0.579,0.128-0.87
	C56.882,89.023,56.833,88.662,56.806,88.25"/>
<path d="M49.044,21.985c0.542,0.183,0.969-0.409,1.487-0.245c0.082-0.146,0.142-0.25,0.209-0.372
	c0.058,0.117,0.108,0.222,0.152,0.312c0.315-0.141,0.63-0.281,1.006-0.449c0.012,0.007,0.082,0.047,0.218,0.124
	c0.215-0.096,0.478-0.214,0.734-0.329c0.057,0.045,0.105,0.084,0.156,0.123c0.14-0.122,0.278-0.244,0.388-0.339
	c0.277,0.044,0.512,0.081,0.731,0.116c0.219-0.129,0.444-0.263,0.709-0.421c0.095,0.194,0.146,0.299,0.229,0.472
	c0.137-0.168,0.254-0.312,0.383-0.47c0.352-0.038,0.745-0.081,1.155-0.126c0.148-0.284,0.302-0.58,0.488-0.938
	c-0.097-0.116-0.211-0.255-0.317-0.381c0.055-0.355,0.053-0.725,0.178-1.046c0.122-0.311-0.346-0.648,0.139-0.898
	c-0.149-0.076-0.248-0.127-0.372-0.19c0.053-0.373,0.124-0.752,0.158-1.135c0.038-0.425-0.087-0.871,0.234-1.291
	c-0.129-0.072-0.226-0.126-0.391-0.219c0.098-0.414,0.178-0.875,0.317-1.316c0.15-0.473-0.168-0.802-0.299-1.188
	c0.092-0.036,0.177-0.069,0.271-0.106c-0.098-0.395-0.194-0.792-0.291-1.189c0.585-0.593-0.423-1.316,0.154-1.903
	c-0.071-0.234-0.142-0.461-0.218-0.704c0.146-0.072,0.251-0.125,0.404-0.2c-0.539-0.558-0.172-1.27-0.308-1.961
	c0.112-0.184,0.498-0.34,0.241-0.76c-0.075,0.11-0.145,0.21-0.238,0.346c-0.222-0.616,0.389-1.041,0.302-1.594
	c-0.106-0.073-0.213-0.147-0.332-0.229c0.112-0.047,0.195-0.082,0.279-0.117c-0.257-0.661-0.111-1.303,0.115-1.989
	c0.286-0.269,0.607-0.571,0.964-0.906c0.309-0.127,0.673-0.276,1.104-0.453c0.277,0.066,0.679-0.156,0.996,0.162
	c0.077-0.055,0.156-0.159,0.229-0.155c0.449,0.022,0.914,0.162,1.341,0.084c0.467-0.086,0.923,0.018,1.351-0.041
	c0.616-0.085,1.157,0.18,1.755,0.16c0.78-0.026,1.561,0.162,2.338,0.302c0.703,0.127,1.414,0.255,2.126,0.353
	c0.283-0.304,0.353,0.481,0.646,0.127c0.964,0.211,1.949,0.324,2.886,0.67c0.223,0.082,0.493,0.037,0.737,0.05
	c0.123,0.108,0.24,0.212,0.407,0.359c0.585-0.081,1.172,0.127,1.691,0.436c0.425,0.252,0.925,0.153,1.351,0.469
	c0.363,0.267,0.914,0.27,1.371,0.422c0.28,0.094,0.537,0.338,0.812,0.351c0.354,0.017,0.573,0.18,0.813,0.382
	c0.113,0.096,0.267,0.185,0.408,0.197c0.895,0.078,1.581,0.599,2.312,1.035c0.201,0.12,0.443,0.171,0.698,0.264
	c0.035,0.258,0.067,0.496,0.107,0.792c0.14-0.204,0.247-0.358,0.393-0.571c1.288,0.904,2.778,1.464,3.923,2.631
	c0.031-0.012,0.114-0.044,0.278-0.106C88.446,8.921,89.3,8.885,89.46,9.67c0.142-0.056,0.253-0.099,0.409-0.161
	c-0.03,0,0.004-0.01,0.015,0.002c0.603,0.695,1.454,1.109,2.059,1.808c0.126,0.144,0.381,0.176,0.604,0.272
	c-0.035,0.073-0.07,0.144-0.093,0.191c0.267,0.171,0.55,0.321,0.797,0.518c0.457,0.367,0.894,0.764,1.342,1.145
	c0.417,0.354,0.687,0.855,1.156,1.155c0.127,0.082,0.26,0.156,0.39,0.234c0.028,0.146,0.057,0.292,0.088,0.448
	c0.149,0.017,0.271,0.031,0.396,0.045c0.034,0.041,0.076,0.085,0.108,0.135c0.224,0.352,0.468,0.665,0.797,0.951
	c0.873,0.76,1.611,1.653,2.234,2.637c0.202,0.32,0.435,0.621,0.675,0.96c0.023-0.034-0.012,0.017-0.09,0.129
	c0.309,0.157,0.362,0.515,0.679,0.743c0.372,0.268,0.461,0.823,0.795,1.195c0.276,0.309,0.405,0.744,0.626,1.107
	c0.22,0.36,0.102,0.873,0.524,1.136c-0.146,0.581,0.438,0.851,0.54,1.418c-0.013,0.033-0.06,0.162-0.106,0.29
	c0.103,0.044,0.186,0.081,0.229,0.1c0.139,0.425,0.269,0.826,0.398,1.227l0.093-0.019c-0.023,0.301-0.048,0.603-0.075,0.965
	c0.052,0.032,0.196,0.12,0.363,0.221c-0.104,1.118,0.633,2.207,0.042,3.356c0.123,0.241,0.248,0.484,0.342,0.666
	c-0.109,0.478-0.229,0.914-0.306,1.357c-0.066,0.392-0.088,0.793-0.139,1.282c-0.006,0.007-0.092,0.099-0.205,0.218
	c0.043,0.085,0.092,0.182,0.128,0.253c-0.285,0.75-0.562,1.481-0.841,2.213c0.039,0.023,0.078,0.047,0.117,0.07
	c-0.198,0.158-0.396,0.315-0.587,0.468c0.069,0.094,0.105,0.143,0.166,0.223c-0.208,0.29-0.41,0.587-0.873,0.603
	c0.086,0.037,0.172,0.074,0.291,0.125c-0.165,0.522-0.445,0.907-1.042,0.934c0.023,0.123,0.095,0.261,0.054,0.317
	c-0.293,0.398-0.514,0.873-1.033,1.053c-0.302,0.104-0.562,0.257-0.611,0.547c-0.448,0.039-0.885,0.149-1.301,0.096
	c-0.471-0.059-0.923-0.265-1.557-0.46c-0.262-0.326-0.724-0.74-0.966-1.256c-0.182-0.388-0.141-0.915-0.088-1.368
	c0.051-0.442,0.189-0.894,0.387-1.293c0.125-0.255,0.427-0.421,0.688-0.663c0.029-0.549,0.518-0.789,0.968-1.097
	c0.011-0.161,0.022-0.346,0.022-0.342c0.299-0.458,0.506-0.776,0.708-1.086c-0.362-0.59,0.14-1.031,0.236-1.515
	c-0.076-0.125-0.14-0.228-0.192-0.315c0.154-0.353,0.298-0.681,0.536-1.225c-0.293,0.136-0.377,0.175-0.536,0.249
	c0.299-0.991-0.267-1.884-0.19-2.835c-0.354-0.495-0.471-0.836-0.431-1.262c-0.084-0.035-0.168-0.07-0.251-0.105
	c-0.022-0.055-0.055-0.108-0.066-0.165c-0.037-0.178-0.031-0.375-0.105-0.535c-0.37-0.804-0.562-1.71-1.31-2.304
	c-0.076-0.06-0.057-0.229-0.108-0.335c-0.23-0.465-0.453-0.921-0.808-1.327c-0.479-0.547-0.85-1.19-1.236-1.749
	c0.051-0.133,0.082-0.216,0.166-0.438c-0.259,0.132-0.366,0.186-0.538,0.274c-0.094-0.188-0.196-0.392-0.358-0.717
	c-0.333-0.251-0.836-0.528-1.167-1.025c-0.159-0.238-0.351-0.455-0.595-0.651c-0.467-0.376-1.053-0.636-1.326-1.254
	c-0.088-0.198-0.436-0.281-0.726-0.452c-0.005-0.042-0.02-0.163-0.035-0.284c-0.251-0.145-0.559-0.243-0.751-0.449
	c-0.608-0.654-1.399-1.07-2.06-1.655c-0.229-0.202-0.516-0.343-0.727-0.56c-0.209-0.214-0.534-0.219-0.708-0.371
	c-0.701-0.623-1.586-0.974-2.273-1.605c-0.049,0.039-0.099,0.078-0.226,0.179c-0.109-0.255-0.21-0.487-0.311-0.719
	c-0.115,0.045-0.248,0.097-0.417,0.163c-0.275-0.17-0.637-0.286-0.819-0.534c-0.229-0.312-0.784-0.107-0.839-0.603
	c-0.417,0.249-0.548-0.105-0.802-0.335c-0.038,0.017-0.14,0.063-0.241,0.109c-0.056-0.02-0.117-0.032-0.168-0.061
	c-0.29-0.166-0.574-0.341-0.865-0.505c-0.869-0.491-1.827-0.768-2.752-1.121c-0.197-0.076-0.412-0.11-0.6-0.201
	c-0.928-0.448-1.964-0.556-2.914-0.933c-0.223-0.089-0.464-0.132-0.697-0.192c-0.607-0.156-1.217-0.31-1.804-0.46
	c-0.042-0.107-0.074-0.193-0.108-0.281c-0.089,0.06-0.167,0.112-0.132,0.089c-0.687-0.053-1.267-0.097-1.981-0.152
	c-0.12-0.063-0.363-0.19-0.652-0.342c-0.074,0.047-0.188,0.18-0.273,0.163c-0.408-0.081-0.811-0.202-1.283-0.328
	c-0.048,0.028-0.15,0.09-0.229,0.137c-0.672-0.106-1.327-0.209-2.07-0.325c-0.057,0.049-0.171,0.148-0.23,0.2
	c-0.089,0.456-0.165,0.842-0.254,1.297c0.046,0.102,0.121,0.267,0.219,0.485c-0.456,0.449-0.157,0.956-0.026,1.44
	c0.13,0.481-0.483,0.923-0.063,1.372c-0.096,0.269-0.188,0.524-0.283,0.794c0.084,0.092,0.19,0.207,0.296,0.323
	c-0.051,0.104-0.101,0.207-0.148,0.305c0.067,0.149,0.131,0.284,0.197,0.43c-0.123,0.149-0.241,0.292-0.364,0.44
	c0.108,0.055,0.214,0.109,0.342,0.174c-0.112,0.059-0.212,0.111-0.307,0.161c0.074,0.548,0.291,1.125,0.183,1.633
	c-0.116,0.543,0.071,1.043-0.021,1.576c-0.097,0.559-0.118,1.173,0.086,1.794c-0.144,0.282-0.323,0.633-0.526,1.028
	c0.14,0.086,0.26,0.161,0.395,0.244v1.46c-0.109,0.146-0.254,0.337-0.521,0.692c0.272-0.068,0.357-0.089,0.461-0.115
	c0.066,0.122,0.15,0.273,0.285,0.516c-0.222-0.058-0.378-0.1-0.53-0.14c-0.013,0.042-0.062,0.116-0.042,0.153
	c0.112,0.213,0.242,0.416,0.362,0.624c0.013,0.023-0.002,0.062-0.004,0.094c-0.129,0.156-0.258,0.312-0.386,0.468
	c0.026,0.025,0.052,0.05,0.079,0.075c0.074-0.038,0.148-0.077,0.271-0.139c0.017,0.155,0.03,0.296,0.047,0.444
	c-0.12,0.064-0.227,0.12-0.341,0.181c0.164,0.115,0.325,0.228,0.47,0.329c-0.094,0.371-0.181,0.712-0.294,1.161
	c0.119,0.251,0.338,0.621,0.02,0.96c0.048,0.392,0.232,0.816,0.103,1.092c-0.177,0.376,0.107,0.624,0.056,0.948
	c-0.055,0.348,0.038,0.72,0.067,1.088c-0.02,0.402-0.147,0.854-0.038,1.237c0.272,0.961,0.131,1.915,0.079,2.869
	c-0.018,0.326,0.109,0.616,0.073,0.945c-0.127,1.175,0.185,2.371-0.163,3.539c0.354,0.551,0.091,1.152,0.103,1.723
	c0.007,0.395-0.229,0.796-0.362,1.212c-0.109-0.061-0.186-0.102-0.338-0.186c0.033,0.182,0.058,0.314,0.098,0.539
	c0.018-0.051,0.015,0.007-0.016,0.043c-0.617,0.745-1.685,1.222-2.649,1.138c-0.631-0.26-1.134-0.468-1.611-0.665
	c-0.248-0.396-0.509-0.742-0.692-1.125c-0.196-0.412-0.383-0.837-0.271-1.337c0.04-0.178-0.149-0.398-0.142-0.595
	c0.021-0.519-0.13-1.05,0.16-1.557c0.096-0.167-0.048-0.461,0.034-0.646c0.128-0.289-0.263-0.457-0.083-0.772
	c0.124-0.217,0.092-0.551,0.056-0.823c-0.032-0.257,0.25-0.464,0.068-0.743c-0.054-0.083,0.072-0.266,0.059-0.398
	c-0.03-0.297-0.098-0.591-0.145-0.857c0.175-0.095,0.281-0.152,0.4-0.217c-0.117-0.064-0.223-0.121-0.377-0.204
	c0.037-0.18,0.077-0.377,0.127-0.614c-0.043-0.044-0.129-0.135-0.218-0.228c-0.009-0.046-0.039-0.101-0.025-0.143
	c0.221-0.736,0.221-0.854,0.156-1.455c-0.045-0.418,0.022-0.823,0.302-1.165c-0.108-0.053-0.217-0.105-0.348-0.169
	c0.119-0.375,0.327-0.709,0.066-1.138c-0.123-0.204,0.029-0.575,0.057-0.879c-0.126-0.194-0.275-0.428-0.46-0.711
	c-0.304,0.177-0.676,0.326-0.989-0.034c-0.213,0.173-0.375,0.306-0.586,0.478c-0.088-0.156-0.143-0.252-0.208-0.367
	c-0.021,0.003-0.079-0.009-0.104,0.014c-0.164,0.158-0.322,0.322-0.469,0.472c-0.555-0.429-0.94,0.102-1.394,0.138
	c-0.046-0.095-0.096-0.198-0.17-0.351c-0.058,0.224-0.103,0.396-0.158,0.608c-0.074-0.143-0.13-0.246-0.186-0.354
	c-0.115,0.166-0.23,0.331-0.359,0.517c-0.158-0.125-0.295-0.234-0.433-0.343c-0.054,0.112-0.106,0.22-0.167,0.348
	c-0.065-0.122-0.119-0.226-0.214-0.404c-0.041,0.195-0.069,0.326-0.104,0.485c-0.411,0.456-1.138,0.29-1.607,0.816
	c-0.399,0.447-1.275,0.162-1.662,0.841c-0.083-0.177-0.132-0.281-0.202-0.429c-0.125,0.178-0.229,0.325-0.382,0.541
	c-0.272,0.136-0.626,0.312-0.993,0.495c0.038,0.07,0.079,0.146,0.128,0.238c-1.063,0.313-1.777,1.177-2.665,1.77
	c-0.562,0.376-1.028,0.949-1.514,1.456c-0.479,0.501-1.038,0.936-1.455,1.481c-1.007,1.319-1.999,2.646-2.869,4.07
	c-1.004,1.645-1.748,3.379-2.295,5.212c-0.277,0.925-0.655,1.823-0.713,2.806c-0.012,0.201-0.146,0.394-0.229,0.605
	c-0.828,0.389-1.691,0.246-2.55,0.169c-0.146-0.013-0.287-0.103-0.435-0.117c-0.794-0.077-1.59-0.141-2.393-0.21
	c0.056-0.187,0.1-0.339,0.168-0.575c-0.179,0.1-0.255,0.143-0.38,0.212c0-0.172-0.058-0.359,0.011-0.46
	c0.185-0.271,0.231-0.505-0.002-0.746c0.158-0.393,0.315-0.783,0.474-1.175c-0.366-0.183,0.174-0.536-0.091-0.759
	c0.56-0.682,0.475-1.612,0.901-2.346c-0.155-0.511,0.432-0.768,0.416-1.282c-0.011-0.387,0.27-0.79,0.449-1.172
	c0.196-0.412,0.428-0.806,0.64-1.211c0.194-0.37,0.419-0.73,0.566-1.119c0.153-0.405,0.35-0.748,0.732-0.96
	c-0.043-0.074-0.084-0.148-0.098-0.171c0.429-0.604,0.833-1.173,1.234-1.738c-0.047-0.065-0.083-0.116-0.12-0.168
	c0.548-0.444,1.038-0.924,1.364-1.575c0.304-0.611,1.075-0.879,1.376-1.715c0.476-0.415,1.258-0.738,1.636-1.503
	c0.6-0.282,0.75-1.123,1.53-1.212c0.147-0.017,0.265-0.304,0.401-0.473c0.039,0.023,0.114,0.068,0.22,0.131
	c0.338-0.618,0.729-1.17,1.49-1.142c0.061-0.146,0.095-0.23,0.135-0.326c0.074,0.043,0.147,0.086,0.245,0.143
	c0.1-0.142,0.203-0.29,0.354-0.506c0.404-0.248,0.971-0.422,1.31-0.973c0.056,0.109,0.102,0.201,0.133,0.263h0.5
	c0.015-0.082,0.043-0.23,0.079-0.432c0.22-0.026,0.455-0.054,0.703-0.083c-0.062-0.111-0.104-0.187-0.169-0.303h0.46
	c0.578-0.357,1.058-0.653,1.528-0.943c0.072,0.057,0.122,0.097,0.166,0.131c0.165-0.13,0.329-0.259,0.521-0.412
	c0.087,0.166,0.14,0.269,0.225,0.432C48.54,22.555,48.798,22.264,49.044,21.985"/>
<path d="M74.249,24.006h0.745c-0.048,0.111-0.074,0.176-0.132,0.309c0.216,0.037,0.428,0.073,0.651,0.111
	c0.009,0.416,0.404,0.272,0.609,0.407c-0.045,0.078-0.088,0.154-0.19,0.337c0.222-0.068,0.354-0.108,0.5-0.152
	c0.442,0.443,1.163,0.594,1.493,1.222c0.075-0.042,0.15-0.084,0.294-0.163c0.412,1.048,1.413,1.441,2.337,1.929
	c-0.093,0.203-0.142,0.312-0.217,0.478c0.193,0.026,0.385,0.051,0.572,0.076c0.2,0.241,0.404,0.485,0.603,0.723
	c0.112-0.078,0.164-0.115,0.208-0.146c0.18,0.277,0.359,0.553,0.558,0.86c0.045-0.022,0.116-0.055,0.187-0.088
	c0.023,0.155-0.045,0.286-0.277,0.424c0.543,0.189,0.757,0.576,0.76,1.114c-0.102,0.054-0.205,0.109-0.383,0.203
	c0.127,0.062,0.211,0.103,0.355,0.173c0,0.171,0.045,0.392-0.014,0.583c-0.059,0.195-0.325,0.367-0.312,0.535
	c0.024,0.313-0.298,0.25-0.355,0.434c0.036,0.056,0.071,0.108,0.135,0.205c-0.235,0.066-0.454,0.127-0.725,0.203
	c-0.011,0.057-0.04,0.204-0.075,0.384c-0.211,0.02-0.421,0.041-0.615,0.06c-0.131,0.119-0.247,0.224-0.277,0.251h-0.737
	c-0.172-0.065-0.442-0.203-0.729-0.27c-0.758-0.178-0.846-0.228-1.258-0.926c-0.054,0.034-0.106,0.068-0.19,0.122
	c-0.097-0.221-0.194-0.444-0.295-0.675c-0.139,0.04-0.236,0.067-0.363,0.103c-0.086-0.155-0.151-0.332-0.268-0.467
	c-0.14-0.162-0.323-0.286-0.483-0.431c-0.115-0.104-0.225-0.216-0.336-0.323c-0.056,0.036-0.108,0.071-0.162,0.105
	c-0.37-0.612-0.37-0.612-1.007-0.822c-0.014-0.117-0.029-0.238-0.05-0.418c-0.074,0.021-0.138,0.039-0.222,0.062
	c-0.262-0.125-0.544-0.262-0.852-0.411c-0.023-0.116-0.053-0.263-0.087-0.434c-0.09,0.052-0.162,0.094-0.291,0.169
	c-0.14-0.18-0.294-0.379-0.323-0.417c-0.438-0.16-0.705-0.224-0.937-0.351c-0.268-0.146-0.487-0.378-0.756-0.518
	c-0.271-0.141-0.574-0.215-0.863-0.32c-0.262-0.096-0.536-0.171-0.782-0.299c-0.243-0.127-0.457-0.308-0.677-0.461
	c-0.02,0.045-0.056,0.127-0.089,0.2c-0.217-0.159-0.431-0.325-0.655-0.477c-0.279-0.19-0.266-0.184-0.267-0.677
	c-0.001-0.169-0.103-0.338-0.162-0.524c0.112-0.136,0.23-0.278,0.386-0.464c-0.179-0.024-0.325-0.043-0.474-0.063
	c0.059-0.615,0.118-1.227,0.177-1.839c0.021,0.004,0.043,0.009,0.065,0.013c-0.046-0.232-0.18-0.495-0.111-0.687
	c0.076-0.219,0.192-0.378-0.025-0.587c0.106-0.055,0.204-0.105,0.313-0.161c-0.123-0.098-0.242-0.193-0.361-0.288
	c0.016-0.045,0.032-0.089,0.049-0.133c0.079,0.012,0.159,0.024,0.297,0.044c0.108-0.083,0.271-0.209,0.458-0.354
	c0.29,0.132,0.565,0.256,0.842,0.381c0.083-0.046,0.187-0.105,0.339-0.19c0.065,0.14,0.113,0.242,0.188,0.401h0.752
	c0.093,0.161,0.152,0.265,0.218,0.378c0.338-0.098,0.667-0.061,0.995,0.101c0.027,0.14,0.057,0.287,0.089,0.451
	c0.117-0.053,0.22-0.098,0.321-0.143C73.012,23.168,73.687,23.423,74.249,24.006"/>
</svg>
