<svg version="1.1" id="hbc-stripes-logo" xmlns="http://www.w3.org/2000/svg" xmlns:xlink="http://www.w3.org/1999/xlink" viewBox="0 0 30 30" xml:space="preserve">
<path id="hbc-blue" class="st0" d="M97.2,85.2c-0.5,0.1-1,0.2-1.5,0.2c-1,0.1-2.1,0-3.1-0.2c-1.1,0.7-2.3-0.1-3.4,0.2
	c-0.9-0.1-1.7-0.2-2.6-0.1c-0.8-0.1-1.7,0.2-2.5,0.1c-0.8-0.1-1.7-0.1-2.6,0c-0.9,0-1.8,0-2.7,0c-0.5,0-0.8-0.2-1.3-0.1
	c-0.8,0.1-1.5,0.2-2.3,0.1c-1.4-0.1-2.7-0.1-4.1,0c-0.2,0.1-0.6-0.2-0.7-0.1c-0.5,0.1-0.9,0.1-1.4,0.1c-0.8,0.1-1.6,0-2.4-0.2
	c-0.1,0-0.1,0-0.2,0c-0.6,0.5-1.1,0.1-1.7,0c-0.6,0.1-1,0.1-1.6,0.1h-1.4H60c-0.1,0-0.2,0.1-0.3,0.1c-1.1-0.1-2.2-0.1-3.3,0
	c-0.1,0-0.2-0.1-0.3-0.1c-0.3,0-0.7,0-1,0h-3.3c-0.3,0-0.8,0-1.3,0.1c-0.6,0.1-1.1,0.1-1.6,0c-1.5,0.2-3.1-0.3-4.6,0.2L44,85.3h-0.7
	L43,85.7c-0.8-0.2-1.6-0.3-2.4-0.2c-0.8,0-1.6,0.1-2.3,0c-0.8,0-1.6-0.1-2.4-0.2l-0.2,0.3l-1-0.5c-0.3,0.1-0.8,0.2-1.3,0.2
	c-1-0.1-2.1-0.1-3.1,0c-0.6,0-1.1,0-1.6-0.1c-0.5-0.1-1-0.2-1.6-0.1c-0.5,0.1-1,0.1-1.6,0.1c-0.9-0.1-1.7-0.1-2.6-0.1
	c-0.9,0.1-1.7,0.1-2.6,0.1c-0.9,0-1.8,0.3-2.7-0.1c-0.3,0.2-0.7-0.1-0.9,0c-0.9,0.6-1.9-0.3-2.9,0.2c-0.3-0.6-0.6,0.3-1.1-0.1
	c-0.6-0.5-0.9,0.1-1.4,0.1l-1-0.1c-0.1-0.1-0.3-0.1-0.5-0.1c-0.8,0.2-1.7,0.2-2.5,0.1c-1.7-0.1-3.4,0.1-5.3,0.1
	c-0.1,0.5-0.6,0.7-0.2,1.3c-0.3,0.7,0,1.3,0,1.9c-0.1,0.8-0.1,1.6-0.1,2.4c0,0.6,0,1.3,0,1.9c0,0.7,0,1.4,0,2.1
	c-0.1,0.6-0.1,1.3-0.1,1.8c0.1,0.6,0.2,1.1,0.2,1.7c-0.1,0.2-0.1,0.3-0.2,0.6L2,99.6c1,0.1,2.2,0.2,3.3,0.1h3.2c1,0.1,2.2,0.1,3.3,0
	c1-0.1,2.1,0.3,3.1-0.1c0.7,0.2,1.5,0.3,2.2,0.1c0.7-0.1,1.4,0.1,2.1,0c0.6-0.1,1.3-0.2,1.8-0.1c0.7,0,1.5,0.1,2.2,0.1
	c0.7,0.1,1.5,0,2.2,0l2.2-0.1c0.6,0.5,1.4-0.1,2.1,0.1c0.7,0.1,1.5,0.1,2.2,0c0.8,0.1,1.6,0.1,2.4,0c0.7-0.2,1.5,0.2,2.2-0.1
	l0.2-0.3l0.2,0.5c0,0,0.1,0,0.2,0c0.6-0.2,1-0.2,1.6-0.1c0.5,0.1,1-0.2,1.6,0c0.9,0,1.7,0,2.6,0c0.2,0,0.5,0,0.7,0
	c0.1-0.1,0.2-0.1,0.3-0.2c0.8,0.2,1.6,0.3,2.5,0.1c0.8,0,1.5,0.1,2.3,0c0.8-0.1,1.5-0.1,2.3-0.1c0.8,0,1.5,0.5,2.1,0
	c1.1,0.1,2.4,0.1,3.7,0.1c1.1,0.1,2.4-0.1,3.5,0l0.2-0.3l0.6,0.5c0.9,0.1,1.7-0.1,2.6,0c0.9,0.1,1.8,0.1,2.7,0
	c0.9,0.1,1.7,0.1,2.6,0l0.1-0.3l0.6,0.6c0.9,0,1.7,0,2.6,0c0.9,0.1,1.6-0.2,2.5-0.1c0.9,0.1,1.7,0.1,2.6,0.1
	c0.9-0.1,1.6-0.1,2.5-0.1c0.9,0,1.6,0,2.5,0c0.9,0,1.7,0,2.6,0h13.2l0.6-0.6c0.2-5.1,0.1-12.7-0.2-13.6L97.2,85.2z"/>
<path id="hbc-green" class="st1" d="M1.8,6.2C1.7,7.4,1.7,8.4,1.7,9.5c0.1,0.9-0.1,1.8,0,2.7c0,1,0.1,2.1,0.3,3.1l0.6-0.1l0.7,0.3
	l1.1-0.3c0.3,0.5,0.9,0.2,1.6,0.2c0.7,0.1,1.4-0.2,2.1,0.1c0.8-0.3,1.8-0.3,2.7-0.2c0.6,0.1,1.3,0.1,1.8,0.1c1.9-0.3,3.9,0,5.8-0.1
	c0.6,0,1.3,0,1.9,0c0.8,0,1.7,0,2.5,0.1c0.1,0,0.1-0.1,0.2-0.1c1.3,0,2.5,0.1,3.8,0c0.5,0,1.1-0.2,1.6,0.2c0,0,0,0,0.1,0
	c0.1,0,0.2-0.1,0.3-0.1c0.7,0,1.5,0,2.2,0c2.1,0.1,4.1-0.2,6.2,0.2h0.1c0.1-0.1,0.3-0.2,0.5-0.2c1.3,0.1,2.5-0.1,3.8,0
	c0.5,0.1,1,0.1,1.6,0.1c0.3-0.1,0.7-0.2,0.9-0.5l0.9,0.6c0.7-0.2,1.5-0.3,2.2-0.2c0.8,0.1,1.5,0,2.3,0l2.5,0.1c0,0,0.1-0.1,0.3-0.1
	c0.8,0,1.7,0,2.5,0c0.9-0.1,1.7,0,2.6,0c1.6-0.2,3.2-0.1,4.8,0.1c0.7-0.5,1.3,0,2.1-0.1s1.5-0.1,2.3-0.1c0.2,0,0.3,0,0.6-0.1
	c0.3,0.1,0.9,0.5,1.3,0.3c0.6-0.1,1-0.1,1.6,0c0.6,0,1.1,0,1.7-0.1c0.3,0,0.8,0,1.3,0.1l1.1-0.3l0.3,0.2c0.7,0,1.3,0,1.8,0
	s1.1-0.1,1.7-0.1c0.6,0.1,1,0.1,1.6,0.1c0.5-0.2,1-0.2,1.6,0c0.6,0.3,1-0.2,1.6-0.1c0.2,0,0.3,0.1,0.6,0.2c0.8-0.6,1.5,0,2.2-0.1
	c0.8-0.1,1.6-0.1,2.4,0c0.6,0.1,1.4-0.3,2.1,0l0.5-0.5l1.5,0.5l2.5-0.3l0.5,0.2c1.3,0.1,2.4,0,3.7-0.1c0.1-0.5,0.2-0.9,0.2-1.4
	c0-4.1,0-8.1,0-12.2c-0.1-0.1-0.1-0.1-0.1-0.2L98,1.1c-0.2,0.1-0.5,0.3-0.7,0.2c-0.8-0.1-1.6-0.2-2.4-0.1c-0.8-0.1-1.5,0-2.2-0.1
	c-0.8,0-1.6,0-2.4,0c-0.6-0.1-1.3-0.1-1.8,0c-0.9-0.1-1.8-0.1-2.7,0c-1.1,0.1-2.2-0.2-3.3,0.2c-0.1,0-0.2-0.1-0.3-0.1
	c-0.9,0.1-1.9-0.3-2.7,0.1c-0.9-0.2-1.8-0.2-2.6,0.2c-0.6-0.5-1.4-0.6-2.1-0.2c-0.6,0.2-1.1,0.2-1.7,0c-0.6,0-1.1-0.1-1.7-0.1
	c-0.6-0.1-1.1,0.1-1.7,0s-1.1,0.5-1.7,0c-0.9,0.5-1.8,0-2.7,0c-0.6,0-1.1,0.1-1.7,0.1c-0.6-0.3-1.3-0.2-1.8-0.1c-0.6,0.1-1,0-1.7,0
	s-1.3,0.1-2.2,0.1c-0.9-0.2-1.7-0.2-2.6,0.1c-0.5-0.1-0.8-0.3-1.1-0.2c-1,0.3-2.2-0.1-3.1,0.2c-0.6-0.3-1.3-0.1-1.8-0.1
	s-1.3,0-1.9,0c-1.6,0-3.1-0.1-4.6-0.1c-0.5,0.1-0.9,0.1-1.4,0.2V1.3l-1.3-0.1l-0.3,0.5l-0.3-0.5c-0.9,0.3-1.9-0.5-2.9,0.1
	c-0.9-0.3-1.9,0.1-2.9-0.1c-0.9-0.1-1.9-0.1-3.1-0.1L31,1.8h-0.9V1.3c-0.1-0.1-0.3-0.2-0.6-0.2c-0.7,0-1.6,0.1-2.3,0.1
	c-0.7,0-1.5-0.3-2.2,0.1c0,0.1-0.2,0-0.3,0c-2.1-0.5-4.1,0-6.2-0.2l-0.2,0.5c-0.1,0-0.3-0.1-0.5-0.2c-0.5-0.2-1.1,0.1-1.6,0
	c-1-0.1-2.2-0.2-3.2-0.1c-0.3,0.1-0.6,0.1-0.8,0.2c-0.3-0.1-0.7-0.2-1-0.2c-0.7,0.1-1.4,0.1-2.1,0.1C7.3,1.2,5.3,1.1,3.4,1.2
	C2.8,1.1,2.3,1.3,1.9,1.7C1.8,2.1,1.6,2.7,1.8,3c0.1,0.3,0.1,0.8,0,1.1C1.6,4.9,1.6,5.5,1.8,6.2z"/>
<path id="hbc-yellow" class="st2" d="M1.9,66.3c-0.1,1-0.1,1.9,0,3c-0.1,0.7,0,1.4,0.6,1.8c1,0.5,2.1-0.2,3.1,0.2
	c1-0.3,2.1,0.1,3.1-0.1c0.3-0.1,0.7,0.1,1,0c0.3-0.1,0.7,0.3,1.1,0.1c0.3-0.2,0.7-0.1,1,0c0.3,0.1,0.8,0,1.1,0
	c1,0.1,2.1-0.2,3.1-0.1c0.5,0,0.8,0.1,1.3,0.1c0.7,0,1.4,0,2.1,0c1-0.1,2.2,0,3.2,0.2h0.1c0.5-0.2,1-0.3,1.6-0.2
	c0.5,0.1,1-0.1,1.6,0c1.1,0.2,2.3-0.3,3.4,0.2c0.7-0.5,1.5-0.1,2.2-0.1c0.7,0,1.3-0.1,2.2-0.1c0.9,0,1.7,0.1,2.6,0.1
	c0.6,0,1.1,0,1.7-0.1c0.6-0.1,1.1,0.1,1.7,0c0.2,0,0.7,0.1,0.9,0c0.2-0.1,0.6,0.2,0.8,0.1c0.2-0.1,0.7-0.1,1-0.1l0.9-0.1l0.2,0.2
	c0.8-0.2,1.7-0.3,2.5-0.1c0.8,0,1.6-0.5,2.3,0.1c0.8-0.3,1.7-0.3,2.5,0c0.6-0.2,1.1-0.2,1.7,0.1c1.5-0.6,3,0.1,4.3-0.1
	c1.5-0.1,3.1-0.1,4.6,0l1.4-0.2l-0.6-0.6h0.9l0.7,0.7c0.8,0.1,1.6,0.1,2.4,0.1c0.7,0,1.4,0,2.1,0s1.5-0.1,2.1-0.1s1.1,0,1.7,0
	c0.8-0.1,1.7-0.1,2.5,0.1c0.7-0.2,1.4-0.2,2.1,0l1.3-0.3c0.8,0.6,1.6,0,2.5,0.2c0.9,0,1.7,0,2.5,0c0.9,0.1,1.7,0.1,2.7,0.1l0.3-0.2
	c0.8,0.1,1.7,0.2,2.6,0.2c0.9-0.1,1.9,0,2.9,0.1c1.1-0.5,2.4,0,3.9,0.1c0.9-0.1,1.7,0,2.6,0.1l0.8-0.5c0.1-1,0.1-1.8,0.1-2.7
	c0-0.9,0-1.7,0-2.6c0-0.9-0.1-1.7,0-2.6c0.1-0.9,0-1.7,0-2.6v-2.7l-0.6-0.6h-1.8c-1,0-2.1,0-3.1,0c-1.1,0.1-2.4,0.1-3.5,0
	c-0.5-0.1-0.9-0.1-1.4,0c-0.2,0-0.3,0-0.6,0c-0.8-0.1-1.6,0-2.4-0.1c-0.3,0.5-0.7,0.1-1,0.1c-0.3,0-0.9-0.2-1-0.1
	c-0.3,0.5-0.8,0-1,0.1c-0.2,0.1-0.6-0.2-0.9-0.1c-0.6,0.1-1,0.1-1.6,0c-0.7,0-1.4,0-1.9,0.1c-0.7-0.1-1.3-0.1-1.9-0.1
	c-0.3,0-0.6,0-0.9,0c-0.9,0-1.9,0-2.9,0c-0.5,0-0.9,0.1-1.4,0.1s-1,0-1.5-0.1l-0.6,0.5l-0.6-0.5c-0.6,0.6-1.3-0.2-1.8,0.1
	s-0.8,1-1.6,0.9l-0.2-0.7c-1.1-0.1-2.2-0.7-3.4-0.1c-0.3,0.1-0.7,0.1-1,0c-0.7-0.1-1.3-0.1-1.9-0.1c-0.6,0-1.1,0-1.7,0v0.5
	c-0.2-0.1-0.6,0-0.6-0.1c-0.2-0.6-0.8-0.5-1.1-0.5c-0.6-0.1-1.1,0-1.7,0.2c-0.5-0.3-1.1-0.5-1.7-0.2c-0.6,0.1-0.9,0-1.5,0
	s-1,0-1.5,0c-0.8-0.1-1.5-0.1-2.3,0c-0.5,0.2-1-0.2-1.5,0.1c-0.5-0.5-1.1,0.3-1.6-0.1c-1,0.2-2.1-0.3-3,0.2c-0.1,0-0.2,0-0.3,0
	c-0.6-0.2-1.1-0.3-1.8-0.2c-0.6,0.1-1.3,0-1.8,0c-1.4,0.2-2.6,0.2-3.9,0c-0.6-0.1-1.1,0-1.7,0c-0.6-0.1-1.1-0.1-1.7,0
	c-1.4,0.2-2.7-0.3-4.1,0.1c-1.5-0.2-3.1-0.3-4.6-0.2c-1.1-0.1-2.3,0-3.3,0l-1.7,0.1c-1.3,0-2.5-0.1-3.8-0.1c-0.2,0-0.5,0.1-0.7,0.2
	C8.6,57,6.5,57,4.4,57.3l-1.7-0.1l-1,0.8c-0.1,0.6-0.1,1-0.1,1.6c0,1.5,0,2.9,0.5,4.1C2.1,64.6,2.1,65.5,1.9,66.3z"/>
<path id="hbc-red" class="st3" d="M1.8,32.3c-0.1,0.6,0,1.3,0.3,1.7c-0.5,0.7-0.8,1.4-0.3,1.8c-0.1,0.5-0.1,1-0.1,1.5
	c0.1,0.3,0.1,0.8,0,1.1c0,0.3,0.2,0.7,0,1.1s0.6,0.8,0,1.1c0.3,0.9,0,1.8,0.3,2.7h5.6c0.9,0,1.9,0,2.9,0c0.9,0,1.8,0,2.7,0
	c0.9,0,1.9,0,2.9,0h22.8c0.9,0,1.9,0.1,2.9,0c0.9-0.1,1.7-0.5,2.7-0.5s1.9,0.1,2.9,0.1c0.9,0,1.8,0,2.9,0s2.1,0,3,0
	c0.9,0,1.8-0.1,2.7,0c0.9,0.1,1.9,0,2.9,0h2.9c0.9,0,1.9-0.1,2.9,0c0.9,0.1,1.8-0.1,2.7,0c0.9,0,1.9,0,2.9,0h19.6
	c0.9,0,1.9,0.1,2.9,0c0.9-0.1,1.8,0,2.7,0c0.9,0,1.9,0,3,0c0.1-0.8,0.2-1.5,0.2-2.3c0-2.3,0-4.5,0-6.7c0-0.6-0.1-1-0.1-1.5
	c0.1-1.1,0.1-2.2,0-3.3c-0.8-0.3-1.8-0.5-2.7-0.2c-0.3,0.1-0.6,0.1-0.9,0.1c-0.6-0.1-1-0.1-1.6,0c-0.5,0-0.9-0.2-1.5-0.1
	c-0.6,0.1-1.1-0.1-1.7-0.1c-1,0-2.2-0.1-3.1,0c-0.9,0.1-1.9,0.1-2.9,0.1c-1.5,0-3.1-0.1-4.7-0.1c-0.9,0.1-1.9,0.1-2.9,0
	c-0.7,0.5-1.4-0.2-1.9,0.2c-0.3-0.6-1-0.1-1.5-0.1c-0.6,0-1,0-1.6,0c-0.8,0.1-1.7,0.1-2.5,0c-0.6,0-1,0.1-1.7,0.1
	c-0.3-0.2-1-0.1-1.6-0.1c-0.2,0-0.6,0.2-0.8,0.2c-0.7-0.1-1.5-0.2-2.3-0.2c-0.9,0-1.8,0-2.7,0c-1-0.1-1.9,0-2.9,0.2
	c-0.7-0.2-1.5-0.3-2.2-0.1c-0.7,0.1-1.4-0.2-2.1,0.2c-0.1,0-0.2,0-0.3,0c-0.8-0.1-1.7-0.2-2.5-0.2c-1.8-0.1-3.5,0.1-5.3,0
	c-0.9-0.1-1.9,0-3,0c-0.2,0-0.5,0-0.7,0.1c-0.9-0.1-1.8-0.2-2.7-0.1c-1,0-2.1,0.1-2.9,0.1c-0.8,0-1.6,0-2.4,0
	c-0.9-0.1-1.8-0.1-2.7-0.1c-0.9,0.1-1.7-0.1-2.6,0c-0.9,0-1.7,0-2.6,0.1c-0.6,0-1,0-1.5,0c-0.7,0.1-1.3,0.2-1.9,0.1
	c-0.6-0.2-1.1-0.2-1.7-0.2c-1.1-0.1-2.4-0.1-3.5,0.1c-0.8-0.5-1.6-0.1-2.4-0.1c-0.8,0-1.6-0.1-2.4-0.1c-0.6,0-1.1,0-1.7,0H8.1
	c-0.6,0-1.1,0-1.7,0c-0.5,0-1,0.2-1.5,0.2c-0.9,0-1.7-0.1-2.6-0.2l-0.7,0.8L2,30.5C1.9,31.1,1.8,31.7,1.8,32.3z"/>
</svg>
