<?xml version="1.0" encoding="utf-8"?>
<!-- Generator: Adobe Illustrator 21.0.0, SVG Export Plug-In . SVG Version: 6.00 Build 0)  -->
<!DOCTYPE svg PUBLIC "-//W3C//DTD SVG 1.1//EN" "http://www.w3.org/Graphics/SVG/1.1/DTD/svg11.dtd">
<svg version="1.1" id="hbc-tech-logo-primary" xmlns="http://www.w3.org/2000/svg" xmlns:xlink="http://www.w3.org/1999/xlink"
	 x="0px" y="0px" viewBox="0 0 96.7 27.7" style="enable-background:new 0 0 96.7 27.7;" xml:space="preserve">
<g id="stripes">
	<path id="hbc-blue" d="M11.6,27.3C11.5,27.3,11.5,27.3,11.6,27.3c-0.2,0.1-0.2,0.1-0.3,0.1c-0.2,0-0.5,0.1-0.7,0
		c-0.2,0-0.3,0-0.4,0c-0.2-0.1-0.3,0-0.4,0c0,0,0,0-0.1,0c0,0,0-0.1-0.1-0.1c0,0,0,0.1-0.1,0.1c-0.2,0.1-0.4,0-0.6,0
		c-0.2,0.1-0.4,0-0.6,0c-0.2,0-0.4,0.1-0.6,0c-0.2-0.1-0.4,0.1-0.6,0c-0.2,0-0.4,0-0.6,0c-0.2,0-0.4,0-0.6,0c-0.2,0-0.4,0-0.6,0
		c-0.2,0-0.3,0-0.5,0c-0.2,0-0.4,0-0.6,0c-0.2,0-0.4,0.1-0.6,0c-0.3,0.1-0.6,0-0.9,0c-0.3,0-0.6,0-0.9,0c-0.3,0-0.6,0-0.9,0
		c-0.3,0-0.6,0-0.9,0c0,0-0.1-0.1-0.1-0.1c0-0.1,0.1-0.1,0.1-0.2c0-0.2,0-0.3,0-0.5c0-0.2,0-0.3,0-0.5c0-0.2,0-0.4,0-0.6
		c0-0.2,0-0.4,0-0.5c0-0.2,0-0.4,0-0.6c0-0.2-0.1-0.3,0-0.5c-0.1-0.1,0-0.2,0.1-0.4c0.5,0,1-0.1,1.4,0c0.2,0,0.5,0,0.7,0
		c0,0,0.1,0,0.1,0c0.1,0,0.2,0,0.3,0c0.1,0,0.2-0.1,0.4,0c0.1,0.1,0.2-0.1,0.3,0c0.2-0.1,0.5,0.1,0.8-0.1c0.1,0,0.2,0.1,0.2,0
		c0.2,0.1,0.5,0,0.8,0c0.2,0,0.5,0,0.7,0c0.2,0,0.5,0,0.7,0c0.2,0,0.3,0,0.5,0c0.2,0,0.3,0,0.4,0c0.1,0,0.3,0,0.4,0
		c0.3,0,0.6,0,0.9,0c0.1,0,0.3,0,0.4-0.1c0.1,0,0.2,0.1,0.3,0.1c0,0,0-0.1,0.1-0.1c0.2,0.1,0.4,0,0.6,0c0.2,0,0.4,0,0.6,0
		c0.2,0,0.4,0,0.7,0.1c0,0,0.1-0.1,0.1-0.1c0.1,0,0.1,0,0.2,0c0,0,0,0,0,0.1c0.4-0.1,0.8,0,1.3-0.1c0.1,0,0.3,0.1,0.4,0
		c0.1-0.1,0.2,0,0.4,0c0.3,0,0.6,0,0.9,0c0.1,0,0.2,0,0.3,0c0,0,0.1,0,0.1,0c0.3-0.1,0.6,0,0.9,0c0,0,0.1,0,0.1,0c0.2,0,0.3,0,0.5,0
		c0.1,0,0.3,0,0.4,0c0.1,0,0.3,0,0.4,0c0.2,0,0.3,0.1,0.5,0c0,0,0,0,0.1,0c0.2,0.1,0.4,0.1,0.7,0.1c0.1,0,0.2,0,0.4,0
		c0,0,0.1,0,0.2,0c0.4-0.1,0.8,0,1.1,0c0.2,0,0.4,0,0.6,0c0.1,0,0.2,0,0.3,0c0.2,0,0.5,0,0.7,0c0.2,0,0.5,0,0.7,0
		c0.2,0,0.5-0.1,0.7,0c0.2,0,0.5-0.1,0.7,0c0.3-0.1,0.6,0.1,0.9-0.1c0.3,0.1,0.6,0,0.8,0.1c0.1,0,0.2,0,0.4-0.1
		c0.1,0,0.2,0.1,0.4,0.1c0.1,0.3,0.1,2.3,0.1,3.7c0,0-0.1,0.1-0.2,0.2c-0.3,0-0.5,0-0.7,0c-0.2,0-0.5,0-0.7,0c-0.2,0-0.5,0-0.7,0
		c-0.2,0-0.5,0-0.7,0s-0.5,0-0.7,0c-0.2,0-0.5,0-0.7,0c-0.2,0-0.5,0-0.7,0c-0.2,0-0.5,0-0.7,0c-0.2,0-0.5,0-0.7,0
		c-0.2,0-0.5,0-0.7,0c-0.2,0-0.5,0-0.7,0c-0.1,0-0.1-0.1-0.2-0.1c0,0,0,0.1-0.1,0.1c-0.2,0.1-0.5,0-0.7,0c-0.2,0-0.5,0-0.8,0
		c-0.2,0-0.5,0-0.7,0c-0.1,0-0.1-0.1-0.2-0.1c0,0,0,0.1-0.1,0.1c-0.3,0-0.6,0-1,0c-0.3,0-0.6,0-1,0c-0.1,0.1-0.4,0-0.6,0
		c-0.2,0-0.4,0-0.6,0c-0.2,0-0.4,0-0.6,0C12,27.4,11.8,27.4,11.6,27.3z"/>
	<path id="hbc-green" d="M0.8,4.2c-0.1,0-0.2,0.1-0.3,0.1c-0.1,0-0.1-0.1-0.2-0.1c0,0-0.1,0-0.1,0C0,4,0.1,3.7,0,3.4
		c0-0.3,0-0.5,0-0.8c0-0.3,0-0.5,0-0.9C0,1.6,0,1.4,0,1.2c0-0.1,0-0.2,0-0.3c0-0.1,0-0.3,0-0.4c0.1-0.1,0.3-0.1,0.4-0.1
		c0.5,0,1.1-0.1,1.6,0c0.2,0,0.4,0,0.6,0c0.1,0,0.2,0,0.3,0c0.1,0,0.1-0.1,0.2,0c0.3,0,0.6,0,0.9,0c0.1,0,0.3-0.1,0.5,0
		c0,0,0.1,0,0.1,0.1c0,0,0-0.1,0.1-0.1c0.6,0,1.1-0.1,1.7,0.1c0,0,0.1,0,0.1,0c0.2-0.1,0.4,0,0.6,0c0.2,0,0.4,0,0.6,0
		c0.1,0,0.1,0,0.2,0.1c0,0,0,0.1,0,0.1c0.1,0,0.2,0,0.3,0C8.1,0.5,8,0.4,8,0.4c0.3,0,0.6,0,0.8,0c0.3,0.1,0.5-0.1,0.8,0
		c0.2-0.2,0.5,0.1,0.8,0c0,0,0,0.1,0.1,0.1c0,0,0-0.1,0.1-0.1c0.1,0,0.2,0,0.4,0c0,0,0,0,0,0c0.1,0,0.2-0.1,0.4,0c0.4,0,0.8,0,1.2,0
		c0.2,0,0.4,0,0.5,0c0.2,0,0.3-0.1,0.5,0c0.3-0.1,0.6,0,0.9-0.1c0.1,0,0.2,0,0.3,0.1c0.2-0.1,0.5-0.1,0.7,0c0.2,0,0.4,0,0.6,0
		c0.2,0,0.3,0,0.5,0c0.2,0,0.4-0.1,0.5,0c0.2,0,0.3,0,0.5,0c0.3,0,0.5,0.1,0.8,0c0.2,0.1,0.3,0,0.5,0c0.2,0,0.3,0,0.5,0
		c0.2,0,0.3,0,0.5,0c0.1,0,0.3,0.1,0.5,0c0.1-0.1,0.4-0.1,0.6,0c0.2-0.1,0.5-0.1,0.7,0c0.2-0.1,0.5,0,0.8,0c0,0,0.1,0,0.1,0
		c0.3-0.1,0.6,0,0.9-0.1c0.2,0,0.5,0,0.8,0c0.2,0,0.3-0.1,0.5,0c0.2,0,0.4,0,0.6,0c0.2,0,0.4,0,0.6,0c0.2,0,0.4,0,0.7,0
		c0.1,0,0.1,0,0.2-0.1c0.1,0,0.1,0.1,0.2,0.1c0,0,0,0,0,0.1c0,1.1,0,2.2,0,3.3c0,0.1-0.1,0.3-0.1,0.4c-0.3,0.1-0.7,0-1,0
		c0,0-0.1,0-0.1-0.1c-0.2,0-0.4,0.1-0.7,0.1c-0.1,0-0.2-0.1-0.4-0.1c0,0-0.1,0.1-0.1,0.1c-0.2-0.1-0.4,0-0.6,0c-0.2,0-0.4,0-0.6,0
		c-0.2,0-0.4-0.1-0.6,0c0,0-0.1-0.1-0.1-0.1c-0.1,0-0.3,0.1-0.4,0c-0.1-0.1-0.3,0-0.4,0c-0.1,0-0.3,0-0.4,0c-0.2,0-0.3,0-0.5,0
		c-0.1,0-0.3,0-0.5,0c0,0,0,0-0.1-0.1c-0.1,0-0.2,0.1-0.3,0.1c-0.1,0-0.2,0-0.4,0c-0.2,0-0.3,0.1-0.5,0c-0.2,0-0.3,0-0.4,0
		c-0.1,0-0.2-0.1-0.4-0.1c-0.1,0-0.1,0-0.2,0c-0.2,0-0.4,0-0.6,0c-0.2,0-0.4-0.1-0.6,0c-0.4-0.1-0.9,0-1.3,0c-0.2,0-0.5,0-0.7,0
		c-0.2,0-0.5,0-0.7,0c-0.1,0-0.1,0-0.1,0c-0.3,0-0.5,0-0.7,0c-0.2,0-0.4,0-0.6,0c-0.2,0-0.4,0-0.6,0.1c-0.1-0.1-0.2-0.1-0.2-0.2
		c-0.1,0-0.2,0.1-0.3,0.1c-0.1,0-0.3,0-0.4,0c-0.3,0-0.7,0-1,0c0,0-0.1,0-0.1,0.1c0,0,0,0,0,0c-0.6-0.1-1.1,0-1.7-0.1
		c-0.2,0-0.4,0-0.6,0c0,0-0.1,0-0.1,0c0,0,0,0,0,0C7.2,4.2,7.1,4.3,6.9,4.3c-0.3,0-0.7,0-1,0c0,0-0.1,0-0.1,0c-0.3,0-0.5,0-0.7,0
		c-0.2,0-0.4,0-0.5,0c-0.5,0-1.1-0.1-1.6,0c-0.2,0-0.3,0-0.5,0C2.2,4.3,2,4.2,1.7,4.3c-0.2-0.1-0.4,0-0.6,0C1,4.3,0.9,4.3,0.8,4.2z"
		/>
	<path id="hbc-yellow" d="M24.7,19.6c-0.3-0.1-0.5,0-0.8,0c-0.1,0-0.6,0-0.7-0.1c0,0-0.1,0.1-0.1,0.1c-0.3,0-0.5,0-0.7,0
		c-0.2,0-0.5,0.1-0.7,0c-0.2-0.1-0.5,0.1-0.7-0.1c-0.1,0-0.2,0.1-0.3,0.1c-0.2-0.1-0.4-0.1-0.6,0c-0.2-0.1-0.5,0-0.7,0
		c-0.2,0-0.3,0-0.5,0c-0.2,0-0.4,0-0.6,0c-0.2,0-0.4,0-0.6,0c-0.2,0-0.4,0-0.6,0c0-0.1-0.1-0.1-0.1-0.2c-0.1,0-0.2,0-0.3,0
		c0.1,0.1,0.1,0.1,0.2,0.2c-0.2,0-0.3,0.1-0.4,0.1c-0.4,0-0.8-0.1-1.3,0c-0.4,0-0.8-0.1-1.2,0c-0.2-0.1-0.3-0.1-0.5,0
		c-0.2-0.1-0.4-0.1-0.7,0c-0.2-0.2-0.4,0-0.6,0c-0.2,0-0.5-0.1-0.7,0c0,0,0,0-0.1-0.1c-0.1,0-0.2,0-0.2,0c-0.1,0-0.2,0-0.3,0
		c-0.1,0.1-0.2-0.1-0.2,0c-0.1,0.1-0.2,0-0.3,0c-0.2,0-0.3,0-0.5,0c-0.2,0-0.3,0-0.5,0c-0.2,0-0.5,0-0.7,0c-0.2,0-0.4,0-0.6,0
		c-0.2,0-0.4-0.1-0.6,0c-0.3-0.1-0.6,0-1-0.1c-0.1,0-0.3,0-0.4,0c-0.2,0-0.3,0-0.4,0c0,0,0,0,0,0c-0.3-0.1-0.6-0.1-0.9,0
		c-0.2,0-0.4,0-0.6,0c-0.1,0-0.2,0-0.3,0c-0.3,0-0.6,0.1-0.9,0c-0.1,0-0.2,0-0.3,0c-0.1,0-0.2-0.1-0.3,0c-0.1,0-0.2,0-0.3,0
		c-0.1,0-0.2,0-0.3,0c-0.3,0.1-0.6-0.1-0.9,0c-0.3-0.1-0.6,0.1-0.8-0.1C0,19.5,0,19.3,0,19.1c0-0.3-0.1-0.6,0-0.8
		c0.1-0.2,0.1-0.5,0.1-0.7C0,17.2,0,16.8,0,16.4c0-0.1,0-0.3,0-0.4c0,0,0.1-0.1,0.3-0.2c0.1,0,0.2,0,0.5,0c0.2-0.1,1.4-0.1,1.7,0
		c0.1,0,0.1-0.1,0.2-0.1c0.3,0,0.7,0,1,0c0.2,0,0.3,0,0.5,0c0.3,0,0.6,0,0.9,0c0.4,0,0.8-0.1,1.3,0c0.4-0.1,0.8,0,1.1,0
		c0.1,0,0.3,0,0.5,0c0.2,0,0.3,0,0.5,0c0.4,0.1,0.7,0,1.1,0c0.2,0,0.3,0,0.5,0c0.2,0,0.4,0,0.5,0.1c0,0,0.1,0,0.1,0
		c0.3-0.2,0.5,0,0.8-0.1c0.1,0.1,0.3-0.1,0.4,0c0.1-0.1,0.3,0,0.4,0c0.2-0.1,0.4,0,0.6,0c0.1,0,0.3,0,0.4,0c0.1,0,0.3,0,0.4,0
		c0.2,0,0.3-0.1,0.5,0c0.2-0.1,0.3-0.1,0.5,0c0.1,0,0.2,0,0.3,0.1c0,0,0.1,0,0.1,0c0-0.1,0-0.1,0-0.1c0.2,0,0.3,0,0.5,0
		c0.2,0,0.4,0,0.5,0c0.1,0,0.2,0,0.3,0c0.3-0.1,0.6,0,0.9,0c0,0.1,0,0.1,0,0.2c0.2,0,0.3-0.2,0.4-0.2c0.2-0.1,0.3,0.1,0.5,0
		c0,0,0.1,0.1,0.1,0.1c0,0,0.1-0.1,0.1-0.1c0.1,0,0.3,0,0.4,0c0.1,0,0.3,0,0.4,0c0.3,0,0.5,0,0.8,0c0.1,0,0.2,0,0.3,0
		c0.2,0,0.3,0,0.5,0c0.2,0,0.3,0,0.5,0c0.1,0,0.3,0,0.4,0c0.1,0,0.2,0.1,0.3,0c0.1,0,0.2,0.1,0.3,0c0,0,0.2,0,0.3,0
		c0.1,0,0.2,0.1,0.3,0c0.2,0,0.4,0,0.6,0c0.1,0,0.1,0,0.2,0c0.1,0,0.3,0,0.4,0c0.3,0.1,0.6,0,1,0c0.3,0,0.6,0,0.8,0
		c0.2,0,0.3,0,0.5,0c0,0,0.1,0.1,0.2,0.2c0,0.2,0,0.5,0,0.7c0,0.2,0,0.5,0,0.7c0,0.2,0,0.5,0,0.7c0,0.2,0,0.5,0,0.7
		c0,0.2,0,0.5,0,0.7c-0.1,0-0.2,0.1-0.2,0.1c-0.3,0-0.5-0.1-0.7,0C25.3,19.7,25,19.5,24.7,19.6z"/>
	<path id="hbc-red" d="M0.1,11.9c-0.1-0.3,0-0.5-0.1-0.7c0.1-0.1,0-0.2,0-0.3c0-0.1,0-0.2,0-0.3c0-0.1,0-0.2,0-0.3
		c0-0.1,0-0.2,0-0.4c-0.1-0.1,0-0.3,0.1-0.5C0,9.2,0,9.1,0,8.9c0-0.2,0-0.3,0-0.5c0-0.1,0-0.1-0.1-0.2C0.1,8.2,0.1,8.1,0.2,8
		c0.2,0,0.5,0.1,0.7,0.1C1.1,8.1,1.2,8,1.3,8c0.2,0,0.3,0,0.5,0C2,8,2.1,8,2.3,8c0.2,0,0.3,0,0.5,0c0.2,0,0.4,0,0.7,0
		c0.2,0,0.5-0.1,0.7,0c0.3-0.1,0.7,0,1,0c0.2,0,0.3,0,0.5,0.1c0.2,0,0.3,0,0.5,0c0.1,0,0.2,0,0.4,0C6.7,8,7,8.1,7.2,8
		c0.2,0,0.5,0,0.7,0c0.2,0,0.5,0,0.7,0c0.2,0,0.4,0,0.7,0c0.3,0,0.5,0,0.8,0c0.2,0,0.5,0,0.7,0c0,0,0.1,0,0.2,0c0.3,0,0.6,0,0.8,0
		c0.5,0,1,0,1.4,0c0.2,0,0.5,0,0.7,0.1c0,0,0.1,0,0.1,0c0.2-0.1,0.4,0,0.6-0.1c0.2,0,0.4-0.1,0.6,0C15.5,8,15.8,8,16,8
		c0.2,0,0.5,0,0.7,0c0.2,0,0.4,0,0.6,0.1c0.1,0,0.2-0.1,0.2-0.1c0.2,0,0.3,0,0.4,0c0.2,0,0.3,0,0.5,0c0.2,0,0.5,0,0.7,0
		c0.1,0,0.3,0,0.4,0c0.1,0,0.3-0.1,0.4,0C20.3,8,20.4,8.1,20.6,8c0.3,0.1,0.5,0,0.8,0c0.4,0,0.9,0,1.3,0c0.3,0,0.5,0,0.8,0
		c0.3,0,0.6,0,0.9,0c0.2,0,0.3,0.1,0.5,0c0.1,0,0.3,0,0.4,0c0.1,0,0.3,0,0.4,0c0.1,0,0.2,0,0.2,0c0.2-0.1,0.5,0,0.8,0.1
		c0.1,0.3,0,0.6,0,0.9c0,0.1,0,0.3,0,0.4c0,0.6,0,1.2,0,1.8c0,0.2,0,0.4-0.1,0.6c-0.3,0-0.6,0-0.8,0c-0.3,0-0.5,0-0.8,0
		c-0.3,0-0.5,0-0.8,0c-0.3,0-0.5,0-0.8,0s-0.5,0-0.8,0s-0.5,0-0.8,0s-0.5,0-0.8,0s-0.5,0-0.8,0s-0.5,0-0.8,0c-0.3,0-0.5,0-0.8,0
		c-0.3,0-0.5,0-0.8,0c-0.3,0-0.5,0-0.8,0c-0.3,0-0.5,0-0.8,0c-0.3,0-0.5,0-0.8,0c-0.3,0-0.5,0-0.8,0c-0.3,0-0.5,0-0.8,0
		c-0.3,0-0.5,0-0.8,0c-0.3,0-0.5,0-0.8,0c-0.3,0-0.5,0-0.8,0c-0.3,0-0.5,0-0.8,0c-0.3,0-0.5,0-0.8,0c-0.3,0-0.5,0-0.8,0
		c-0.3,0-0.5,0-0.8,0c-0.3,0-0.5,0-0.8,0c-0.3,0-0.5,0-0.8,0c-0.3,0-0.5,0-0.8,0c-0.3,0-0.5,0-0.8,0c-0.3,0-0.5,0-0.8,0
		c-0.3,0-0.5,0-0.8,0s-0.5,0-0.8,0c-0.3,0-0.5,0-0.8,0c-0.3,0-0.5,0-0.8,0s-0.5,0-0.8,0C0.6,11.9,0.4,11.9,0.1,11.9z"/>
</g>
<g id="text">
	<g id="hbc">
		<path d="M55.5,0.4c0.3-0.1,0.6-0.1,0.9,0c0.2,0,0.3,0,0.4,0c0.2,0,0.3,0,0.5,0c0.1,0,0.3-0.1,0.5,0c0.1-0.1,0.3,0,0.4,0
			c0.3,0,0.6,0,0.8,0.1c0.3,0.1,0.6,0.2,0.8,0.2c0,0,0,0,0,0c0.6,0.4,1.1,0.7,1.3,1.4c0.1,0.2,0.2,0.5,0.2,0.6c0,0.3,0.1,0.6,0,0.9
			c0,0.3,0,0.6-0.1,0.9c-0.1,0.3-0.2,0.6-0.3,0.9c-0.1,0-0.2,0-0.2,0.1c0,0,0,0,0,0.1C61,5.8,61.1,6,61.3,6.2
			c0.2,0.3,0.4,0.6,0.5,0.9C61.9,7.4,62,7.6,62,7.8c0,0.1,0,0.3,0.1,0.4c0,0.1,0,0.3,0,0.4c0,0.2,0,0.5-0.1,0.7
			c-0.1,0.1,0,0.3-0.1,0.4c-0.1,0.1-0.1,0.3-0.2,0.4c-0.2,0.3-0.4,0.6-0.6,0.8c-0.1,0.1-0.2,0.2-0.4,0.2c0,0,0,0.1,0,0.1
			c-0.3,0.2-0.6,0.3-1,0.4c-0.1,0-0.3,0.2-0.5,0.1c-0.3-0.1-0.6,0.2-0.9,0c-0.3,0.1-0.5,0.1-0.8,0c-0.2,0-0.4,0-0.7,0
			c-0.1,0-0.3,0-0.4,0c-0.5,0-0.9,0.1-1.4-0.1c-0.1,0.1-0.3,0-0.4,0c-0.1,0.1-0.2,0-0.4,0c-0.3,0-0.6,0-0.9,0c-0.2,0-0.3,0-0.5,0
			c-0.3,0-0.6,0-0.8,0c-0.2,0-0.3,0-0.5,0c-0.2,0-0.3,0-0.5,0c-0.1,0-0.1,0-0.2,0c-0.1-0.1-0.1-0.3-0.1-0.4c0-0.1,0.1-0.2,0-0.3
			c0,0,0-0.1,0-0.2c0.1-0.2,0.1-0.4,0-0.5c0-0.1,0-0.3,0-0.4c0-0.1,0-0.3,0-0.4c0-0.1,0-0.3,0-0.4c0-0.1,0-0.2,0-0.3
			c0-0.1,0-0.2,0-0.4c0-0.1-0.1-0.2-0.1-0.3c0.1-0.3,0-0.6,0-0.8c0-0.1,0-0.2,0-0.3c-0.1-0.2-0.1-0.5,0-0.7c0-0.2,0-0.5,0.1-0.7
			c0,0,0-0.1,0-0.1c-0.2-0.2,0-0.5-0.1-0.7c0.1-0.1,0-0.2,0-0.3c0-0.1,0-0.3,0-0.5c0-0.1,0-0.3,0-0.4c0-0.2,0-0.3,0-0.5
			c0-0.3,0.1-0.6,0-1c0-0.1,0-0.2,0-0.3c-0.1-0.2-0.1-0.5,0-0.7c-0.2-0.2,0-0.5-0.1-0.7c0.1-0.1,0.2-0.2,0.4-0.1
			c0.1,0.1,0.3-0.1,0.4,0c0.4,0,0.7,0,1.1,0c0.2,0,0.4,0,0.6,0c0.2,0,0.4,0,0.6,0c0.1,0,0.2,0,0.3,0c0.2,0,0.4,0,0.6,0
			c0.2,0,0.4,0,0.6,0C55.4,0.4,55.4,0.4,55.5,0.4z M53,7.3c0,0.3,0.1,0.5,0,0.8c0,0.1,0,0.2,0,0.3c0,0.1-0.1,0.2,0,0.4
			c-0.1,0.1,0.1,0.2,0,0.3c-0.1,0.2,0,0.3,0.2,0.4c0,0,0,0,0,0c0.1,0,0.2-0.1,0.3-0.1c0.1,0.1,0.3,0,0.4,0c0.1,0,0.2,0,0.3,0
			c0.3,0.1,0.7,0,1,0c0.1,0,0.2,0,0.3,0.1c0.1,0.1,0.2-0.1,0.3,0c0.3,0,0.6-0.1,0.8,0c0.1-0.1,0.3-0.1,0.4-0.1c0.2,0,0.4,0,0.6,0
			c0.4,0,0.7,0,1.1-0.2c0,0,0.1-0.1,0.1-0.1c0.1,0,0.1-0.1,0.2-0.1c0-0.1,0-0.1,0.1-0.2c0.3-0.2,0.2-0.5,0.2-0.8c0-0.1,0-0.2,0-0.3
			c-0.1-0.2-0.2-0.3-0.3-0.5c-0.1,0.1-0.1-0.2-0.2,0c-0.1,0-0.2-0.1-0.3-0.1c-0.2,0-0.5,0-0.8,0c-0.3,0-0.5-0.1-0.8,0
			c-0.2,0-0.4-0.1-0.6-0.1c-0.2,0-0.3,0.1-0.5,0.1c-0.2,0-0.5,0-0.7,0c-0.1,0-0.2,0-0.3,0c-0.2,0-0.5,0-0.7,0c0-0.1-0.1-0.1-0.1-0.1
			c-0.3,0.1-0.5,0.2-0.8,0.1C53.2,7.2,53.1,7.2,53,7.3z M58.4,3c-0.3,0-0.5,0-0.8,0c-0.3,0-0.6,0-0.9,0c-0.3,0-0.5,0-0.8,0
			c-0.3,0-0.6-0.1-0.8,0.1c0,0,0-0.1-0.1-0.1c-0.3,0.1-0.6,0.1-0.9,0c-0.3,0-0.6,0-0.9,0C53.2,3,53.1,3,53,3.1c0.1,0.5,0,1,0.1,1.6
			c0.2,0,0.4-0.1,0.5-0.1c0.2,0,0.4,0.1,0.6,0c0.2,0,0.4,0,0.6,0c0.6,0,1.1,0,1.7,0c0.1,0,0.3,0,0.4,0c0.1,0,0.2,0,0.3,0
			c0.2,0,0.4,0,0.7,0c0.5-0.1,0.9-0.2,1.1-0.8c0-0.2-0.1-0.5-0.2-0.7C58.6,3.1,58.5,3,58.4,3z"/>
		<path d="M35.1,0.5c0,0,0-0.1,0.1-0.1c0.1,0,0.2,0,0.3,0c0.1,0,0.2,0,0.3,0c0,0,0.1,0,0.1,0c0.1,0,0.2,0,0.3,0
			c0.3,0,0.3,0.1,0.4,0.4c0.1,0.4,0.1,0.8,0,1.3c0,0.1,0,0.3,0,0.4c0,0.7,0,1.4,0,2.1c0.1,0.1,0.1,0.1,0.1,0.1c0.2,0,0.4,0,0.5,0
			c0.2,0.1,0.3,0,0.4,0c0.1,0,0.3,0,0.4,0c0.1,0,0.3,0,0.5,0c0.1-0.1,0.3,0,0.5,0c0.2,0,0.3,0.1,0.5,0.1c0.2,0,0.3-0.1,0.5,0
			c0.2,0.1,0.3-0.1,0.4,0c0.2,0.1,0.3-0.1,0.5,0c0.1,0.1,0.3,0,0.4,0c0.1,0,0.3,0,0.4,0c0.1,0,0.3,0,0.5,0c0-0.1,0.1-0.2,0.1-0.3
			c-0.1-0.3,0-0.6,0-0.9c0-0.3,0-0.6,0-0.9c0-0.3,0-0.6,0-0.9c0-0.3,0-0.6,0-0.9c0-0.1,0.1-0.2,0.2-0.3c0.2,0,0.5,0.1,0.7,0.1
			c0.1,0.1,0.2,0.2,0.2,0.3c0.1,0,0.2,0,0.4,0c0-0.1,0.1-0.2,0.1-0.3c0.3-0.1,0.6-0.1,0.9,0c0.2,0.2,0,0.4,0.1,0.6
			c0,0.1,0,0.3,0,0.4c0,0.1-0.1,0.3-0.1,0.4c0,0.1,0.1,0.3,0,0.4c0,0.1,0.1,0.2,0,0.3c0,0.3,0,0.5,0,0.8c0.1,0.1,0,0.2,0,0.3
			c0,0.1,0,0.3,0,0.4c0,0.1-0.1,0.3,0,0.4c-0.2,0.3,0,0.6,0,0.9c0,0.3,0,0.6,0,0.9c0.1,0.1-0.1,0.2,0,0.3c0,0.1,0.1,0.1,0,0.2
			c0,0,0,0.1,0,0.1c0.1,0.1,0,0.3,0,0.4c0,0.1,0,0.3,0,0.4c0,0,0,0.1,0,0.1c0,0-0.1,0-0.1,0.1c0.1,0.3,0.2,0.5,0,0.8
			c0,0,0.1,0.1,0.1,0.1c0,0.1-0.1,0.2-0.1,0.4c0,0,0.1,0,0.1,0.1c0,0-0.1,0.1,0,0.1c0,0.1,0.1,0.3,0,0.4c0,0.1,0.1,0.3,0,0.4
			c0.1,0.2-0.1,0.4,0.1,0.6c-0.2,0.2-0.1,0.4,0,0.6c0,0.2-0.1,0.3-0.2,0.4c-0.4,0-0.8,0.1-1.2,0c-0.4,0-0.7,0-1.1,0
			c-0.1-0.2,0-0.5-0.1-0.7c0-0.3,0-0.5,0-0.8c0-0.2,0-0.5,0-0.7c0-0.2-0.1-0.5,0-0.7c0-0.3,0-0.5,0.1-0.8c-0.2-0.1,0-0.3,0-0.5
			c0-0.1,0-0.3,0-0.5c-0.1,0-0.1,0-0.2,0c0,0-0.1,0-0.1-0.1c-0.1,0-0.2,0.1-0.3,0.1c-0.2-0.1-0.4,0-0.5,0c-0.2,0-0.4,0-0.6,0
			c-0.2,0-0.4,0-0.6,0c-0.2,0-0.4,0-0.6,0c-0.2,0-0.4,0-0.6,0.1c-0.1,0-0.1-0.1-0.2-0.1c-0.1,0-0.2,0-0.3,0c-0.5,0-0.9,0-1.4,0.1
			c-0.1,0-0.1,0-0.2-0.1c0,0.1-0.1,0.1-0.2,0.2c0,0.4,0,0.8,0,1.2c0,0.2,0,0.3,0,0.5c-0.1,0.2,0.1,0.3,0,0.4c0.1,0.2,0,0.4,0,0.6
			c0,0.2,0,0.4,0,0.5c0,0.2,0,0.4,0,0.5c0,0.2,0,0.4,0,0.6c0,0.1-0.1,0.2-0.1,0.3c-0.2,0-0.3,0-0.6,0c0,0,0,0,0,0
			c-0.6,0-1.2,0-1.7,0c-0.1-0.2-0.1-0.4-0.1-0.6c0-0.1,0-0.2,0-0.4c0-0.1,0.1-0.2,0.1-0.2c-0.1-0.3,0-0.6-0.1-0.9
			c0-0.1,0.1-0.2,0.1-0.2c0-0.2-0.1-0.4,0-0.6c0-0.2,0-0.3,0-0.5c0-0.1,0-0.3,0-0.4c0-0.1-0.1-0.3-0.1-0.4c0-0.1,0.1-0.2,0-0.4
			c0.1-0.2,0-0.4,0.1-0.6c0-0.1,0-0.1,0-0.2c0-0.1,0-0.5,0-0.5c0-0.1,0-0.3,0-0.4c0-0.1,0-0.2,0-0.3c0-0.2,0-0.5,0-0.7
			c0-0.2,0.1-0.4,0-0.6c-0.1-0.3,0-0.5,0-0.8c0-0.1,0.1-0.2,0-0.3c0-0.1,0-0.2,0-0.3c0-0.1,0-0.3,0-0.4c0-0.5-0.1-0.9,0-1.4
			c0-0.1,0-0.2,0-0.3c0.3-0.2,0.6-0.1,0.8-0.1C35,0.4,35.1,0.4,35.1,0.5z"/>
		<path d="M78.9,2.4c-0.5,0.7-0.9,1.4-1.4,2c-0.1,0-0.1,0-0.2,0c-0.5-0.4-1-0.8-1.5-1.1c-0.5-0.2-1-0.4-1.4-0.6
			c-0.2-0.1-0.4-0.1-0.6-0.1c-0.2,0-0.5,0-0.7,0c-0.2,0-0.5,0-0.7,0c-0.2,0-0.3,0.1-0.5,0.1c-0.1,0-0.1,0-0.1,0
			c-0.5,0.2-1,0.5-1.7,0.9c-0.4,0.4-0.9,0.9-1.1,1.7c0,0,0,0-0.1,0.1c0,0.1,0,0.1,0.1,0.2c0,0.1-0.1,0.1-0.1,0.2c0,0.3,0,0.5,0,0.8
			c0,0.1,0.1,0.3,0.1,0.6c0,0,0.1,0.1,0.1,0.1c0,0,0,0.1-0.1,0.1c0.2,0.2,0.3,0.5,0.5,0.7c0.1,0.2,0.3,0.4,0.4,0.5
			c0.5,0.4,1.1,0.8,1.8,0.9c0.2,0,0.3,0.1,0.3,0.2c0.2,0,0.4,0,0.6,0c0.5,0,1,0,1.5,0c0.2,0,0.5-0.1,0.7-0.2c0.2,0,0.3-0.1,0.5-0.1
			c0,0,0.1,0,0.1,0c0.2-0.1,0.4-0.2,0.7-0.3c0.6-0.2,1.2-0.5,1.7-0.9c0.1-0.1,0.2-0.1,0.3-0.1c0.1,0.3,0.2,0.5,0.4,0.8
			c0.2,0.4,0.4,0.8,0.6,1.1c0.1,0.1,0.1,0.3,0.1,0.4c-0.7,0.5-1.4,0.8-2.1,1.2c0,0-0.1,0-0.1,0c-0.4,0.2-0.8,0.3-1.3,0.4
			c-0.4,0.1-0.9,0.2-1.3,0.2c0,0,0-0.1,0-0.1c-0.1,0.1-0.2,0.1-0.4,0.1c-0.3,0-0.7-0.1-1,0c-0.3,0-0.6-0.1-0.9,0
			c-0.5-0.2-1-0.1-1.4-0.4c-0.1-0.1-0.3-0.1-0.5-0.1c-0.2-0.1-0.5-0.2-0.7-0.3c-0.5-0.2-0.8-0.6-1.3-0.9c-0.2-0.1-0.3-0.3-0.4-0.5
			c-0.1-0.2-0.3-0.4-0.4-0.6c-0.2-0.2-0.3-0.5-0.4-0.8c-0.2-0.4-0.3-0.9-0.4-1.4c-0.1-0.4-0.2-0.8-0.1-1.2c0-0.2,0.1-0.3,0.1-0.5
			c0-0.2,0-0.3,0.1-0.5c0.1-0.2,0.1-0.4,0.1-0.6c0-0.1,0.1-0.1,0.1-0.1c0.1,0,0.1,0,0.2,0c0-0.1-0.1-0.1-0.1-0.2
			c0.4-1,1-1.9,1.9-2.5c0.7-0.5,1.1-0.8,1.3-0.8c0.1-0.1,0.1-0.1,0.2-0.2c0.1,0,0.2,0,0.3-0.1c0.4-0.2,0.9-0.3,1.4-0.4
			c0.2-0.1,0.5-0.1,0.8-0.1C72.7,0,73,0,73.3,0c0.5,0,1,0.1,1.4,0.2C75.6,0.3,76.3,0.6,77,1c0.5,0.3,0.9,0.6,1.3,0.8
			C78.5,2,78.7,2.1,78.9,2.4z"/>
	</g>
	<g id="tech">
		<path d="M61.2,24.8c0,0.1,0.1,0.2,0.1,0.3c0,0.7,0,1.3,0,2.1c-0.1,0-0.1,0.1-0.2,0.2c-0.5,0-1,0-1.5,0c-0.5,0-1,0-1.4,0
			c-0.5,0-1,0-1.5,0s-1,0-1.5,0s-1,0-1.5,0c-0.5,0-1,0-1.5,0c-0.5,0-1,0-1.4,0c-0.2-0.1-0.2-0.3-0.2-0.4c0-0.5,0-1.1,0-1.6
			c0-0.1,0-0.2,0-0.3c-0.1-0.2,0-0.5,0-0.8c0-0.2,0.1-0.3,0-0.5c0,0,0-0.1,0-0.1c0.1-0.2,0-0.4,0-0.6c0-0.2,0.1-0.4,0-0.5
			c0.1-0.3-0.1-0.6,0-0.9c-0.1-0.1,0.1-0.2,0-0.4c-0.1-0.1,0.1-0.2,0-0.3c0-0.1,0-0.2,0-0.3c0-0.1,0-0.3,0-0.4
			c-0.1-0.2,0-0.4-0.1-0.6c0-0.1,0-0.3,0-0.5c0-0.2,0-0.3,0-0.5c0-0.2,0-0.3,0-0.5c0-0.1,0-0.3,0-0.4c0-0.1-0.1-0.3,0-0.4
			c0-0.1,0.1-0.2,0-0.3c0,0,0-0.1,0-0.2c0-0.2,0-0.3,0-0.5c0-0.2,0.1-0.3,0-0.5c0.1-0.1,0.3,0,0.5-0.1c0,0.1,0.1,0.1,0.1,0.1
			c0.1,0,0.2-0.1,0.3-0.1c0,0,0,0.1,0.1,0.1c0,0,0,0,0.1,0c0.3-0.1,0.8-0.1,1,0c0.1,0,0.1,0,0.2,0c0.2,0,0.4-0.1,0.6-0.1
			c0.2,0,0.3,0,0.5,0c0.2,0,0.5,0,0.7,0c0,0,0,0.1,0.1,0.1c0,0,0.1-0.1,0.1-0.1c0.4,0.1,0.7,0.1,1.1,0c0,0,0.1,0,0.1,0
			c0.2,0,0.5,0.1,0.7,0c0.2-0.1,0.5,0,0.7,0c0.1,0,0.1,0,0.1,0c0.3,0,0.4-0.1,0.6,0c0.2,0,0.4,0,0.6,0c0.1,0,0.3,0,0.4,0.2
			c0-0.1,0-0.1,0.1-0.2c0.1,0,0.2,0,0.3,0.1c0.2,0,0.4-0.1,0.6,0c0.2,0,0.4,0.1,0.6,0.1c0,0,0,0.1-0.1,0.1c0,0,0,0.1,0,0.1
			c0.1,0.2,0,0.5,0.1,0.8c0,0-0.1,0.1-0.1,0.1c0.1,0.4,0,0.8,0,1.3c-0.5,0.2-1,0-1.4,0.1c-0.1,0-0.2,0-0.3,0c-0.2,0-0.5,0.1-0.7,0
			c-0.2,0-0.4,0-0.6,0c-0.2,0-0.3,0-0.5,0c-0.1,0-0.2,0-0.3,0c-0.1,0-0.3,0-0.4,0c-0.1,0-0.3,0-0.4,0c-0.2,0-0.5-0.1-0.7,0
			c-0.2,0.1-0.3-0.1-0.5,0c-0.1-0.1-0.3,0-0.4,0c-0.1,0-0.3,0-0.4,0c0,0-0.1,0-0.1,0c-0.1,0-0.2,0.1-0.4,0.1c0,0-0.1-0.1-0.1-0.1
			c-0.1,0-0.2,0.1-0.4,0.1c-0.1,0.3,0,0.6,0,0.9c0,0.3,0,0.6,0,0.9c0.2,0,0.5,0,0.7,0c0.2,0,0.4-0.1,0.6,0c0.3-0.2,0.5,0,0.8,0
			c0.3,0,0.6,0,0.9,0c0.3,0,0.6,0,0.9,0c0,0.1,0.1,0.1,0.2,0.2c0,0.2,0,0.5,0,0.8c0,0.3,0,0.5,0,0.8c0,0.3,0.1,0.5-0.1,0.8
			c-0.1,0-0.2,0-0.3,0c-0.3,0-0.5,0-0.7,0c-0.2,0-0.5,0-0.8,0c-0.4,0-0.8,0-1.2,0c-0.2,0-0.5,0-0.7,0c-0.1,0-0.2,0-0.2,0.1
			c0,0.7,0,1.3,0,2c0.2,0.1,0.4,0.1,0.6,0.1c0.2,0,0.3,0,0.5,0c0.2,0,0.4,0.1,0.7,0c0.1,0,0.1,0.1,0.2,0.1c0.2-0.1,0.4-0.1,0.5,0
			c0.1,0,0.2,0,0.3,0c0.2,0,0.4,0,0.6,0c0.4,0,0.8,0,1.2,0c0.4,0,0.8,0,1.2,0c0.4,0,0.8,0,1.2,0.1c0,0,0,0,0.1,0
			C60.7,24.7,60.9,24.8,61.2,24.8z"/>
		<path d="M85.9,25.4c0-0.2,0-0.3,0-0.4c0-0.5,0-0.9,0-1.4c0-0.4-0.1-0.7,0-1.1c0-0.1,0-0.3,0-0.4c0-0.1,0-0.3,0-0.4
			c0-0.2,0-0.3-0.1-0.4c0-0.1,0.1-0.3,0-0.4c0-0.1,0-0.3,0-0.4c0.1-0.4,0-0.9,0-1.3c0-0.4,0-0.8,0-1.2c0-0.2,0.1-0.4,0-0.6
			c0-0.2-0.1-0.4,0-0.6c-0.2-0.2,0-0.4,0-0.6c0-0.1,0.1-0.2,0.1-0.3c0.2,0,0.4,0,0.6,0c0,0,0,0.1-0.1,0.2c0.1-0.1,0.1-0.1,0.2-0.2
			c0.5,0.1,1,0,1.5,0.1c0.1,0.4,0.1,0.7,0,1.1c0,0,0,0-0.1,0c0.3,0.2,0,0.6,0.1,0.8c0,0.1-0.1,0.1-0.1,0.2c0,0,0.1,0.1,0.1,0.1
			c0,0.2,0,0.4,0,0.6c0,0.1,0,0.2,0,0.3c0,0.1,0,0.2,0,0.3c0,0.1,0,0.2,0,0.3c0.1,0.1,0,0.2,0,0.2c0.1,0.1,0.3,0.2,0.5,0.1
			c0.1,0,0.3,0,0.4,0c0.2,0,0.5,0,0.8,0c0.1,0,0.3,0.1,0.4,0c0.1,0,0.3,0.1,0.3,0c0.1-0.1,0.2,0,0.3,0c0.1,0,0.2,0,0.3,0
			c0,0,0,0,0,0.1c0.2,0,0.3-0.1,0.4-0.1c0.3,0,0.5,0.1,0.7,0c0.3,0,0.5,0.1,0.7,0c0.2,0.1,0.5,0,0.7,0c0.2-0.2,0-0.4,0.1-0.6
			c0,0,0.1-0.1,0.1-0.1c0,0-0.1,0-0.1-0.1c0-0.2,0-0.4,0-0.7c0-0.2,0-0.5,0-0.7c0-0.2,0.1-0.5,0-0.7c0-0.2,0-0.4,0-0.6
			c0-0.2,0-0.4-0.1-0.7c0.1-0.1,0.2-0.2,0.3-0.2c0.2,0,0.3-0.1,0.5,0c0.2,0.1,0.4,0,0.6,0c0.3,0,0.6,0,1,0c0.1,0.1,0.2,0.2,0.2,0.3
			c-0.1,0.2-0.1,0.4,0,0.6c-0.1,0.1-0.1,0.2-0.2,0.2c0,0,0.1,0,0.1,0c0,0.3,0,0.6,0,0.9c0,0.3,0.1,0.6-0.1,0.9c0,0,0.1,0,0.1,0.1
			c-0.1,0.3,0.1,0.6,0,0.9c-0.1,0-0.2,0-0.3,0.1c0.1,0.1,0.3,0,0.3,0.2c0,0-0.1,0-0.1,0.1c0,0,0,0,0,0.1c0.1,0.2,0.1,0.4,0.1,0.7
			c0,0.1,0,0.2,0,0.4c0,0,0,0,0,0.1c0,0.1-0.1,0.3-0.1,0.4c0,0.1,0,0.3,0,0.4c0,0.4-0.1,0.9,0,1.3c-0.1,0.2,0.1,0.4,0,0.6
			c-0.1,0.1,0,0.3,0,0.4c0,0.1,0,0.1,0,0.2c-0.1,0-0.1,0.1-0.1,0.1c0,0,0.1,0,0.1,0.1c-0.1,0.2-0.1,0.4,0,0.6c0,0.2,0,0.3,0,0.5
			c0,0.2-0.1,0.3,0,0.5c0,0,0,0.1,0,0.2c0,0.2,0,0.4,0,0.5c0,0.1,0,0.2,0,0.3c-0.1,0.1-0.2,0.2-0.3,0.2c-0.3,0-0.5,0.1-0.7,0
			c-0.2-0.1-0.4,0-0.6,0c-0.2-0.1-0.4,0-0.7,0c-0.1,0-0.2,0-0.3-0.1c0-0.1,0-0.3,0-0.5c0-0.1,0.1-0.3,0-0.4c0-0.1,0-0.2,0-0.4
			c-0.2-0.1,0-0.3,0-0.5c0-0.2,0-0.4,0-0.5c0,0,0.1,0,0.1-0.1c0,0-0.1,0-0.1-0.1c0-0.4,0-0.7,0-1.1c0-0.3,0-0.6,0-0.9
			c-0.2-0.1-0.3-0.1-0.5-0.1c-0.5,0-1,0-1.5,0c-0.3,0-0.6,0-0.9,0c-0.1,0-0.3,0-0.5-0.1c0,0,0,0-0.1,0.1c-0.1,0.1-0.2,0-0.2-0.1
			c-0.1,0.1-0.3,0.1-0.4,0.1c-0.2,0-0.3,0.1-0.5,0c-0.2,0.1-0.4-0.1-0.6,0.1c-0.1,0-0.2,0-0.3-0.1c-0.1,0-0.1,0.1-0.2,0.1
			c0,0,0-0.1-0.1-0.1c-0.1,0-0.2,0.1-0.2,0.1c0.1,0,0.2,0.1,0.3,0.1c0,0.4,0.1,0.8-0.1,1.2c0,0.1,0.1,0.3,0.1,0.5
			c0,0.1-0.1,0.3,0,0.4c0,0.2,0,0.4,0,0.7c0,0.2,0,0.3,0,0.4c0,0.1,0,0.2,0,0.3c0,0.1,0,0.2,0,0.3c0,0.1,0,0.2,0,0.3
			c0,0.1,0,0.2,0,0.3c-0.1,0.1-0.1,0.1-0.4,0.2c0,0,0-0.1-0.1-0.1c0,0-0.1,0.1-0.1,0.1c-0.3-0.1-0.6,0-0.8,0c-0.3,0-0.6,0-0.9,0
			c0,0-0.1-0.1-0.1-0.2C86,26.6,85.8,26,85.9,25.4z"/>
		<path d="M66.3,21.5c0,0,0-0.1,0.1-0.2c-0.2-0.5,0.1-0.9,0.1-1.3c0.1-0.2,0.1-0.4,0.2-0.6c0-0.1,0-0.2,0.1-0.3
			c0.2-0.4,0.4-0.9,0.7-1.2c0.3-0.4,0.7-0.8,1.1-1c0.1-0.1,0.2-0.2,0.3-0.2c0.2-0.1,0.4-0.3,0.7-0.4c0.2-0.1,0.4-0.3,0.7-0.2
			c0.2-0.3,0.6-0.2,0.9-0.4c0.1,0,0.1,0,0.2,0.1c0.2-0.2,0.5-0.2,0.7-0.2c0.2,0,0.4,0,0.5,0c0.3,0,0.6-0.1,0.9,0
			c0.1,0,0.1,0,0.2-0.1c0.1,0,0.5,0.1,0.7,0.1c0.1,0,0.2,0,0.3,0c0.6,0.1,1.1,0.2,1.7,0.5c0.3,0.1,0.6,0.3,0.9,0.5
			c0.2,0.1,0.4,0.2,0.6,0.4c0.1,0.1,0.1,0.1,0.2,0.2c0,0,0,0,0.1,0c0.1,0.1,0.1,0.2,0.2,0.3c0.1,0.1,0.2,0.1,0.3,0.2
			c0.1,0,0.1,0.2,0.2,0.2c0,0,0,0.1,0.1,0.2c0,0,0,0,0,0c-0.1,0.2-0.1,0.4-0.2,0.4c-0.2,0.1-0.2,0.3-0.3,0.4
			c-0.1,0.1-0.3,0.3-0.3,0.4c-0.1,0.3-0.3,0.5-0.5,0.8c-0.1,0-0.1,0-0.2,0c-0.1-0.1-0.3-0.2-0.4-0.3c-0.1-0.1-0.3-0.2-0.4-0.3
			c-0.1-0.1-0.3-0.2-0.4-0.3c-0.1-0.1-0.2-0.2-0.4-0.3c-0.1-0.1-0.3-0.1-0.4-0.1c-0.1-0.1-0.3-0.1-0.4-0.2c-0.2-0.1-0.3-0.1-0.5-0.1
			c-0.2,0-0.3,0-0.5-0.1c-0.2-0.1-0.3,0-0.5-0.1c-0.2,0-0.3,0-0.5-0.1c-0.2,0.1-0.5,0.1-0.7,0c-0.2,0.1-0.4,0.1-0.6,0.2
			c-0.6,0.1-1.1,0.4-1.5,0.8c-0.4,0.3-0.7,0.7-1,1.2c-0.2,0.4-0.3,0.8-0.4,1.2c-0.1,0.3,0,0.7,0.1,1c0.1,0.3,0.2,0.6,0.4,0.9
			c0.3,0.5,0.6,0.9,1.1,1.1c0.3,0.2,0.7,0.4,1.1,0.5c0.2,0,0.4,0.2,0.6,0.2c0.5,0.1,1,0.1,1.5,0.1c0.4,0,0.8-0.1,1.2-0.2
			c0.3-0.1,0.5-0.1,0.8-0.2c0.2-0.1,0.4-0.1,0.5-0.2c0.3-0.1,0.6-0.3,0.9-0.4c0.2-0.1,0.4-0.2,0.6-0.3c0.1-0.1,0.3-0.2,0.4-0.3
			c0.2,0.1,0.4,0.3,0.3,0.5c0,0,0.1,0.1,0.1,0.1c0.1,0.2,0.2,0.4,0.3,0.5c0.2,0.4,0.4,0.7,0.5,1.2c-0.2,0.2-0.5,0.4-0.7,0.5
			c-0.4,0.2-0.8,0.4-1.2,0.5c-0.5,0.2-1.1,0.4-1.6,0.5c-0.4,0.1-0.8,0.2-1.2,0.2c-0.2,0-0.4,0-0.7,0c-0.2,0-0.4,0-0.6,0
			c-0.5,0-1-0.1-1.4-0.1c-0.5-0.1-0.9-0.2-1.4-0.4c-0.6-0.2-1.2-0.5-1.8-0.9c-0.3-0.3-0.7-0.5-0.9-0.9c-0.3-0.2-0.4-0.4-0.5-0.7
			c-0.2-0.4-0.5-0.9-0.6-1.4c0-0.2-0.1-0.5-0.1-0.7c0-0.1-0.1-0.3,0-0.4c0-0.1-0.1-0.3,0-0.4C66.4,21.7,66.3,21.6,66.3,21.5z"/>
		<path d="M38.2,18.4c-0.2-0.1-0.3,0-0.4,0c-0.1,0-0.2,0-0.4,0c-0.1,0-0.2,0-0.3,0c-0.3-0.1-0.6,0-0.8,0c-0.3,0-0.5,0-0.8,0.1
			c-0.1,0-0.3,0-0.4,0c-0.2,0-0.5,0-0.7,0c-0.1,0-0.1,0-0.2-0.1c-0.1-0.4,0-0.8-0.1-1.2c0-0.4,0-0.8,0-1.2c0.2-0.1,0.5-0.2,0.7-0.1
			c0.2,0,0.4,0,0.5,0c0.2,0,0.5,0,0.7,0c0.1,0,0.2,0,0.3,0c0.1,0,0.3,0,0.4,0c0.1,0,0.3,0,0.4,0c0.3-0.1,0.6,0,0.9,0
			c0.3,0,0.6,0,0.9,0c0,0,0,0.1,0.1,0.1c0,0,0-0.1,0.1-0.1c0.3,0,0.5,0,0.8,0c0.2,0,0.3,0,0.5,0c0.2,0,0.3,0,0.5,0
			c0.3,0,0.6-0.1,0.9,0c0.1,0,0.2,0,0.4,0c0.1,0,0.2,0.1,0.4,0c0.1,0,0.2,0,0.2,0c0.7,0,1.4,0,2.1,0c0,0,0.1,0.1,0.1,0.1
			c0.1,0.2,0,0.4,0,0.6c0,0.2,0,0.4,0,0.6c0,0-0.1,0.1-0.2,0.1c0.1,0,0.1,0.1,0.1,0.1c0,0.3,0,0.6,0,0.9c-0.2-0.1-0.3,0-0.5,0
			c-0.2,0-0.3,0.1-0.5,0c-0.1,0.1-0.3-0.1-0.4,0c-0.2,0-0.4,0-0.6,0c-0.2,0-0.4,0-0.6,0c-0.2,0.1-0.4-0.1-0.5,0.1
			c-0.3-0.1-0.5,0-0.8-0.1c-0.1,0.1-0.1,0.1-0.2,0.2c0,0.3,0,0.6,0,0.9c0,0.3,0,0.6,0,1c0,0.3,0,0.6,0,1c0.1,0.2,0.1,3.9,0,5.9
			c0,0.1-0.1,0.1-0.2,0.2c-0.7,0-1.4,0-2.1,0c-0.1,0-0.2-0.1-0.3-0.1c0-0.1,0-0.2,0-0.4c0-1.1,0-2.2,0-3.2c0-0.1,0.1-0.3,0-0.4
			c0-0.1,0-0.3,0-0.4c0-0.3,0-0.6,0-1c0-0.1,0.1-0.2,0-0.3c0-0.1,0-0.2,0-0.3c0-0.1-0.1-0.2,0-0.3c0.1-0.2,0-0.4,0-0.6
			c-0.1-0.2,0-0.4,0-0.6c0-0.1,0-0.3,0-0.4c0-0.1,0.1-0.2,0-0.4C38.2,18.7,38.2,18.5,38.2,18.4z"/>
	</g>
</g>
</svg>
