<?xml version="1.0" encoding="utf-8"?>
<!-- Generator: Adobe Illustrator 21.0.0, SVG Export Plug-In . SVG Version: 6.00 Build 0)  -->
<!DOCTYPE svg PUBLIC "-//W3C//DTD SVG 1.1//EN" "http://www.w3.org/Graphics/SVG/1.1/DTD/svg11.dtd">
<svg version="1.1" id="LT_x5F_logo_x5F_06_xA0_Image_1_"
	 xmlns="http://www.w3.org/2000/svg" xmlns:xlink="http://www.w3.org/1999/xlink" x="0px" y="0px" viewBox="0 0 492.7 159.4"
	 style="enable-background:new 0 0 492.7 159.4;" xml:space="preserve">
<style type="text/css">
	.st0{fill-rule:evenodd;clip-rule:evenodd;}
</style>
<path d="M21.4,17.8"/>
<path d="M110,58.2c0.2-0.5,5.8-1.5,6.2,1.2s-3.3,19.4-3.3,19.4s8.6-10.7,17.3-14.2c9.8-3.9,10.7-2.3,10.7-0.4c0,1.5-4.5,2.3-8,4.6
	s-9.3,7.5-15.8,16.8c-7.2,10.2-12.5,30.2-14.2,31s-8-0.5-7.8-2.5s12.7-44.9,13.8-49.2C109.5,62,109.4,59.4,110,58.2z"/>
<path d="M271.1,12c30-7.7,47.8-6,53.8-5.5s10.2,1,11,1.2c1.9,0.6,0.6,2.9,0,2.9c-0.6,0-26.3,0.5-35.2,1.9
	c-25.5,4-46.2,13.2-59.2,19.2c-5.4,2.5-13.8,7.5-15.8,8.8s-3.5,1.9-5.4,0.7c-1.5-0.9-3.4-3.2-4.1-4.7S243.4,19.1,271.1,12z"/>
<path d="M267.7,26c3.2-2.2,7.4-1.2,8.2,1.5c0.8,2.8-10,36.4-11.5,40.1c-1.5,3.7-12.9,39.6-14.1,43c-1.2,3.4-2.4,7.9-3.2,9.6
	c-0.8,1.8-3.2,1.5-5.5,1.3c-2.3-0.2-3-0.4-4-1.3c-1-0.8-1.7-1.8,0.4-8.3c2.2-6.7,6-18.6,12.8-38c4-11.6,11.7-32.6,13.2-36.9
	S267.7,26,267.7,26z"/>
<path d="M95.6,64.3c-2.2-3.9-10.9-9.1-18.7,1.7c-8.2,2.2-15.2,6.5-32.9,20.3c-6,4.7-25.3,23.6-25.3,23.6S31,41.7,35,17.6
	c0.5-2.9,1.9-8,1.7-8.4c-1-2-8.8-2.9-10.6-1.5c-0.9,0.7-1.5,7-1.8,9.3c-2.4,15-9.2,49.4-10.8,59.7c-2,13.2-9.1,46.3-7.4,48.8
	c1.8,2.5,8.8,2.9,11.4,0.2c1.6-1.6,3.1-4.1,5.8-7.1c3.1-3.6,16.5-17.5,24.3-24.5c13.1-11.8,24.1-18.5,24.1-18.5
	c-6.9,11.4-10.4,29.5-8.1,34c1,2,4.8,5.2,11.8,4.4c9-1.1,14.4-10.2,20.4-30C98.3,75.3,97.6,67.8,95.6,64.3z M89.6,73
	c-0.2,6.5-2.2,11.6-6.5,21.4c-3.6,8.1-8.2,13.7-10.2,13.4c-2.5-0.4,0.6-14.2,2.5-20.1c4.6-14.1,9.5-22,12.1-21.9
	C89.5,65.9,89.7,70,89.6,73z"/>
<path d="M185.4,19.8c-0.8-0.9-2-1.5-5-1.5c-3.6,0.1-2.7,1.2-4.2,5.2c-0.6,1.7-9.2,29-11,34s-3.1,9.1-3.1,9.1s-7.4-4-16.9,0.9
	c-6.1,3.2-14,13.9-18.2,24.7c-4.6,11.8,0.3,16.2,2.8,17.5c12,6.6,23.9-12.8,23.9-12.8s-2.4,12.4-3.1,19c-0.6,4.9-0.9,10.1,0.2,10.9
	c2.2,1.8,8,0.4,8.9-0.6c0.7-0.7,1-20.3,11.9-56.3c3.9-12.9,11.1-37.9,12.9-43.5C185.4,23.1,186.6,21.1,185.4,19.8z M155.8,81.9
	c-3.8,7.2-5.2,10.6-11,16.9c-3.3,3.5-8.8,7.9-10.6,6.8c-2.3-1.5,1.8-13.7,4.9-19.6c3.4-6.4,7.6-11.6,14.1-14.9c3.6-1.8,8-1,8-1
	S159.4,75,155.8,81.9z"/>
<path class="st0" d="M213.7,79.2c1,0,9.4-0.3,10.8-0.3c1.9,0,9.8-0.1,10.4-0.2c0.4-0.1,0.6,0,0.7,0.3c0.4,0.7,0.5,1.4,0.4,2.2
	c0,0.2-0.2,0.4-0.4,0.5c-0.4,0.2-11.5,0.8-17.1,1.1c-4.6,0.3-8.9,0.9-10.6,1.5c-1.7,0.6-7,2.6-7.5,2.9c-0.1,0.1-0.2,0.4-0.2,0.6
	c-0.4,2.5-0.9,5-0.9,7.5c0,0.6-0.2,2.3-1.5,2.3c-0.7-0.1-1.3-0.3-1.9-0.4c-1.2-0.4-2.5-2-2.5-3.1c0.1-1,0.3-2,0.4-3
	c0.1-0.7,0.2-1.5,0.3-2.2c-0.6-0.1-11.5,3.5-12.5,3.6c-0.4,0-2.4-0.4-3.4-1.9c-0.5-0.7-0.9-1.5-1.1-2.4c0-0.1,0-0.2,0-0.4
	c1.2,0.1,17.2-5.5,18-5.7c0.4-0.1,0.5-0.3,0.6-0.7c0.3-1.1,3.7-10,8.7-13.8c2.4-1.9,5.1-3.3,8.1-4.1c5.2-1.4,8.3,0.5,9.3,2
	c0.7,1.2,0.9,3.6,0,4.9C218.9,75.1,214.1,78.8,213.7,79.2z M202.7,80.2c0.6,0.2,1.1,0.1,1.5,0c0.3,0,5.6-4.7,6.3-5.4
	c3.9-3.6,5.9-6.9,5.9-7.8c-0.4-0.2-3.4,0.9-7.4,4.1C204.8,75.1,202.8,80,202.7,80.2z"/>
<g>
	<g>
		<path class="st0" d="M487.9,59c-0.3-0.5-2.1-2.5-8.2-3.2c-4.9-0.5-9.4,1.4-13.8,3.4c-7.7,3.4-19.9,13.8-19.9,13.8l6.7-20.1
			l0.8-2.4c-1.3-2.2-7.4-3-8.8-2.5c-0.6,0.2-0.7,1.2-1.4,1.8c-2.5,2.3-20.8,5.8-20.8,5.8s-0.8-0.6-4.5-1.8c-3.7-1.1-5.9,0.5-6.6,1
			c-0.6,0.5-3.1,3.5-3.1,3.5s-4.4,3.2-16.4,19.3c-3.4,4.5-18.7,29.8-20.2,29.6c-2.1-0.3,1.1-19.8,19.5-74.1
			c2.6-7.5,5.6-15.3,5.6-15.6c-0.3-1.1-5-4-6-3.4c-0.7,0.4-1.5,4.9-8.2,20.1c-5.4,12.2-12.2,24.4-15.2,28.7
			c-3.9,5.4-27.4,37.5-27.3,36.5c0.2-1,12-38.1,11.9-38.6c-0.2-1.2-1.5-1.6-4.3-2.1c-2.9-0.5-2.4-0.1-7,12.2
			c-4.3,11.4-7.3,16.4-9.2,19.9c-2.6,4.9-8.4,14.3-10.7,14.1c-1.7-0.2,0.9-10.3,1.8-14.3c2-8.2,7.4-27.8,7.5-29
			c0.2-1.1-0.6-0.9-2.7-1c-2.6-0.2-4.2-0.2-4.7,1.2c-0.4,1-0.5,1.6-0.9,2.7c-0.4,1.1-5.8,14.1-7.1,16.9c-1.1,2.4-7.5,15.5-10.7,21.4
			c-2.4,4.3-5.2,6.1-7.4,4.8c-2-1.2-0.5-10.9,1-14.8c1.5-3.9,4.2-11.2,5.8-14.7s4.6-9.7,4.8-10.2c0.4-1.4-0.5-3-4-3
			c-2.2,0-3.8-1.1-4.8,1.3c-0.9,2.2-1.5,3.5-1.5,3.5s-8.1-7.8-18.8,3.4c-4.3,4.5-9.4,13.5-12.5,21.5c-5.8,14.9,5.3,19,11,17.4
			c4.4-1.2,10.5-11.4,10.5-11.4s0.7,17.4,12,12c6.9-3.3,16.1-29.5,16.1-29.5s-5.3,20.8-3.2,26.9c1,3,4.8,3.4,7.1,2.9
			c2.6-0.5,4.5-2.9,7.1-6.7c2-3,7.5-13.5,7.5-13.5l-2.7,11.4l-2.4,8.8c0,0-15.8,18.1-19.4,29.9c-1.1,3.5-1.5,10.5,5,12.2
			c4,1.1,7-0.3,7.7-0.8c3.3-1.8,6.1-7.2,7.2-10.3c1.6-4.7,5.3-23,5.8-25.2c0.5-2.2,1.4-6.8,2.1-7.4c0.6-0.6,20.7-26.7,23-29.9
			C363,78.2,373,64.6,373,64.6s-2.1,8.9-2.9,11.5c-0.8,2.6-6.7,22.5-7.5,30.5c-0.4,4.5-0.4,7.1,0.4,8.5c1,1.8,8.3,2.7,10.2,1.4
			c2.4-1.7,6.4-7.9,8.9-12.7c7.2-13.9,19.1-32.1,18-30.2c-1.1,1.9-10.2,22.2-3.7,28.6c1.7,1.7,8.4,3.5,12.4,2.1
			c5.8-2.1,10-9.5,14.7-21.1c4.4-10.9,4.3-22.8,4.3-22.8s11.3-2.4,14.8-3.9c-0.9,3.3-5,14.8-8.5,24c-4.6,12.3-10.7,24.7-10.4,25.4
			c0.5,1.1,5,4.3,6.6,4.5c1.5,0.2,5.9-19.3,26.5-36.6c5.9-5,15.8-11,21-12.6c4.9-1.5,6.6,0,8.5,0.3C487.6,61.7,488.2,59.5,487.9,59z
			 M287.9,88.8c-3.2,5.9-10.4,16.6-12.9,16.8c-8.9,0.6,7.5-33.1,17.2-33.5c3.1-0.1,3.5,0.9,3.5,0.9S290.9,83.4,287.9,88.8z
			 M317.8,148.5c-1.1,0-1.8-2.9,1.2-8.1c2.1-3.6,7.7-13.6,7.7-13.6S321.2,148.5,317.8,148.5z M414.4,81.4
			c-5.8,14.7-10.1,18.9-11.4,18.6c-1.3-0.3-1.3-6.6,0-12.1c1.3-5.5,3.3-11.5,7.2-17.1c3.7-5.4,8.1-9,8.1-9S419.2,69.4,414.4,81.4z"
			/>
	</g>
</g>
</svg>
