<?xml version="1.0" encoding="utf-8"?>
<!-- Generator: Adobe Illustrator 21.0.0, SVG Export Plug-In . SVG Version: 6.00 Build 0)  -->
<!DOCTYPE svg PUBLIC "-//W3C//DTD SVG 1.1//EN" "http://www.w3.org/Graphics/SVG/1.1/DTD/svg11.dtd">
<svg version="1.1" id="Layer_1" xmlns="http://www.w3.org/2000/svg" xmlns:xlink="http://www.w3.org/1999/xlink" x="0px" y="0px"
	 viewBox="0 0 292.3 144" style="enable-background:new 0 0 292.3 144;" xml:space="preserve">
<style type="text/css">
	.st0{fill:none;}
	.st1{fill:#FFFFFF;}
</style>
<g>
	<g>
		<rect width="144" height="144"/>
		<g>
			<g>
				<path class="st0" d="M54.4,38.6c-4.2,0-10.7,10.4-10.7,15.2c0,1.4,0.8,2.4,2.3,2.4c3.7,0,10.4-10.6,10.4-15.2
					C56.5,39.8,55.9,38.6,54.4,38.6z"/>
				<path class="st0" d="M77.2,41.3c0-0.8-0.5-1.5-1.6-1.5c-3,0-5.7,4-7.3,7.1C73.6,46.4,77.2,44.4,77.2,41.3z"/>
				<path class="st0" d="M60.7,20c0-1-0.6-2-2.2-2c-3.4,0-8.5,4.5-15.5,16.6C52.5,31,60.7,24.6,60.7,20z"/>
				<path class="st0" d="M73.3,54c0,0.9,0.5,1.4,1.3,1.4c1.1,0,2.3-1.4,4.2-3.9c-1.9,0.1-3.7,0.4-5.3,0.9
					C73.3,52.9,73.3,53.4,73.3,54z"/>
				<path class="st0" d="M114.6,56.5c0-1-1.2-1.8-3.6-1.8c-2.9,0-5.9,1.1-8.8,3.4c1.9,0.8,4.2,1.6,7.1,1.6
					C112.7,59.7,114.6,58.4,114.6,56.5z"/>
				<path class="st0" d="M15.4,30c-0.3,0-0.6,0-0.9,0c1.4,3.4,5.4,6.2,11.3,7.1C24.7,32.8,21.2,30,15.4,30z"/>
				<path class="st0" d="M82.2,48.6c-0.5,0.6-1,1.2-1.4,1.8c2.3,0,4.4,0.3,6.3,0.8c0.6-1.7,1.1-3.6,1.1-5.5c0-2-0.2-3.3-0.4-4.4
					C86.2,43.4,84.5,45.7,82.2,48.6z"/>
				<path class="st0" d="M49.4,85.4c-12.7,3.7-21,9.8-28.4,20.4c-0.3,0.4-0.7,0.9-1,1.3h10.8c3.3-10,11.5-17.6,18.6-21.3
					C49.5,85.7,49.5,85.6,49.4,85.4C49.5,85.5,49.4,85.4,49.4,85.4z"/>
				<path class="st0" d="M128.4,103.7c0-0.7-0.4-1.5-1.7-1.5c-2.4,0-6,3.7-8.4,7.6C124.1,109.8,128.4,106.6,128.4,103.7z"/>
				<path class="st0" d="M72.8,103.7c0-0.9-0.6-1.5-1.7-1.5c-2.2,0-5.7,3.2-8.4,7.6C68.3,109.9,72.8,106.6,72.8,103.7z"/>
				<path class="st1" d="M8.4,68.3c9,0,20.2-6.5,29-23.7c1.6-3.2,3.2-6,4.6-8.6c10.7-3.7,19.6-10.9,19.6-16c0-1.4-1.1-3-3.5-3
					c-5.2,0-12.3,5.3-20.6,19.3c-2.8,0.7-5.6,1.1-8.3,1.1c-0.8,0-1.6,0-2.4-0.1c-1.1-4.8-4.8-8.2-11.6-8.2c-0.4,0-0.8,0-1.2,0
					C14,28.5,14,28,14,27.5c0-5.3,4.8-8.7,12.1-8.7c6.3,0,10,3.1,11.5,4.1l0.5-0.8c-1.3-1-5.6-4.3-12.1-4.3
					c-8.2,0-13.1,4.1-13.1,9.9c0,0.5,0.1,0.9,0.1,1.4C8.3,29.6,3.8,31.9,0,35.2v1.4c3.7-3.5,8.5-6,13.3-6.5
					c1.4,3.9,6.1,7.3,12.7,8.1c0.1,0.6,0.2,1.3,0.2,2c0,8.8-9.4,15.8-13.9,17.7l0.4,0.8c4.5-1.7,14.6-8.7,14.6-18.5
					c0-0.7,0-1.3-0.1-2c0.6,0,1.2,0.1,1.8,0.1c2.6,0,5.3-0.3,8-0.9c-1.1,2-2.3,4.1-3.5,6.4C25.3,60,16.4,67,7.8,67
					c-3.1,0-5.7-0.6-7.8-1.7v1.2C2.4,67.7,5.2,68.3,8.4,68.3z M58.4,18c1.7,0,2.2,1,2.2,2c0,4.6-8.2,11-17.8,14.6
					C50,22.6,55.1,18,58.4,18z M14.5,30c0.3,0,0.6,0,0.9,0c5.9,0,9.4,2.8,10.5,7.1C19.9,36.2,15.8,33.4,14.5,30z"/>
				<path class="st1" d="M101.6,67.3c0,0.9,0.7,1.7,2,1.7c1.8,0,3.1-1.4,3.1-2.8c0-0.8-0.6-1.7-2.1-1.7
					C102.8,64.5,101.6,65.9,101.6,67.3z"/>
				<path class="st1" d="M3.3,114.8l0.5,0.8c3.6-2.3,7.2-6.2,7.2-11.8c0-4.5-3.2-8.4-9.5-8.4c-0.5,0-1,0-1.5,0.1v1.1
					c0.5,0,1-0.1,1.6-0.1c5.7,0,8.4,3.4,8.4,7.6C9.9,109,6.7,112.5,3.3,114.8z"/>
			</g>
			<g>
				<path class="st0" d="M77.2,41.3c0-0.8-0.5-1.5-1.6-1.5c-3,0-5.7,4-7.3,7.1C73.6,46.4,77.2,44.4,77.2,41.3z"/>
				<path class="st0" d="M82.2,48.6c-0.5,0.6-1,1.2-1.4,1.8c2.3,0,4.4,0.3,6.3,0.8c0.6-1.7,1.1-3.6,1.1-5.5c0-2-0.2-3.3-0.4-4.4
					C86.2,43.4,84.5,45.7,82.2,48.6z"/>
				<path class="st0" d="M54.4,38.6c-4.2,0-10.7,10.4-10.7,15.2c0,1.4,0.8,2.4,2.3,2.4c3.7,0,10.4-10.6,10.4-15.2
					C56.5,39.8,55.9,38.6,54.4,38.6z"/>
				<path class="st0" d="M114.6,56.5c0-1-1.2-1.8-3.6-1.8c-2.9,0-5.9,1.1-8.8,3.4c1.9,0.8,4.2,1.6,7.1,1.6
					C112.7,59.7,114.6,58.4,114.6,56.5z"/>
				<path class="st0" d="M73.3,54c0,0.9,0.5,1.4,1.3,1.4c1.1,0,2.3-1.4,4.2-3.9c-1.9,0.1-3.7,0.4-5.3,0.9
					C73.3,52.9,73.3,53.4,73.3,54z"/>
				<path class="st0" d="M49.4,85.4c-12.7,3.7-21,9.8-28.4,20.4c-0.3,0.4-0.7,0.9-1,1.3h10.8c3.3-10,11.5-17.6,18.6-21.3
					C49.5,85.7,49.5,85.6,49.4,85.4C49.5,85.5,49.4,85.4,49.4,85.4z"/>
				<path class="st0" d="M128.4,103.7c0-0.7-0.4-1.5-1.7-1.5c-2.4,0-6,3.7-8.4,7.6C124.1,109.8,128.4,106.6,128.4,103.7z"/>
				<path class="st0" d="M72.8,103.7c0-0.9-0.6-1.5-1.7-1.5c-2.2,0-5.7,3.2-8.4,7.6C68.3,109.9,72.8,106.6,72.8,103.7z"/>
				<path class="st1" d="M138.7,88.8c-0.9,0-1.6-0.5-1.6-1.4c0-1.3,0.9-2.8,2.3-5.5c1.8-3.5,2.9-5.5,2.9-7.3c0-1.9-1.4-3.6-4.1-3.6
					c-2.7,0-4.1,1.6-4.7,2.1l-0.1-0.1c0.9-1.8,7.2-14.1,7.2-14.1h-4c0,0-8,15.8-11.3,22.2c-2,3.9-5.1,7.5-7.5,7.5
					c-0.9,0-1.5-0.6-1.5-1.2c0-0.6,0.4-1.5,0.9-2.5c1.3-2.5,6.1-12,6.1-12h3.1l0.5-0.9h-3.1l2.4-4.7h-4l-2.4,4.7H114
					c0,0,1.3-2.5,2.6-5.1c2.6-5,5.4-7.7,7.5-7.7c1,0,1.3,0.5,1.3,1.1c0,0.5-0.5,0.9-0.5,1.7c0,1,0.7,1.5,1.8,1.5
					c1.3,0,2.1-1.1,2.1-2.3c0-1.5-1.6-3-4.8-3c-6.2,0-10.3,6.5-12.5,10.6c-0.9,1.8-1.6,3.1-1.6,3.1h-3.1l-0.5,0.9h3.1
					c0,0-2.1,4.3-3.4,7c-2.3,4.6-6.1,8.9-8.3,8.9c-1,0-1.3-0.6-1.3-1.2c0-0.6,0.4-1.6,0.9-2.6c1.3-2.5,6.6-13,6.6-13h-3.1
					c0,0-0.4,0-0.9,0c-1.9,0-6.2,0-7.1,0c3.6-7.1,6.1-10.8,8.4-12.9c0.8,0.3,3.8,1.8,7.6,1.8c4.5,0,6.8-1.9,6.8-4.2
					c0-1.7-1.8-3-5.5-3c-4.9,0-9.1,2.6-10.4,3.4c-3.1-1.7-6-3.3-9.2-4.6c0.2-0.7,0.3-1.4,0.3-2.2c0-4.1-1.6-5.6-2.1-9.8
					c1.1-0.7,2.5-1.3,2.5-2.6c0-0.6-0.4-1-1.2-1c-1.1,0-2.5,1.3-2.5,3.1c0,0,0,0,0,0c-1.6,2-4.7,5.9-6.4,8.1
					c-0.7,0.9-1.3,1.6-1.8,2.3c-2.2,0.1-4.2,0.4-6,0.9c0,0,0-0.1,0-0.1c0-2.8-1.8-3.5-3.6-3.6l0-0.1c4.6-0.5,10.3-2.9,10.3-7.1
					c0-1.7-1-2.9-2.9-2.9c-2.6,0-4.8,2-6,3.4c0,0-0.1-0.1-0.1-0.1c1.4-2.8,7.6-14.9,7.6-14.9H75c0,0-9.1,17.7-11.4,22.2
					c-1.9,3.7-5,7.7-7.1,7.7c-1.2,0-1.6-0.7-1.6-1.4c0-1.2,0.9-2.8,1.4-3.6c0.9-1.7,6.5-12.6,6.5-12.6H59c0,0-1.3,2.6-1.4,2.7
					l-0.2,0c0.1-0.7,0-3.3-3.8-3.3c-5.8,0-13.3,8.6-13.3,15.5c0,3,1.8,4.7,4.5,4.7c3.7,0,6-2.9,6.8-4.3l0.2,0.1
					c-0.3,0.5-0.3,1.1-0.3,1.6c0,1.4,1.1,2.5,3,2.5c3.7,0,6.2-3.4,7.2-4.6l0.1,0.1l-1.9,3.9h3.3c0,0,3.9-7.6,4.7-9.1
					c1.5,0,2.6,0.9,2.6,2.3c0,1.1-0.2,1.6-0.3,2.5c-5.3,2.7-7.8,7.4-7.8,11.9c0,6.4,4.6,9.5,9.3,9.5c8.9,0,12.3-7.9,12.9-9.1
					c-0.1-0.1-0.8-0.4-0.9-0.4c-0.7,1.4-4,8.4-12.1,8.4c-5.3,0-8.2-3.7-8.2-8.4c0-4.3,2.3-8.2,6.6-10.6c0,0.2,0,0.4,0,0.6
					c0,1.9,0.9,3.1,2.8,3.1c2.3,0,4.1-2,7.3-6.1c0.1,0,0.2,0,0.3,0c2.3,0,4.4,0.3,6.4,0.8c-0.1,0.3-0.3,0.7-0.4,1
					c-0.9,2.1-1.8,3.5-3.3,3.5c-1,0-1.4-0.5-1.4-1.1c0-0.8,0.8-0.8,0.8-2c0-0.6-0.3-1.1-1.3-1.1c-1.1,0-1.7,1-1.7,2.2
					c0,1.6,1.5,2.8,4.1,2.8c3.3,0,5.6-1.8,6.7-4.2c3.6,1.4,6.4,3.3,8.6,4.3c-3.7,2.7-6.4,7-10.2,14.2c-1,0-5.8,0-5.8,0l-0.6,1
					c4.4,0,4.9,0,5.9,0c-7.3,13.6-13,24-24.9,24c-6.6,0-11.3-4.2-12.4-9.4c1.4-0.9,2.9-1.8,4.4-2.6c-0.1-0.2-0.3-1-0.3-1.2
					c-0.4,0.1-2.4,0.6-4.4,0.8c0.3-10,10.4-11.4,12.3-11.7c0-0.1-0.1-0.7-0.1-0.8c-5,0.2-13.3,3.6-13.3,12.6c-0.4,0-0.8,0.1-1.1,0.1
					c-10.5,0-16.6-5.8-23.8-5.8c-8.5,0-13.1,5.4-13.1,10.9c0,7,6,9.2,7.3,9.6c0.1-0.1,0.3-0.7,0.4-0.9c-1.3-0.6-6.6-2.4-6.6-8.8
					c0-6.1,5.7-9.8,11.9-9.8c6.2,0,11.7,4.7,21.4,5.4l0.1,0.3c-12.3,3.5-20.1,11.8-25.8,19.7c-0.4,0.6-0.9,1.2-1.3,1.8h-5.5l-0.6,1
					h5.3c-5.6,7.8-11,14.9-18.1,17.6v1.2c7.8-2.7,13.2-10.5,19.3-18.8h11.3c-0.8,2.7-1.2,5.5-1.2,8.4c0,7.6,3.8,11.1,9.4,11.1
					c5.5,0,8.6-3.3,9.3-4.1c-0.1-0.1-0.6-0.7-0.7-0.7c-0.6,0.6-3.3,3.2-6.5,3.2c-4,0-7.4-2.9-7.4-9.3c0-3,0.4-5.9,1.2-8.6h8.5
					c-1,1.9-2,3.9-2.7,5.4c-0.6,1.1-1.3,2.4-1.3,4c0,2,1.6,3.4,4.6,3.4c6.7,0,10.9-8.6,12.1-11.4c0.3,0.2,1.6,0.6,2.5,0.9
					c-0.4,0.8-1.2,2.5-1.2,4.5c0,3.5,2.3,6,6.3,6c5.4,0,8.1-3.4,9.1-4.5l0.1,0.1l-1.7,3.7h3.3c0,0,4.5-8.8,5.1-9.9
					c2.2-4.2,5.1-7.5,7.8-7.5c1.1,0,1.6,0.7,1.6,1.4c0,1.3-1,3.1-2.8,6.6c-1.5,3-2.7,5.5-2.7,7.2c0,1.8,1.2,2.9,3.2,2.9
					c3.3,0,4.8-2.7,5.9-4l0.2,0.1c-0.3,1.1,0.2,4,3.6,4c3.9,0,5.6-2.9,6.6-4.1l0.2,0.1c-0.4,2.1,1.1,4,4.1,4c3.2,0,5.2-2.5,6.2-3.6
					c0.3,0.9,1.6,3.6,5.9,3.6c6.2,0,9.7-5.8,10.8-8.1l-0.9-0.4c-1.6,2.9-4.8,7.1-8.8,7.1c-2.8,0-4.1-1.8-4.1-4.2
					c0-1.8,1-3.6,1.5-4.5c7.5,0.1,12.9-4,12.9-7.1c0-1.6-1.5-2.4-3.3-2.4c-6.9,0-14.4,7.4-14.4,13.6c0,0.7,0.1,1.2,0.1,1.4
					c-0.9,0.9-3.1,3.2-5.3,3.2c-1,0-1.6-0.6-1.6-1.5c0-1.1,0.8-2.6,1.6-4.2c1.7-3.4,6-11.8,6-11.8h-4c0,0-4,7.8-5.8,11.3
					c-1.8,3.5-4.5,6.2-6.5,6.2c-1.3,0-1.8-0.8-1.8-1.5c0-1.3,0.8-2.6,1.8-4.4c1.6-3.2,5.9-11.6,5.9-11.6h-4c0,0-3.8,7.5-5.5,10.8
					c-2,3.8-4.6,6.8-6.2,6.8c-1,0-1.4-0.7-1.4-1.3c0-1.3,0.9-2.5,2.4-5.6c2.2-4.2,3.3-6.4,3.3-8.3c0-1.9-1.5-3.1-3.8-3.1
					c-2.7,0-5.1,2-6.3,3.6h-0.2l1.3-2.9h-3.3c0,0-3,5.9-4.9,9.6c-2.4,4.6-6.3,8-10.1,8c-3,0-4.2-1.9-4.2-4.2c0-1.8,1-3.5,1.5-4.4
					c7.9,0,12.9-4.2,12.9-7.1c0-1.4-1.3-2.4-3.4-2.4c-5,0-10.3,3.9-12.8,8.4c-0.8-0.3-2.3-0.9-2.6-1.1c0.3-0.8,0.6-1.9,0.6-3.7
					c0-1.4-0.5-3.6-1.9-3.6c-1.2,0-1.8,1.4-1.8,2.9c0,2.6,1,3.9,1.9,4.7c-1.1,3.4-5.7,10.6-9.9,10.6c-1.6,0-2.2-0.8-2.2-2
					c0-0.8,0.4-1.8,1.1-3.1c1.2-2.3,6.4-12.5,6.4-12.5h-4c0,0-1.2,2.4-2.6,5.2h-8.7c2.6-7.8,8-14.4,14.7-19.1c1.5,6,7.1,10,14.4,10
					c14.9,0,22.8-14.9,28.1-25.3c0.6,0,5.2,0,7.1,0c-1.1,2.1-3.7,7.2-5,9.8c-1.1,2.2-1.6,3.5-1.6,4.7c0,1.5,1.2,2.9,3.3,2.9
					c3.5,0,5.8-3.1,6.8-4.2l0.1,0.1c-3,5.2-5.5,10.9-11.6,10.9c-0.9,0-1.6-0.1-2.3-0.3l-0.4,0.9c0.9,0.3,2,0.5,3.2,0.5
					c5.8,0,10.2-3.4,15.3-13.1c2.6-4.9,6.3-12.2,6.3-12.2h5.8c0,0-3.3,6.5-5,9.9c-1.1,2.2-1.6,3.5-1.6,4.6c0,1.5,1.1,2.9,3.7,2.9
					c3.1,0,5.8-3.2,6.9-4.7l0.1,0.1c-0.4,0.8-2,3.9-2,3.9h3.5c0,0,4.3-8.4,5.5-10.8c2-3.8,4.3-6.4,6.5-6.4c1.2,0,1.8,0.7,1.8,1.7
					c0,1.4-0.8,2.8-2.6,6.2c-1.3,2.5-2.6,4.5-2.6,6.7c0,2.3,1.8,3.3,3.7,3.3c4,0,5.8-3.4,6.6-4.7v-1.9
					C143.1,85.4,140.7,88.8,138.7,88.8z M111.1,54.7c2.4,0,3.6,0.8,3.6,1.8c0,1.9-2,3.2-5.3,3.2c-2.9,0-5.2-0.8-7.1-1.6
					C105.2,55.8,108.1,54.7,111.1,54.7z M46.1,56.2c-1.5,0-2.3-1-2.3-2.4c0-4.8,6.4-15.2,10.7-15.2c1.5,0,2.1,1.2,2.1,2.4
					C56.5,45.7,49.8,56.2,46.1,56.2z M68.3,46.8c1.6-3,4.4-7.1,7.3-7.1c1,0,1.6,0.7,1.6,1.5C77.2,44.4,73.6,46.4,68.3,46.8z
					 M74.5,55.4c-0.8,0-1.3-0.5-1.3-1.4c0-0.5,0.1-1.1,0.2-1.6c1.6-0.5,3.4-0.8,5.3-0.9C76.8,54,75.6,55.4,74.5,55.4z M87.1,51.2
					c-1.9-0.5-4-0.8-6.3-0.8c0.4-0.6,0.9-1.2,1.4-1.8c2.3-2.9,4-5.2,5.6-7.2c0.2,1.1,0.4,2.4,0.4,4.4C88.2,47.7,87.7,49.5,87.1,51.2
					z M126.7,102.2c1.3,0,1.7,0.7,1.7,1.5c0,2.8-4.3,6.1-10.1,6.1C120.7,106,124.3,102.2,126.7,102.2z M71.1,102.2
					c1.1,0,1.7,0.6,1.7,1.5c0,2.9-4.4,6.1-10.1,6.1C65.4,105.5,68.9,102.2,71.1,102.2z M30.9,107.2H20c0.3-0.4,0.7-0.9,1-1.3
					c7.4-10.6,15.7-16.8,28.4-20.4c0,0,0,0,0,0.1c0,0.1,0,0.3,0,0.4C42.4,89.6,34.2,97.2,30.9,107.2z"/>
			</g>
		</g>
	</g>
	<g>
		<rect x="148.3" y="0" width="144" height="144"/>
		<g>
			<polygon class="st1" points="269.9,74.2 269.9,97.9 245.7,97.9 245.7,74.2 241.2,74.2 241.2,126 245.7,126 245.7,102.2 
				269.9,102.2 269.9,126 274.3,126 274.3,74.2 			"/>
			<polygon class="st1" points="274.3,22.3 274.3,18 241.2,18 241.2,69.8 245.7,69.8 245.7,46.1 274.3,46.1 274.3,41.8 245.7,41.8 
				245.7,22.3 			"/>
			<polygon class="st1" points="237.6,22.3 237.6,18 204.5,18 204.5,69.8 208.9,69.8 208.9,46.1 237.6,46.1 237.6,41.8 208.9,41.8 
				208.9,22.3 			"/>
			<polygon class="st1" points="204.5,74.2 204.5,78.5 218.8,78.5 218.8,126 223.3,126 223.3,78.5 237.6,78.5 237.6,74.2 			"/>
			<path class="st1" d="M183.1,17.6c-9.4,0-17.8,6.7-17.8,20.5v11.6c0,13.8,8.4,20.5,17.8,20.5c9.4,0,17.8-6.7,17.8-20.5V38.1
				C200.9,24.3,192.5,17.6,183.1,17.6z M196.4,50c0,10.4-6.4,15.9-13.3,15.9c-7,0-13.3-5.5-13.3-15.9V37.8
				c0-10.4,6.4-15.9,13.3-15.9c7,0,13.3,4.6,13.3,15.9V50z"/>
			<g>
				<path class="st1" d="M184,86c-5.1,0-9.9,2-13.2,6V78.5h29.7v-4.3h-34.1v28.1h4.7c1.4-7.8,7-12,13-12c7,0,13.3,4.6,13.3,15.9
					c0,10.4-6.4,15.9-13.3,15.9c-5.8,0-11.2-3.9-12.8-11.2h-4.5c1.8,10.4,9.1,15.6,17.4,15.6c9.4,0,17.7-6.6,17.8-20.2
					C201.6,92.6,193.3,86,184,86z"/>
			</g>
		</g>
	</g>
</g>
</svg>
