<?xml version="1.0" encoding="utf-8"?>
<!-- Generator: Adobe Illustrator 21.0.0, SVG Export Plug-In . SVG Version: 6.00 Build 0)  -->
<!DOCTYPE svg PUBLIC "-//W3C//DTD SVG 1.1//EN" "http://www.w3.org/Graphics/SVG/1.1/DTD/svg11.dtd">
<svg version="1.1" id="Layer_1" xmlns="http://www.w3.org/2000/svg" xmlns:xlink="http://www.w3.org/1999/xlink" x="0px" y="0px"
	 viewBox="0 0 307.9 51.2" style="enable-background:new 0 0 307.9 51.2;" xml:space="preserve">
<style type="text/css">
	.st0{fill:#010101;}
</style>
<path class="st0" d="M41.7,26.8c-8.2,16.1-17,22.9-25.6,22.9c-9.6,0-14.9-6.2-14.9-14.5c0-10.6,10-20.7,20.5-21.9
	c1.5,3.7,6,7,12.3,7.8c0.1,0.7,0.2,1.3,0.2,2.1c0,8.7-8.9,15.4-13.7,17.5l0.5,1C25.5,40,35.5,33,35.5,23.3c0-0.7-0.1-1.3-0.1-2
	c0.6,0,1.2,0.1,1.8,0.1c2.6,0,5.3-0.3,8-0.9C44.1,22.4,42.9,24.5,41.7,26.8 M23.7,13.2c5.5,0,8.9,2.6,10.1,6.6
	c-5.4-0.8-9.2-3.4-10.7-6.5C23.3,13.2,23.5,13.2,23.7,13.2 M66.7,1.2c1.4,0,2.2,0.9,2.2,1.8c0,4.6-8.1,10.8-17.6,14.3
	C58.3,5.6,63.3,1.2,66.7,1.2 M70.1,3c0-1.4-1.2-3-3.7-3C61.3,0,54.2,5.3,46,19c-2.9,0.7-5.7,1.1-8.4,1.1c-0.9,0-1.7,0-2.5-0.1
	c-1.1-4.7-4.9-8-11.5-8c-0.3,0-0.6,0-0.9,0c-0.1-0.5-0.2-1-0.2-1.5c0-4.9,4.6-8.4,11.8-8.4c6.1,0,10.2,3.1,11.4,3.9l0.6-0.9
	c-1.3-1-5.6-4.3-12-4.3c-8.2,0-13.1,4.1-13.1,9.9c0,0.5,0.1,0.9,0.1,1.4C10.5,13.4,0,23.9,0,35.4c0,9.8,6.6,15.8,16.8,15.8
	c9,0,20.2-6.5,28.9-23.7c1.6-3.2,3.1-6,4.6-8.5C61,15.4,70.1,8.3,70.1,3"/>
<path class="st0" d="M75.3,31.6c1.6-3.2,4.3-6.3,6.9-6.3c1.1,0,1.7,0.7,1.7,1.5C83.9,29.4,80.5,31.3,75.3,31.6 M52.9,41
	c-1.2,0-2-0.7-2-2.5c0-4.5,5.9-14.1,10.1-14.1c1.5,0,2.2,0.9,2.2,2.1C63.3,31.2,57,41,52.9,41 M98.1,23.6c0-0.6-0.4-1.1-1.2-1.1
	c-1.1,0-2.4,1.2-2.5,2.9c-1.7,1.9-4.2,4.8-6.3,7.6c-3.6,4.7-5.2,7.6-7.3,7.6c-0.5,0-0.9-0.2-0.9-1c0-1,0.7-2,0.7-3.8
	c0-2.5-1.9-3.1-3.6-3.2l0.1-0.2c4.6-0.5,9.8-2.2,9.8-6.4c0-1.3-0.7-3-3.3-3c-2.4,0-4.4,2.3-5.4,3.3l-0.1-0.1
	c1.4-2.8,7.9-15.5,7.9-15.5h-3.9c0,0-9.2,17.9-11.4,22.3c-1.9,3.7-5.3,7.8-7.6,7.8c-0.8,0-1.2-0.4-1.2-1.2c0-1.3,1.1-3.2,1.5-4
	c0.9-1.7,6.1-12,6.1-12h-3.8c0,0-1.2,2.3-1.3,2.5L64.2,26c0-0.8,0-3.1-3.9-3.1c-5.8,0-12.9,7.9-12.9,14.8c0,3,1.9,4.7,4.6,4.7
	c3.9,0,5.8-3.1,6.7-4.3l0.2,0.1c-0.1,0.2-0.3,1-0.3,1.6c0,1.4,0.9,2.5,3.1,2.5c3.5,0,6.1-3.4,6.9-4.4l0.1,0.1l-1.8,3.6h3.3
	c0,0,3.8-7.5,4.6-8.9c1.6,0,2.7,0.8,2.7,2.3c0,1.3-0.8,2.4-0.8,4.5c0,1.9,1.2,2.8,3.2,2.8c2.9,0,4.3-2.3,8.9-8.4
	c2.4-3.1,4.3-5.6,5.9-7.4c0.1,1.1,0.3,2.5,0.3,4.6c0,2.2-0.5,4.7-1.4,6.9c-0.8,1.9-2,3.1-3.5,3.1c-0.8,0-1.3-0.4-1.3-1
	c0-0.7,0.7-0.8,0.7-1.7c0-0.5-0.3-1.1-1.3-1.1c-1.1,0-1.8,1-1.8,2.2c0,1.6,1.4,2.8,4.3,2.8c4.6,0,7-3,7-6.6c0-4.1-1.6-6.2-1.9-9.8
	C97.1,25.6,98.1,24.8,98.1,23.6"/>
<path class="st0" d="M138.2,19.2c0,0.9,0.7,1.7,2,1.7c1.8,0,3.1-1.4,3.1-2.8c0-0.8-0.6-1.7-2.1-1.7
	C139.4,16.4,138.2,17.8,138.2,19.2"/>
<path class="st0" d="M148,5.2c2.4,0,3.8,1,3.8,2.1c0,1.4-1.6,2.8-5,2.8c-2.9,0-5.2-0.8-7.1-1.6C142.5,6.3,145.3,5.2,148,5.2
	 M87.3,46.4c1.3,1,5.1,4.7,13.1,4.7c12.9,0,19.7-9,25.7-20.7c0.9-1.8,1.9-3.7,2.9-5.6h7.1c-1.2,2.3-3.9,7.7-5.2,10.2
	c-1.1,2.2-1.6,3.5-1.6,4.7c0,1.5,0.9,2.8,3.1,2.8c3.6,0,6.3-3.5,7-4.3l0.1,0.1c-2.9,5-5.6,11.5-11.7,11.5c-1.2,0-2.1-0.3-2.3-0.4
	l-0.6,1.1c0.2,0.1,1.3,0.6,3.2,0.6c5.8,0,10.8-4.5,15.8-14.3c2.5-4.9,6.1-12,6.1-12h5.8c0,0-3.5,6.8-5.2,10.1
	c-1.1,2.2-1.5,3.6-1.5,4.6c0,1.5,0.8,2.9,3.3,2.9c3.3,0,6.1-3.2,7.1-4.4l0.1,0.1c-0.4,0.8-1.8,3.6-1.8,3.6h3.4c0,0,4.5-8.8,5.8-11.3
	c2-3.8,4.3-6.2,6.5-6.2c1.2,0,1.8,0.8,1.8,1.7c0,1.3-0.8,2.7-2.5,6c-1.3,2.5-2.8,5-2.8,7.2c0,2.3,1.6,3.3,3.5,3.3
	c4.2,0,6.8-4.4,7.7-6.1l-1-0.4c-0.9,1.7-3.1,4.8-5.4,4.8c-0.9,0-1.3-0.5-1.3-1.3c0-1.2,1-3.1,2.4-5.8c1.8-3.5,3-5.4,3-7.3
	s-1.4-3.6-4.2-3.6c-2.4,0-3.8,1.2-4.4,1.7l-0.1-0.1c0.9-1.8,7-13.7,7-13.7h-3.9c0,0-8.3,16.2-11.6,22.7c-1.8,3.6-5.4,7.4-7.7,7.4
	c-0.9,0-1.3-0.6-1.3-1.2c0-0.6,0.3-1.4,0.8-2.4c1.3-2.5,6.3-12.3,6.3-12.3h3.1l0.6-1.1h-3.1l2.4-4.7h-4l-2.4,4.7h-5.8
	c0,0,1.3-2.5,2.6-5.1c2.6-5,5.4-7.3,7.3-7.3c0.8,0,1.4,0.3,1.4,0.9c0,0.6-0.4,0.8-0.4,1.6c0,1,0.7,1.5,1.8,1.5
	c1.3,0,2.1-1.1,2.1-2.2c0-1.5-1.6-3-4.8-3c-6.2,0-10.3,6.5-12.5,10.6c-0.9,1.8-1.6,3-1.6,3h-3.1l-0.6,1.1h3.1c0,0-2.1,4.1-3.4,6.7
	c-2.2,4.3-6.1,9.3-8.5,9.3c-0.8,0-1.2-0.5-1.2-1.2c0-0.6,0.3-1.5,0.8-2.5c1.3-2.6,1.3-2.6,6.9-13.5h-11c3.9-7.5,6.8-12.2,9.1-14.3
	c0.8,0.3,4.5,1.9,8.1,1.9c4.4,0,6.5-1.7,6.5-4c0-1.7-1.3-3.4-5.2-3.4c-4.9,0-9.3,2.6-10.6,3.4C131.3,4,126.2,0.6,118,0.6
	c-12.5,0-18.2,7.3-18.2,14.1c0,6.4,4.7,9.4,9.7,9.4c9.1,0,11.9-7.9,12.5-9.1c-0.1-0.1-1-0.5-1.1-0.5c-0.7,1.4-3.5,8.4-11.4,8.4
	c-5.5,0-8.4-3.5-8.4-8.2c0-6.8,6.1-12.9,16.8-12.9c8.6,0,14.3,4.3,18.2,6.2c-3.7,2.7-6.9,7.8-10.9,15.5h-5.8l-0.7,1.1h5.9
	c-0.9,1.8-1.9,3.6-2.7,5.3c-6.4,12.5-12.3,19.5-22.6,19.5c-6.1,0-9.6-3.1-11.2-4.3L87.3,46.4z"/>
<path class="st0" d="M197.6,29c0.3-0.4,0.7-0.9,1-1.3C206,17,214.2,10.9,226.9,7.2c0,0.1,0.1,0.3,0.2,0.4
	c-7.1,3.8-15.3,11.3-18.7,21.3h-10.8V29z M248.5,24.3c1.1,0,1.7,0.5,1.7,1.3c0,2.6-4.3,5.9-10,5.9C242.9,27.1,246.1,24.3,248.5,24.3
	 M304,24.3c1.2,0,1.7,0.7,1.7,1.3c0,2.7-4.5,5.9-10,5.9C298,27.7,301.3,24.3,304,24.3 M160.8,46.9c0.5,0.6,3.5,4.2,10.1,4.2
	c11.3,0,18.3-10.8,25.8-21H208c-0.8,2.6-1.3,5.8-1.3,8.7c0,7.6,4.4,12.3,11.5,12.3c5.9,0,9.2-3,9.7-3.5c-0.1-0.1-0.8-0.8-0.8-0.9
	c-0.4,0.3-3.3,2.8-6.7,2.8c-6.3,0-9.4-4.1-9.4-10.3c0-2.8,0.6-6.5,1.3-9.2h8.4c-1,1.9-1.9,3.7-2.7,5.2c-0.6,1.1-1.2,2.4-1.2,4
	c0,2,1.3,3.3,4.2,3.3c7.4,0,11.3-8.5,12.5-11.3c0.3,0.2,1.6,0.6,2.5,0.9c-0.4,0.8-1.1,2.6-1.1,4.5c0,3.3,2.2,5.9,6.3,5.9
	c5.1,0,8-3.3,9-4.4l0.1,0.1l-1.6,3.6h3.3c0,0,4.5-8.8,5.1-9.9c2.1-4.2,5.5-7.4,7.8-7.4c1.1,0,1.6,0.7,1.6,1.4c0,1.3-1,3.1-2.8,6.6
	c-1.6,3.1-2.7,5.5-2.7,7.1c0,1.8,1.2,2.9,3.2,2.9c3,0,4.9-2.6,5.8-3.6V39c-0.1,1.2,0.3,3.6,3.8,3.6c3.4,0,5.5-2.7,6.4-3.8l0.2,0.1
	c-0.2,1.8,0.9,3.6,3.9,3.6s5.4-2.4,6.5-3.4c0.4,0.8,1.6,3.4,5.8,3.4c6.2,0,9.7-5.8,10.8-8.1l-1-0.4c-1.6,2.9-5,7-8.7,7
	c-2.8,0-4.1-1.6-4.1-4c0-1.8,0.9-3.5,1.5-4.4c7.4,0.1,13-4,13-7.2c0-1.5-1.3-2.4-3.3-2.4c-7,0-14.3,7.5-14.3,13.6
	c0,0.7,0.1,1.2,0.1,1.4c-0.8,0.9-3.3,3-5.3,3c-1,0-1.6-0.6-1.6-1.5c0-1.1,0.7-2.5,1.6-4.1c1.7-3.4,6-11.8,6-11.8h-4
	c0,0-4,7.8-5.8,11.3s-4.6,6.1-6.6,6.1c-1.1,0-1.6-0.6-1.6-1.4c0-1.3,0.8-2.6,1.7-4.4c1.6-3.2,5.9-11.6,5.9-11.6h-4
	c0,0-3.8,7.5-5.5,10.7c-2,3.8-4.6,6.6-6.3,6.6c-0.7,0-1.1-0.4-1.1-1.1c0-1.2,0.8-2.5,2.3-5.5c2.2-4.2,3.3-6.4,3.3-8.3
	s-1.5-3.1-3.8-3.1c-3,0-5.3,2.4-6.2,3.4h-0.2l1.2-2.7h-3.3c0,0-3,5.9-4.9,9.5c-2.3,4.6-6.4,7.8-10.1,7.8c-2.9,0-4.1-1.8-4.1-4
	c0-1.6,0.9-3.5,1.4-4.4c8.1,0,13-4.3,13-7.2c0-1.5-1.2-2.4-3.5-2.4c-4.6,0-9.8,3.5-12.5,8.1c-0.8-0.3-2.4-0.9-2.7-1.1
	c0.3-0.8,0.5-1.7,0.5-3.5c0-1.4-0.5-3.6-1.9-3.6c-1.2,0-1.8,1.4-1.8,2.9c0,2.4,0.9,3.7,1.7,4.5c-1.3,3.7-6,10.5-9.9,10.5
	c-1.2,0-2.1-0.5-2.1-1.7c0-0.8,0.4-1.8,1-3.1c1.2-2.3,6.4-12.5,6.4-12.5h-3.9c0,0-1.2,2.4-2.7,5.2h-8.6c3.2-9.8,11-17.7,20.1-22.3
	c-0.1-0.2-0.3-1-0.3-1.2c-0.6,0.1-4.3,1-6.5,1c-10.5,0-16.6-5.7-23.8-5.7c-8.5,0-13,5.4-13,10.9c0,7,6,9.2,7.2,9.6
	c0.1-0.1,0.4-0.9,0.5-1c-1.3-0.6-6.4-2.3-6.4-8.7c0-5.9,5.4-9.5,11.7-9.5c5.9,0,11,4.2,20.2,5.3l0.1,0.3
	c-11.5,3.5-19.4,11.4-25.1,19.3c-0.5,0.7-0.9,1.3-1.4,2h-5.2l-0.6,1.1h5.1c-7,9.8-13.8,19.7-24.1,19.7c-5.4,0-8.4-3.4-8.9-3.9
	L160.8,46.9z"/>
</svg>
