<?xml version="1.0" encoding="UTF-8"?>
<svg width="271px" height="271px" viewBox="0 0 271 271" version="1.1" xmlns="http://www.w3.org/2000/svg" xmlns:xlink="http://www.w3.org/1999/xlink">
    <!-- Generator: Sketch 47.1 (45422) - http://www.bohemiancoding.com/sketch -->
    <title>Vacation</title>
    <desc>Created with Sketch.</desc>
    <defs>
        <polygon id="path-1" points="0.00036809816 185.276074 199.976687 185.276074 199.976687 0.875460123 0.00036809816 0.875460123"></polygon>
        <polygon id="path-3" points="0 185.628221 199.976687 185.628221 199.976687 1.22699387 0 1.22699387"></polygon>
    </defs>
    <g id="Symbols" stroke="none" stroke-width="1" fill="none" fill-rule="evenodd">
        <g id="Vacation">
            <circle id="Oval-4" fill="#FAFAFA" cx="136" cy="136" r="135"></circle>
            <g id="Page-1" transform="translate(36.000000, 42.000000)">
                <g id="Group-3" transform="translate(0.000000, 0.352147)">
                    <mask id="mask-2" fill="white">
                        <use xlink:href="#path-1"></use>
                    </mask>
                    <g id="Clip-2"></g>
                    <path d="M72.5353374,42.2141104 L72.5353374,27.3650307 C72.5353374,20.8079755 77.8703067,15.4730061 84.427362,15.4730061 L115.550061,15.4730061 C122.107117,15.4730061 127.442086,20.8079755 127.442086,27.3650307 L127.442086,42.2141104 L89.0310429,42.2141104 L72.5353374,42.2141104 Z M182.827362,42.2141104 L142.039632,42.2141104 L142.039632,27.3650307 C142.039632,12.7588957 130.156196,0.875460123 115.550061,0.875460123 L84.427362,0.875460123 C69.82,0.875460123 57.9377914,12.7588957 57.9377914,27.3650307 L57.9377914,42.2141104 L17.1500613,42.2141104 C7.71693252,42.2141104 0.00036809816,49.9319018 0.00036809816,59.3638037 L0.00036809816,168.125767 C0.00036809816,177.558896 7.71693252,185.276687 17.1500613,185.276687 L182.827362,185.276687 C192.259264,185.276687 199.977055,177.558896 199.977055,168.125767 L199.977055,59.3638037 C199.977055,49.9319018 192.259264,42.2141104 182.827362,42.2141104 L182.827362,42.2141104 Z" id="Fill-1" fill="#4A4A4A" mask="url(#mask-2)"></path>
                </g>
                <mask id="mask-4" fill="white">
                    <use xlink:href="#path-3"></use>
                </mask>
                <g id="Clip-5"></g>
                <polygon id="Fill-4" fill="#FEFEFE" mask="url(#mask-4)" points="32.993865 185.611043 41.7533742 185.611043 41.7533742 42.5030675 32.993865 42.5030675"></polygon>
                <polygon id="Fill-6" fill="#FEFEFE" mask="url(#mask-4)" points="158.046626 185.611043 166.804908 185.611043 166.804908 42.5030675 158.046626 42.5030675"></polygon>
                <path d="M136.557914,70.1866258 C136.545644,71.1007362 136.177546,71.9559509 135.522331,72.5939877 C135.025399,73.0774233 134.403313,73.3952147 133.722331,73.5130061 C132.606994,73.7068712 131.469571,73.337546 130.68184,72.5277301 C129.365276,71.1743558 129.394724,69.0025767 130.746871,67.6860123 C131.243804,67.2025767 131.867117,66.8847853 132.548098,66.7669939 C133.663436,66.5731288 134.799632,66.942454 135.588589,67.7522699 C136.226626,68.4074847 136.570184,69.2725153 136.557914,70.1866258 M140.553006,57.1191411 L119.087975,54.0823313 C118.035215,53.933865 116.951779,54.2872393 116.191043,55.0283436 L82.5615951,87.7559509 C81.3959509,88.8896933 80.7407362,90.4099387 80.7186503,92.0369325 C80.6965644,93.6639264 81.3100613,95.2013497 82.4438037,96.3669939 L105.670798,120.234479 C107.126012,121.730184 109.168957,122.316687 111.085521,121.984172 C112.252393,121.781718 113.371411,121.239387 114.283067,120.35227 L147.524785,88.0025767 C148.529693,87.0246626 149.031534,85.6087117 148.867117,84.2148466 L146.36773,63.0516564 C145.890429,60.0516564 143.562822,57.6700613 140.553006,57.1191411" id="Fill-7" fill="#FEFEFE" mask="url(#mask-4)"></path>
            </g>
        </g>
    </g>
</svg>