<?xml version="1.0" encoding="utf-8"?>
<!-- Generator: Adobe Illustrator 21.0.0, SVG Export Plug-In . SVG Version: 6.00 Build 0)  -->
<!DOCTYPE svg PUBLIC "-//W3C//DTD SVG 1.1//EN" "http://www.w3.org/Graphics/SVG/1.1/DTD/svg11.dtd">
<svg version="1.1" id="Layer_1" xmlns="http://www.w3.org/2000/svg" xmlns:xlink="http://www.w3.org/1999/xlink" x="0px" y="0px"
	 viewBox="0 0 756 518.2" style="enable-background:new 0 0 756 518.2;" xml:space="preserve">
<style type="text/css">
	.st0{fill:#E94F3D;}
	.st1{fill:#FFFFFF;}
</style>
<g>
	<path class="st0" d="M752.8,6.8c-0.4,1.2-0.8,2.4-1.1,3.1c-1.6,1.2-2.7,0.4-3.6-0.1c-2.1-1.2-4.3-1.7-6.8-1.7
		c-4.2-0.1-7.7,2-9.7,5.8c1.8,1,3.4-0.2,5-0.5c3.2-0.5,6.4-0.5,9.7,0c2.4,0.4,4.3,1.4,5.9,3.1c1.1,1.3,2.2,2.7,2,4.5
		c-0.2,1.9-0.6,3.7-2.1,5.1c-2.1,1.9-4.5,3.2-7.5,3.6c-1.4,0.2-2.8,0.6-4.2,0.5c-4.4-0.4-8.5-1.6-11.7-4.9c-2-2.1-3.1-4.7-3.2-7.7
		c-0.1-2.7,0.3-5.3,1.8-7.6c1.9-2.7,4.2-4.9,7.4-6.1c2.8-1.1,5.6-1.5,8.5-1.1C746.6,3.3,749.9,4,752.8,6.8z M732.8,21.6
		c2.1,2.3,5,3.1,8.1,3.2c2.8,0.1,5.3-0.8,7.5-2.5c0-0.8,0-1.4,0-2c-0.5-0.5-1-1-1.4-1.4c-5-1.5-9.6-0.7-14.1,1.3
		C732.8,20.7,732.8,21.1,732.8,21.6z"/>
	<path class="st0" d="M740.5,490.6c2.6-0.2,5.1,0.5,7.3,1.4c4.5,1.9,6.9,5,7.7,10c0.1,0.8,0.7,1.7,0.5,2.4c-0.6,2.6-0.8,5.3-2.3,7.7
		c-1.1,1.9-2.7,3.1-4.4,4c-1.4,0.7-3,1.4-4.7,1.6c-1.6,0.2-3.2,0.7-4.8,0.4c-2.7-0.4-5.6-0.7-8-2.3c-2.8-1.9-4.9-4-5.7-7.5
		c-0.3-1.3-0.5-2.6-0.5-4c0.2-6.7,3.7-10.6,9.3-13C736.5,490.7,738.6,490.8,740.5,490.6z M730.9,506.3c0.6,1.3,1,2.3,1.6,3
		c1.8,2.2,4.4,3.1,7.2,3.5c1.4,0.2,2.8-0.4,4.2-0.5c4.4-0.4,7.9-6,6.1-10.3c-0.6-1.4-1.1-3.1-2.5-4c-2.9-1.8-6.3-2.5-9.6-1.8
		c-1.5,0.3-3.3,0.8-4.4,2.4c-0.9,1.3-1.8,2.6-2.6,3.7C730.9,503.8,730.9,505.1,730.9,506.3z"/>
	<path class="st0" d="M10.5,0c1.2,0.3,2.8-0.6,3.9,1c0,0.7,0,1.4,0,2.2c0,7.4,0,14.9,0,22.3c-0.3,0.3-0.5,0.5-0.8,0.8
		c-1,0-2,0-3.2,0c-1.1-1-1.4-2.3-1.4-3.8C9,16.3,9,10.1,8.9,3.9C8.9,2.5,9.2,1.3,10.5,0z"/>
	<path class="st0" d="M15.6,496.6c-4.2,0-8.1,0-12,0c-1.3,0-2.5-0.1-3.6-0.9c0.4-1.4-0.7-3.1,0.8-4.4c6.8,0,13.6,0,20.5,0
		c0.6,0.6,1.2,1.2,2,2c0,0.8,0,1.7,0,2.6c-4.9,7.2-9.2,14.8-14.2,21.7c-1.5,0-2.6,0-3.9,0c-0.9-0.7-1.4-1.3-0.5-2.6
		c1.8-2.5,3.2-5.2,4.9-7.8c1.9-3,3.9-5.9,5.9-8.9C15.7,497.8,15.6,497.2,15.6,496.6z"/>
</g>
<g id="nDZFYP_5_">
	<g>
		<path class="st1" d="M422.7,93.5c0,7.1-1.7,12.6-4.3,17.8c-1.7,3.4-0.9,6,1.3,8.8c2.7,3.5,5.1,7.4,7.2,11.4
			c0.9,1.6,1.2,3.6,1.4,5.5c1.1,10.7-1,20.8-8.7,28.6c-4.6,4.7-10.2,8.6-17.3,9.6c-4.5,0.6-8.8,1.6-13.3,2.4
			c-0.8,0.1-1.6-0.2-2.4-0.3c-0.9-0.1-1.9-0.4-2.8-0.4c-5.1,0.2-10.3,0.9-15.3,0.5c-2.6-0.2-5-0.4-7.6,0.2c-2.3,0.5-4.9,0.5-7.2,0
			c-9.7-2-19.6,0.4-29.4-1.3c-1.4-0.2-3,0.6-4.4,0.5c-3.5-0.2-5.1-2-5.2-5.5c-0.1-6.9,0.1-13.8-0.1-20.7c0-1.5-0.9-3-0.7-4.4
			c1.7-13,0.1-26.1,0.9-39.1c0.2-3-0.4-5.9-0.2-8.8c0.3-3.6,0.7-7.1,0.8-10.7c0-2.3-0.8-4.6-0.7-6.9c0.1-4.5,0.5-9.1,0.8-13.6
			c0.1-1.1,3.2-2.9,5-2.9c4.1,0.2,8.3-0.1,12.4,0c3.5,0.1,6.9,0.5,10.4,0.6c1.7,0,3.5-0.1,5.2-0.5c2.3-0.5,4.3,0.9,6.7,0.3
			c3.2-0.7,6.7-0.9,10,0.4c0.8,0.3,2,0.2,2.9,0c8.7-1.8,17.5-1.2,26.1-0.6c9.6,0.8,18.3,4.4,23.8,13.4c1.9,3.1,2.7,6.5,3.5,9.9
			C422.3,89.8,422.5,92.2,422.7,93.5z M366.4,129.1c-7.8,0-15.6,0-23.4,0c-3.2,0-5.4,1.4-5.5,4.3c-0.3,5.7-0.2,11.4,0,17.1
			c0,0.9,1.1,2.5,1.9,2.7c3.4,0.6,6.8,0.9,10.3,0.9c2.5,0,5-0.3,7.5-0.7c1.5-0.3,2.6,0.6,4.3,0.3c3.8-0.7,7.7-0.2,11.6-0.1
			c1.8,0.1,3.6,0.5,5.3,0.5c3.7-0.1,7.5-0.8,11.2-0.6c4.5,0.2,8.4-1.3,12.1-3.4c0.7-0.4,1.4-0.9,1.8-1.6c1.6-2.9,2.3-6,1.6-9.2
			c-0.8-3.7-2.4-7.3-6.4-8.3c-4.1-1-8.2-2.1-12.6-1.9C379.5,129.3,372.9,129.1,366.4,129.1z M399.3,96.3c0-5.3-2.7-8.6-7.6-9
			c-5.8-0.4-11.6-0.7-17.5-0.8c-8.6-0.1-17.2,0-25.9,0c-1.1,0-2.4,0.3-3.3-0.1c-2.5-1.2-4.4-0.1-6.5,0.9c-1.5,0.6-2.4,1.2-1.4,3
			c0.4,0.9,0.5,2.4,0.1,3.2c-1.7,3.4,0.3,6.5,0.6,9.6c0.1,0.9,1.6,2.5,2.3,2.5c4.5-0.5,8.9,2.1,13.5,0.5c1.8-0.6,4,0.2,6.1,0.3
			c1.2,0,2.4-0.2,3.7-0.2c1.1-0.1,2.1-0.2,3.2-0.1c2.2,0.1,4.4,0.5,6.6,0.4c2.7-0.1,5.8-1.3,8.1-0.5c3.5,1.2,6.6,0,9.7-0.5
			C396.6,104.7,399.3,101.4,399.3,96.3z M326.1,93.3c-0.1,0.1-0.2,0.2-0.3,0.3c0.1,0.1,0.2,0.2,0.3,0.3c0.1-0.1,0.3-0.2,0.3-0.3
			C326.4,93.5,326.2,93.4,326.1,93.3z"/>
		<path class="st1" d="M232,105.7c0.3-6.5,0.7-12.4,0.8-18.3c0-3.1-0.6-6.2-0.6-9.3c0-3.7,0.4-7.4,0.7-11.1c0.2-2.3,1.9-3.5,4.1-3.1
			c3.1,0.6,6.2-0.3,9.3-0.1c0.7,0.1,1.4,0,2.1,0c5.2,0.3,6.6,2.3,5.9,7.4c-0.3,2.1,0.1,4.3,0.2,6.4c0,0.4,0.2,0.8,0.1,1.2
			c-0.6,4.7,0.8,9.5-0.7,14.2c-0.4,1.1-0.3,2.5,0,3.7c1.6,6.7,0.9,13.6,0.5,20.3c-0.2,3.3,0,6.5,0.2,9.7c0.2,4-0.3,8.1,0,12.2
			c0.1,2.3-0.6,4.6-0.7,6.9c-0.1,2.9,0.1,5.8,0.2,8.8c0.1,3.6,0.1,7.2,0.3,10.8c0.2,2.8-2,5.3-0.6,8c-2.5,1-4.7,2.4-7.1,2.8
			c-2.2,0.3-4.5-0.4-6.8-0.7c-1.2-0.2-2.4-0.5-3.6-0.6c-2.3-0.2-3.1-0.8-3.4-3.1c-0.8-6.7-1.2-13.4-0.6-20.2
			c0.6-6.1,1.1-12.3-0.3-18.4c-0.6-2.9-1.7-4.1-4.6-4.2c-5.6-0.1-11.2-0.3-16.7,0.1c-3.3,0.2-6.3,0.7-9.7,0.1
			c-3-0.6-6.3,0.5-9.4,0.6c-4.3,0.1-8.6,0-13,0c-0.8,0-1.7-0.1-2.5,0c-3.3,0.3-4.3,1.4-4.3,4.7c0,11.6,0,23.1,0,34.7
			c0,6.1-1.4,7.7-7.5,8.2c-3.6,0.3-7.2,0.2-10.9,0c-3.1-0.1-4.9-2-5.7-5.5c-0.2-1.1-0.2-2.2-0.2-3.3c0-32.6,0-65.2,0-97.8
			c0-4.7,1.3-6.6,5.2-7.6c0.4-0.1,0.8-0.3,1.2-0.2c3.8,0.2,7.7,0.6,11.5,0.8c3.7,0.2,5.3,1.8,5.4,5.7c0.3,10.7,0.5,21.3,0.8,32
			c0.1,2.9,0.8,3.7,3.9,4.2c6.5,1.1,13.1,0.7,19.7,0.8c3.4,0,6.7,0.2,10.1,0.2c3.5,0,6.9-0.1,10.4-0.2c3.2-0.1,6.4,0.9,9.7,0
			C227.6,106.1,229.7,106,232,105.7z M251.1,122c-0.1-0.1-0.2-0.2-0.3-0.3c-0.1,0.1-0.3,0.2-0.3,0.3c0,0.1,0.2,0.3,0.2,0.3
			C250.9,122.2,251,122.1,251.1,122z"/>
		<path class="st1" d="M590.4,83.7c-0.9,1.5-1.6,2.8-2.4,4.1c-0.6,0.9-1.2,1.8-1.9,2.7c-1,1.4-2.2,2.7-2.9,4.2
			c-2.3,4.7-5.3,5.5-9.1,2.4c-5.3-4.3-10.8-8.2-17.5-10.1c-4.2-1.2-8.2-2.9-12.4-4c-2.1-0.5-4.3-0.4-6.5-0.4c-2.6,0-5.2,0.3-7.8,0.3
			c-3,0-6.1-1.2-9,1.1c-1.6,1.3-4,2.2-6,2.3c-2.2,0.1-3.6,1.4-5.1,2.4c-1.4,0.8-2.3,2.4-4.3,2.1c-0.4-0.1-1,0.5-1.3,0.9
			c-3.7,5-9.1,8.7-11.4,14.8c-1,2.7-1.7,5.6-2.3,8.5c-0.5,2.1-0.3,4.5-1,6.5c-0.6,1.6-0.2,2.9,0.2,4.3c1.4,4.7,2.7,9.4,4.2,14
			c0.5,1.4,1.5,2.6,2.3,3.8c0.2,0.3,0.8,0.6,1,0.5c2.9-1.8,3.2,1.3,4,2.5c1,1.3,1.9,2.2,3.3,3.1c2.3,1.4,5.2,1.5,7,4
			c0.6,0.8,2.9,0.2,3.8,0.9c3.7,3,8.3,3.3,12.5,3.4c3.3,0.1,6.8,0.9,10,0.3c4.4-0.9,8.7-1,13.1-0.2c0.4,0.1,1-0.5,1.5-0.7
			c2-0.8,3.9-1.6,5.9-2.4c2.1-0.9,4.1-2.1,6.3-2.6c3.6-0.8,6.7-2.6,10-4.1c2.5-1.1,4.8-2.5,7.4-3.4c3.3-1.3,3.6-1.1,5.1,2
			c2,4.4,3.9,8.9,5.9,13.4c0.8,1.8,0.2,3.4-1.4,4.3c-3.2,1.9-6.5,3.9-9.9,5.4c-5.7,2.6-11.8,4.2-18,5.1c-1.5,0.2-3.1-0.8-5.2-1.3
			c-0.4,0.7-0.5,3.2-3.2,1.7c-0.7-0.4-2.5,1.2-3.9,1.8c-1.1,0.5-2.3,1.1-3.4,1.1c-2.8,0-5.4,0.3-8.1,1.1c-1.3,0.4-2.8-0.1-4.3-0.3
			c-3.6-0.3-7.2-0.4-10.7-0.9c-3.1-0.4-6.1-1.6-9.2-1.8c-2.3-0.2-4.4,0.1-6.5-1.3c-1.5-1.1-3.3-1.8-5-2.6c-2.3-1.1-4.7-1.9-7-3
			c-6.3-3-11.5-7.5-16.4-12.3c-2.3-2.2-4.3-4.9-4.6-8.4c0-0.5-0.4-1-0.7-1.3c-4.3-4.3-5.6-9.9-6.5-15.5c-0.6-4.2-0.8-8.6-1-12.8
			c-0.3-5.5,1.1-10.8,2.8-16.1c0.5-1.7,1-3.4,1.7-5c2-4.5,4.4-8.6,8.2-11.9c1.6-1.4,2.5-3.6,3.9-5.2c5.6-6.6,13.1-10.5,20.8-14.1
			c4.3-2,8.9-3.4,13.5-4.6c2.6-0.7,5.8,0.2,8.3-0.8c3.2-1.2,6.3-1.3,9.4-0.9c6.4,0.7,12.8,0.7,19.2,2.2c8.4,2,16,5.2,23.3,9.5
			C584.3,75.4,587.3,78.9,590.4,83.7z M536.2,172.1c-0.1-0.1-0.2-0.2-0.3-0.3c-0.1,0.1-0.2,0.2-0.3,0.3c0.1,0.1,0.2,0.3,0.3,0.3
			C536,172.4,536.1,172.2,536.2,172.1z"/>
		<path class="st1" d="M273.3,375.8c7.5-0.3,13.9,1.8,20.3,4.4c12.6,5.2,22.4,13.7,30,24.8c0.8,1.1,1.4,2.3,1.8,3.6
			c0.8,2.5,0.2,3.2-2,5c-2.8,2.4-6.2,3.3-9.3,5c-1.9,1-3.2,0-4.2-1.2c-1.2-1.5-2.4-3-3.3-4.7c-3.5-6.8-8.9-11.8-15.3-15.7
			c-5-3.1-10.8-5-16.6-5.2c-5.8-0.2-12,0.9-16.5,4.9c-5.1,4.6-9.4,10-9.4,17.5c0,1.2-0.5,2.4-0.5,3.6c-0.1,1.1,0.1,2.1,0.2,3.2
			c0.1,1.5,1.8,2.9,0.5,4.6c-0.2,0.2,0.3,1,0.6,1.4c3.7,5.6,8.1,10.2,14.1,13.5c3.9,2.2,7.5,5.1,12,5.9c3.1,0.5,6.2,1,9.4,1.2
			c2.5,0.2,6.5-2.7,7.2-4.8c0.8-2.3-0.1-4.7-2.3-6c-2.2-1.3-4.5-2.6-6.8-3.8c-3.1-1.7-4.2-4.7-2.9-8c0.6-1.5,1.6-2.9,2.5-4.2
			c1.8-2.7,3.6-3.3,6.5-1.7c2.5,1.4,4.8,3.1,7.2,4.7c3.4,2.2,6.9,4.2,10.4,6.3c1.3,0.8,2.7,1.3,3.9,2.2c2.7,1.8,3.4,4.3,1.8,7.3
			c-1.5,2.9-3.4,5.6-5,8.4c-2,3.5-3.9,7.1-6,10.6c-1.4,2.3-2.6,5-5.6,5.7c-2.4,0.5-4.9,0.9-7.3,0.9c-2.6,0-5.2-0.4-7.8-0.8
			c-7.7-1.2-15.1-3.7-21.9-7.5c-6.3-3.5-11.5-8.2-16.2-13.8c-4.5-5.4-6.3-11.6-8.1-18.1c-1-3.6-1.9-7.3-1.4-10.9
			c0.5-4.1,0.6-8.3,2.6-12.3c2.6-5.5,6.2-10.2,10-14.8c2.6-3.1,6.1-5.1,9.6-6.8C261.1,377.3,267.2,375.3,273.3,375.8z"/>
		<path class="st1" d="M165.9,222.6c6.7,0.2,13.5,0.5,20.2,0.6c5.9,0.1,11.8,0.1,17.7,0.1c2.2,0,4.4-0.6,6.6-0.5
			c4,0.1,8,0.4,11.9,0.8c2.7,0.3,4.4,2.1,4.5,5.4c0.1,3.6-0.4,7.1-0.5,10.7c0,0.8,0.3,1.6,0.3,2.3c-0.1,2.1-0.2,4.1-0.3,6.2
			c-0.1,1-0.4,2-0.1,2.9c1.5,5.5,1,11.1,0.7,16.5c-0.4,7.1-2.2,13.9-6,20.2c-1.9,3.2-3.9,6.2-6.9,8.1c-3.7,2.4-6.6,6.2-11.2,7.2
			c-0.9,0.2-1.9,0.4-2.8,0.5c-4.1,0.5-8.1,1.1-12.2,1.6c-0.7,0.1-1.4,0.1-2.1,0.1c-6.8-0.8-13.4-2.1-19.5-5.7
			c-5.7-3.4-10.6-7.4-13.4-13.6c-1.4-3.1-2.9-6.2-3.6-9.5c-1-5.1-1.7-10.4-1.7-15.5c0.1-4.8-0.7-9.7,0.5-14.6
			c0.8-3.3-0.1-7-0.2-10.5c-0.1-2.9-0.5-5.8-0.3-8.7c0.2-3,2.2-4.6,5.2-4.6c4.3,0,8.6,0,13,0C165.9,222.7,165.9,222.6,165.9,222.6z
			 M177.4,238.5C177.4,238.5,177.4,238.6,177.4,238.5c-3.1,0.1-6.1,0-9.2,0.1c-2.5,0.1-3.4,0.8-3.9,3.3c-0.3,1.5-0.4,3-0.2,4.7
			c0.4,2.8-0.6,5.7-0.6,8.6c0.1,5.6,0.2,11.1,0.9,16.7c0.9,7.5,5.1,12.8,12.2,15.5c4.1,1.6,8.4,2.5,12.9,2.3c1.3-0.1,2.8,0.6,4,0.2
			c2.3-0.7,4.5-1.8,6.5-3.1c6.3-4.1,10.6-9.4,10.4-17.5c-0.2-7.8,0.2-15.7,0.8-23.5c0.4-5.3-1.5-7.2-6.9-7.2
			C195.3,238.6,186.3,238.5,177.4,238.5z"/>
		<path class="st1" d="M565.2,358.4c-3.1-0.4-6.4-0.5-9.3-1.5c-2.4-0.8-3.9,0.3-5.1,1.6c-2.9,3.4-5.8,7-8.3,10.7
			c-3.3,5-6.2,10.2-9.4,15.3c-1.2,1.8-2.5,3.6-3.8,5.4c-1.7,2.5-1.9,5.1-0.5,7.8c1.8,3.5,3.7,7,5.2,10.6c0.5,1.2,0.8,3,0.2,3.9
			c-1.9,3.2-3.9,6.3-6.4,9c-1.8,2-3,1.9-4.7-0.5c-2.5-3.5-4.8-7.2-7-10.9c-3.6-5.8-7.1-11.6-10.5-17.5c-2.6-4.6-4.8-9.4-7.5-14
			c-4-7-8.3-13.8-12.3-20.8c-1.4-2.4-2.5-5.1-3.5-7.7c-0.2-0.5,0.1-1.6,0.5-2.1c4-4.1,6.5-9.2,9.9-13.7c0.8-1.1,1.8-1.6,3.4-1.3
			c4.7,0.7,9.4,0.9,14.1,1.3c1.9,0.2,3.8,0.6,5.7,0.8c8,1.1,16,2.3,24,3.3c5.6,0.7,11.2,1.1,16.8,1.8c6,0.7,11.9,1.6,17.9,2.6
			c3.5,0.6,4.3,2.7,2.6,5.7c-1.4,2.3-3,4.6-4.6,6.8C570.8,357.3,568.5,359,565.2,358.4z M531.3,357.8c0.1-3.2-2-5.2-5.2-5.4
			c-1.7-0.1-3.4,0.1-5-0.1c-5-0.7-10-1.7-15-2.4c-2.6-0.4-3.6,0.8-3.3,3.4c0.1,0.9,0.5,1.9,0.9,2.7c2.4,4.3,4.9,8.5,7.4,12.8
			c1.2,2,2.3,4,3.7,5.9c1,1.4,3.8,1.7,4.7,0.4c2.5-3.4,4.9-6.9,7.3-10.4c1.2-1.7,2.3-3.4,3.4-5.1C530.8,358.8,531.2,358,531.3,357.8
			z"/>
		<path class="st1" d="M465.3,387.7c0,4.1-0.3,4.3-3.3,5.6c-4.5,1.9-8.8,4.2-13.3,6c-2.3,0.9-4.7,1.3-6,3.9
			c-0.7,1.5-0.9,2.6-0.1,4.2c2.3,4.6,4.4,9.3,6.6,13.9c0.9,1.8,1.8,3.6,2.6,5.5c2.6,5.8,5.2,11.6,7.9,17.4c1.7,3.6,3.6,7,5.3,10.6
			c1.8,3.8,1.2,5.8-2.4,7.8c-1.8,1-3.7,1.9-5.5,2.7c-3.1,1.4-5.4,0.7-6.8-2.3c-2.7-6-5.1-12-7.8-18c-1.5-3.4-3.1-6.7-4.6-10
			c-0.7-1.6-1.4-3.2-2.1-4.8c-2.6-5.8-5.1-11.7-7.8-17.5c-0.4-0.9-1.4-1.6-2.1-2.3c-0.3-0.2-0.8-0.5-1.1-0.4c-2,0.7-4,1.5-6,2.3
			c-0.9,0.3-1.7,0.7-2.6,0.9c-1.9,0.5-4.3-0.5-5.4,2c-3.3-0.9-5,2.1-7.3,3.3c-1.8,1-3.4,0.3-4-0.7c-1.1-1.8-3.1-3.6-2.2-6.2
			c0.2-0.6,0.1-1.4,0-2.1c-0.6-3-0.3-4,2.2-4.4c3-0.5,5.1-2.4,7.6-3.7c2.7-1.4,5.3-2.8,8.4-3.1c1.5-0.2,3.9,0.7,3.9-2.3
			c2.4-1.2,4.7-2.7,7.3-3.5c1.3-0.4,2.5-0.6,3.6-1.6c1.1-1,2.4-1.8,3.8-2.2c5-1.4,9.5-3.9,14.2-5.8c0.4-0.2,0.9-0.5,1.1-0.4
			c2.7,1.8,4.1-0.7,5.6-1.9c2.4-2,4.2-2.1,6.5,0.1C463.9,382.8,464.6,385.7,465.3,387.7z"/>
		<path class="st1" d="M513.3,284.5c-0.9-3.5-2-6.7-1.2-10.3c0.8-3.5,1.3-4.3,4.9-4.6c1.8-0.2,3.6,0.1,5.4-0.1
			c2.5-0.2,4.9-0.5,7.4-0.8c2.3-0.3,4.4,0.4,6.8,0.1c6.9-0.7,13.8-0.7,20.7-1c4-0.2,8-0.5,12-0.9c2.4-0.2,3.9-1.6,3.9-3.9
			c0-5.1-0.3-10.2-0.4-15.4c0-1.4-0.1-2.8,0.1-4.2c0.4-2.5,0-4.8-0.3-7.3c-0.4-3.9,0.2-8,0.7-12c0.2-1.8,2.4-2.7,4.3-2.3
			c1.3,0.2,2.6,0.3,3.9,0.4c2,0.1,3.2,1.2,4.1,2.8c1.8,3.2,2.4,6.7,2.5,10.2c0.3,6.6,0.5,13.3,0.9,19.9c0.2,4.6,0.5,9.1,0.8,13.7
			c0.1,1.5,0.7,3,0.6,4.5c-0.1,2.4-0.3,4.9-0.9,7.3c-0.2,0.9-1.8,2.2-2.7,2.1c-3.7-0.3-7.3,2.4-10.9,0.2c-7.1,0.5-14.3,1-21.4,1.5
			c-1,0.1-1.9,0.1-2.9,0.1c-8,0-16-0.2-23.9,0.1C522.9,284.8,518.2,284.4,513.3,284.5z"/>
		<path class="st1" d="M365.6,483.5c-8,0-9.5-1-8.8-9.1c0.9-10.7,0.4-21.3,0.7-32c0.1-3.2,0.6-6.3,0.7-9.5c0-1.6-0.9-3.3-0.7-4.8
			c1.1-6.7,0.6-13.5,0.8-20.3c0.1-2.6,1.2-3.7,3.8-3.8c2.1-0.1,4.2-0.2,6.3,0c3.8,0.3,5.9,2.9,5.5,6.4c-0.5,5-1.3,9.9,0.2,14.9
			c0.2,0.6,0.1,1.4,0,2.1c-0.5,4.3,0.1,8.7,0,13c-0.1,4.3,0.1,8.6-0.1,12.9c-0.1,3.9-0.6,7.8-0.7,11.6c-0.1,2,0.3,4.1,0.4,6.1
			c0.1,0.8,0.3,1.6,0.2,2.4c-0.2,1.8-0.6,3.5-0.7,5.3c-0.2,3.3-1.1,4.4-4.4,4.6C367.8,483.6,366.7,483.5,365.6,483.5z"/>
		<path class="st1" d="M231,347.6c-1.1,1.4-1.8,2.7-2.8,3.6c-1.6,1.4-3.4,2.8-5.3,3.8c-1.5,0.8-3.4,0.9-4.9,1.7
			c-1.6,0.8-2.9,2.2-4.5,3.1c-4.4,2.6-9,5-13.4,7.6c-2.6,1.5-5,3.3-7.6,4.7c-2.5,1.3-5,2.5-7.2,4.4c-2.4,1.9-5.3,1-6.4-1.7
			c-1-2.3-2-4.5-2.8-6.8c-0.9-2.5-0.5-4,1.6-5.1c3.4-1.7,6.9-3.2,10.3-4.8c0.8-0.4,1.9-0.7,2.7-0.5c0.9,0.2,0.9-0.1,1.3-0.7
			c0.8-1.1,2-2.7,3.2-2.8c3.9-0.3,5.4-4.7,9.3-4.8c1-2.4,3.3-3,5.2-4.4c5.7-4.2,12-7.4,18.1-10.9c2.6-1.5,5.7-1.9,8.1-4
			c1.1-0.9,3.2-1,4.7-0.7c1.1,0.2,2.2,1.4,3.1,2.4c1.3,1.4,2.6,2.8,3.6,4.5c0.5,0.9,0.8,2.7,0.2,3.3c-1.5,1.6-3.4,3-5.3,4.2
			c-2.1,1.4-4.7,2.2-6.6,3.9C233.7,349.3,232.4,349.1,231,347.6z"/>
	</g>
</g>
</svg>
